<?xml version="1.0" encoding="utf-8" standalone="no"?>
<!DOCTYPE svg PUBLIC "-//W3C//DTD SVG 1.1//EN"
  "http://www.w3.org/Graphics/SVG/1.1/DTD/svg11.dtd">
<svg xmlns:xlink="http://www.w3.org/1999/xlink" width="460.8pt" height="345.6pt" viewBox="0 0 460.8 345.6" xmlns="http://www.w3.org/2000/svg" version="1.1">
 <metadata>
  <rdf:RDF xmlns:dc="http://purl.org/dc/elements/1.1/" xmlns:cc="http://creativecommons.org/ns#" xmlns:rdf="http://www.w3.org/1999/02/22-rdf-syntax-ns#">
   <cc:Work>
    <dc:type rdf:resource="http://purl.org/dc/dcmitype/StillImage"/>
    <dc:date>2023-09-08T15:27:12.774271</dc:date>
    <dc:format>image/svg+xml</dc:format>
    <dc:creator>
     <cc:Agent>
      <dc:title>Matplotlib v3.7.2, https://matplotlib.org/</dc:title>
     </cc:Agent>
    </dc:creator>
   </cc:Work>
  </rdf:RDF>
 </metadata>
 <defs>
  <style type="text/css">*{stroke-linejoin: round; stroke-linecap: butt}</style>
 </defs>
 <g id="figure_1">
  <g id="patch_1">
   <path d="M 0 345.6 
L 460.8 345.6 
L 460.8 0 
L 0 0 
z
" style="fill: #ffffff"/>
  </g>
  <g id="axes_1">
   <g id="patch_2">
    <path d="M 57.6 307.584 
L 414.72 307.584 
L 414.72 41.472 
L 57.6 41.472 
z
" style="fill: #ffffff"/>
   </g>
   <g id="matplotlib.axis_1">
    <g id="xtick_1">
     <g id="line2d_1">
      <defs>
       <path id="m1a51933583" d="M 0 0 
L 0 3.5 
" style="stroke: #000000; stroke-width: 0.8"/>
      </defs>
      <g>
       <use xlink:href="#m1a51933583" x="73.832727" y="307.584" style="stroke: #000000; stroke-width: 0.8"/>
      </g>
     </g>
     <g id="text_1">
      <!-- 0 -->
      <g transform="translate(70.651477 322.182437) scale(0.1 -0.1)">
       <defs>
        <path id="DejaVuSans-30" d="M 2034 4250 
Q 1547 4250 1301 3770 
Q 1056 3291 1056 2328 
Q 1056 1369 1301 889 
Q 1547 409 2034 409 
Q 2525 409 2770 889 
Q 3016 1369 3016 2328 
Q 3016 3291 2770 3770 
Q 2525 4250 2034 4250 
z
M 2034 4750 
Q 2819 4750 3233 4129 
Q 3647 3509 3647 2328 
Q 3647 1150 3233 529 
Q 2819 -91 2034 -91 
Q 1250 -91 836 529 
Q 422 1150 422 2328 
Q 422 3509 836 4129 
Q 1250 4750 2034 4750 
z
" transform="scale(0.015625)"/>
       </defs>
       <use xlink:href="#DejaVuSans-30"/>
      </g>
     </g>
    </g>
    <g id="xtick_2">
     <g id="line2d_2">
      <g>
       <use xlink:href="#m1a51933583" x="138.77641" y="307.584" style="stroke: #000000; stroke-width: 0.8"/>
      </g>
     </g>
     <g id="text_2">
      <!-- 1 -->
      <g transform="translate(135.59516 322.182437) scale(0.1 -0.1)">
       <defs>
        <path id="DejaVuSans-31" d="M 794 531 
L 1825 531 
L 1825 4091 
L 703 3866 
L 703 4441 
L 1819 4666 
L 2450 4666 
L 2450 531 
L 3481 531 
L 3481 0 
L 794 0 
L 794 531 
z
" transform="scale(0.015625)"/>
       </defs>
       <use xlink:href="#DejaVuSans-31"/>
      </g>
     </g>
    </g>
    <g id="xtick_3">
     <g id="line2d_3">
      <g>
       <use xlink:href="#m1a51933583" x="203.720094" y="307.584" style="stroke: #000000; stroke-width: 0.8"/>
      </g>
     </g>
     <g id="text_3">
      <!-- 2 -->
      <g transform="translate(200.538844 322.182437) scale(0.1 -0.1)">
       <defs>
        <path id="DejaVuSans-32" d="M 1228 531 
L 3431 531 
L 3431 0 
L 469 0 
L 469 531 
Q 828 903 1448 1529 
Q 2069 2156 2228 2338 
Q 2531 2678 2651 2914 
Q 2772 3150 2772 3378 
Q 2772 3750 2511 3984 
Q 2250 4219 1831 4219 
Q 1534 4219 1204 4116 
Q 875 4013 500 3803 
L 500 4441 
Q 881 4594 1212 4672 
Q 1544 4750 1819 4750 
Q 2544 4750 2975 4387 
Q 3406 4025 3406 3419 
Q 3406 3131 3298 2873 
Q 3191 2616 2906 2266 
Q 2828 2175 2409 1742 
Q 1991 1309 1228 531 
z
" transform="scale(0.015625)"/>
       </defs>
       <use xlink:href="#DejaVuSans-32"/>
      </g>
     </g>
    </g>
    <g id="xtick_4">
     <g id="line2d_4">
      <g>
       <use xlink:href="#m1a51933583" x="268.663777" y="307.584" style="stroke: #000000; stroke-width: 0.8"/>
      </g>
     </g>
     <g id="text_4">
      <!-- 3 -->
      <g transform="translate(265.482527 322.182437) scale(0.1 -0.1)">
       <defs>
        <path id="DejaVuSans-33" d="M 2597 2516 
Q 3050 2419 3304 2112 
Q 3559 1806 3559 1356 
Q 3559 666 3084 287 
Q 2609 -91 1734 -91 
Q 1441 -91 1130 -33 
Q 819 25 488 141 
L 488 750 
Q 750 597 1062 519 
Q 1375 441 1716 441 
Q 2309 441 2620 675 
Q 2931 909 2931 1356 
Q 2931 1769 2642 2001 
Q 2353 2234 1838 2234 
L 1294 2234 
L 1294 2753 
L 1863 2753 
Q 2328 2753 2575 2939 
Q 2822 3125 2822 3475 
Q 2822 3834 2567 4026 
Q 2313 4219 1838 4219 
Q 1578 4219 1281 4162 
Q 984 4106 628 3988 
L 628 4550 
Q 988 4650 1302 4700 
Q 1616 4750 1894 4750 
Q 2613 4750 3031 4423 
Q 3450 4097 3450 3541 
Q 3450 3153 3228 2886 
Q 3006 2619 2597 2516 
z
" transform="scale(0.015625)"/>
       </defs>
       <use xlink:href="#DejaVuSans-33"/>
      </g>
     </g>
    </g>
    <g id="xtick_5">
     <g id="line2d_5">
      <g>
       <use xlink:href="#m1a51933583" x="333.60746" y="307.584" style="stroke: #000000; stroke-width: 0.8"/>
      </g>
     </g>
     <g id="text_5">
      <!-- 4 -->
      <g transform="translate(330.42621 322.182437) scale(0.1 -0.1)">
       <defs>
        <path id="DejaVuSans-34" d="M 2419 4116 
L 825 1625 
L 2419 1625 
L 2419 4116 
z
M 2253 4666 
L 3047 4666 
L 3047 1625 
L 3713 1625 
L 3713 1100 
L 3047 1100 
L 3047 0 
L 2419 0 
L 2419 1100 
L 313 1100 
L 313 1709 
L 2253 4666 
z
" transform="scale(0.015625)"/>
       </defs>
       <use xlink:href="#DejaVuSans-34"/>
      </g>
     </g>
    </g>
    <g id="xtick_6">
     <g id="line2d_6">
      <g>
       <use xlink:href="#m1a51933583" x="398.551143" y="307.584" style="stroke: #000000; stroke-width: 0.8"/>
      </g>
     </g>
     <g id="text_6">
      <!-- 5 -->
      <g transform="translate(395.369893 322.182437) scale(0.1 -0.1)">
       <defs>
        <path id="DejaVuSans-35" d="M 691 4666 
L 3169 4666 
L 3169 4134 
L 1269 4134 
L 1269 2991 
Q 1406 3038 1543 3061 
Q 1681 3084 1819 3084 
Q 2600 3084 3056 2656 
Q 3513 2228 3513 1497 
Q 3513 744 3044 326 
Q 2575 -91 1722 -91 
Q 1428 -91 1123 -41 
Q 819 9 494 109 
L 494 744 
Q 775 591 1075 516 
Q 1375 441 1709 441 
Q 2250 441 2565 725 
Q 2881 1009 2881 1497 
Q 2881 1984 2565 2268 
Q 2250 2553 1709 2553 
Q 1456 2553 1204 2497 
Q 953 2441 691 2322 
L 691 4666 
z
" transform="scale(0.015625)"/>
       </defs>
       <use xlink:href="#DejaVuSans-35"/>
      </g>
     </g>
    </g>
    <g id="text_7">
     <!-- Seconds after first seen interacting -->
     <g transform="translate(148.11625 335.860562) scale(0.1 -0.1)">
      <defs>
       <path id="DejaVuSans-53" d="M 3425 4513 
L 3425 3897 
Q 3066 4069 2747 4153 
Q 2428 4238 2131 4238 
Q 1616 4238 1336 4038 
Q 1056 3838 1056 3469 
Q 1056 3159 1242 3001 
Q 1428 2844 1947 2747 
L 2328 2669 
Q 3034 2534 3370 2195 
Q 3706 1856 3706 1288 
Q 3706 609 3251 259 
Q 2797 -91 1919 -91 
Q 1588 -91 1214 -16 
Q 841 59 441 206 
L 441 856 
Q 825 641 1194 531 
Q 1563 422 1919 422 
Q 2459 422 2753 634 
Q 3047 847 3047 1241 
Q 3047 1584 2836 1778 
Q 2625 1972 2144 2069 
L 1759 2144 
Q 1053 2284 737 2584 
Q 422 2884 422 3419 
Q 422 4038 858 4394 
Q 1294 4750 2059 4750 
Q 2388 4750 2728 4690 
Q 3069 4631 3425 4513 
z
" transform="scale(0.015625)"/>
       <path id="DejaVuSans-65" d="M 3597 1894 
L 3597 1613 
L 953 1613 
Q 991 1019 1311 708 
Q 1631 397 2203 397 
Q 2534 397 2845 478 
Q 3156 559 3463 722 
L 3463 178 
Q 3153 47 2828 -22 
Q 2503 -91 2169 -91 
Q 1331 -91 842 396 
Q 353 884 353 1716 
Q 353 2575 817 3079 
Q 1281 3584 2069 3584 
Q 2775 3584 3186 3129 
Q 3597 2675 3597 1894 
z
M 3022 2063 
Q 3016 2534 2758 2815 
Q 2500 3097 2075 3097 
Q 1594 3097 1305 2825 
Q 1016 2553 972 2059 
L 3022 2063 
z
" transform="scale(0.015625)"/>
       <path id="DejaVuSans-63" d="M 3122 3366 
L 3122 2828 
Q 2878 2963 2633 3030 
Q 2388 3097 2138 3097 
Q 1578 3097 1268 2742 
Q 959 2388 959 1747 
Q 959 1106 1268 751 
Q 1578 397 2138 397 
Q 2388 397 2633 464 
Q 2878 531 3122 666 
L 3122 134 
Q 2881 22 2623 -34 
Q 2366 -91 2075 -91 
Q 1284 -91 818 406 
Q 353 903 353 1747 
Q 353 2603 823 3093 
Q 1294 3584 2113 3584 
Q 2378 3584 2631 3529 
Q 2884 3475 3122 3366 
z
" transform="scale(0.015625)"/>
       <path id="DejaVuSans-6f" d="M 1959 3097 
Q 1497 3097 1228 2736 
Q 959 2375 959 1747 
Q 959 1119 1226 758 
Q 1494 397 1959 397 
Q 2419 397 2687 759 
Q 2956 1122 2956 1747 
Q 2956 2369 2687 2733 
Q 2419 3097 1959 3097 
z
M 1959 3584 
Q 2709 3584 3137 3096 
Q 3566 2609 3566 1747 
Q 3566 888 3137 398 
Q 2709 -91 1959 -91 
Q 1206 -91 779 398 
Q 353 888 353 1747 
Q 353 2609 779 3096 
Q 1206 3584 1959 3584 
z
" transform="scale(0.015625)"/>
       <path id="DejaVuSans-6e" d="M 3513 2113 
L 3513 0 
L 2938 0 
L 2938 2094 
Q 2938 2591 2744 2837 
Q 2550 3084 2163 3084 
Q 1697 3084 1428 2787 
Q 1159 2491 1159 1978 
L 1159 0 
L 581 0 
L 581 3500 
L 1159 3500 
L 1159 2956 
Q 1366 3272 1645 3428 
Q 1925 3584 2291 3584 
Q 2894 3584 3203 3211 
Q 3513 2838 3513 2113 
z
" transform="scale(0.015625)"/>
       <path id="DejaVuSans-64" d="M 2906 2969 
L 2906 4863 
L 3481 4863 
L 3481 0 
L 2906 0 
L 2906 525 
Q 2725 213 2448 61 
Q 2172 -91 1784 -91 
Q 1150 -91 751 415 
Q 353 922 353 1747 
Q 353 2572 751 3078 
Q 1150 3584 1784 3584 
Q 2172 3584 2448 3432 
Q 2725 3281 2906 2969 
z
M 947 1747 
Q 947 1113 1208 752 
Q 1469 391 1925 391 
Q 2381 391 2643 752 
Q 2906 1113 2906 1747 
Q 2906 2381 2643 2742 
Q 2381 3103 1925 3103 
Q 1469 3103 1208 2742 
Q 947 2381 947 1747 
z
" transform="scale(0.015625)"/>
       <path id="DejaVuSans-73" d="M 2834 3397 
L 2834 2853 
Q 2591 2978 2328 3040 
Q 2066 3103 1784 3103 
Q 1356 3103 1142 2972 
Q 928 2841 928 2578 
Q 928 2378 1081 2264 
Q 1234 2150 1697 2047 
L 1894 2003 
Q 2506 1872 2764 1633 
Q 3022 1394 3022 966 
Q 3022 478 2636 193 
Q 2250 -91 1575 -91 
Q 1294 -91 989 -36 
Q 684 19 347 128 
L 347 722 
Q 666 556 975 473 
Q 1284 391 1588 391 
Q 1994 391 2212 530 
Q 2431 669 2431 922 
Q 2431 1156 2273 1281 
Q 2116 1406 1581 1522 
L 1381 1569 
Q 847 1681 609 1914 
Q 372 2147 372 2553 
Q 372 3047 722 3315 
Q 1072 3584 1716 3584 
Q 2034 3584 2315 3537 
Q 2597 3491 2834 3397 
z
" transform="scale(0.015625)"/>
       <path id="DejaVuSans-20" transform="scale(0.015625)"/>
       <path id="DejaVuSans-61" d="M 2194 1759 
Q 1497 1759 1228 1600 
Q 959 1441 959 1056 
Q 959 750 1161 570 
Q 1363 391 1709 391 
Q 2188 391 2477 730 
Q 2766 1069 2766 1631 
L 2766 1759 
L 2194 1759 
z
M 3341 1997 
L 3341 0 
L 2766 0 
L 2766 531 
Q 2569 213 2275 61 
Q 1981 -91 1556 -91 
Q 1019 -91 701 211 
Q 384 513 384 1019 
Q 384 1609 779 1909 
Q 1175 2209 1959 2209 
L 2766 2209 
L 2766 2266 
Q 2766 2663 2505 2880 
Q 2244 3097 1772 3097 
Q 1472 3097 1187 3025 
Q 903 2953 641 2809 
L 641 3341 
Q 956 3463 1253 3523 
Q 1550 3584 1831 3584 
Q 2591 3584 2966 3190 
Q 3341 2797 3341 1997 
z
" transform="scale(0.015625)"/>
       <path id="DejaVuSans-66" d="M 2375 4863 
L 2375 4384 
L 1825 4384 
Q 1516 4384 1395 4259 
Q 1275 4134 1275 3809 
L 1275 3500 
L 2222 3500 
L 2222 3053 
L 1275 3053 
L 1275 0 
L 697 0 
L 697 3053 
L 147 3053 
L 147 3500 
L 697 3500 
L 697 3744 
Q 697 4328 969 4595 
Q 1241 4863 1831 4863 
L 2375 4863 
z
" transform="scale(0.015625)"/>
       <path id="DejaVuSans-74" d="M 1172 4494 
L 1172 3500 
L 2356 3500 
L 2356 3053 
L 1172 3053 
L 1172 1153 
Q 1172 725 1289 603 
Q 1406 481 1766 481 
L 2356 481 
L 2356 0 
L 1766 0 
Q 1100 0 847 248 
Q 594 497 594 1153 
L 594 3053 
L 172 3053 
L 172 3500 
L 594 3500 
L 594 4494 
L 1172 4494 
z
" transform="scale(0.015625)"/>
       <path id="DejaVuSans-72" d="M 2631 2963 
Q 2534 3019 2420 3045 
Q 2306 3072 2169 3072 
Q 1681 3072 1420 2755 
Q 1159 2438 1159 1844 
L 1159 0 
L 581 0 
L 581 3500 
L 1159 3500 
L 1159 2956 
Q 1341 3275 1631 3429 
Q 1922 3584 2338 3584 
Q 2397 3584 2469 3576 
Q 2541 3569 2628 3553 
L 2631 2963 
z
" transform="scale(0.015625)"/>
       <path id="DejaVuSans-69" d="M 603 3500 
L 1178 3500 
L 1178 0 
L 603 0 
L 603 3500 
z
M 603 4863 
L 1178 4863 
L 1178 4134 
L 603 4134 
L 603 4863 
z
" transform="scale(0.015625)"/>
       <path id="DejaVuSans-67" d="M 2906 1791 
Q 2906 2416 2648 2759 
Q 2391 3103 1925 3103 
Q 1463 3103 1205 2759 
Q 947 2416 947 1791 
Q 947 1169 1205 825 
Q 1463 481 1925 481 
Q 2391 481 2648 825 
Q 2906 1169 2906 1791 
z
M 3481 434 
Q 3481 -459 3084 -895 
Q 2688 -1331 1869 -1331 
Q 1566 -1331 1297 -1286 
Q 1028 -1241 775 -1147 
L 775 -588 
Q 1028 -725 1275 -790 
Q 1522 -856 1778 -856 
Q 2344 -856 2625 -561 
Q 2906 -266 2906 331 
L 2906 616 
Q 2728 306 2450 153 
Q 2172 0 1784 0 
Q 1141 0 747 490 
Q 353 981 353 1791 
Q 353 2603 747 3093 
Q 1141 3584 1784 3584 
Q 2172 3584 2450 3431 
Q 2728 3278 2906 2969 
L 2906 3500 
L 3481 3500 
L 3481 434 
z
" transform="scale(0.015625)"/>
      </defs>
      <use xlink:href="#DejaVuSans-53"/>
      <use xlink:href="#DejaVuSans-65" x="63.476562"/>
      <use xlink:href="#DejaVuSans-63" x="125"/>
      <use xlink:href="#DejaVuSans-6f" x="179.980469"/>
      <use xlink:href="#DejaVuSans-6e" x="241.162109"/>
      <use xlink:href="#DejaVuSans-64" x="304.541016"/>
      <use xlink:href="#DejaVuSans-73" x="368.017578"/>
      <use xlink:href="#DejaVuSans-20" x="420.117188"/>
      <use xlink:href="#DejaVuSans-61" x="451.904297"/>
      <use xlink:href="#DejaVuSans-66" x="513.183594"/>
      <use xlink:href="#DejaVuSans-74" x="546.638672"/>
      <use xlink:href="#DejaVuSans-65" x="585.847656"/>
      <use xlink:href="#DejaVuSans-72" x="647.371094"/>
      <use xlink:href="#DejaVuSans-20" x="688.484375"/>
      <use xlink:href="#DejaVuSans-66" x="720.271484"/>
      <use xlink:href="#DejaVuSans-69" x="755.476562"/>
      <use xlink:href="#DejaVuSans-72" x="783.259766"/>
      <use xlink:href="#DejaVuSans-73" x="824.373047"/>
      <use xlink:href="#DejaVuSans-74" x="876.472656"/>
      <use xlink:href="#DejaVuSans-20" x="915.681641"/>
      <use xlink:href="#DejaVuSans-73" x="947.46875"/>
      <use xlink:href="#DejaVuSans-65" x="999.568359"/>
      <use xlink:href="#DejaVuSans-65" x="1061.091797"/>
      <use xlink:href="#DejaVuSans-6e" x="1122.615234"/>
      <use xlink:href="#DejaVuSans-20" x="1185.994141"/>
      <use xlink:href="#DejaVuSans-69" x="1217.78125"/>
      <use xlink:href="#DejaVuSans-6e" x="1245.564453"/>
      <use xlink:href="#DejaVuSans-74" x="1308.943359"/>
      <use xlink:href="#DejaVuSans-65" x="1348.152344"/>
      <use xlink:href="#DejaVuSans-72" x="1409.675781"/>
      <use xlink:href="#DejaVuSans-61" x="1450.789062"/>
      <use xlink:href="#DejaVuSans-63" x="1512.068359"/>
      <use xlink:href="#DejaVuSans-74" x="1567.048828"/>
      <use xlink:href="#DejaVuSans-69" x="1606.257812"/>
      <use xlink:href="#DejaVuSans-6e" x="1634.041016"/>
      <use xlink:href="#DejaVuSans-67" x="1697.419922"/>
     </g>
    </g>
   </g>
   <g id="matplotlib.axis_2">
    <g id="ytick_1">
     <g id="line2d_7">
      <defs>
       <path id="m2fa2a73261" d="M 0 0 
L -3.5 0 
" style="stroke: #000000; stroke-width: 0.8"/>
      </defs>
      <g>
       <use xlink:href="#m2fa2a73261" x="57.6" y="288.508806" style="stroke: #000000; stroke-width: 0.8"/>
      </g>
     </g>
     <g id="text_8">
      <!-- −0.5 -->
      <g transform="translate(26.317187 292.308025) scale(0.1 -0.1)">
       <defs>
        <path id="DejaVuSans-2212" d="M 678 2272 
L 4684 2272 
L 4684 1741 
L 678 1741 
L 678 2272 
z
" transform="scale(0.015625)"/>
        <path id="DejaVuSans-2e" d="M 684 794 
L 1344 794 
L 1344 0 
L 684 0 
L 684 794 
z
" transform="scale(0.015625)"/>
       </defs>
       <use xlink:href="#DejaVuSans-2212"/>
       <use xlink:href="#DejaVuSans-30" x="83.789062"/>
       <use xlink:href="#DejaVuSans-2e" x="147.412109"/>
       <use xlink:href="#DejaVuSans-35" x="179.199219"/>
      </g>
     </g>
    </g>
    <g id="ytick_2">
     <g id="line2d_8">
      <g>
       <use xlink:href="#m2fa2a73261" x="57.6" y="229.707665" style="stroke: #000000; stroke-width: 0.8"/>
      </g>
     </g>
     <g id="text_9">
      <!-- 0.0 -->
      <g transform="translate(34.696875 233.506884) scale(0.1 -0.1)">
       <use xlink:href="#DejaVuSans-30"/>
       <use xlink:href="#DejaVuSans-2e" x="63.623047"/>
       <use xlink:href="#DejaVuSans-30" x="95.410156"/>
      </g>
     </g>
    </g>
    <g id="ytick_3">
     <g id="line2d_9">
      <g>
       <use xlink:href="#m2fa2a73261" x="57.6" y="170.906524" style="stroke: #000000; stroke-width: 0.8"/>
      </g>
     </g>
     <g id="text_10">
      <!-- 0.5 -->
      <g transform="translate(34.696875 174.705743) scale(0.1 -0.1)">
       <use xlink:href="#DejaVuSans-30"/>
       <use xlink:href="#DejaVuSans-2e" x="63.623047"/>
       <use xlink:href="#DejaVuSans-35" x="95.410156"/>
      </g>
     </g>
    </g>
    <g id="ytick_4">
     <g id="line2d_10">
      <g>
       <use xlink:href="#m2fa2a73261" x="57.6" y="112.105383" style="stroke: #000000; stroke-width: 0.8"/>
      </g>
     </g>
     <g id="text_11">
      <!-- 1.0 -->
      <g transform="translate(34.696875 115.904602) scale(0.1 -0.1)">
       <use xlink:href="#DejaVuSans-31"/>
       <use xlink:href="#DejaVuSans-2e" x="63.623047"/>
       <use xlink:href="#DejaVuSans-30" x="95.410156"/>
      </g>
     </g>
    </g>
    <g id="ytick_5">
     <g id="line2d_11">
      <g>
       <use xlink:href="#m2fa2a73261" x="57.6" y="53.304242" style="stroke: #000000; stroke-width: 0.8"/>
      </g>
     </g>
     <g id="text_12">
      <!-- 1.5 -->
      <g transform="translate(34.696875 57.103461) scale(0.1 -0.1)">
       <use xlink:href="#DejaVuSans-31"/>
       <use xlink:href="#DejaVuSans-2e" x="63.623047"/>
       <use xlink:href="#DejaVuSans-35" x="95.410156"/>
      </g>
     </g>
    </g>
    <g id="text_13">
     <!-- Delta F/F -->
     <g transform="translate(20.2375 196.892844) rotate(-90) scale(0.1 -0.1)">
      <defs>
       <path id="DejaVuSans-44" d="M 1259 4147 
L 1259 519 
L 2022 519 
Q 2988 519 3436 956 
Q 3884 1394 3884 2338 
Q 3884 3275 3436 3711 
Q 2988 4147 2022 4147 
L 1259 4147 
z
M 628 4666 
L 1925 4666 
Q 3281 4666 3915 4102 
Q 4550 3538 4550 2338 
Q 4550 1131 3912 565 
Q 3275 0 1925 0 
L 628 0 
L 628 4666 
z
" transform="scale(0.015625)"/>
       <path id="DejaVuSans-6c" d="M 603 4863 
L 1178 4863 
L 1178 0 
L 603 0 
L 603 4863 
z
" transform="scale(0.015625)"/>
       <path id="DejaVuSans-46" d="M 628 4666 
L 3309 4666 
L 3309 4134 
L 1259 4134 
L 1259 2759 
L 3109 2759 
L 3109 2228 
L 1259 2228 
L 1259 0 
L 628 0 
L 628 4666 
z
" transform="scale(0.015625)"/>
       <path id="DejaVuSans-2f" d="M 1625 4666 
L 2156 4666 
L 531 -594 
L 0 -594 
L 1625 4666 
z
" transform="scale(0.015625)"/>
      </defs>
      <use xlink:href="#DejaVuSans-44"/>
      <use xlink:href="#DejaVuSans-65" x="77.001953"/>
      <use xlink:href="#DejaVuSans-6c" x="138.525391"/>
      <use xlink:href="#DejaVuSans-74" x="166.308594"/>
      <use xlink:href="#DejaVuSans-61" x="205.517578"/>
      <use xlink:href="#DejaVuSans-20" x="266.796875"/>
      <use xlink:href="#DejaVuSans-46" x="298.583984"/>
      <use xlink:href="#DejaVuSans-2f" x="356.103516"/>
      <use xlink:href="#DejaVuSans-46" x="389.794922"/>
     </g>
    </g>
   </g>
   <g id="line2d_12">
    <path d="M 73.832727 53.568 
L 74.918528 57.007923 
L 76.0682 61.234732 
L 77.154001 66.138221 
L 80.475276 81.862397 
L 81.177853 83.761715 
L 82.774619 87.087464 
L 83.541067 88.323604 
L 84.499127 89.845332 
L 85.010092 91.312657 
L 85.648799 93.940616 
L 86.862341 99.090148 
L 88.203625 103.796774 
L 88.970073 105.73734 
L 89.417167 106.354286 
L 89.800391 106.553843 
L 90.119745 106.489209 
L 90.439098 106.190992 
L 90.822322 105.486586 
L 91.333287 103.902879 
L 93.56876 96.282949 
L 93.888113 95.888014 
L 94.143596 95.871729 
L 94.399079 96.148667 
L 94.718432 96.871114 
L 95.165526 98.459608 
L 95.804233 101.619134 
L 97.081646 109.412211 
L 97.720353 112.605072 
L 98.359059 114.795188 
L 98.806154 115.684814 
L 99.125507 115.951488 
L 99.44486 115.919896 
L 99.764214 115.626741 
L 100.211308 114.859841 
L 100.913886 113.132031 
L 101.935816 109.980336 
L 102.830005 107.337338 
L 103.468712 106.014143 
L 104.043548 105.362788 
L 104.490642 105.120799 
L 105.065478 105.106198 
L 106.534503 105.397934 
L 107.045468 105.876043 
L 107.684175 106.789793 
L 108.578364 108.106431 
L 108.961588 108.275467 
L 109.280941 108.135397 
L 109.664165 107.641607 
L 110.302872 106.438674 
L 111.835768 103.342447 
L 112.793828 102.041064 
L 115.540266 98.791629 
L 116.434455 97.630969 
L 117.073162 97.048568 
L 117.647997 96.846867 
L 118.095092 96.881403 
L 118.606057 97.17876 
L 120.266694 98.50473 
L 121.544107 99.871338 
L 122.693779 101.036305 
L 123.013133 101.063561 
L 123.460227 100.832413 
L 123.907322 100.374977 
L 124.354416 99.591247 
L 124.993123 97.910723 
L 127.803432 89.71671 
L 128.442138 88.605199 
L 128.953104 88.137737 
L 129.655681 87.781049 
L 129.911163 87.843882 
L 130.230517 88.176008 
L 130.677611 89.031222 
L 131.252447 90.656118 
L 132.018895 93.545423 
L 133.360179 98.591388 
L 134.44598 101.773655 
L 135.276299 103.628169 
L 136.106617 104.955613 
L 138.022737 107.126303 
L 138.980797 108.180982 
L 140.833046 110.494173 
L 141.21627 111.307156 
L 141.663364 112.905763 
L 142.302071 116.157257 
L 144.21819 127.580382 
L 146.453663 139.830227 
L 147.347853 143.720693 
L 148.369783 147.09706 
L 149.519455 150.712531 
L 151.052351 156.086827 
L 152.329764 159.606341 
L 154.373625 164.328783 
L 155.140073 165.449119 
L 155.84265 166.442489 
L 157.056192 168.3334 
L 157.631028 168.742113 
L 158.589088 169.393131 
L 159.994242 170.534215 
L 160.441337 170.516736 
L 161.335526 170.439556 
L 161.846492 170.618197 
L 162.357457 171.033941 
L 162.996163 171.831766 
L 163.63487 173.091174 
L 164.529059 175.405533 
L 165.359378 178.200705 
L 166.509049 183.005557 
L 167.467109 186.529655 
L 168.041945 188.014412 
L 168.616781 188.950067 
L 169.127746 189.422658 
L 170.341289 190.356508 
L 171.618702 192.125841 
L 172.38515 193.499157 
L 173.087727 195.156897 
L 173.726434 197.296458 
L 174.492881 200.699019 
L 175.450941 205.936596 
L 176.536742 213.364826 
L 179.794146 235.928409 
L 180.816076 241.403187 
L 181.710266 245.141362 
L 182.285101 246.625525 
L 182.668325 247.05738 
L 183.051549 247.146986 
L 183.434773 246.978382 
L 184.776057 246.089142 
L 185.414764 246.134077 
L 187.586366 246.664672 
L 188.225073 246.8366 
L 188.608296 246.711816 
L 188.99152 246.308631 
L 189.502486 245.409884 
L 190.013451 244.007375 
L 190.652157 241.554618 
L 192.376665 234.309916 
L 192.759889 233.638782 
L 193.079242 233.443625 
L 193.270854 233.513308 
L 193.526337 233.868874 
L 193.909561 234.913586 
L 194.356656 236.843287 
L 194.995362 240.793538 
L 196.081163 249.296486 
L 197.486318 259.773983 
L 198.955343 269.145145 
L 199.594049 271.91098 
L 200.105015 273.2456 
L 200.424368 273.591253 
L 200.67985 273.562134 
L 200.935333 273.260628 
L 201.318557 272.382532 
L 201.829522 270.55064 
L 202.468229 267.258626 
L 204.831443 252.726545 
L 206.49208 243.368728 
L 207.003045 241.758774 
L 207.386269 241.184169 
L 207.705623 241.053229 
L 208.024976 241.179391 
L 208.4082 241.626855 
L 208.855294 242.525577 
L 209.557872 244.488029 
L 210.38819 247.450366 
L 212.432051 255.33077 
L 212.815275 256.12679 
L 213.134628 256.381434 
L 213.390111 256.282343 
L 213.645594 255.884181 
L 214.028818 254.779277 
L 214.539783 252.482695 
L 215.178489 248.535947 
L 216.328161 239.751765 
L 217.413962 232.006735 
L 218.11654 228.559651 
L 218.563634 227.207153 
L 218.946858 226.675618 
L 219.202341 226.625911 
L 219.457823 226.800613 
L 219.777177 227.336832 
L 220.160401 228.483466 
L 220.735237 230.970917 
L 222.459744 239.177112 
L 222.970709 240.518577 
L 223.417804 241.147771 
L 223.801028 241.326339 
L 224.120381 241.257936 
L 224.567476 240.887607 
L 225.717148 239.699985 
L 226.164242 239.616223 
L 226.739078 239.773789 
L 227.505526 239.899526 
L 228.016491 239.977496 
L 228.399715 240.249389 
L 228.782939 240.864309 
L 229.230034 242.033393 
L 229.80487 244.227954 
L 230.635188 248.456235 
L 232.934532 261.360087 
L 233.76485 264.546906 
L 234.595169 266.944206 
L 235.425487 268.719639 
L 236.511289 270.383235 
L 237.149995 270.999304 
L 238.171926 271.687396 
L 238.61902 271.693655 
L 240.662881 271.157241 
L 241.301588 270.526768 
L 243.026096 268.701326 
L 243.345449 268.764391 
L 243.600931 269.053669 
L 243.984155 269.928478 
L 244.43125 271.59935 
L 245.133827 275.38659 
L 247.049947 286.232478 
L 248.32736 292.238504 
L 249.029937 294.476936 
L 249.477032 295.279313 
L 249.796385 295.484154 
L 250.051868 295.405908 
L 250.30735 295.073394 
L 250.690574 294.167827 
L 251.26541 292.217616 
L 252.095729 288.602661 
L 253.053789 283.284958 
L 254.075719 277.775193 
L 255.033779 273.768573 
L 255.927968 270.993043 
L 257.652476 266.554594 
L 258.418924 265.135801 
L 258.99376 264.571718 
L 260.718267 263.359575 
L 261.484715 262.949479 
L 262.187292 262.356951 
L 262.698258 261.533565 
L 263.336964 259.969632 
L 263.975671 257.765389 
L 264.933731 253.440254 
L 266.466626 245.262935 
L 267.80791 238.056313 
L 268.318875 236.316057 
L 268.76597 235.495047 
L 269.085323 235.277641 
L 269.340806 235.315445 
L 269.660159 235.634975 
L 270.107254 236.494491 
L 270.68209 238.147377 
L 271.320796 240.83188 
L 273.109175 248.761195 
L 273.811752 251.162069 
L 274.514329 252.755171 
L 275.153036 253.704536 
L 275.791742 254.243305 
L 276.111095 254.208356 
L 276.55819 253.863003 
L 277.069155 253.236514 
L 278.793663 250.781137 
L 279.560111 250.191006 
L 280.262688 249.951263 
L 281.284619 249.877139 
L 281.923325 249.859175 
L 282.881385 249.840859 
L 283.32848 250.049065 
L 283.967186 250.605167 
L 285.052987 251.690091 
L 285.500082 251.80461 
L 286.074918 251.686699 
L 286.458142 251.361777 
L 286.905236 250.685567 
L 287.735555 248.8996 
L 290.034899 243.666195 
L 290.609734 242.84908 
L 291.18457 242.355942 
L 291.567794 242.276702 
L 292.461983 242.451857 
L 294.314232 242.754068 
L 296.230352 242.739704 
L 296.741317 242.487852 
L 297.252283 242.003734 
L 297.827119 241.099554 
L 299.487756 238.273641 
L 299.87098 238.145158 
L 300.190333 238.267759 
L 300.509686 238.630849 
L 300.89291 239.406412 
L 301.403875 241.00913 
L 301.978711 243.594394 
L 302.8729 248.837182 
L 305.491597 264.793609 
L 306.002563 266.496593 
L 306.449657 267.288978 
L 306.832881 267.543895 
L 307.152234 267.517531 
L 307.535458 267.240123 
L 308.110294 266.501273 
L 309.132225 264.675999 
L 310.537379 261.818575 
L 313.858653 254.494938 
L 314.305748 253.951847 
L 314.688972 253.79886 
L 315.072196 253.920091 
L 315.391549 254.273365 
L 315.774773 255.040949 
L 316.221868 256.46881 
L 316.796703 259.109968 
L 319.4154 272.824144 
L 319.926366 274.098612 
L 320.245719 274.469935 
L 320.501202 274.501375 
L 320.756684 274.278267 
L 321.076037 273.611542 
L 321.523132 272.063018 
L 322.28958 268.403704 
L 324.014088 259.931877 
L 324.652794 257.863869 
L 325.163759 256.805896 
L 325.483113 256.56106 
L 325.674725 256.655764 
L 325.930207 257.052474 
L 326.313431 258.167126 
L 326.824396 260.478515 
L 327.526974 264.983824 
L 329.443093 277.666898 
L 330.145671 280.573888 
L 330.656636 281.849328 
L 331.03986 282.305569 
L 331.359213 282.346308 
L 331.678566 282.132348 
L 332.125661 281.485116 
L 332.508885 280.468478 
L 332.955979 278.545295 
L 333.786298 273.644658 
L 336.149512 259.102315 
L 336.660478 257.328991 
L 337.107572 256.460291 
L 337.490796 256.112476 
L 337.87402 256.055721 
L 338.129503 256.242185 
L 338.512727 256.859629 
L 338.89595 257.909838 
L 339.470786 260.300307 
L 340.173364 264.297578 
L 341.450777 273.265579 
L 342.664319 281.029291 
L 343.877862 287.252555 
L 344.835922 291.117371 
L 345.410757 292.604057 
L 345.793981 293.053996 
L 346.049464 293.082448 
L 346.368817 292.857683 
L 346.752041 292.229836 
L 347.263006 290.905215 
L 348.029454 288.193527 
L 349.690091 281.285923 
L 350.903634 276.837267 
L 351.925564 273.895295 
L 352.628142 272.470885 
L 353.202977 271.659906 
L 353.777813 271.214605 
L 354.352649 271.050769 
L 354.991356 271.145507 
L 355.821674 271.306547 
L 356.204898 271.188747 
L 356.651993 270.782074 
L 357.162958 269.96547 
L 357.929406 268.266379 
L 361.059068 260.795698 
L 361.570033 260.180922 
L 362.719705 259.423186 
L 363.230671 259.346909 
L 363.741636 259.476395 
L 364.316472 259.887829 
L 364.827437 260.494508 
L 365.849367 262.401816 
L 368.468064 267.505925 
L 369.0429 268.190373 
L 369.426124 268.366256 
L 369.809348 268.331354 
L 370.128701 268.077418 
L 370.575796 267.407468 
L 371.022891 266.295218 
L 371.98095 263.087106 
L 373.002881 259.029187 
L 377.282215 241.157619 
L 377.857051 240.027944 
L 378.240275 239.67153 
L 378.559628 239.675021 
L 378.878981 239.962264 
L 379.198335 240.59397 
L 379.645429 241.999525 
L 380.348006 245.071141 
L 382.519609 255.19643 
L 383.286057 257.647404 
L 383.733151 258.469769 
L 384.116375 258.742421 
L 384.371858 258.688707 
L 384.691211 258.364213 
L 385.074435 257.632259 
L 385.777012 255.655355 
L 387.50152 250.728108 
L 388.076356 249.853501 
L 388.45958 249.63042 
L 388.842804 249.672301 
L 389.226028 249.956065 
L 389.736993 250.685034 
L 390.503441 252.122839 
L 391.206018 253.841893 
L 392.35569 256.775922 
L 392.675043 256.986993 
L 392.930526 256.900405 
L 393.249879 256.496071 
L 393.824715 255.186954 
L 394.718904 252.516222 
L 397.20986 245.158367 
L 397.976307 243.911554 
L 398.487273 243.198643 
L 398.487273 243.198643 
" clip-path="url(#pe43d20a53c)" style="fill: none; stroke: #1f77b4; stroke-width: 1.5; stroke-linecap: square"/>
   </g>
   <g id="line2d_13">
    <path d="M 73.832727 154.250471 
L 74.407563 153.143843 
L 74.982399 152.497208 
L 75.429494 152.269169 
L 75.876588 152.288342 
L 76.451424 152.510774 
L 76.962389 152.980791 
L 77.537225 153.834745 
L 78.175932 155.181309 
L 79.00625 157.503678 
L 79.96431 160.905881 
L 81.944301 168.122689 
L 83.285584 172.06539 
L 84.371386 174.50549 
L 85.521057 176.65089 
L 86.032023 177.231879 
L 86.479117 177.418097 
L 86.862341 177.349489 
L 87.245565 177.005852 
L 87.75653 176.21085 
L 88.459108 174.672773 
L 93.121665 163.134645 
L 93.824243 162.060537 
L 94.399079 161.537933 
L 94.846173 161.411332 
L 95.293268 161.510031 
L 95.868104 161.884398 
L 96.570681 162.654323 
L 97.209387 163.759447 
L 97.911965 165.438969 
L 99.253248 169.525179 
L 102.446781 179.020519 
L 103.468712 181.393071 
L 105.193219 184.710708 
L 105.959667 185.825588 
L 106.726115 186.56848 
L 107.684175 187.148406 
L 109.536424 187.915301 
L 110.302872 187.992047 
L 110.941579 188.071099 
L 111.388673 188.369976 
L 111.963509 189.075246 
L 112.729957 190.4289 
L 115.412524 195.701804 
L 115.859619 196.115507 
L 116.306714 196.227357 
L 116.753808 196.081019 
L 117.200903 195.708028 
L 117.711868 194.952493 
L 118.478316 193.328391 
L 119.947341 190.06285 
L 120.522177 189.365859 
L 121.607978 188.444877 
L 122.693779 187.871532 
L 123.587968 187.657628 
L 124.609899 187.614426 
L 128.953104 187.852309 
L 129.847293 187.956901 
L 130.485999 188.282249 
L 131.060835 188.813889 
L 131.891154 189.915663 
L 132.849214 191.160423 
L 133.615661 191.761978 
L 134.126627 191.869458 
L 134.765333 191.751692 
L 135.340169 191.395652 
L 136.106617 190.601648 
L 136.681453 189.661173 
L 137.32016 188.118111 
L 138.469831 184.558159 
L 141.024658 176.599716 
L 142.110459 174.250594 
L 143.19626 172.410117 
L 144.026578 171.383252 
L 146.262051 168.950429 
L 147.411723 167.607511 
L 149.391714 165.554625 
L 150.158161 164.147987 
L 151.052351 162.035777 
L 152.074281 159.034022 
L 153.415565 154.05084 
L 154.756849 149.347562 
L 155.90652 146.14923 
L 156.80071 144.326977 
L 157.375546 143.560603 
L 157.886511 143.209926 
L 158.525217 143.076215 
L 160.441337 142.728741 
L 161.399397 142.186558 
L 163.570999 140.874223 
L 165.359378 140.263532 
L 166.445179 139.992294 
L 167.339368 140.07832 
L 168.616781 140.169977 
L 169.4471 139.853618 
L 171.171607 139.048863 
L 171.810314 139.053673 
L 172.44902 139.31815 
L 173.279339 139.908385 
L 173.981916 140.707086 
L 178.644474 146.416891 
L 179.794146 147.420247 
L 181.965748 149.031782 
L 182.732196 149.349028 
L 183.690256 149.474065 
L 184.839928 149.565439 
L 186.05347 149.841846 
L 187.650237 150.197746 
L 188.161202 150.506708 
L 189.055391 151.432993 
L 190.205063 152.878184 
L 190.971511 154.211886 
L 191.8657 156.278902 
L 192.82376 158.335396 
L 193.590208 159.484127 
L 195.186974 161.553885 
L 196.528258 163.201048 
L 197.614059 164.042707 
L 198.891472 164.682125 
L 201.063074 165.690269 
L 201.765652 166.055534 
L 202.5321 166.745821 
L 203.234677 167.679403 
L 204.51209 169.86232 
L 205.278538 171.874385 
L 206.747563 175.810597 
L 207.769493 177.805315 
L 208.663683 179.039896 
L 209.685613 180.090349 
L 210.260449 180.498772 
L 210.707544 180.521457 
L 211.218509 180.280495 
L 211.729474 179.74813 
L 212.30431 178.769122 
L 213.070758 176.96408 
L 214.986877 172.129407 
L 215.944937 170.514446 
L 216.455903 170.004338 
L 216.839127 169.962989 
L 217.22235 170.168797 
L 217.733316 170.734424 
L 218.563634 172.060264 
L 221.693296 177.244762 
L 222.459744 178.245115 
L 223.417804 179.196824 
L 224.056511 179.497368 
L 224.822959 179.610959 
L 225.525536 179.800858 
L 226.291984 180.241158 
L 226.86682 180.83598 
L 227.505526 181.871781 
L 229.613258 185.43762 
L 230.251964 186.15374 
L 230.8268 186.534738 
L 231.337765 186.609057 
L 231.78486 186.471259 
L 232.295825 186.027163 
L 232.998403 185.087605 
L 233.70098 183.779833 
L 234.467428 181.780875 
L 235.872582 178.044695 
L 236.447418 177.157149 
L 236.830642 176.843421 
L 237.149995 176.835715 
L 237.533219 177.080526 
L 238.044184 177.759139 
L 238.746762 179.150292 
L 239.960304 182.129017 
L 242.962225 189.688319 
L 243.537061 190.486156 
L 244.239638 191.045646 
L 245.069957 191.429443 
L 245.708663 191.516472 
L 247.3693 191.46388 
L 248.455101 191.952367 
L 250.179609 192.795174 
L 252.542823 192.922105 
L 253.564754 192.33301 
L 254.650555 191.790456 
L 255.991839 191.391847 
L 257.460864 191.149306 
L 257.971829 190.700772 
L 258.738277 189.687045 
L 259.760207 187.784884 
L 264.997601 177.536447 
L 265.572437 177.057415 
L 267.360816 176.090832 
L 267.871781 176.035366 
L 268.382746 176.200066 
L 269.532418 176.723985 
L 270.171124 176.646961 
L 272.534339 175.793766 
L 274.194976 175.099715 
L 275.025294 175.142637 
L 275.983354 175.494967 
L 277.069155 175.932518 
L 277.643991 175.872934 
L 279.304628 175.293191 
L 280.582041 174.662762 
L 281.156877 174.662759 
L 281.540101 174.84464 
L 282.051066 175.37729 
L 282.753644 176.437043 
L 283.903316 178.629893 
L 285.691694 182.489158 
L 286.841366 185.699182 
L 288.565873 190.569343 
L 289.523933 192.486669 
L 290.16264 193.398465 
L 290.737476 193.848157 
L 291.312312 194.013471 
L 291.887148 193.948148 
L 292.398113 193.620205 
L 293.10069 192.835894 
L 294.569715 191.058592 
L 295.208422 190.649909 
L 295.655516 190.656238 
L 296.102611 190.880594 
L 296.677447 191.424643 
L 297.507765 192.558228 
L 298.785178 194.774667 
L 299.615497 196.073036 
L 300.190333 196.589426 
L 301.148393 197.088198 
L 302.106453 197.646792 
L 303.83096 198.909253 
L 305.363856 199.737327 
L 306.76901 200.116777 
L 307.918682 200.26252 
L 308.940613 200.162116 
L 309.64319 199.843812 
L 311.176086 199.047227 
L 311.814792 198.974384 
L 312.389628 199.170788 
L 313.667041 200.038133 
L 314.433489 200.833088 
L 316.094126 203.187126 
L 317.690893 205.362212 
L 318.39347 205.873129 
L 319.096047 206.122615 
L 319.926366 206.168282 
L 320.565072 205.995282 
L 321.459261 205.797957 
L 321.906356 205.943091 
L 323.119898 206.548813 
L 324.525053 206.931401 
L 325.483113 207.426113 
L 326.632785 208.32732 
L 328.357292 210.210675 
L 330.017929 212.21398 
L 332.125661 214.930351 
L 335.319194 217.241682 
L 336.468866 218.561372 
L 337.426925 219.539056 
L 339.279174 221.166106 
L 339.981752 221.877239 
L 340.556588 222.805876 
L 341.195294 224.323215 
L 341.961742 226.795487 
L 343.813991 233.881289 
L 345.027533 238.370822 
L 345.602369 239.860292 
L 346.049464 240.461571 
L 346.432688 240.639635 
L 346.752041 240.570871 
L 347.199136 240.19768 
L 347.710101 239.458381 
L 348.412678 237.958736 
L 349.179126 235.768462 
L 350.264927 231.835459 
L 351.797823 226.349122 
L 352.947495 222.914532 
L 354.033296 220.344571 
L 354.799744 219.027705 
L 355.37458 218.401536 
L 355.885545 218.176877 
L 356.39651 218.211635 
L 357.035217 218.503522 
L 359.142949 219.927983 
L 360.101008 220.977242 
L 361.570033 222.820342 
L 362.272611 224.143081 
L 363.039059 226.045257 
L 363.997118 229.133495 
L 365.849367 235.22355 
L 366.807427 237.553679 
L 367.446134 238.631958 
L 367.957099 239.142536 
L 368.404194 239.318009 
L 368.851288 239.285758 
L 369.362254 239.020027 
L 369.937089 238.448443 
L 370.639667 237.394625 
L 371.342244 235.912566 
L 372.236433 233.487811 
L 373.513846 229.361368 
L 375.238354 223.938775 
L 375.87706 222.626181 
L 376.579638 221.672069 
L 377.409956 220.923379 
L 378.75124 219.95114 
L 379.389947 219.60991 
L 380.092524 219.512076 
L 380.73123 219.658966 
L 381.369937 220.024848 
L 386.287977 223.470124 
L 387.054425 223.585704 
L 388.395709 223.552182 
L 389.289898 223.511787 
L 390.886665 223.508587 
L 391.333759 223.120708 
L 391.972466 222.218133 
L 392.930526 220.424075 
L 395.932446 214.690627 
L 396.954377 213.438565 
L 398.23179 212.200409 
L 398.487273 212.017182 
L 398.487273 212.017182 
" clip-path="url(#pe43d20a53c)" style="fill: none; stroke: #ff7f0e; stroke-width: 1.5; stroke-linecap: square"/>
   </g>
   <g id="patch_3">
    <path d="M 57.6 307.584 
L 57.6 41.472 
" style="fill: none; stroke: #000000; stroke-width: 0.8; stroke-linejoin: miter; stroke-linecap: square"/>
   </g>
   <g id="patch_4">
    <path d="M 414.72 307.584 
L 414.72 41.472 
" style="fill: none; stroke: #000000; stroke-width: 0.8; stroke-linejoin: miter; stroke-linecap: square"/>
   </g>
   <g id="patch_5">
    <path d="M 57.6 307.584 
L 414.72 307.584 
" style="fill: none; stroke: #000000; stroke-width: 0.8; stroke-linejoin: miter; stroke-linecap: square"/>
   </g>
   <g id="patch_6">
    <path d="M 57.6 41.472 
L 414.72 41.472 
" style="fill: none; stroke: #000000; stroke-width: 0.8; stroke-linejoin: miter; stroke-linecap: square"/>
   </g>
   <g id="text_14">
    <!-- Averaged response to interaction -->
    <g transform="translate(136.269375 35.472) scale(0.12 -0.12)">
     <defs>
      <path id="DejaVuSans-41" d="M 2188 4044 
L 1331 1722 
L 3047 1722 
L 2188 4044 
z
M 1831 4666 
L 2547 4666 
L 4325 0 
L 3669 0 
L 3244 1197 
L 1141 1197 
L 716 0 
L 50 0 
L 1831 4666 
z
" transform="scale(0.015625)"/>
      <path id="DejaVuSans-76" d="M 191 3500 
L 800 3500 
L 1894 563 
L 2988 3500 
L 3597 3500 
L 2284 0 
L 1503 0 
L 191 3500 
z
" transform="scale(0.015625)"/>
      <path id="DejaVuSans-70" d="M 1159 525 
L 1159 -1331 
L 581 -1331 
L 581 3500 
L 1159 3500 
L 1159 2969 
Q 1341 3281 1617 3432 
Q 1894 3584 2278 3584 
Q 2916 3584 3314 3078 
Q 3713 2572 3713 1747 
Q 3713 922 3314 415 
Q 2916 -91 2278 -91 
Q 1894 -91 1617 61 
Q 1341 213 1159 525 
z
M 3116 1747 
Q 3116 2381 2855 2742 
Q 2594 3103 2138 3103 
Q 1681 3103 1420 2742 
Q 1159 2381 1159 1747 
Q 1159 1113 1420 752 
Q 1681 391 2138 391 
Q 2594 391 2855 752 
Q 3116 1113 3116 1747 
z
" transform="scale(0.015625)"/>
     </defs>
     <use xlink:href="#DejaVuSans-41"/>
     <use xlink:href="#DejaVuSans-76" x="62.533203"/>
     <use xlink:href="#DejaVuSans-65" x="121.712891"/>
     <use xlink:href="#DejaVuSans-72" x="183.236328"/>
     <use xlink:href="#DejaVuSans-61" x="224.349609"/>
     <use xlink:href="#DejaVuSans-67" x="285.628906"/>
     <use xlink:href="#DejaVuSans-65" x="349.105469"/>
     <use xlink:href="#DejaVuSans-64" x="410.628906"/>
     <use xlink:href="#DejaVuSans-20" x="474.105469"/>
     <use xlink:href="#DejaVuSans-72" x="505.892578"/>
     <use xlink:href="#DejaVuSans-65" x="544.755859"/>
     <use xlink:href="#DejaVuSans-73" x="606.279297"/>
     <use xlink:href="#DejaVuSans-70" x="658.378906"/>
     <use xlink:href="#DejaVuSans-6f" x="721.855469"/>
     <use xlink:href="#DejaVuSans-6e" x="783.037109"/>
     <use xlink:href="#DejaVuSans-73" x="846.416016"/>
     <use xlink:href="#DejaVuSans-65" x="898.515625"/>
     <use xlink:href="#DejaVuSans-20" x="960.039062"/>
     <use xlink:href="#DejaVuSans-74" x="991.826172"/>
     <use xlink:href="#DejaVuSans-6f" x="1031.035156"/>
     <use xlink:href="#DejaVuSans-20" x="1092.216797"/>
     <use xlink:href="#DejaVuSans-69" x="1124.003906"/>
     <use xlink:href="#DejaVuSans-6e" x="1151.787109"/>
     <use xlink:href="#DejaVuSans-74" x="1215.166016"/>
     <use xlink:href="#DejaVuSans-65" x="1254.375"/>
     <use xlink:href="#DejaVuSans-72" x="1315.898438"/>
     <use xlink:href="#DejaVuSans-61" x="1357.011719"/>
     <use xlink:href="#DejaVuSans-63" x="1418.291016"/>
     <use xlink:href="#DejaVuSans-74" x="1473.271484"/>
     <use xlink:href="#DejaVuSans-69" x="1512.480469"/>
     <use xlink:href="#DejaVuSans-6f" x="1540.263672"/>
     <use xlink:href="#DejaVuSans-6e" x="1601.445312"/>
    </g>
   </g>
   <g id="legend_1">
    <g id="patch_7">
     <path d="M 360.729375 78.82825 
L 407.72 78.82825 
Q 409.72 78.82825 409.72 76.82825 
L 409.72 48.472 
Q 409.72 46.472 407.72 46.472 
L 360.729375 46.472 
Q 358.729375 46.472 358.729375 48.472 
L 358.729375 76.82825 
Q 358.729375 78.82825 360.729375 78.82825 
z
" style="fill: #ffffff; opacity: 0.8; stroke: #cccccc; stroke-linejoin: miter"/>
    </g>
    <g id="line2d_14">
     <path d="M 362.729375 54.570437 
L 372.729375 54.570437 
L 382.729375 54.570437 
" style="fill: none; stroke: #1f77b4; stroke-width: 1.5; stroke-linecap: square"/>
    </g>
    <g id="text_15">
     <!-- M5 -->
     <g transform="translate(390.729375 58.070437) scale(0.1 -0.1)">
      <defs>
       <path id="DejaVuSans-4d" d="M 628 4666 
L 1569 4666 
L 2759 1491 
L 3956 4666 
L 4897 4666 
L 4897 0 
L 4281 0 
L 4281 4097 
L 3078 897 
L 2444 897 
L 1241 4097 
L 1241 0 
L 628 0 
L 628 4666 
z
" transform="scale(0.015625)"/>
      </defs>
      <use xlink:href="#DejaVuSans-4d"/>
      <use xlink:href="#DejaVuSans-35" x="86.279297"/>
     </g>
    </g>
    <g id="line2d_15">
     <path d="M 362.729375 69.248562 
L 372.729375 69.248562 
L 382.729375 69.248562 
" style="fill: none; stroke: #ff7f0e; stroke-width: 1.5; stroke-linecap: square"/>
    </g>
    <g id="text_16">
     <!-- M6 -->
     <g transform="translate(390.729375 72.748562) scale(0.1 -0.1)">
      <defs>
       <path id="DejaVuSans-36" d="M 2113 2584 
Q 1688 2584 1439 2293 
Q 1191 2003 1191 1497 
Q 1191 994 1439 701 
Q 1688 409 2113 409 
Q 2538 409 2786 701 
Q 3034 994 3034 1497 
Q 3034 2003 2786 2293 
Q 2538 2584 2113 2584 
z
M 3366 4563 
L 3366 3988 
Q 3128 4100 2886 4159 
Q 2644 4219 2406 4219 
Q 1781 4219 1451 3797 
Q 1122 3375 1075 2522 
Q 1259 2794 1537 2939 
Q 1816 3084 2150 3084 
Q 2853 3084 3261 2657 
Q 3669 2231 3669 1497 
Q 3669 778 3244 343 
Q 2819 -91 2113 -91 
Q 1303 -91 875 529 
Q 447 1150 447 2328 
Q 447 3434 972 4092 
Q 1497 4750 2381 4750 
Q 2619 4750 2861 4703 
Q 3103 4656 3366 4563 
z
" transform="scale(0.015625)"/>
      </defs>
      <use xlink:href="#DejaVuSans-4d"/>
      <use xlink:href="#DejaVuSans-36" x="86.279297"/>
     </g>
    </g>
   </g>
  </g>
 </g>
 <defs>
  <clipPath id="pe43d20a53c">
   <rect x="57.6" y="41.472" width="357.12" height="266.112"/>
  </clipPath>
 </defs>
</svg>
