<?xml version="1.0" encoding="utf-8" standalone="no"?>
<!DOCTYPE svg PUBLIC "-//W3C//DTD SVG 1.1//EN"
  "http://www.w3.org/Graphics/SVG/1.1/DTD/svg11.dtd">
<svg xmlns:xlink="http://www.w3.org/1999/xlink" width="460.8pt" height="345.6pt" viewBox="0 0 460.8 345.6" xmlns="http://www.w3.org/2000/svg" version="1.1">
 <metadata>
  <rdf:RDF xmlns:dc="http://purl.org/dc/elements/1.1/" xmlns:cc="http://creativecommons.org/ns#" xmlns:rdf="http://www.w3.org/1999/02/22-rdf-syntax-ns#">
   <cc:Work>
    <dc:type rdf:resource="http://purl.org/dc/dcmitype/StillImage"/>
    <dc:date>2023-09-19T14:24:46.929645</dc:date>
    <dc:format>image/svg+xml</dc:format>
    <dc:creator>
     <cc:Agent>
      <dc:title>Matplotlib v3.7.2, https://matplotlib.org/</dc:title>
     </cc:Agent>
    </dc:creator>
   </cc:Work>
  </rdf:RDF>
 </metadata>
 <defs>
  <style type="text/css">*{stroke-linejoin: round; stroke-linecap: butt}</style>
 </defs>
 <g id="figure_1">
  <g id="patch_1">
   <path d="M 0 345.6 
L 460.8 345.6 
L 460.8 0 
L 0 0 
z
" style="fill: #ffffff"/>
  </g>
  <g id="axes_1">
   <g id="patch_2">
    <path d="M 57.6 307.584 
L 414.72 307.584 
L 414.72 41.472 
L 57.6 41.472 
z
" style="fill: #ffffff"/>
   </g>
   <g id="matplotlib.axis_1">
    <g id="xtick_1">
     <g id="line2d_1">
      <defs>
       <path id="m6434b55d5f" d="M 0 0 
L 0 3.5 
" style="stroke: #000000; stroke-width: 0.8"/>
      </defs>
      <g>
       <use xlink:href="#m6434b55d5f" x="73.832727" y="307.584" style="stroke: #000000; stroke-width: 0.8"/>
      </g>
     </g>
     <g id="text_1">
      <!-- 0 -->
      <g transform="translate(70.651477 322.182437) scale(0.1 -0.1)">
       <defs>
        <path id="DejaVuSans-30" d="M 2034 4250 
Q 1547 4250 1301 3770 
Q 1056 3291 1056 2328 
Q 1056 1369 1301 889 
Q 1547 409 2034 409 
Q 2525 409 2770 889 
Q 3016 1369 3016 2328 
Q 3016 3291 2770 3770 
Q 2525 4250 2034 4250 
z
M 2034 4750 
Q 2819 4750 3233 4129 
Q 3647 3509 3647 2328 
Q 3647 1150 3233 529 
Q 2819 -91 2034 -91 
Q 1250 -91 836 529 
Q 422 1150 422 2328 
Q 422 3509 836 4129 
Q 1250 4750 2034 4750 
z
" transform="scale(0.015625)"/>
       </defs>
       <use xlink:href="#DejaVuSans-30"/>
      </g>
     </g>
    </g>
    <g id="xtick_2">
     <g id="line2d_2">
      <g>
       <use xlink:href="#m6434b55d5f" x="138.77641" y="307.584" style="stroke: #000000; stroke-width: 0.8"/>
      </g>
     </g>
     <g id="text_2">
      <!-- 1 -->
      <g transform="translate(135.59516 322.182437) scale(0.1 -0.1)">
       <defs>
        <path id="DejaVuSans-31" d="M 794 531 
L 1825 531 
L 1825 4091 
L 703 3866 
L 703 4441 
L 1819 4666 
L 2450 4666 
L 2450 531 
L 3481 531 
L 3481 0 
L 794 0 
L 794 531 
z
" transform="scale(0.015625)"/>
       </defs>
       <use xlink:href="#DejaVuSans-31"/>
      </g>
     </g>
    </g>
    <g id="xtick_3">
     <g id="line2d_3">
      <g>
       <use xlink:href="#m6434b55d5f" x="203.720094" y="307.584" style="stroke: #000000; stroke-width: 0.8"/>
      </g>
     </g>
     <g id="text_3">
      <!-- 2 -->
      <g transform="translate(200.538844 322.182437) scale(0.1 -0.1)">
       <defs>
        <path id="DejaVuSans-32" d="M 1228 531 
L 3431 531 
L 3431 0 
L 469 0 
L 469 531 
Q 828 903 1448 1529 
Q 2069 2156 2228 2338 
Q 2531 2678 2651 2914 
Q 2772 3150 2772 3378 
Q 2772 3750 2511 3984 
Q 2250 4219 1831 4219 
Q 1534 4219 1204 4116 
Q 875 4013 500 3803 
L 500 4441 
Q 881 4594 1212 4672 
Q 1544 4750 1819 4750 
Q 2544 4750 2975 4387 
Q 3406 4025 3406 3419 
Q 3406 3131 3298 2873 
Q 3191 2616 2906 2266 
Q 2828 2175 2409 1742 
Q 1991 1309 1228 531 
z
" transform="scale(0.015625)"/>
       </defs>
       <use xlink:href="#DejaVuSans-32"/>
      </g>
     </g>
    </g>
    <g id="xtick_4">
     <g id="line2d_4">
      <g>
       <use xlink:href="#m6434b55d5f" x="268.663777" y="307.584" style="stroke: #000000; stroke-width: 0.8"/>
      </g>
     </g>
     <g id="text_4">
      <!-- 3 -->
      <g transform="translate(265.482527 322.182437) scale(0.1 -0.1)">
       <defs>
        <path id="DejaVuSans-33" d="M 2597 2516 
Q 3050 2419 3304 2112 
Q 3559 1806 3559 1356 
Q 3559 666 3084 287 
Q 2609 -91 1734 -91 
Q 1441 -91 1130 -33 
Q 819 25 488 141 
L 488 750 
Q 750 597 1062 519 
Q 1375 441 1716 441 
Q 2309 441 2620 675 
Q 2931 909 2931 1356 
Q 2931 1769 2642 2001 
Q 2353 2234 1838 2234 
L 1294 2234 
L 1294 2753 
L 1863 2753 
Q 2328 2753 2575 2939 
Q 2822 3125 2822 3475 
Q 2822 3834 2567 4026 
Q 2313 4219 1838 4219 
Q 1578 4219 1281 4162 
Q 984 4106 628 3988 
L 628 4550 
Q 988 4650 1302 4700 
Q 1616 4750 1894 4750 
Q 2613 4750 3031 4423 
Q 3450 4097 3450 3541 
Q 3450 3153 3228 2886 
Q 3006 2619 2597 2516 
z
" transform="scale(0.015625)"/>
       </defs>
       <use xlink:href="#DejaVuSans-33"/>
      </g>
     </g>
    </g>
    <g id="xtick_5">
     <g id="line2d_5">
      <g>
       <use xlink:href="#m6434b55d5f" x="333.60746" y="307.584" style="stroke: #000000; stroke-width: 0.8"/>
      </g>
     </g>
     <g id="text_5">
      <!-- 4 -->
      <g transform="translate(330.42621 322.182437) scale(0.1 -0.1)">
       <defs>
        <path id="DejaVuSans-34" d="M 2419 4116 
L 825 1625 
L 2419 1625 
L 2419 4116 
z
M 2253 4666 
L 3047 4666 
L 3047 1625 
L 3713 1625 
L 3713 1100 
L 3047 1100 
L 3047 0 
L 2419 0 
L 2419 1100 
L 313 1100 
L 313 1709 
L 2253 4666 
z
" transform="scale(0.015625)"/>
       </defs>
       <use xlink:href="#DejaVuSans-34"/>
      </g>
     </g>
    </g>
    <g id="xtick_6">
     <g id="line2d_6">
      <g>
       <use xlink:href="#m6434b55d5f" x="398.551143" y="307.584" style="stroke: #000000; stroke-width: 0.8"/>
      </g>
     </g>
     <g id="text_6">
      <!-- 5 -->
      <g transform="translate(395.369893 322.182437) scale(0.1 -0.1)">
       <defs>
        <path id="DejaVuSans-35" d="M 691 4666 
L 3169 4666 
L 3169 4134 
L 1269 4134 
L 1269 2991 
Q 1406 3038 1543 3061 
Q 1681 3084 1819 3084 
Q 2600 3084 3056 2656 
Q 3513 2228 3513 1497 
Q 3513 744 3044 326 
Q 2575 -91 1722 -91 
Q 1428 -91 1123 -41 
Q 819 9 494 109 
L 494 744 
Q 775 591 1075 516 
Q 1375 441 1709 441 
Q 2250 441 2565 725 
Q 2881 1009 2881 1497 
Q 2881 1984 2565 2268 
Q 2250 2553 1709 2553 
Q 1456 2553 1204 2497 
Q 953 2441 691 2322 
L 691 4666 
z
" transform="scale(0.015625)"/>
       </defs>
       <use xlink:href="#DejaVuSans-35"/>
      </g>
     </g>
    </g>
    <g id="text_7">
     <!-- Seconds after first seen interacting -->
     <g transform="translate(148.11625 335.860562) scale(0.1 -0.1)">
      <defs>
       <path id="DejaVuSans-53" d="M 3425 4513 
L 3425 3897 
Q 3066 4069 2747 4153 
Q 2428 4238 2131 4238 
Q 1616 4238 1336 4038 
Q 1056 3838 1056 3469 
Q 1056 3159 1242 3001 
Q 1428 2844 1947 2747 
L 2328 2669 
Q 3034 2534 3370 2195 
Q 3706 1856 3706 1288 
Q 3706 609 3251 259 
Q 2797 -91 1919 -91 
Q 1588 -91 1214 -16 
Q 841 59 441 206 
L 441 856 
Q 825 641 1194 531 
Q 1563 422 1919 422 
Q 2459 422 2753 634 
Q 3047 847 3047 1241 
Q 3047 1584 2836 1778 
Q 2625 1972 2144 2069 
L 1759 2144 
Q 1053 2284 737 2584 
Q 422 2884 422 3419 
Q 422 4038 858 4394 
Q 1294 4750 2059 4750 
Q 2388 4750 2728 4690 
Q 3069 4631 3425 4513 
z
" transform="scale(0.015625)"/>
       <path id="DejaVuSans-65" d="M 3597 1894 
L 3597 1613 
L 953 1613 
Q 991 1019 1311 708 
Q 1631 397 2203 397 
Q 2534 397 2845 478 
Q 3156 559 3463 722 
L 3463 178 
Q 3153 47 2828 -22 
Q 2503 -91 2169 -91 
Q 1331 -91 842 396 
Q 353 884 353 1716 
Q 353 2575 817 3079 
Q 1281 3584 2069 3584 
Q 2775 3584 3186 3129 
Q 3597 2675 3597 1894 
z
M 3022 2063 
Q 3016 2534 2758 2815 
Q 2500 3097 2075 3097 
Q 1594 3097 1305 2825 
Q 1016 2553 972 2059 
L 3022 2063 
z
" transform="scale(0.015625)"/>
       <path id="DejaVuSans-63" d="M 3122 3366 
L 3122 2828 
Q 2878 2963 2633 3030 
Q 2388 3097 2138 3097 
Q 1578 3097 1268 2742 
Q 959 2388 959 1747 
Q 959 1106 1268 751 
Q 1578 397 2138 397 
Q 2388 397 2633 464 
Q 2878 531 3122 666 
L 3122 134 
Q 2881 22 2623 -34 
Q 2366 -91 2075 -91 
Q 1284 -91 818 406 
Q 353 903 353 1747 
Q 353 2603 823 3093 
Q 1294 3584 2113 3584 
Q 2378 3584 2631 3529 
Q 2884 3475 3122 3366 
z
" transform="scale(0.015625)"/>
       <path id="DejaVuSans-6f" d="M 1959 3097 
Q 1497 3097 1228 2736 
Q 959 2375 959 1747 
Q 959 1119 1226 758 
Q 1494 397 1959 397 
Q 2419 397 2687 759 
Q 2956 1122 2956 1747 
Q 2956 2369 2687 2733 
Q 2419 3097 1959 3097 
z
M 1959 3584 
Q 2709 3584 3137 3096 
Q 3566 2609 3566 1747 
Q 3566 888 3137 398 
Q 2709 -91 1959 -91 
Q 1206 -91 779 398 
Q 353 888 353 1747 
Q 353 2609 779 3096 
Q 1206 3584 1959 3584 
z
" transform="scale(0.015625)"/>
       <path id="DejaVuSans-6e" d="M 3513 2113 
L 3513 0 
L 2938 0 
L 2938 2094 
Q 2938 2591 2744 2837 
Q 2550 3084 2163 3084 
Q 1697 3084 1428 2787 
Q 1159 2491 1159 1978 
L 1159 0 
L 581 0 
L 581 3500 
L 1159 3500 
L 1159 2956 
Q 1366 3272 1645 3428 
Q 1925 3584 2291 3584 
Q 2894 3584 3203 3211 
Q 3513 2838 3513 2113 
z
" transform="scale(0.015625)"/>
       <path id="DejaVuSans-64" d="M 2906 2969 
L 2906 4863 
L 3481 4863 
L 3481 0 
L 2906 0 
L 2906 525 
Q 2725 213 2448 61 
Q 2172 -91 1784 -91 
Q 1150 -91 751 415 
Q 353 922 353 1747 
Q 353 2572 751 3078 
Q 1150 3584 1784 3584 
Q 2172 3584 2448 3432 
Q 2725 3281 2906 2969 
z
M 947 1747 
Q 947 1113 1208 752 
Q 1469 391 1925 391 
Q 2381 391 2643 752 
Q 2906 1113 2906 1747 
Q 2906 2381 2643 2742 
Q 2381 3103 1925 3103 
Q 1469 3103 1208 2742 
Q 947 2381 947 1747 
z
" transform="scale(0.015625)"/>
       <path id="DejaVuSans-73" d="M 2834 3397 
L 2834 2853 
Q 2591 2978 2328 3040 
Q 2066 3103 1784 3103 
Q 1356 3103 1142 2972 
Q 928 2841 928 2578 
Q 928 2378 1081 2264 
Q 1234 2150 1697 2047 
L 1894 2003 
Q 2506 1872 2764 1633 
Q 3022 1394 3022 966 
Q 3022 478 2636 193 
Q 2250 -91 1575 -91 
Q 1294 -91 989 -36 
Q 684 19 347 128 
L 347 722 
Q 666 556 975 473 
Q 1284 391 1588 391 
Q 1994 391 2212 530 
Q 2431 669 2431 922 
Q 2431 1156 2273 1281 
Q 2116 1406 1581 1522 
L 1381 1569 
Q 847 1681 609 1914 
Q 372 2147 372 2553 
Q 372 3047 722 3315 
Q 1072 3584 1716 3584 
Q 2034 3584 2315 3537 
Q 2597 3491 2834 3397 
z
" transform="scale(0.015625)"/>
       <path id="DejaVuSans-20" transform="scale(0.015625)"/>
       <path id="DejaVuSans-61" d="M 2194 1759 
Q 1497 1759 1228 1600 
Q 959 1441 959 1056 
Q 959 750 1161 570 
Q 1363 391 1709 391 
Q 2188 391 2477 730 
Q 2766 1069 2766 1631 
L 2766 1759 
L 2194 1759 
z
M 3341 1997 
L 3341 0 
L 2766 0 
L 2766 531 
Q 2569 213 2275 61 
Q 1981 -91 1556 -91 
Q 1019 -91 701 211 
Q 384 513 384 1019 
Q 384 1609 779 1909 
Q 1175 2209 1959 2209 
L 2766 2209 
L 2766 2266 
Q 2766 2663 2505 2880 
Q 2244 3097 1772 3097 
Q 1472 3097 1187 3025 
Q 903 2953 641 2809 
L 641 3341 
Q 956 3463 1253 3523 
Q 1550 3584 1831 3584 
Q 2591 3584 2966 3190 
Q 3341 2797 3341 1997 
z
" transform="scale(0.015625)"/>
       <path id="DejaVuSans-66" d="M 2375 4863 
L 2375 4384 
L 1825 4384 
Q 1516 4384 1395 4259 
Q 1275 4134 1275 3809 
L 1275 3500 
L 2222 3500 
L 2222 3053 
L 1275 3053 
L 1275 0 
L 697 0 
L 697 3053 
L 147 3053 
L 147 3500 
L 697 3500 
L 697 3744 
Q 697 4328 969 4595 
Q 1241 4863 1831 4863 
L 2375 4863 
z
" transform="scale(0.015625)"/>
       <path id="DejaVuSans-74" d="M 1172 4494 
L 1172 3500 
L 2356 3500 
L 2356 3053 
L 1172 3053 
L 1172 1153 
Q 1172 725 1289 603 
Q 1406 481 1766 481 
L 2356 481 
L 2356 0 
L 1766 0 
Q 1100 0 847 248 
Q 594 497 594 1153 
L 594 3053 
L 172 3053 
L 172 3500 
L 594 3500 
L 594 4494 
L 1172 4494 
z
" transform="scale(0.015625)"/>
       <path id="DejaVuSans-72" d="M 2631 2963 
Q 2534 3019 2420 3045 
Q 2306 3072 2169 3072 
Q 1681 3072 1420 2755 
Q 1159 2438 1159 1844 
L 1159 0 
L 581 0 
L 581 3500 
L 1159 3500 
L 1159 2956 
Q 1341 3275 1631 3429 
Q 1922 3584 2338 3584 
Q 2397 3584 2469 3576 
Q 2541 3569 2628 3553 
L 2631 2963 
z
" transform="scale(0.015625)"/>
       <path id="DejaVuSans-69" d="M 603 3500 
L 1178 3500 
L 1178 0 
L 603 0 
L 603 3500 
z
M 603 4863 
L 1178 4863 
L 1178 4134 
L 603 4134 
L 603 4863 
z
" transform="scale(0.015625)"/>
       <path id="DejaVuSans-67" d="M 2906 1791 
Q 2906 2416 2648 2759 
Q 2391 3103 1925 3103 
Q 1463 3103 1205 2759 
Q 947 2416 947 1791 
Q 947 1169 1205 825 
Q 1463 481 1925 481 
Q 2391 481 2648 825 
Q 2906 1169 2906 1791 
z
M 3481 434 
Q 3481 -459 3084 -895 
Q 2688 -1331 1869 -1331 
Q 1566 -1331 1297 -1286 
Q 1028 -1241 775 -1147 
L 775 -588 
Q 1028 -725 1275 -790 
Q 1522 -856 1778 -856 
Q 2344 -856 2625 -561 
Q 2906 -266 2906 331 
L 2906 616 
Q 2728 306 2450 153 
Q 2172 0 1784 0 
Q 1141 0 747 490 
Q 353 981 353 1791 
Q 353 2603 747 3093 
Q 1141 3584 1784 3584 
Q 2172 3584 2450 3431 
Q 2728 3278 2906 2969 
L 2906 3500 
L 3481 3500 
L 3481 434 
z
" transform="scale(0.015625)"/>
      </defs>
      <use xlink:href="#DejaVuSans-53"/>
      <use xlink:href="#DejaVuSans-65" x="63.476562"/>
      <use xlink:href="#DejaVuSans-63" x="125"/>
      <use xlink:href="#DejaVuSans-6f" x="179.980469"/>
      <use xlink:href="#DejaVuSans-6e" x="241.162109"/>
      <use xlink:href="#DejaVuSans-64" x="304.541016"/>
      <use xlink:href="#DejaVuSans-73" x="368.017578"/>
      <use xlink:href="#DejaVuSans-20" x="420.117188"/>
      <use xlink:href="#DejaVuSans-61" x="451.904297"/>
      <use xlink:href="#DejaVuSans-66" x="513.183594"/>
      <use xlink:href="#DejaVuSans-74" x="546.638672"/>
      <use xlink:href="#DejaVuSans-65" x="585.847656"/>
      <use xlink:href="#DejaVuSans-72" x="647.371094"/>
      <use xlink:href="#DejaVuSans-20" x="688.484375"/>
      <use xlink:href="#DejaVuSans-66" x="720.271484"/>
      <use xlink:href="#DejaVuSans-69" x="755.476562"/>
      <use xlink:href="#DejaVuSans-72" x="783.259766"/>
      <use xlink:href="#DejaVuSans-73" x="824.373047"/>
      <use xlink:href="#DejaVuSans-74" x="876.472656"/>
      <use xlink:href="#DejaVuSans-20" x="915.681641"/>
      <use xlink:href="#DejaVuSans-73" x="947.46875"/>
      <use xlink:href="#DejaVuSans-65" x="999.568359"/>
      <use xlink:href="#DejaVuSans-65" x="1061.091797"/>
      <use xlink:href="#DejaVuSans-6e" x="1122.615234"/>
      <use xlink:href="#DejaVuSans-20" x="1185.994141"/>
      <use xlink:href="#DejaVuSans-69" x="1217.78125"/>
      <use xlink:href="#DejaVuSans-6e" x="1245.564453"/>
      <use xlink:href="#DejaVuSans-74" x="1308.943359"/>
      <use xlink:href="#DejaVuSans-65" x="1348.152344"/>
      <use xlink:href="#DejaVuSans-72" x="1409.675781"/>
      <use xlink:href="#DejaVuSans-61" x="1450.789062"/>
      <use xlink:href="#DejaVuSans-63" x="1512.068359"/>
      <use xlink:href="#DejaVuSans-74" x="1567.048828"/>
      <use xlink:href="#DejaVuSans-69" x="1606.257812"/>
      <use xlink:href="#DejaVuSans-6e" x="1634.041016"/>
      <use xlink:href="#DejaVuSans-67" x="1697.419922"/>
     </g>
    </g>
   </g>
   <g id="matplotlib.axis_2">
    <g id="ytick_1">
     <g id="line2d_7">
      <defs>
       <path id="m185694ed92" d="M 0 0 
L -3.5 0 
" style="stroke: #000000; stroke-width: 0.8"/>
      </defs>
      <g>
       <use xlink:href="#m185694ed92" x="57.6" y="293.968326" style="stroke: #000000; stroke-width: 0.8"/>
      </g>
     </g>
     <g id="text_8">
      <!-- −0.5 -->
      <g transform="translate(26.317187 297.767545) scale(0.1 -0.1)">
       <defs>
        <path id="DejaVuSans-2212" d="M 678 2272 
L 4684 2272 
L 4684 1741 
L 678 1741 
L 678 2272 
z
" transform="scale(0.015625)"/>
        <path id="DejaVuSans-2e" d="M 684 794 
L 1344 794 
L 1344 0 
L 684 0 
L 684 794 
z
" transform="scale(0.015625)"/>
       </defs>
       <use xlink:href="#DejaVuSans-2212"/>
       <use xlink:href="#DejaVuSans-30" x="83.789062"/>
       <use xlink:href="#DejaVuSans-2e" x="147.412109"/>
       <use xlink:href="#DejaVuSans-35" x="179.199219"/>
      </g>
     </g>
    </g>
    <g id="ytick_2">
     <g id="line2d_8">
      <g>
       <use xlink:href="#m185694ed92" x="57.6" y="238.26126" style="stroke: #000000; stroke-width: 0.8"/>
      </g>
     </g>
     <g id="text_9">
      <!-- 0.0 -->
      <g transform="translate(34.696875 242.060479) scale(0.1 -0.1)">
       <use xlink:href="#DejaVuSans-30"/>
       <use xlink:href="#DejaVuSans-2e" x="63.623047"/>
       <use xlink:href="#DejaVuSans-30" x="95.410156"/>
      </g>
     </g>
    </g>
    <g id="ytick_3">
     <g id="line2d_9">
      <g>
       <use xlink:href="#m185694ed92" x="57.6" y="182.554195" style="stroke: #000000; stroke-width: 0.8"/>
      </g>
     </g>
     <g id="text_10">
      <!-- 0.5 -->
      <g transform="translate(34.696875 186.353414) scale(0.1 -0.1)">
       <use xlink:href="#DejaVuSans-30"/>
       <use xlink:href="#DejaVuSans-2e" x="63.623047"/>
       <use xlink:href="#DejaVuSans-35" x="95.410156"/>
      </g>
     </g>
    </g>
    <g id="ytick_4">
     <g id="line2d_10">
      <g>
       <use xlink:href="#m185694ed92" x="57.6" y="126.84713" style="stroke: #000000; stroke-width: 0.8"/>
      </g>
     </g>
     <g id="text_11">
      <!-- 1.0 -->
      <g transform="translate(34.696875 130.646348) scale(0.1 -0.1)">
       <use xlink:href="#DejaVuSans-31"/>
       <use xlink:href="#DejaVuSans-2e" x="63.623047"/>
       <use xlink:href="#DejaVuSans-30" x="95.410156"/>
      </g>
     </g>
    </g>
    <g id="ytick_5">
     <g id="line2d_11">
      <g>
       <use xlink:href="#m185694ed92" x="57.6" y="71.140064" style="stroke: #000000; stroke-width: 0.8"/>
      </g>
     </g>
     <g id="text_12">
      <!-- 1.5 -->
      <g transform="translate(34.696875 74.939283) scale(0.1 -0.1)">
       <use xlink:href="#DejaVuSans-31"/>
       <use xlink:href="#DejaVuSans-2e" x="63.623047"/>
       <use xlink:href="#DejaVuSans-35" x="95.410156"/>
      </g>
     </g>
    </g>
    <g id="text_13">
     <!-- Delta F/F -->
     <g transform="translate(20.2375 196.892844) rotate(-90) scale(0.1 -0.1)">
      <defs>
       <path id="DejaVuSans-44" d="M 1259 4147 
L 1259 519 
L 2022 519 
Q 2988 519 3436 956 
Q 3884 1394 3884 2338 
Q 3884 3275 3436 3711 
Q 2988 4147 2022 4147 
L 1259 4147 
z
M 628 4666 
L 1925 4666 
Q 3281 4666 3915 4102 
Q 4550 3538 4550 2338 
Q 4550 1131 3912 565 
Q 3275 0 1925 0 
L 628 0 
L 628 4666 
z
" transform="scale(0.015625)"/>
       <path id="DejaVuSans-6c" d="M 603 4863 
L 1178 4863 
L 1178 0 
L 603 0 
L 603 4863 
z
" transform="scale(0.015625)"/>
       <path id="DejaVuSans-46" d="M 628 4666 
L 3309 4666 
L 3309 4134 
L 1259 4134 
L 1259 2759 
L 3109 2759 
L 3109 2228 
L 1259 2228 
L 1259 0 
L 628 0 
L 628 4666 
z
" transform="scale(0.015625)"/>
       <path id="DejaVuSans-2f" d="M 1625 4666 
L 2156 4666 
L 531 -594 
L 0 -594 
L 1625 4666 
z
" transform="scale(0.015625)"/>
      </defs>
      <use xlink:href="#DejaVuSans-44"/>
      <use xlink:href="#DejaVuSans-65" x="77.001953"/>
      <use xlink:href="#DejaVuSans-6c" x="138.525391"/>
      <use xlink:href="#DejaVuSans-74" x="166.308594"/>
      <use xlink:href="#DejaVuSans-61" x="205.517578"/>
      <use xlink:href="#DejaVuSans-20" x="266.796875"/>
      <use xlink:href="#DejaVuSans-46" x="298.583984"/>
      <use xlink:href="#DejaVuSans-2f" x="356.103516"/>
      <use xlink:href="#DejaVuSans-46" x="389.794922"/>
     </g>
    </g>
   </g>
   <g id="line2d_12">
    <path d="M 73.832727 53.568 
L 74.663046 56.957397 
L 75.365623 58.957162 
L 75.876588 59.756561 
L 76.323683 60.029886 
L 76.706907 60.009853 
L 77.217872 59.723462 
L 77.856579 59.095985 
L 78.431415 58.193333 
L 79.644957 56.163732 
L 80.092052 55.853719 
L 80.475276 55.814824 
L 80.858499 55.982858 
L 81.241723 56.388389 
L 81.624947 57.123454 
L 82.135913 58.64828 
L 82.83849 61.533644 
L 84.371386 69.107139 
L 86.223635 78.158551 
L 87.373306 82.512393 
L 89.097814 88.443321 
L 92.802312 99.850728 
L 93.504889 101.168751 
L 95.101656 103.834939 
L 95.868104 105.704431 
L 96.953905 109.011533 
L 98.614542 114.931377 
L 100.530662 122.296991 
L 101.552592 127.350027 
L 103.851936 139.156359 
L 105.831926 146.974492 
L 106.470633 148.50823 
L 106.981598 149.253501 
L 107.428692 149.584017 
L 107.875787 149.65935 
L 108.322882 149.500168 
L 108.833847 149.069064 
L 109.536424 148.148187 
L 111.324802 145.35081 
L 112.410604 143.777532 
L 112.857698 143.501907 
L 113.240922 143.524231 
L 113.624146 143.817341 
L 114.00737 144.399752 
L 114.582206 145.735351 
L 115.540266 148.643533 
L 119.372505 161.096135 
L 120.394436 163.516206 
L 121.352495 165.282754 
L 122.118943 166.235253 
L 122.821521 166.800563 
L 123.268615 166.859267 
L 123.71571 166.701847 
L 124.290546 166.227929 
L 124.865382 165.443823 
L 126.398277 163.069232 
L 126.781501 162.95904 
L 127.100855 163.09058 
L 127.484078 163.534913 
L 127.931173 164.491303 
L 128.56988 166.532987 
L 129.527939 170.431461 
L 130.485999 175.344482 
L 132.210507 184.605532 
L 133.232438 188.510826 
L 134.190497 191.28773 
L 134.956945 192.962622 
L 135.531781 193.785604 
L 136.234358 194.405753 
L 136.745324 194.562362 
L 137.256289 194.528604 
L 137.767254 194.265593 
L 138.789185 193.383132 
L 140.002727 192.443742 
L 140.577563 192.268176 
L 141.024658 192.336304 
L 141.407882 192.633472 
L 141.918847 193.335813 
L 142.621424 194.703759 
L 143.260131 196.374735 
L 144.026578 199.05892 
L 146.006569 206.399877 
L 146.645275 208.054995 
L 147.156241 208.805405 
L 147.603335 209.051317 
L 148.1143 209.042489 
L 148.880748 208.745988 
L 149.391714 208.613323 
L 149.902679 208.754622 
L 150.669127 209.199081 
L 151.307833 209.825191 
L 151.94654 210.752221 
L 152.840729 212.480493 
L 153.92653 215.046229 
L 157.247804 223.729343 
L 160.185854 229.32791 
L 161.335526 230.616317 
L 162.549069 231.786567 
L 163.251646 232.570205 
L 164.465188 233.933322 
L 164.912283 234.074417 
L 165.359378 233.992624 
L 166.636791 233.412167 
L 167.403239 233.107892 
L 167.978075 233.134861 
L 168.616781 233.398422 
L 170.724513 234.720165 
L 171.363219 235.443211 
L 172.129667 236.666482 
L 173.023856 238.530981 
L 175.131588 243.256588 
L 176.025777 244.672991 
L 176.664484 245.328739 
L 177.175449 245.522521 
L 177.750285 245.500037 
L 178.388991 245.202635 
L 179.155439 244.601161 
L 179.921887 243.659017 
L 180.688335 242.819016 
L 181.1993 242.574693 
L 181.646395 242.602425 
L 182.221231 242.880386 
L 182.668325 243.307556 
L 183.434773 244.440031 
L 184.137351 245.892575 
L 184.776057 247.741366 
L 186.564435 253.358797 
L 187.203142 254.61591 
L 187.777978 255.302612 
L 188.416684 255.723649 
L 188.863779 255.769784 
L 189.502486 255.594607 
L 189.94958 255.253668 
L 190.460545 254.541322 
L 191.035381 253.30524 
L 192.057312 250.317534 
L 194.037302 244.438527 
L 194.484397 243.98637 
L 194.867621 243.881157 
L 195.250845 243.997531 
L 195.76181 244.425242 
L 198.188895 246.920331 
L 199.977273 248.262907 
L 200.61598 248.317794 
L 201.190816 248.139634 
L 201.893393 247.657667 
L 202.659841 247.075396 
L 202.979194 247.141755 
L 203.362418 247.511197 
L 203.809513 248.345903 
L 204.320478 249.801658 
L 205.023055 252.614505 
L 206.236598 258.68635 
L 208.919165 272.546244 
L 209.621742 274.398811 
L 210.260449 275.488478 
L 210.707544 275.893681 
L 211.154638 276.011909 
L 211.537862 275.873126 
L 211.984957 275.432217 
L 212.559793 274.554944 
L 213.32624 272.923032 
L 214.156559 270.630149 
L 215.625584 266.729734 
L 216.136549 265.967578 
L 216.519773 265.718583 
L 216.839127 265.743696 
L 217.22235 266.048214 
L 217.605574 266.661313 
L 218.11654 267.926013 
L 218.819117 270.307813 
L 222.587486 284.306842 
L 223.417804 286.593499 
L 224.439735 288.784403 
L 225.01457 289.60791 
L 225.525536 290.033304 
L 225.97263 290.105244 
L 226.483596 289.920161 
L 226.994561 289.493093 
L 227.569397 288.678952 
L 228.144233 287.398394 
L 228.84681 285.222843 
L 231.657119 275.735045 
L 232.359696 274.135707 
L 232.806791 273.634612 
L 233.190014 273.527388 
L 233.509368 273.62748 
L 233.956462 274.05975 
L 234.595169 275.096584 
L 237.277736 279.892808 
L 237.980314 280.747267 
L 238.682891 281.215391 
L 239.066115 281.267036 
L 239.385468 281.098729 
L 239.768692 280.616863 
L 240.407399 279.362257 
L 242.642872 274.552912 
L 243.153837 274.017474 
L 243.537061 273.928302 
L 243.920285 274.107125 
L 244.367379 274.600843 
L 244.814474 275.529566 
L 245.38931 277.300231 
L 246.730594 282.438112 
L 247.880265 287.431049 
L 248.902196 291.865492 
L 249.604773 293.985112 
L 250.115738 294.937667 
L 250.562833 295.357525 
L 251.009928 295.48491 
L 251.393152 295.308277 
L 251.840246 294.810043 
L 252.478953 293.693148 
L 254.778296 289.142594 
L 255.353132 288.521166 
L 255.864097 288.305148 
L 256.566675 288.272531 
L 258.291182 288.342634 
L 258.929889 288.179883 
L 259.313113 287.826719 
L 260.207302 286.450592 
L 261.229233 284.622094 
L 262.251163 282.238128 
L 264.86986 275.683822 
L 265.444696 274.957667 
L 265.82792 274.764295 
L 266.211144 274.79414 
L 266.658238 275.068006 
L 267.105333 275.643765 
L 267.744039 276.916794 
L 270.171124 282.223942 
L 270.68209 282.718019 
L 271.129184 282.896589 
L 271.512408 282.848653 
L 271.895632 282.580336 
L 272.342727 281.923716 
L 272.917563 280.578528 
L 274.64207 276.260063 
L 276.494319 272.926026 
L 277.069155 272.266866 
L 277.580121 271.988161 
L 278.091086 271.958669 
L 278.665922 272.148032 
L 279.368499 272.613559 
L 279.879464 273.175715 
L 280.518171 274.291288 
L 281.731713 276.457495 
L 282.43429 277.149429 
L 282.881385 277.326704 
L 283.32848 277.284995 
L 283.839445 276.964511 
L 284.542022 276.200808 
L 286.458142 273.563063 
L 287.543943 271.716157 
L 289.651675 267.910715 
L 290.16264 267.530573 
L 290.545864 267.514366 
L 291.056829 267.733054 
L 293.611655 269.375943 
L 294.633586 269.872988 
L 295.400034 270.193986 
L 295.847128 270.155067 
L 296.230352 269.922401 
L 296.677447 269.355271 
L 297.443895 267.963315 
L 298.593566 265.350862 
L 300.190333 261.66392 
L 300.765169 260.910457 
L 301.340005 260.506795 
L 302.042582 260.348432 
L 302.681288 260.08973 
L 304.341925 259.308879 
L 305.491597 259.150177 
L 306.066433 259.315316 
L 306.70514 259.726007 
L 307.279976 260.347309 
L 308.046424 261.538962 
L 309.004483 262.860218 
L 309.579319 263.401174 
L 310.090285 263.571328 
L 310.920603 263.55565 
L 311.367698 263.368215 
L 311.878663 262.863931 
L 312.389628 262.016965 
L 312.964464 260.59323 
L 313.603171 258.294806 
L 314.49736 254.061324 
L 316.541221 244.196973 
L 317.116057 242.266045 
L 317.563151 241.40206 
L 317.882505 241.186354 
L 318.137987 241.24497 
L 318.457341 241.611673 
L 318.840564 242.42556 
L 319.4154 244.256008 
L 320.30959 247.98345 
L 322.353451 257.887028 
L 323.886346 265.126655 
L 324.652794 267.76194 
L 325.419242 269.644295 
L 326.121819 270.782446 
L 327.20762 272.086383 
L 327.718586 272.433334 
L 328.229551 272.498626 
L 328.868257 272.341573 
L 329.826317 272.068091 
L 330.209541 272.262352 
L 330.784377 272.874222 
L 332.381144 274.953409 
L 333.211462 275.839789 
L 333.850169 276.185809 
L 334.233393 276.159043 
L 334.616617 275.930977 
L 335.127582 275.326305 
L 335.830159 274.109595 
L 340.364976 265.74971 
L 340.939811 264.991091 
L 341.259165 264.858035 
L 341.578518 264.975134 
L 341.961742 265.406783 
L 342.408837 266.243972 
L 342.983672 267.850265 
L 343.68625 270.529564 
L 345.219145 276.652465 
L 345.730111 277.854451 
L 346.113335 278.269502 
L 346.432688 278.349557 
L 346.815912 278.203414 
L 347.263006 277.770389 
L 347.837842 276.838368 
L 348.60429 275.083428 
L 349.306867 272.882441 
L 350.137186 269.601582 
L 352.564271 259.102531 
L 353.586201 256.128659 
L 354.288779 254.613107 
L 354.863615 253.845753 
L 355.310709 253.602561 
L 355.693933 253.637914 
L 357.162958 253.990631 
L 357.673923 253.789595 
L 358.440371 253.208575 
L 358.951337 252.668409 
L 359.590043 251.601709 
L 361.825516 247.442793 
L 363.230671 245.726519 
L 363.869377 245.271421 
L 364.380342 245.187267 
L 365.08292 245.31269 
L 366.296462 245.845644 
L 367.701616 246.549646 
L 368.212582 246.448279 
L 368.659676 246.170417 
L 369.106771 245.621435 
L 369.745477 244.405532 
L 370.831279 241.82585 
L 374.152553 233.623372 
L 374.919001 232.690394 
L 375.557707 232.267997 
L 376.068672 232.148508 
L 376.451896 232.288476 
L 377.026732 232.807676 
L 377.729309 233.76455 
L 379.134464 235.991605 
L 379.645429 236.367354 
L 380.092524 236.449315 
L 380.475748 236.310728 
L 380.986713 235.843679 
L 381.625419 234.912932 
L 382.327997 233.426055 
L 383.860892 229.905181 
L 385.457659 227.474924 
L 386.096365 226.773871 
L 386.671201 226.424322 
L 387.182167 226.345404 
L 387.948614 226.561137 
L 388.970545 226.781662 
L 390.184087 226.706198 
L 390.758923 226.483458 
L 391.589242 225.856623 
L 393.058267 224.413615 
L 394.144068 223.179951 
L 395.165999 222.41492 
L 395.613093 222.327844 
L 395.996317 222.471558 
L 396.443412 222.88211 
L 397.082118 223.822745 
L 397.784696 225.319356 
L 398.487273 227.160727 
L 398.487273 227.160727 
" clip-path="url(#pb4b1ae25ac)" style="fill: none; stroke: #1f77b4; stroke-width: 1.5; stroke-linecap: square"/>
   </g>
   <g id="line2d_13">
    <path d="M 73.832727 196.838683 
L 74.726916 191.605779 
L 75.365623 189.061813 
L 75.876588 187.815286 
L 76.259812 187.374485 
L 76.579165 187.314741 
L 76.898519 187.5357 
L 77.281743 188.144496 
L 77.664967 189.131753 
L 78.175932 191.208835 
L 79.00625 195.797111 
L 80.730758 205.326353 
L 81.752689 209.791677 
L 82.646878 212.764717 
L 83.157843 213.886695 
L 83.604938 214.387608 
L 84.052032 214.553485 
L 84.499127 214.420616 
L 85.201704 213.936898 
L 86.032023 213.212643 
L 86.79847 212.178772 
L 87.564918 210.752979 
L 88.842331 207.782394 
L 89.481038 206.526446 
L 90.439098 205.202902 
L 91.205546 204.574688 
L 92.419088 203.869944 
L 93.185536 203.508564 
L 94.079725 202.791939 
L 94.782303 202.03198 
L 95.357138 200.938637 
L 97.145517 196.732237 
L 98.103577 194.572824 
L 98.742283 193.60595 
L 99.317119 193.113239 
L 99.828084 192.964673 
L 100.275179 193.064005 
L 101.041627 193.565983 
L 101.871945 194.069185 
L 102.638393 194.225794 
L 103.213229 194.109331 
L 103.915806 193.719941 
L 105.448702 192.430797 
L 106.534503 191.404176 
L 107.109339 191.185363 
L 109.089329 190.868967 
L 110.302872 190.167799 
L 111.324802 189.434691 
L 111.771897 189.39756 
L 112.218992 189.56261 
L 112.98544 190.20059 
L 114.582206 191.751422 
L 116.306714 194.021518 
L 117.584127 195.758545 
L 118.350575 196.383282 
L 119.117023 196.709281 
L 119.88347 196.815225 
L 120.458306 196.719857 
L 120.84153 196.400115 
L 121.416366 195.600684 
L 123.204745 192.335965 
L 125.376347 188.589484 
L 126.526019 186.784647 
L 128.506009 184.047497 
L 131.635671 178.331457 
L 133.104696 175.603538 
L 133.679532 174.962165 
L 134.382109 174.581195 
L 135.148557 174.429677 
L 136.042746 174.482031 
L 137.703383 174.909671 
L 138.405961 175.296209 
L 138.980797 175.970554 
L 142.174329 180.20846 
L 142.685295 180.461702 
L 143.19626 180.466382 
L 144.026578 180.143593 
L 144.409802 179.786781 
L 144.856897 178.997486 
L 145.559474 177.208784 
L 146.773017 173.328608 
L 147.794947 170.292698 
L 149.07236 167.238401 
L 150.03042 165.580916 
L 151.052351 164.348647 
L 152.393634 162.923595 
L 153.096212 162.534784 
L 153.798789 162.414721 
L 154.629107 162.485339 
L 155.84265 162.997577 
L 156.289744 163.487937 
L 156.86458 164.525169 
L 157.631028 166.398138 
L 158.652959 169.511715 
L 161.846492 179.702518 
L 162.804551 181.548861 
L 163.63487 182.636665 
L 164.273576 183.194501 
L 164.912283 183.46748 
L 165.934214 183.710772 
L 166.509049 183.650933 
L 166.956144 183.353947 
L 168.297428 182.203461 
L 169.000005 182.167495 
L 170.085806 182.397957 
L 170.596771 182.712306 
L 171.235478 183.437813 
L 171.938055 184.59632 
L 172.832244 186.467375 
L 174.429011 190.015657 
L 175.387071 191.637686 
L 176.217389 192.60611 
L 176.856096 193.008237 
L 177.23932 193.064961 
L 177.558673 192.914654 
L 178.005768 192.40929 
L 178.516733 191.465188 
L 179.091569 189.963494 
L 179.921887 186.948046 
L 180.943818 183.645033 
L 181.838007 181.412101 
L 182.476713 180.347876 
L 182.859937 180.085786 
L 183.179291 180.146756 
L 183.562515 180.51779 
L 184.009609 181.29936 
L 184.456704 182.541752 
L 185.03154 184.894962 
L 186.117341 190.575301 
L 188.225073 201.653064 
L 188.92765 204.461383 
L 189.438615 205.68712 
L 189.94958 206.361949 
L 190.460545 206.666353 
L 190.971511 206.709036 
L 191.354735 206.476167 
L 191.801829 205.912055 
L 192.440536 204.707601 
L 193.654078 202.410016 
L 194.292785 201.686952 
L 194.739879 201.468622 
L 195.186974 201.523293 
L 195.570198 201.779602 
L 196.017293 202.383096 
L 196.592128 203.53987 
L 197.805671 206.700041 
L 198.508248 209.080179 
L 199.65792 213.980235 
L 201.510169 222.879952 
L 203.362418 231.833802 
L 204.192737 234.749121 
L 204.703702 235.843075 
L 205.150796 236.307057 
L 205.53402 236.382834 
L 205.917244 236.202387 
L 206.364339 235.715269 
L 207.194657 234.343472 
L 208.855294 231.123853 
L 209.813354 228.97342 
L 210.899155 225.968569 
L 212.176569 222.829083 
L 213.453982 219.529671 
L 216.008808 212.503728 
L 216.647515 211.61861 
L 217.286221 211.117412 
L 218.882987 209.945636 
L 219.585565 209.043303 
L 220.352013 207.734119 
L 221.246202 205.62799 
L 223.162321 201.273188 
L 223.801028 200.399634 
L 224.311993 200.10212 
L 224.822959 200.076182 
L 225.333924 200.268995 
L 225.97263 200.74155 
L 226.994561 201.834773 
L 228.144233 203.326656 
L 229.357775 205.178609 
L 230.699059 207.727097 
L 231.720989 209.568628 
L 232.74292 210.905307 
L 234.211945 212.527875 
L 234.914522 212.831927 
L 235.936453 213.301127 
L 238.044184 214.889129 
L 239.066115 215.59439 
L 240.982235 217.26604 
L 241.684812 218.295476 
L 243.600931 221.387032 
L 244.43125 222.091054 
L 245.261569 222.526491 
L 245.900275 222.593628 
L 246.922206 222.429876 
L 248.32736 222.158634 
L 249.540902 222.125414 
L 250.179609 222.076586 
L 250.818316 221.746004 
L 252.095729 221.097687 
L 252.542823 221.198968 
L 253.437013 221.648691 
L 254.395072 222.418215 
L 256.055709 224.184981 
L 258.227312 226.871494 
L 258.738277 227.131321 
L 259.185372 227.091349 
L 259.951819 226.690005 
L 260.97375 225.881245 
L 261.93181 225.238114 
L 262.762128 224.612904 
L 263.400835 223.778142 
L 264.231153 222.281108 
L 265.253084 219.899609 
L 266.466626 216.704599 
L 267.744039 213.476783 
L 268.510487 212.0443 
L 269.149194 211.281621 
L 269.851771 210.764016 
L 271.895632 209.931246 
L 272.725951 209.720221 
L 273.62014 209.710379 
L 274.769812 209.922816 
L 275.791742 210.206433 
L 277.196897 210.920994 
L 277.899474 210.963304 
L 278.602051 210.741075 
L 279.049146 210.382003 
L 279.560111 209.635786 
L 280.326559 207.941004 
L 281.348489 205.105179 
L 282.945256 200.683762 
L 284.031057 198.520344 
L 284.925246 197.167059 
L 285.563953 196.600039 
L 286.202659 196.334811 
L 286.585883 196.385189 
L 287.096848 196.678885 
L 287.735555 197.296411 
L 289.971028 199.906245 
L 291.631665 201.197317 
L 292.334242 201.519484 
L 292.972949 201.581304 
L 293.675526 201.370516 
L 294.761327 201.041943 
L 295.400034 201.130813 
L 296.230352 201.212585 
L 297.188412 201.003617 
L 298.146472 200.544158 
L 299.360014 200.12894 
L 301.148393 199.766017 
L 302.042582 199.577876 
L 302.553547 199.133191 
L 303.83096 197.549541 
L 304.469667 196.389557 
L 305.299985 194.352357 
L 306.896752 189.607144 
L 307.854812 187.195125 
L 308.557389 185.919813 
L 309.132225 185.338589 
L 309.770931 185.03139 
L 310.218026 185.058359 
L 310.792862 185.359261 
L 312.453499 186.430299 
L 313.028335 186.440163 
L 314.178007 186.393075 
L 314.816713 186.611436 
L 315.391549 187.043747 
L 316.030256 187.790614 
L 317.307669 189.845773 
L 318.840564 192.383535 
L 319.670883 193.29889 
L 320.437331 193.873368 
L 321.139908 194.095879 
L 322.097968 194.131788 
L 324.141829 194.050482 
L 324.780535 194.284624 
L 325.355371 194.726945 
L 325.994078 195.569228 
L 326.568914 196.653631 
L 327.335362 198.619581 
L 328.10181 201.171765 
L 331.03986 212.094353 
L 331.742437 213.75035 
L 332.764367 215.507858 
L 334.808228 218.732871 
L 335.638547 220.957013 
L 337.107572 225.634094 
L 338.065632 229.220473 
L 340.81207 240.960357 
L 342.536578 248.891503 
L 344.580439 256.287282 
L 345.155275 257.637137 
L 345.538499 258.095843 
L 345.857852 258.198229 
L 346.177205 258.072125 
L 346.560429 257.627081 
L 347.071394 256.599389 
L 347.710101 254.750056 
L 348.987514 250.879055 
L 349.753962 249.338509 
L 350.392669 248.494277 
L 351.031375 247.993136 
L 351.670082 247.768185 
L 352.244918 247.776329 
L 352.883624 248.010763 
L 353.586201 248.561761 
L 354.288779 249.375107 
L 357.801665 254.130072 
L 358.184889 254.236424 
L 358.504242 254.079381 
L 358.887466 253.638262 
L 359.398431 252.658559 
L 360.037138 250.8717 
L 360.803586 247.9905 
L 361.697775 243.73054 
L 362.911317 238.174493 
L 363.613894 235.896044 
L 364.18873 234.71299 
L 364.571954 234.314585 
L 364.891308 234.251378 
L 365.274532 234.442453 
L 365.721626 234.964258 
L 366.360333 236.128495 
L 370.895149 245.246298 
L 371.469985 245.962041 
L 371.98095 246.262663 
L 372.428045 246.276348 
L 373.002881 246.045812 
L 374.088682 245.350744 
L 375.174483 244.467538 
L 376.388026 243.108821 
L 377.218344 241.633141 
L 378.495757 238.80015 
L 379.581558 235.855376 
L 381.497678 229.800506 
L 383.094445 225.191049 
L 383.66928 224.080542 
L 384.180246 223.527722 
L 384.62734 223.351239 
L 385.074435 223.410245 
L 385.649271 223.738355 
L 386.351848 224.410188 
L 387.054425 225.461191 
L 388.331838 227.819243 
L 391.078277 232.713247 
L 391.716983 233.35313 
L 392.164078 233.540615 
L 392.483431 233.476062 
L 392.802784 233.117517 
L 393.186008 232.320711 
L 393.696974 230.700644 
L 394.463421 227.447041 
L 395.996317 219.746088 
L 398.040178 209.882184 
L 398.487273 208.535399 
L 398.487273 208.535399 
" clip-path="url(#pb4b1ae25ac)" style="fill: none; stroke: #ff7f0e; stroke-width: 1.5; stroke-linecap: square"/>
   </g>
   <g id="patch_3">
    <path d="M 57.6 307.584 
L 57.6 41.472 
" style="fill: none; stroke: #000000; stroke-width: 0.8; stroke-linejoin: miter; stroke-linecap: square"/>
   </g>
   <g id="patch_4">
    <path d="M 414.72 307.584 
L 414.72 41.472 
" style="fill: none; stroke: #000000; stroke-width: 0.8; stroke-linejoin: miter; stroke-linecap: square"/>
   </g>
   <g id="patch_5">
    <path d="M 57.6 307.584 
L 414.72 307.584 
" style="fill: none; stroke: #000000; stroke-width: 0.8; stroke-linejoin: miter; stroke-linecap: square"/>
   </g>
   <g id="patch_6">
    <path d="M 57.6 41.472 
L 414.72 41.472 
" style="fill: none; stroke: #000000; stroke-width: 0.8; stroke-linejoin: miter; stroke-linecap: square"/>
   </g>
   <g id="text_14">
    <!-- Averaged response to interaction -->
    <g transform="translate(136.269375 35.472) scale(0.12 -0.12)">
     <defs>
      <path id="DejaVuSans-41" d="M 2188 4044 
L 1331 1722 
L 3047 1722 
L 2188 4044 
z
M 1831 4666 
L 2547 4666 
L 4325 0 
L 3669 0 
L 3244 1197 
L 1141 1197 
L 716 0 
L 50 0 
L 1831 4666 
z
" transform="scale(0.015625)"/>
      <path id="DejaVuSans-76" d="M 191 3500 
L 800 3500 
L 1894 563 
L 2988 3500 
L 3597 3500 
L 2284 0 
L 1503 0 
L 191 3500 
z
" transform="scale(0.015625)"/>
      <path id="DejaVuSans-70" d="M 1159 525 
L 1159 -1331 
L 581 -1331 
L 581 3500 
L 1159 3500 
L 1159 2969 
Q 1341 3281 1617 3432 
Q 1894 3584 2278 3584 
Q 2916 3584 3314 3078 
Q 3713 2572 3713 1747 
Q 3713 922 3314 415 
Q 2916 -91 2278 -91 
Q 1894 -91 1617 61 
Q 1341 213 1159 525 
z
M 3116 1747 
Q 3116 2381 2855 2742 
Q 2594 3103 2138 3103 
Q 1681 3103 1420 2742 
Q 1159 2381 1159 1747 
Q 1159 1113 1420 752 
Q 1681 391 2138 391 
Q 2594 391 2855 752 
Q 3116 1113 3116 1747 
z
" transform="scale(0.015625)"/>
     </defs>
     <use xlink:href="#DejaVuSans-41"/>
     <use xlink:href="#DejaVuSans-76" x="62.533203"/>
     <use xlink:href="#DejaVuSans-65" x="121.712891"/>
     <use xlink:href="#DejaVuSans-72" x="183.236328"/>
     <use xlink:href="#DejaVuSans-61" x="224.349609"/>
     <use xlink:href="#DejaVuSans-67" x="285.628906"/>
     <use xlink:href="#DejaVuSans-65" x="349.105469"/>
     <use xlink:href="#DejaVuSans-64" x="410.628906"/>
     <use xlink:href="#DejaVuSans-20" x="474.105469"/>
     <use xlink:href="#DejaVuSans-72" x="505.892578"/>
     <use xlink:href="#DejaVuSans-65" x="544.755859"/>
     <use xlink:href="#DejaVuSans-73" x="606.279297"/>
     <use xlink:href="#DejaVuSans-70" x="658.378906"/>
     <use xlink:href="#DejaVuSans-6f" x="721.855469"/>
     <use xlink:href="#DejaVuSans-6e" x="783.037109"/>
     <use xlink:href="#DejaVuSans-73" x="846.416016"/>
     <use xlink:href="#DejaVuSans-65" x="898.515625"/>
     <use xlink:href="#DejaVuSans-20" x="960.039062"/>
     <use xlink:href="#DejaVuSans-74" x="991.826172"/>
     <use xlink:href="#DejaVuSans-6f" x="1031.035156"/>
     <use xlink:href="#DejaVuSans-20" x="1092.216797"/>
     <use xlink:href="#DejaVuSans-69" x="1124.003906"/>
     <use xlink:href="#DejaVuSans-6e" x="1151.787109"/>
     <use xlink:href="#DejaVuSans-74" x="1215.166016"/>
     <use xlink:href="#DejaVuSans-65" x="1254.375"/>
     <use xlink:href="#DejaVuSans-72" x="1315.898438"/>
     <use xlink:href="#DejaVuSans-61" x="1357.011719"/>
     <use xlink:href="#DejaVuSans-63" x="1418.291016"/>
     <use xlink:href="#DejaVuSans-74" x="1473.271484"/>
     <use xlink:href="#DejaVuSans-69" x="1512.480469"/>
     <use xlink:href="#DejaVuSans-6f" x="1540.263672"/>
     <use xlink:href="#DejaVuSans-6e" x="1601.445312"/>
    </g>
   </g>
   <g id="legend_1">
    <g id="patch_7">
     <path d="M 360.729375 78.82825 
L 407.72 78.82825 
Q 409.72 78.82825 409.72 76.82825 
L 409.72 48.472 
Q 409.72 46.472 407.72 46.472 
L 360.729375 46.472 
Q 358.729375 46.472 358.729375 48.472 
L 358.729375 76.82825 
Q 358.729375 78.82825 360.729375 78.82825 
z
" style="fill: #ffffff; opacity: 0.8; stroke: #cccccc; stroke-linejoin: miter"/>
    </g>
    <g id="line2d_14">
     <path d="M 362.729375 54.570437 
L 372.729375 54.570437 
L 382.729375 54.570437 
" style="fill: none; stroke: #1f77b4; stroke-width: 1.5; stroke-linecap: square"/>
    </g>
    <g id="text_15">
     <!-- M5 -->
     <g transform="translate(390.729375 58.070437) scale(0.1 -0.1)">
      <defs>
       <path id="DejaVuSans-4d" d="M 628 4666 
L 1569 4666 
L 2759 1491 
L 3956 4666 
L 4897 4666 
L 4897 0 
L 4281 0 
L 4281 4097 
L 3078 897 
L 2444 897 
L 1241 4097 
L 1241 0 
L 628 0 
L 628 4666 
z
" transform="scale(0.015625)"/>
      </defs>
      <use xlink:href="#DejaVuSans-4d"/>
      <use xlink:href="#DejaVuSans-35" x="86.279297"/>
     </g>
    </g>
    <g id="line2d_15">
     <path d="M 362.729375 69.248562 
L 372.729375 69.248562 
L 382.729375 69.248562 
" style="fill: none; stroke: #ff7f0e; stroke-width: 1.5; stroke-linecap: square"/>
    </g>
    <g id="text_16">
     <!-- M6 -->
     <g transform="translate(390.729375 72.748562) scale(0.1 -0.1)">
      <defs>
       <path id="DejaVuSans-36" d="M 2113 2584 
Q 1688 2584 1439 2293 
Q 1191 2003 1191 1497 
Q 1191 994 1439 701 
Q 1688 409 2113 409 
Q 2538 409 2786 701 
Q 3034 994 3034 1497 
Q 3034 2003 2786 2293 
Q 2538 2584 2113 2584 
z
M 3366 4563 
L 3366 3988 
Q 3128 4100 2886 4159 
Q 2644 4219 2406 4219 
Q 1781 4219 1451 3797 
Q 1122 3375 1075 2522 
Q 1259 2794 1537 2939 
Q 1816 3084 2150 3084 
Q 2853 3084 3261 2657 
Q 3669 2231 3669 1497 
Q 3669 778 3244 343 
Q 2819 -91 2113 -91 
Q 1303 -91 875 529 
Q 447 1150 447 2328 
Q 447 3434 972 4092 
Q 1497 4750 2381 4750 
Q 2619 4750 2861 4703 
Q 3103 4656 3366 4563 
z
" transform="scale(0.015625)"/>
      </defs>
      <use xlink:href="#DejaVuSans-4d"/>
      <use xlink:href="#DejaVuSans-36" x="86.279297"/>
     </g>
    </g>
   </g>
  </g>
 </g>
 <defs>
  <clipPath id="pb4b1ae25ac">
   <rect x="57.6" y="41.472" width="357.12" height="266.112"/>
  </clipPath>
 </defs>
</svg>
