<?xml version="1.0" encoding="utf-8" standalone="no"?>
<!DOCTYPE svg PUBLIC "-//W3C//DTD SVG 1.1//EN"
  "http://www.w3.org/Graphics/SVG/1.1/DTD/svg11.dtd">
<svg xmlns:xlink="http://www.w3.org/1999/xlink" width="460.8pt" height="345.6pt" viewBox="0 0 460.8 345.6" xmlns="http://www.w3.org/2000/svg" version="1.1">
 <metadata>
  <rdf:RDF xmlns:dc="http://purl.org/dc/elements/1.1/" xmlns:cc="http://creativecommons.org/ns#" xmlns:rdf="http://www.w3.org/1999/02/22-rdf-syntax-ns#">
   <cc:Work>
    <dc:type rdf:resource="http://purl.org/dc/dcmitype/StillImage"/>
    <dc:date>2023-10-05T12:17:27.649420</dc:date>
    <dc:format>image/svg+xml</dc:format>
    <dc:creator>
     <cc:Agent>
      <dc:title>Matplotlib v3.7.2, https://matplotlib.org/</dc:title>
     </cc:Agent>
    </dc:creator>
   </cc:Work>
  </rdf:RDF>
 </metadata>
 <defs>
  <style type="text/css">*{stroke-linejoin: round; stroke-linecap: butt}</style>
 </defs>
 <g id="figure_1">
  <g id="patch_1">
   <path d="M 0 345.6 
L 460.8 345.6 
L 460.8 0 
L 0 0 
z
" style="fill: #ffffff"/>
  </g>
  <g id="axes_1">
   <g id="patch_2">
    <path d="M 57.6 307.584 
L 414.72 307.584 
L 414.72 41.472 
L 57.6 41.472 
z
" style="fill: #ffffff"/>
   </g>
   <g id="patch_3">
    <path d="M 236.16 174.528 
L 254.016 174.528 
L 254.016 174.528 
L 236.16 174.528 
z
" clip-path="url(#p37a3670ccf)" style="fill: #ff0000; opacity: 0.5"/>
   </g>
   <g id="patch_4">
    <path d="M 254.016 174.528 
L 271.872 174.528 
L 271.872 174.528 
L 254.016 174.528 
z
" clip-path="url(#p37a3670ccf)" style="fill: #ff0000; opacity: 0.5"/>
   </g>
   <g id="patch_5">
    <path d="M 271.872 174.528 
L 289.728 174.528 
L 289.728 174.528 
L 271.872 174.528 
z
" clip-path="url(#p37a3670ccf)" style="fill: #ff0000; opacity: 0.5"/>
   </g>
   <g id="patch_6">
    <path d="M 289.728 174.528 
L 307.584 174.528 
L 307.584 174.528 
L 289.728 174.528 
z
" clip-path="url(#p37a3670ccf)" style="fill: #ff0000; opacity: 0.5"/>
   </g>
   <g id="patch_7">
    <path d="M 307.584 174.528 
L 325.44 174.528 
L 325.44 174.528 
L 307.584 174.528 
z
" clip-path="url(#p37a3670ccf)" style="fill: #ff0000; opacity: 0.5"/>
   </g>
   <g id="patch_8">
    <path d="M 325.44 174.528 
L 343.296 174.528 
L 343.296 174.528 
L 325.44 174.528 
z
" clip-path="url(#p37a3670ccf)" style="fill: #ff0000; opacity: 0.5"/>
   </g>
   <g id="patch_9">
    <path d="M 343.296 174.528 
L 361.152 174.528 
L 361.152 174.528 
L 343.296 174.528 
z
" clip-path="url(#p37a3670ccf)" style="fill: #ff0000; opacity: 0.5"/>
   </g>
   <g id="patch_10">
    <path d="M 361.152 174.528 
L 379.008 174.528 
L 379.008 174.528 
L 361.152 174.528 
z
" clip-path="url(#p37a3670ccf)" style="fill: #ff0000; opacity: 0.5"/>
   </g>
   <g id="patch_11">
    <path d="M 379.008 174.528 
L 396.864 174.528 
L 396.864 174.528 
L 379.008 174.528 
z
" clip-path="url(#p37a3670ccf)" style="fill: #ff0000; opacity: 0.5"/>
   </g>
   <g id="patch_12">
    <path d="M 396.864 174.528 
L 414.72 174.528 
L 414.72 174.528 
L 396.864 174.528 
z
" clip-path="url(#p37a3670ccf)" style="fill: #ff0000; opacity: 0.5"/>
   </g>
   <g id="patch_13">
    <path d="M 236.16 174.528 
L 237.0528 174.528 
L 237.0528 174.528 
L 236.16 174.528 
z
" clip-path="url(#p37a3670ccf)" style="fill: #0000ff; opacity: 0.5"/>
   </g>
   <g id="patch_14">
    <path d="M 237.0528 174.528 
L 237.9456 174.528 
L 237.9456 174.528 
L 237.0528 174.528 
z
" clip-path="url(#p37a3670ccf)" style="fill: #0000ff; opacity: 0.5"/>
   </g>
   <g id="patch_15">
    <path d="M 237.9456 174.528 
L 238.8384 174.528 
L 238.8384 174.528 
L 237.9456 174.528 
z
" clip-path="url(#p37a3670ccf)" style="fill: #0000ff; opacity: 0.5"/>
   </g>
   <g id="patch_16">
    <path d="M 238.8384 174.528 
L 239.7312 174.528 
L 239.7312 174.528 
L 238.8384 174.528 
z
" clip-path="url(#p37a3670ccf)" style="fill: #0000ff; opacity: 0.5"/>
   </g>
   <g id="patch_17">
    <path d="M 239.7312 174.528 
L 240.624 174.528 
L 240.624 174.528 
L 239.7312 174.528 
z
" clip-path="url(#p37a3670ccf)" style="fill: #0000ff; opacity: 0.5"/>
   </g>
   <g id="patch_18">
    <path d="M 240.624 174.528 
L 241.5168 174.528 
L 241.5168 174.528 
L 240.624 174.528 
z
" clip-path="url(#p37a3670ccf)" style="fill: #0000ff; opacity: 0.5"/>
   </g>
   <g id="patch_19">
    <path d="M 241.5168 174.528 
L 242.4096 174.528 
L 242.4096 174.528 
L 241.5168 174.528 
z
" clip-path="url(#p37a3670ccf)" style="fill: #0000ff; opacity: 0.5"/>
   </g>
   <g id="patch_20">
    <path d="M 242.4096 174.528 
L 243.3024 174.528 
L 243.3024 174.528 
L 242.4096 174.528 
z
" clip-path="url(#p37a3670ccf)" style="fill: #0000ff; opacity: 0.5"/>
   </g>
   <g id="patch_21">
    <path d="M 243.3024 174.528 
L 244.1952 174.528 
L 244.1952 174.528 
L 243.3024 174.528 
z
" clip-path="url(#p37a3670ccf)" style="fill: #0000ff; opacity: 0.5"/>
   </g>
   <g id="patch_22">
    <path d="M 244.1952 174.528 
L 245.088 174.528 
L 245.088 174.528 
L 244.1952 174.528 
z
" clip-path="url(#p37a3670ccf)" style="fill: #0000ff; opacity: 0.5"/>
   </g>
   <g id="patch_23">
    <path d="M 245.088 174.528 
L 245.9808 174.528 
L 245.9808 174.528 
L 245.088 174.528 
z
" clip-path="url(#p37a3670ccf)" style="fill: #0000ff; opacity: 0.5"/>
   </g>
   <g id="patch_24">
    <path d="M 245.9808 174.528 
L 246.8736 174.528 
L 246.8736 174.528 
L 245.9808 174.528 
z
" clip-path="url(#p37a3670ccf)" style="fill: #0000ff; opacity: 0.5"/>
   </g>
   <g id="patch_25">
    <path d="M 246.8736 174.528 
L 247.7664 174.528 
L 247.7664 174.528 
L 246.8736 174.528 
z
" clip-path="url(#p37a3670ccf)" style="fill: #0000ff; opacity: 0.5"/>
   </g>
   <g id="patch_26">
    <path d="M 247.7664 174.528 
L 248.6592 174.528 
L 248.6592 174.528 
L 247.7664 174.528 
z
" clip-path="url(#p37a3670ccf)" style="fill: #0000ff; opacity: 0.5"/>
   </g>
   <g id="patch_27">
    <path d="M 248.6592 174.528 
L 249.552 174.528 
L 249.552 174.528 
L 248.6592 174.528 
z
" clip-path="url(#p37a3670ccf)" style="fill: #0000ff; opacity: 0.5"/>
   </g>
   <g id="patch_28">
    <path d="M 249.552 174.528 
L 250.4448 174.528 
L 250.4448 174.528 
L 249.552 174.528 
z
" clip-path="url(#p37a3670ccf)" style="fill: #0000ff; opacity: 0.5"/>
   </g>
   <g id="patch_29">
    <path d="M 250.4448 174.528 
L 251.3376 174.528 
L 251.3376 174.528 
L 250.4448 174.528 
z
" clip-path="url(#p37a3670ccf)" style="fill: #0000ff; opacity: 0.5"/>
   </g>
   <g id="patch_30">
    <path d="M 251.3376 174.528 
L 252.2304 174.528 
L 252.2304 174.528 
L 251.3376 174.528 
z
" clip-path="url(#p37a3670ccf)" style="fill: #0000ff; opacity: 0.5"/>
   </g>
   <g id="patch_31">
    <path d="M 252.2304 174.528 
L 253.1232 174.528 
L 253.1232 174.528 
L 252.2304 174.528 
z
" clip-path="url(#p37a3670ccf)" style="fill: #0000ff; opacity: 0.5"/>
   </g>
   <g id="patch_32">
    <path d="M 253.1232 174.528 
L 254.016 174.528 
L 254.016 174.528 
L 253.1232 174.528 
z
" clip-path="url(#p37a3670ccf)" style="fill: #0000ff; opacity: 0.5"/>
   </g>
   <g id="patch_33">
    <path d="M 254.016 174.528 
L 254.9088 174.528 
L 254.9088 174.528 
L 254.016 174.528 
z
" clip-path="url(#p37a3670ccf)" style="fill: #0000ff; opacity: 0.5"/>
   </g>
   <g id="patch_34">
    <path d="M 254.9088 174.528 
L 255.8016 174.528 
L 255.8016 174.528 
L 254.9088 174.528 
z
" clip-path="url(#p37a3670ccf)" style="fill: #0000ff; opacity: 0.5"/>
   </g>
   <g id="patch_35">
    <path d="M 255.8016 174.528 
L 256.6944 174.528 
L 256.6944 174.528 
L 255.8016 174.528 
z
" clip-path="url(#p37a3670ccf)" style="fill: #0000ff; opacity: 0.5"/>
   </g>
   <g id="patch_36">
    <path d="M 256.6944 174.528 
L 257.5872 174.528 
L 257.5872 174.528 
L 256.6944 174.528 
z
" clip-path="url(#p37a3670ccf)" style="fill: #0000ff; opacity: 0.5"/>
   </g>
   <g id="patch_37">
    <path d="M 257.5872 174.528 
L 258.48 174.528 
L 258.48 174.528 
L 257.5872 174.528 
z
" clip-path="url(#p37a3670ccf)" style="fill: #0000ff; opacity: 0.5"/>
   </g>
   <g id="patch_38">
    <path d="M 258.48 174.528 
L 259.3728 174.528 
L 259.3728 174.528 
L 258.48 174.528 
z
" clip-path="url(#p37a3670ccf)" style="fill: #0000ff; opacity: 0.5"/>
   </g>
   <g id="patch_39">
    <path d="M 259.3728 174.528 
L 260.2656 174.528 
L 260.2656 174.528 
L 259.3728 174.528 
z
" clip-path="url(#p37a3670ccf)" style="fill: #0000ff; opacity: 0.5"/>
   </g>
   <g id="patch_40">
    <path d="M 260.2656 174.528 
L 261.1584 174.528 
L 261.1584 174.528 
L 260.2656 174.528 
z
" clip-path="url(#p37a3670ccf)" style="fill: #0000ff; opacity: 0.5"/>
   </g>
   <g id="patch_41">
    <path d="M 261.1584 174.528 
L 262.0512 174.528 
L 262.0512 174.528 
L 261.1584 174.528 
z
" clip-path="url(#p37a3670ccf)" style="fill: #0000ff; opacity: 0.5"/>
   </g>
   <g id="patch_42">
    <path d="M 262.0512 174.528 
L 262.944 174.528 
L 262.944 174.528 
L 262.0512 174.528 
z
" clip-path="url(#p37a3670ccf)" style="fill: #0000ff; opacity: 0.5"/>
   </g>
   <g id="patch_43">
    <path d="M 262.944 174.528 
L 263.8368 174.528 
L 263.8368 174.528 
L 262.944 174.528 
z
" clip-path="url(#p37a3670ccf)" style="fill: #0000ff; opacity: 0.5"/>
   </g>
   <g id="patch_44">
    <path d="M 263.8368 174.528 
L 264.7296 174.528 
L 264.7296 174.528 
L 263.8368 174.528 
z
" clip-path="url(#p37a3670ccf)" style="fill: #0000ff; opacity: 0.5"/>
   </g>
   <g id="patch_45">
    <path d="M 264.7296 174.528 
L 265.6224 174.528 
L 265.6224 174.528 
L 264.7296 174.528 
z
" clip-path="url(#p37a3670ccf)" style="fill: #0000ff; opacity: 0.5"/>
   </g>
   <g id="patch_46">
    <path d="M 265.6224 174.528 
L 266.5152 174.528 
L 266.5152 174.528 
L 265.6224 174.528 
z
" clip-path="url(#p37a3670ccf)" style="fill: #0000ff; opacity: 0.5"/>
   </g>
   <g id="patch_47">
    <path d="M 266.5152 174.528 
L 267.408 174.528 
L 267.408 174.528 
L 266.5152 174.528 
z
" clip-path="url(#p37a3670ccf)" style="fill: #0000ff; opacity: 0.5"/>
   </g>
   <g id="patch_48">
    <path d="M 267.408 174.528 
L 268.3008 174.528 
L 268.3008 174.528 
L 267.408 174.528 
z
" clip-path="url(#p37a3670ccf)" style="fill: #0000ff; opacity: 0.5"/>
   </g>
   <g id="patch_49">
    <path d="M 268.3008 174.528 
L 269.1936 174.528 
L 269.1936 174.528 
L 268.3008 174.528 
z
" clip-path="url(#p37a3670ccf)" style="fill: #0000ff; opacity: 0.5"/>
   </g>
   <g id="patch_50">
    <path d="M 269.1936 174.528 
L 270.0864 174.528 
L 270.0864 174.528 
L 269.1936 174.528 
z
" clip-path="url(#p37a3670ccf)" style="fill: #0000ff; opacity: 0.5"/>
   </g>
   <g id="patch_51">
    <path d="M 270.0864 174.528 
L 270.9792 174.528 
L 270.9792 174.528 
L 270.0864 174.528 
z
" clip-path="url(#p37a3670ccf)" style="fill: #0000ff; opacity: 0.5"/>
   </g>
   <g id="patch_52">
    <path d="M 270.9792 174.528 
L 271.872 174.528 
L 271.872 174.528 
L 270.9792 174.528 
z
" clip-path="url(#p37a3670ccf)" style="fill: #0000ff; opacity: 0.5"/>
   </g>
   <g id="patch_53">
    <path d="M 271.872 174.528 
L 272.7648 174.528 
L 272.7648 174.528 
L 271.872 174.528 
z
" clip-path="url(#p37a3670ccf)" style="fill: #0000ff; opacity: 0.5"/>
   </g>
   <g id="patch_54">
    <path d="M 272.7648 174.528 
L 273.6576 174.528 
L 273.6576 174.528 
L 272.7648 174.528 
z
" clip-path="url(#p37a3670ccf)" style="fill: #0000ff; opacity: 0.5"/>
   </g>
   <g id="patch_55">
    <path d="M 273.6576 174.528 
L 274.5504 174.528 
L 274.5504 174.528 
L 273.6576 174.528 
z
" clip-path="url(#p37a3670ccf)" style="fill: #0000ff; opacity: 0.5"/>
   </g>
   <g id="patch_56">
    <path d="M 274.5504 174.528 
L 275.4432 174.528 
L 275.4432 174.528 
L 274.5504 174.528 
z
" clip-path="url(#p37a3670ccf)" style="fill: #0000ff; opacity: 0.5"/>
   </g>
   <g id="patch_57">
    <path d="M 275.4432 174.528 
L 276.336 174.528 
L 276.336 174.528 
L 275.4432 174.528 
z
" clip-path="url(#p37a3670ccf)" style="fill: #0000ff; opacity: 0.5"/>
   </g>
   <g id="patch_58">
    <path d="M 276.336 174.528 
L 277.2288 174.528 
L 277.2288 174.528 
L 276.336 174.528 
z
" clip-path="url(#p37a3670ccf)" style="fill: #0000ff; opacity: 0.5"/>
   </g>
   <g id="patch_59">
    <path d="M 277.2288 174.528 
L 278.1216 174.528 
L 278.1216 174.528 
L 277.2288 174.528 
z
" clip-path="url(#p37a3670ccf)" style="fill: #0000ff; opacity: 0.5"/>
   </g>
   <g id="patch_60">
    <path d="M 278.1216 174.528 
L 279.0144 174.528 
L 279.0144 174.528 
L 278.1216 174.528 
z
" clip-path="url(#p37a3670ccf)" style="fill: #0000ff; opacity: 0.5"/>
   </g>
   <g id="patch_61">
    <path d="M 279.0144 174.528 
L 279.9072 174.528 
L 279.9072 174.528 
L 279.0144 174.528 
z
" clip-path="url(#p37a3670ccf)" style="fill: #0000ff; opacity: 0.5"/>
   </g>
   <g id="patch_62">
    <path d="M 279.9072 174.528 
L 280.8 174.528 
L 280.8 174.528 
L 279.9072 174.528 
z
" clip-path="url(#p37a3670ccf)" style="fill: #0000ff; opacity: 0.5"/>
   </g>
   <g id="patch_63">
    <path d="M 280.8 174.528 
L 281.6928 174.528 
L 281.6928 174.528 
L 280.8 174.528 
z
" clip-path="url(#p37a3670ccf)" style="fill: #0000ff; opacity: 0.5"/>
   </g>
   <g id="patch_64">
    <path d="M 281.6928 174.528 
L 282.5856 174.528 
L 282.5856 174.528 
L 281.6928 174.528 
z
" clip-path="url(#p37a3670ccf)" style="fill: #0000ff; opacity: 0.5"/>
   </g>
   <g id="patch_65">
    <path d="M 282.5856 174.528 
L 283.4784 174.528 
L 283.4784 174.528 
L 282.5856 174.528 
z
" clip-path="url(#p37a3670ccf)" style="fill: #0000ff; opacity: 0.5"/>
   </g>
   <g id="patch_66">
    <path d="M 283.4784 174.528 
L 284.3712 174.528 
L 284.3712 174.528 
L 283.4784 174.528 
z
" clip-path="url(#p37a3670ccf)" style="fill: #0000ff; opacity: 0.5"/>
   </g>
   <g id="patch_67">
    <path d="M 284.3712 174.528 
L 285.264 174.528 
L 285.264 174.528 
L 284.3712 174.528 
z
" clip-path="url(#p37a3670ccf)" style="fill: #0000ff; opacity: 0.5"/>
   </g>
   <g id="patch_68">
    <path d="M 285.264 174.528 
L 286.1568 174.528 
L 286.1568 174.528 
L 285.264 174.528 
z
" clip-path="url(#p37a3670ccf)" style="fill: #0000ff; opacity: 0.5"/>
   </g>
   <g id="patch_69">
    <path d="M 286.1568 174.528 
L 287.0496 174.528 
L 287.0496 174.528 
L 286.1568 174.528 
z
" clip-path="url(#p37a3670ccf)" style="fill: #0000ff; opacity: 0.5"/>
   </g>
   <g id="patch_70">
    <path d="M 287.0496 174.528 
L 287.9424 174.528 
L 287.9424 174.528 
L 287.0496 174.528 
z
" clip-path="url(#p37a3670ccf)" style="fill: #0000ff; opacity: 0.5"/>
   </g>
   <g id="patch_71">
    <path d="M 287.9424 174.528 
L 288.8352 174.528 
L 288.8352 174.528 
L 287.9424 174.528 
z
" clip-path="url(#p37a3670ccf)" style="fill: #0000ff; opacity: 0.5"/>
   </g>
   <g id="patch_72">
    <path d="M 288.8352 174.528 
L 289.728 174.528 
L 289.728 174.528 
L 288.8352 174.528 
z
" clip-path="url(#p37a3670ccf)" style="fill: #0000ff; opacity: 0.5"/>
   </g>
   <g id="patch_73">
    <path d="M 289.728 174.528 
L 290.6208 174.528 
L 290.6208 174.528 
L 289.728 174.528 
z
" clip-path="url(#p37a3670ccf)" style="fill: #0000ff; opacity: 0.5"/>
   </g>
   <g id="patch_74">
    <path d="M 290.6208 174.528 
L 291.5136 174.528 
L 291.5136 174.528 
L 290.6208 174.528 
z
" clip-path="url(#p37a3670ccf)" style="fill: #0000ff; opacity: 0.5"/>
   </g>
   <g id="patch_75">
    <path d="M 291.5136 174.528 
L 292.4064 174.528 
L 292.4064 174.528 
L 291.5136 174.528 
z
" clip-path="url(#p37a3670ccf)" style="fill: #0000ff; opacity: 0.5"/>
   </g>
   <g id="patch_76">
    <path d="M 292.4064 174.528 
L 293.2992 174.528 
L 293.2992 174.528 
L 292.4064 174.528 
z
" clip-path="url(#p37a3670ccf)" style="fill: #0000ff; opacity: 0.5"/>
   </g>
   <g id="patch_77">
    <path d="M 293.2992 174.528 
L 294.192 174.528 
L 294.192 174.528 
L 293.2992 174.528 
z
" clip-path="url(#p37a3670ccf)" style="fill: #0000ff; opacity: 0.5"/>
   </g>
   <g id="patch_78">
    <path d="M 294.192 174.528 
L 295.0848 174.528 
L 295.0848 174.528 
L 294.192 174.528 
z
" clip-path="url(#p37a3670ccf)" style="fill: #0000ff; opacity: 0.5"/>
   </g>
   <g id="patch_79">
    <path d="M 295.0848 174.528 
L 295.9776 174.528 
L 295.9776 174.528 
L 295.0848 174.528 
z
" clip-path="url(#p37a3670ccf)" style="fill: #0000ff; opacity: 0.5"/>
   </g>
   <g id="patch_80">
    <path d="M 295.9776 174.528 
L 296.8704 174.528 
L 296.8704 174.528 
L 295.9776 174.528 
z
" clip-path="url(#p37a3670ccf)" style="fill: #0000ff; opacity: 0.5"/>
   </g>
   <g id="patch_81">
    <path d="M 296.8704 174.528 
L 297.7632 174.528 
L 297.7632 174.528 
L 296.8704 174.528 
z
" clip-path="url(#p37a3670ccf)" style="fill: #0000ff; opacity: 0.5"/>
   </g>
   <g id="patch_82">
    <path d="M 297.7632 174.528 
L 298.656 174.528 
L 298.656 174.528 
L 297.7632 174.528 
z
" clip-path="url(#p37a3670ccf)" style="fill: #0000ff; opacity: 0.5"/>
   </g>
   <g id="patch_83">
    <path d="M 298.656 174.528 
L 299.5488 174.528 
L 299.5488 174.528 
L 298.656 174.528 
z
" clip-path="url(#p37a3670ccf)" style="fill: #0000ff; opacity: 0.5"/>
   </g>
   <g id="patch_84">
    <path d="M 299.5488 174.528 
L 300.4416 174.528 
L 300.4416 174.528 
L 299.5488 174.528 
z
" clip-path="url(#p37a3670ccf)" style="fill: #0000ff; opacity: 0.5"/>
   </g>
   <g id="patch_85">
    <path d="M 300.4416 174.528 
L 301.3344 174.528 
L 301.3344 174.528 
L 300.4416 174.528 
z
" clip-path="url(#p37a3670ccf)" style="fill: #0000ff; opacity: 0.5"/>
   </g>
   <g id="patch_86">
    <path d="M 301.3344 174.528 
L 302.2272 174.528 
L 302.2272 174.528 
L 301.3344 174.528 
z
" clip-path="url(#p37a3670ccf)" style="fill: #0000ff; opacity: 0.5"/>
   </g>
   <g id="patch_87">
    <path d="M 302.2272 174.528 
L 303.12 174.528 
L 303.12 174.528 
L 302.2272 174.528 
z
" clip-path="url(#p37a3670ccf)" style="fill: #0000ff; opacity: 0.5"/>
   </g>
   <g id="patch_88">
    <path d="M 303.12 174.528 
L 304.0128 174.528 
L 304.0128 174.528 
L 303.12 174.528 
z
" clip-path="url(#p37a3670ccf)" style="fill: #0000ff; opacity: 0.5"/>
   </g>
   <g id="patch_89">
    <path d="M 304.0128 174.528 
L 304.9056 174.528 
L 304.9056 174.528 
L 304.0128 174.528 
z
" clip-path="url(#p37a3670ccf)" style="fill: #0000ff; opacity: 0.5"/>
   </g>
   <g id="patch_90">
    <path d="M 304.9056 174.528 
L 305.7984 174.528 
L 305.7984 174.528 
L 304.9056 174.528 
z
" clip-path="url(#p37a3670ccf)" style="fill: #0000ff; opacity: 0.5"/>
   </g>
   <g id="patch_91">
    <path d="M 305.7984 174.528 
L 306.6912 174.528 
L 306.6912 174.528 
L 305.7984 174.528 
z
" clip-path="url(#p37a3670ccf)" style="fill: #0000ff; opacity: 0.5"/>
   </g>
   <g id="patch_92">
    <path d="M 306.6912 174.528 
L 307.584 174.528 
L 307.584 174.528 
L 306.6912 174.528 
z
" clip-path="url(#p37a3670ccf)" style="fill: #0000ff; opacity: 0.5"/>
   </g>
   <g id="patch_93">
    <path d="M 307.584 174.528 
L 308.4768 174.528 
L 308.4768 174.528 
L 307.584 174.528 
z
" clip-path="url(#p37a3670ccf)" style="fill: #0000ff; opacity: 0.5"/>
   </g>
   <g id="patch_94">
    <path d="M 308.4768 174.528 
L 309.3696 174.528 
L 309.3696 174.528 
L 308.4768 174.528 
z
" clip-path="url(#p37a3670ccf)" style="fill: #0000ff; opacity: 0.5"/>
   </g>
   <g id="patch_95">
    <path d="M 309.3696 174.528 
L 310.2624 174.528 
L 310.2624 174.528 
L 309.3696 174.528 
z
" clip-path="url(#p37a3670ccf)" style="fill: #0000ff; opacity: 0.5"/>
   </g>
   <g id="patch_96">
    <path d="M 310.2624 174.528 
L 311.1552 174.528 
L 311.1552 174.528 
L 310.2624 174.528 
z
" clip-path="url(#p37a3670ccf)" style="fill: #0000ff; opacity: 0.5"/>
   </g>
   <g id="patch_97">
    <path d="M 311.1552 174.528 
L 312.048 174.528 
L 312.048 174.528 
L 311.1552 174.528 
z
" clip-path="url(#p37a3670ccf)" style="fill: #0000ff; opacity: 0.5"/>
   </g>
   <g id="patch_98">
    <path d="M 312.048 174.528 
L 312.9408 174.528 
L 312.9408 174.528 
L 312.048 174.528 
z
" clip-path="url(#p37a3670ccf)" style="fill: #0000ff; opacity: 0.5"/>
   </g>
   <g id="patch_99">
    <path d="M 312.9408 174.528 
L 313.8336 174.528 
L 313.8336 174.528 
L 312.9408 174.528 
z
" clip-path="url(#p37a3670ccf)" style="fill: #0000ff; opacity: 0.5"/>
   </g>
   <g id="patch_100">
    <path d="M 313.8336 174.528 
L 314.7264 174.528 
L 314.7264 174.528 
L 313.8336 174.528 
z
" clip-path="url(#p37a3670ccf)" style="fill: #0000ff; opacity: 0.5"/>
   </g>
   <g id="patch_101">
    <path d="M 314.7264 174.528 
L 315.6192 174.528 
L 315.6192 174.528 
L 314.7264 174.528 
z
" clip-path="url(#p37a3670ccf)" style="fill: #0000ff; opacity: 0.5"/>
   </g>
   <g id="patch_102">
    <path d="M 315.6192 174.528 
L 316.512 174.528 
L 316.512 174.528 
L 315.6192 174.528 
z
" clip-path="url(#p37a3670ccf)" style="fill: #0000ff; opacity: 0.5"/>
   </g>
   <g id="patch_103">
    <path d="M 316.512 174.528 
L 317.4048 174.528 
L 317.4048 174.528 
L 316.512 174.528 
z
" clip-path="url(#p37a3670ccf)" style="fill: #0000ff; opacity: 0.5"/>
   </g>
   <g id="patch_104">
    <path d="M 317.4048 174.528 
L 318.2976 174.528 
L 318.2976 174.528 
L 317.4048 174.528 
z
" clip-path="url(#p37a3670ccf)" style="fill: #0000ff; opacity: 0.5"/>
   </g>
   <g id="patch_105">
    <path d="M 318.2976 174.528 
L 319.1904 174.528 
L 319.1904 174.528 
L 318.2976 174.528 
z
" clip-path="url(#p37a3670ccf)" style="fill: #0000ff; opacity: 0.5"/>
   </g>
   <g id="patch_106">
    <path d="M 319.1904 174.528 
L 320.0832 174.528 
L 320.0832 174.528 
L 319.1904 174.528 
z
" clip-path="url(#p37a3670ccf)" style="fill: #0000ff; opacity: 0.5"/>
   </g>
   <g id="patch_107">
    <path d="M 320.0832 174.528 
L 320.976 174.528 
L 320.976 174.528 
L 320.0832 174.528 
z
" clip-path="url(#p37a3670ccf)" style="fill: #0000ff; opacity: 0.5"/>
   </g>
   <g id="patch_108">
    <path d="M 320.976 174.528 
L 321.8688 174.528 
L 321.8688 174.528 
L 320.976 174.528 
z
" clip-path="url(#p37a3670ccf)" style="fill: #0000ff; opacity: 0.5"/>
   </g>
   <g id="patch_109">
    <path d="M 321.8688 174.528 
L 322.7616 174.528 
L 322.7616 174.528 
L 321.8688 174.528 
z
" clip-path="url(#p37a3670ccf)" style="fill: #0000ff; opacity: 0.5"/>
   </g>
   <g id="patch_110">
    <path d="M 322.7616 174.528 
L 323.6544 174.528 
L 323.6544 174.528 
L 322.7616 174.528 
z
" clip-path="url(#p37a3670ccf)" style="fill: #0000ff; opacity: 0.5"/>
   </g>
   <g id="patch_111">
    <path d="M 323.6544 174.528 
L 324.5472 174.528 
L 324.5472 174.528 
L 323.6544 174.528 
z
" clip-path="url(#p37a3670ccf)" style="fill: #0000ff; opacity: 0.5"/>
   </g>
   <g id="patch_112">
    <path d="M 324.5472 174.528 
L 325.44 174.528 
L 325.44 174.528 
L 324.5472 174.528 
z
" clip-path="url(#p37a3670ccf)" style="fill: #0000ff; opacity: 0.5"/>
   </g>
   <g id="patch_113">
    <path d="M 325.44 174.528 
L 326.3328 174.528 
L 326.3328 174.528 
L 325.44 174.528 
z
" clip-path="url(#p37a3670ccf)" style="fill: #0000ff; opacity: 0.5"/>
   </g>
   <g id="patch_114">
    <path d="M 326.3328 174.528 
L 327.2256 174.528 
L 327.2256 174.528 
L 326.3328 174.528 
z
" clip-path="url(#p37a3670ccf)" style="fill: #0000ff; opacity: 0.5"/>
   </g>
   <g id="patch_115">
    <path d="M 327.2256 174.528 
L 328.1184 174.528 
L 328.1184 174.528 
L 327.2256 174.528 
z
" clip-path="url(#p37a3670ccf)" style="fill: #0000ff; opacity: 0.5"/>
   </g>
   <g id="patch_116">
    <path d="M 328.1184 174.528 
L 329.0112 174.528 
L 329.0112 174.528 
L 328.1184 174.528 
z
" clip-path="url(#p37a3670ccf)" style="fill: #0000ff; opacity: 0.5"/>
   </g>
   <g id="patch_117">
    <path d="M 329.0112 174.528 
L 329.904 174.528 
L 329.904 174.528 
L 329.0112 174.528 
z
" clip-path="url(#p37a3670ccf)" style="fill: #0000ff; opacity: 0.5"/>
   </g>
   <g id="patch_118">
    <path d="M 329.904 174.528 
L 330.7968 174.528 
L 330.7968 174.528 
L 329.904 174.528 
z
" clip-path="url(#p37a3670ccf)" style="fill: #0000ff; opacity: 0.5"/>
   </g>
   <g id="patch_119">
    <path d="M 330.7968 174.528 
L 331.6896 174.528 
L 331.6896 174.528 
L 330.7968 174.528 
z
" clip-path="url(#p37a3670ccf)" style="fill: #0000ff; opacity: 0.5"/>
   </g>
   <g id="patch_120">
    <path d="M 331.6896 174.528 
L 332.5824 174.528 
L 332.5824 174.528 
L 331.6896 174.528 
z
" clip-path="url(#p37a3670ccf)" style="fill: #0000ff; opacity: 0.5"/>
   </g>
   <g id="patch_121">
    <path d="M 332.5824 174.528 
L 333.4752 174.528 
L 333.4752 174.528 
L 332.5824 174.528 
z
" clip-path="url(#p37a3670ccf)" style="fill: #0000ff; opacity: 0.5"/>
   </g>
   <g id="patch_122">
    <path d="M 333.4752 174.528 
L 334.368 174.528 
L 334.368 174.528 
L 333.4752 174.528 
z
" clip-path="url(#p37a3670ccf)" style="fill: #0000ff; opacity: 0.5"/>
   </g>
   <g id="patch_123">
    <path d="M 334.368 174.528 
L 335.2608 174.528 
L 335.2608 174.528 
L 334.368 174.528 
z
" clip-path="url(#p37a3670ccf)" style="fill: #0000ff; opacity: 0.5"/>
   </g>
   <g id="patch_124">
    <path d="M 335.2608 174.528 
L 336.1536 174.528 
L 336.1536 174.528 
L 335.2608 174.528 
z
" clip-path="url(#p37a3670ccf)" style="fill: #0000ff; opacity: 0.5"/>
   </g>
   <g id="patch_125">
    <path d="M 336.1536 174.528 
L 337.0464 174.528 
L 337.0464 174.528 
L 336.1536 174.528 
z
" clip-path="url(#p37a3670ccf)" style="fill: #0000ff; opacity: 0.5"/>
   </g>
   <g id="patch_126">
    <path d="M 337.0464 174.528 
L 337.9392 174.528 
L 337.9392 174.528 
L 337.0464 174.528 
z
" clip-path="url(#p37a3670ccf)" style="fill: #0000ff; opacity: 0.5"/>
   </g>
   <g id="patch_127">
    <path d="M 337.9392 174.528 
L 338.832 174.528 
L 338.832 174.528 
L 337.9392 174.528 
z
" clip-path="url(#p37a3670ccf)" style="fill: #0000ff; opacity: 0.5"/>
   </g>
   <g id="patch_128">
    <path d="M 338.832 174.528 
L 339.7248 174.528 
L 339.7248 174.528 
L 338.832 174.528 
z
" clip-path="url(#p37a3670ccf)" style="fill: #0000ff; opacity: 0.5"/>
   </g>
   <g id="patch_129">
    <path d="M 339.7248 174.528 
L 340.6176 174.528 
L 340.6176 174.528 
L 339.7248 174.528 
z
" clip-path="url(#p37a3670ccf)" style="fill: #0000ff; opacity: 0.5"/>
   </g>
   <g id="patch_130">
    <path d="M 340.6176 174.528 
L 341.5104 174.528 
L 341.5104 174.528 
L 340.6176 174.528 
z
" clip-path="url(#p37a3670ccf)" style="fill: #0000ff; opacity: 0.5"/>
   </g>
   <g id="patch_131">
    <path d="M 341.5104 174.528 
L 342.4032 174.528 
L 342.4032 174.528 
L 341.5104 174.528 
z
" clip-path="url(#p37a3670ccf)" style="fill: #0000ff; opacity: 0.5"/>
   </g>
   <g id="patch_132">
    <path d="M 342.4032 174.528 
L 343.296 174.528 
L 343.296 174.528 
L 342.4032 174.528 
z
" clip-path="url(#p37a3670ccf)" style="fill: #0000ff; opacity: 0.5"/>
   </g>
   <g id="patch_133">
    <path d="M 343.296 174.528 
L 344.1888 174.528 
L 344.1888 174.528 
L 343.296 174.528 
z
" clip-path="url(#p37a3670ccf)" style="fill: #0000ff; opacity: 0.5"/>
   </g>
   <g id="patch_134">
    <path d="M 344.1888 174.528 
L 345.0816 174.528 
L 345.0816 174.528 
L 344.1888 174.528 
z
" clip-path="url(#p37a3670ccf)" style="fill: #0000ff; opacity: 0.5"/>
   </g>
   <g id="patch_135">
    <path d="M 345.0816 174.528 
L 345.9744 174.528 
L 345.9744 174.528 
L 345.0816 174.528 
z
" clip-path="url(#p37a3670ccf)" style="fill: #0000ff; opacity: 0.5"/>
   </g>
   <g id="patch_136">
    <path d="M 345.9744 174.528 
L 346.8672 174.528 
L 346.8672 174.528 
L 345.9744 174.528 
z
" clip-path="url(#p37a3670ccf)" style="fill: #0000ff; opacity: 0.5"/>
   </g>
   <g id="patch_137">
    <path d="M 346.8672 174.528 
L 347.76 174.528 
L 347.76 174.528 
L 346.8672 174.528 
z
" clip-path="url(#p37a3670ccf)" style="fill: #0000ff; opacity: 0.5"/>
   </g>
   <g id="patch_138">
    <path d="M 347.76 174.528 
L 348.6528 174.528 
L 348.6528 174.528 
L 347.76 174.528 
z
" clip-path="url(#p37a3670ccf)" style="fill: #0000ff; opacity: 0.5"/>
   </g>
   <g id="patch_139">
    <path d="M 348.6528 174.528 
L 349.5456 174.528 
L 349.5456 174.528 
L 348.6528 174.528 
z
" clip-path="url(#p37a3670ccf)" style="fill: #0000ff; opacity: 0.5"/>
   </g>
   <g id="patch_140">
    <path d="M 349.5456 174.528 
L 350.4384 174.528 
L 350.4384 174.528 
L 349.5456 174.528 
z
" clip-path="url(#p37a3670ccf)" style="fill: #0000ff; opacity: 0.5"/>
   </g>
   <g id="patch_141">
    <path d="M 350.4384 174.528 
L 351.3312 174.528 
L 351.3312 174.528 
L 350.4384 174.528 
z
" clip-path="url(#p37a3670ccf)" style="fill: #0000ff; opacity: 0.5"/>
   </g>
   <g id="patch_142">
    <path d="M 351.3312 174.528 
L 352.224 174.528 
L 352.224 174.528 
L 351.3312 174.528 
z
" clip-path="url(#p37a3670ccf)" style="fill: #0000ff; opacity: 0.5"/>
   </g>
   <g id="patch_143">
    <path d="M 352.224 174.528 
L 353.1168 174.528 
L 353.1168 174.528 
L 352.224 174.528 
z
" clip-path="url(#p37a3670ccf)" style="fill: #0000ff; opacity: 0.5"/>
   </g>
   <g id="patch_144">
    <path d="M 353.1168 174.528 
L 354.0096 174.528 
L 354.0096 174.528 
L 353.1168 174.528 
z
" clip-path="url(#p37a3670ccf)" style="fill: #0000ff; opacity: 0.5"/>
   </g>
   <g id="patch_145">
    <path d="M 354.0096 174.528 
L 354.9024 174.528 
L 354.9024 174.528 
L 354.0096 174.528 
z
" clip-path="url(#p37a3670ccf)" style="fill: #0000ff; opacity: 0.5"/>
   </g>
   <g id="patch_146">
    <path d="M 354.9024 174.528 
L 355.7952 174.528 
L 355.7952 174.528 
L 354.9024 174.528 
z
" clip-path="url(#p37a3670ccf)" style="fill: #0000ff; opacity: 0.5"/>
   </g>
   <g id="patch_147">
    <path d="M 355.7952 174.528 
L 356.688 174.528 
L 356.688 174.528 
L 355.7952 174.528 
z
" clip-path="url(#p37a3670ccf)" style="fill: #0000ff; opacity: 0.5"/>
   </g>
   <g id="patch_148">
    <path d="M 356.688 174.528 
L 357.5808 174.528 
L 357.5808 174.528 
L 356.688 174.528 
z
" clip-path="url(#p37a3670ccf)" style="fill: #0000ff; opacity: 0.5"/>
   </g>
   <g id="patch_149">
    <path d="M 357.5808 174.528 
L 358.4736 174.528 
L 358.4736 174.528 
L 357.5808 174.528 
z
" clip-path="url(#p37a3670ccf)" style="fill: #0000ff; opacity: 0.5"/>
   </g>
   <g id="patch_150">
    <path d="M 358.4736 174.528 
L 359.3664 174.528 
L 359.3664 174.528 
L 358.4736 174.528 
z
" clip-path="url(#p37a3670ccf)" style="fill: #0000ff; opacity: 0.5"/>
   </g>
   <g id="patch_151">
    <path d="M 359.3664 174.528 
L 360.2592 174.528 
L 360.2592 174.528 
L 359.3664 174.528 
z
" clip-path="url(#p37a3670ccf)" style="fill: #0000ff; opacity: 0.5"/>
   </g>
   <g id="patch_152">
    <path d="M 360.2592 174.528 
L 361.152 174.528 
L 361.152 174.528 
L 360.2592 174.528 
z
" clip-path="url(#p37a3670ccf)" style="fill: #0000ff; opacity: 0.5"/>
   </g>
   <g id="patch_153">
    <path d="M 361.152 174.528 
L 362.0448 174.528 
L 362.0448 174.528 
L 361.152 174.528 
z
" clip-path="url(#p37a3670ccf)" style="fill: #0000ff; opacity: 0.5"/>
   </g>
   <g id="patch_154">
    <path d="M 362.0448 174.528 
L 362.9376 174.528 
L 362.9376 174.528 
L 362.0448 174.528 
z
" clip-path="url(#p37a3670ccf)" style="fill: #0000ff; opacity: 0.5"/>
   </g>
   <g id="patch_155">
    <path d="M 362.9376 174.528 
L 363.8304 174.528 
L 363.8304 174.528 
L 362.9376 174.528 
z
" clip-path="url(#p37a3670ccf)" style="fill: #0000ff; opacity: 0.5"/>
   </g>
   <g id="patch_156">
    <path d="M 363.8304 174.528 
L 364.7232 174.528 
L 364.7232 174.528 
L 363.8304 174.528 
z
" clip-path="url(#p37a3670ccf)" style="fill: #0000ff; opacity: 0.5"/>
   </g>
   <g id="patch_157">
    <path d="M 364.7232 174.528 
L 365.616 174.528 
L 365.616 174.528 
L 364.7232 174.528 
z
" clip-path="url(#p37a3670ccf)" style="fill: #0000ff; opacity: 0.5"/>
   </g>
   <g id="patch_158">
    <path d="M 365.616 174.528 
L 366.5088 174.528 
L 366.5088 174.528 
L 365.616 174.528 
z
" clip-path="url(#p37a3670ccf)" style="fill: #0000ff; opacity: 0.5"/>
   </g>
   <g id="patch_159">
    <path d="M 366.5088 174.528 
L 367.4016 174.528 
L 367.4016 174.528 
L 366.5088 174.528 
z
" clip-path="url(#p37a3670ccf)" style="fill: #0000ff; opacity: 0.5"/>
   </g>
   <g id="patch_160">
    <path d="M 367.4016 174.528 
L 368.2944 174.528 
L 368.2944 174.528 
L 367.4016 174.528 
z
" clip-path="url(#p37a3670ccf)" style="fill: #0000ff; opacity: 0.5"/>
   </g>
   <g id="patch_161">
    <path d="M 368.2944 174.528 
L 369.1872 174.528 
L 369.1872 174.528 
L 368.2944 174.528 
z
" clip-path="url(#p37a3670ccf)" style="fill: #0000ff; opacity: 0.5"/>
   </g>
   <g id="patch_162">
    <path d="M 369.1872 174.528 
L 370.08 174.528 
L 370.08 174.528 
L 369.1872 174.528 
z
" clip-path="url(#p37a3670ccf)" style="fill: #0000ff; opacity: 0.5"/>
   </g>
   <g id="patch_163">
    <path d="M 370.08 174.528 
L 370.9728 174.528 
L 370.9728 174.528 
L 370.08 174.528 
z
" clip-path="url(#p37a3670ccf)" style="fill: #0000ff; opacity: 0.5"/>
   </g>
   <g id="patch_164">
    <path d="M 370.9728 174.528 
L 371.8656 174.528 
L 371.8656 174.528 
L 370.9728 174.528 
z
" clip-path="url(#p37a3670ccf)" style="fill: #0000ff; opacity: 0.5"/>
   </g>
   <g id="patch_165">
    <path d="M 371.8656 174.528 
L 372.7584 174.528 
L 372.7584 174.528 
L 371.8656 174.528 
z
" clip-path="url(#p37a3670ccf)" style="fill: #0000ff; opacity: 0.5"/>
   </g>
   <g id="patch_166">
    <path d="M 372.7584 174.528 
L 373.6512 174.528 
L 373.6512 174.528 
L 372.7584 174.528 
z
" clip-path="url(#p37a3670ccf)" style="fill: #0000ff; opacity: 0.5"/>
   </g>
   <g id="patch_167">
    <path d="M 373.6512 174.528 
L 374.544 174.528 
L 374.544 174.528 
L 373.6512 174.528 
z
" clip-path="url(#p37a3670ccf)" style="fill: #0000ff; opacity: 0.5"/>
   </g>
   <g id="patch_168">
    <path d="M 374.544 174.528 
L 375.4368 174.528 
L 375.4368 174.528 
L 374.544 174.528 
z
" clip-path="url(#p37a3670ccf)" style="fill: #0000ff; opacity: 0.5"/>
   </g>
   <g id="patch_169">
    <path d="M 375.4368 174.528 
L 376.3296 174.528 
L 376.3296 174.528 
L 375.4368 174.528 
z
" clip-path="url(#p37a3670ccf)" style="fill: #0000ff; opacity: 0.5"/>
   </g>
   <g id="patch_170">
    <path d="M 376.3296 174.528 
L 377.2224 174.528 
L 377.2224 174.528 
L 376.3296 174.528 
z
" clip-path="url(#p37a3670ccf)" style="fill: #0000ff; opacity: 0.5"/>
   </g>
   <g id="patch_171">
    <path d="M 377.2224 174.528 
L 378.1152 174.528 
L 378.1152 174.528 
L 377.2224 174.528 
z
" clip-path="url(#p37a3670ccf)" style="fill: #0000ff; opacity: 0.5"/>
   </g>
   <g id="patch_172">
    <path d="M 378.1152 174.528 
L 379.008 174.528 
L 379.008 174.528 
L 378.1152 174.528 
z
" clip-path="url(#p37a3670ccf)" style="fill: #0000ff; opacity: 0.5"/>
   </g>
   <g id="patch_173">
    <path d="M 379.008 174.528 
L 379.9008 174.528 
L 379.9008 174.528 
L 379.008 174.528 
z
" clip-path="url(#p37a3670ccf)" style="fill: #0000ff; opacity: 0.5"/>
   </g>
   <g id="patch_174">
    <path d="M 379.9008 174.528 
L 380.7936 174.528 
L 380.7936 174.528 
L 379.9008 174.528 
z
" clip-path="url(#p37a3670ccf)" style="fill: #0000ff; opacity: 0.5"/>
   </g>
   <g id="patch_175">
    <path d="M 380.7936 174.528 
L 381.6864 174.528 
L 381.6864 174.528 
L 380.7936 174.528 
z
" clip-path="url(#p37a3670ccf)" style="fill: #0000ff; opacity: 0.5"/>
   </g>
   <g id="patch_176">
    <path d="M 381.6864 174.528 
L 382.5792 174.528 
L 382.5792 174.528 
L 381.6864 174.528 
z
" clip-path="url(#p37a3670ccf)" style="fill: #0000ff; opacity: 0.5"/>
   </g>
   <g id="patch_177">
    <path d="M 382.5792 174.528 
L 383.472 174.528 
L 383.472 174.528 
L 382.5792 174.528 
z
" clip-path="url(#p37a3670ccf)" style="fill: #0000ff; opacity: 0.5"/>
   </g>
   <g id="patch_178">
    <path d="M 383.472 174.528 
L 384.3648 174.528 
L 384.3648 174.528 
L 383.472 174.528 
z
" clip-path="url(#p37a3670ccf)" style="fill: #0000ff; opacity: 0.5"/>
   </g>
   <g id="patch_179">
    <path d="M 384.3648 174.528 
L 385.2576 174.528 
L 385.2576 174.528 
L 384.3648 174.528 
z
" clip-path="url(#p37a3670ccf)" style="fill: #0000ff; opacity: 0.5"/>
   </g>
   <g id="patch_180">
    <path d="M 385.2576 174.528 
L 386.1504 174.528 
L 386.1504 174.528 
L 385.2576 174.528 
z
" clip-path="url(#p37a3670ccf)" style="fill: #0000ff; opacity: 0.5"/>
   </g>
   <g id="patch_181">
    <path d="M 386.1504 174.528 
L 387.0432 174.528 
L 387.0432 174.528 
L 386.1504 174.528 
z
" clip-path="url(#p37a3670ccf)" style="fill: #0000ff; opacity: 0.5"/>
   </g>
   <g id="patch_182">
    <path d="M 387.0432 174.528 
L 387.936 174.528 
L 387.936 174.528 
L 387.0432 174.528 
z
" clip-path="url(#p37a3670ccf)" style="fill: #0000ff; opacity: 0.5"/>
   </g>
   <g id="patch_183">
    <path d="M 387.936 174.528 
L 388.8288 174.528 
L 388.8288 174.528 
L 387.936 174.528 
z
" clip-path="url(#p37a3670ccf)" style="fill: #0000ff; opacity: 0.5"/>
   </g>
   <g id="patch_184">
    <path d="M 388.8288 174.528 
L 389.7216 174.528 
L 389.7216 174.528 
L 388.8288 174.528 
z
" clip-path="url(#p37a3670ccf)" style="fill: #0000ff; opacity: 0.5"/>
   </g>
   <g id="patch_185">
    <path d="M 389.7216 174.528 
L 390.6144 174.528 
L 390.6144 174.528 
L 389.7216 174.528 
z
" clip-path="url(#p37a3670ccf)" style="fill: #0000ff; opacity: 0.5"/>
   </g>
   <g id="patch_186">
    <path d="M 390.6144 174.528 
L 391.5072 174.528 
L 391.5072 174.528 
L 390.6144 174.528 
z
" clip-path="url(#p37a3670ccf)" style="fill: #0000ff; opacity: 0.5"/>
   </g>
   <g id="patch_187">
    <path d="M 391.5072 174.528 
L 392.4 174.528 
L 392.4 174.528 
L 391.5072 174.528 
z
" clip-path="url(#p37a3670ccf)" style="fill: #0000ff; opacity: 0.5"/>
   </g>
   <g id="patch_188">
    <path d="M 392.4 174.528 
L 393.2928 174.528 
L 393.2928 174.528 
L 392.4 174.528 
z
" clip-path="url(#p37a3670ccf)" style="fill: #0000ff; opacity: 0.5"/>
   </g>
   <g id="patch_189">
    <path d="M 393.2928 174.528 
L 394.1856 174.528 
L 394.1856 174.528 
L 393.2928 174.528 
z
" clip-path="url(#p37a3670ccf)" style="fill: #0000ff; opacity: 0.5"/>
   </g>
   <g id="patch_190">
    <path d="M 394.1856 174.528 
L 395.0784 174.528 
L 395.0784 174.528 
L 394.1856 174.528 
z
" clip-path="url(#p37a3670ccf)" style="fill: #0000ff; opacity: 0.5"/>
   </g>
   <g id="patch_191">
    <path d="M 395.0784 174.528 
L 395.9712 174.528 
L 395.9712 174.528 
L 395.0784 174.528 
z
" clip-path="url(#p37a3670ccf)" style="fill: #0000ff; opacity: 0.5"/>
   </g>
   <g id="patch_192">
    <path d="M 395.9712 174.528 
L 396.864 174.528 
L 396.864 174.528 
L 395.9712 174.528 
z
" clip-path="url(#p37a3670ccf)" style="fill: #0000ff; opacity: 0.5"/>
   </g>
   <g id="patch_193">
    <path d="M 396.864 174.528 
L 397.7568 174.528 
L 397.7568 174.528 
L 396.864 174.528 
z
" clip-path="url(#p37a3670ccf)" style="fill: #0000ff; opacity: 0.5"/>
   </g>
   <g id="patch_194">
    <path d="M 397.7568 174.528 
L 398.6496 174.528 
L 398.6496 174.528 
L 397.7568 174.528 
z
" clip-path="url(#p37a3670ccf)" style="fill: #0000ff; opacity: 0.5"/>
   </g>
   <g id="patch_195">
    <path d="M 398.6496 174.528 
L 399.5424 174.528 
L 399.5424 174.528 
L 398.6496 174.528 
z
" clip-path="url(#p37a3670ccf)" style="fill: #0000ff; opacity: 0.5"/>
   </g>
   <g id="patch_196">
    <path d="M 399.5424 174.528 
L 400.4352 174.528 
L 400.4352 174.528 
L 399.5424 174.528 
z
" clip-path="url(#p37a3670ccf)" style="fill: #0000ff; opacity: 0.5"/>
   </g>
   <g id="patch_197">
    <path d="M 400.4352 174.528 
L 401.328 174.528 
L 401.328 174.528 
L 400.4352 174.528 
z
" clip-path="url(#p37a3670ccf)" style="fill: #0000ff; opacity: 0.5"/>
   </g>
   <g id="patch_198">
    <path d="M 401.328 174.528 
L 402.2208 174.528 
L 402.2208 174.528 
L 401.328 174.528 
z
" clip-path="url(#p37a3670ccf)" style="fill: #0000ff; opacity: 0.5"/>
   </g>
   <g id="patch_199">
    <path d="M 402.2208 174.528 
L 403.1136 174.528 
L 403.1136 174.528 
L 402.2208 174.528 
z
" clip-path="url(#p37a3670ccf)" style="fill: #0000ff; opacity: 0.5"/>
   </g>
   <g id="patch_200">
    <path d="M 403.1136 174.528 
L 404.0064 174.528 
L 404.0064 174.528 
L 403.1136 174.528 
z
" clip-path="url(#p37a3670ccf)" style="fill: #0000ff; opacity: 0.5"/>
   </g>
   <g id="patch_201">
    <path d="M 404.0064 174.528 
L 404.8992 174.528 
L 404.8992 174.528 
L 404.0064 174.528 
z
" clip-path="url(#p37a3670ccf)" style="fill: #0000ff; opacity: 0.5"/>
   </g>
   <g id="patch_202">
    <path d="M 404.8992 174.528 
L 405.792 174.528 
L 405.792 174.528 
L 404.8992 174.528 
z
" clip-path="url(#p37a3670ccf)" style="fill: #0000ff; opacity: 0.5"/>
   </g>
   <g id="patch_203">
    <path d="M 405.792 174.528 
L 406.6848 174.528 
L 406.6848 174.528 
L 405.792 174.528 
z
" clip-path="url(#p37a3670ccf)" style="fill: #0000ff; opacity: 0.5"/>
   </g>
   <g id="patch_204">
    <path d="M 406.6848 174.528 
L 407.5776 174.528 
L 407.5776 174.528 
L 406.6848 174.528 
z
" clip-path="url(#p37a3670ccf)" style="fill: #0000ff; opacity: 0.5"/>
   </g>
   <g id="patch_205">
    <path d="M 407.5776 174.528 
L 408.4704 174.528 
L 408.4704 174.528 
L 407.5776 174.528 
z
" clip-path="url(#p37a3670ccf)" style="fill: #0000ff; opacity: 0.5"/>
   </g>
   <g id="patch_206">
    <path d="M 408.4704 174.528 
L 409.3632 174.528 
L 409.3632 174.528 
L 408.4704 174.528 
z
" clip-path="url(#p37a3670ccf)" style="fill: #0000ff; opacity: 0.5"/>
   </g>
   <g id="patch_207">
    <path d="M 409.3632 174.528 
L 410.256 174.528 
L 410.256 174.528 
L 409.3632 174.528 
z
" clip-path="url(#p37a3670ccf)" style="fill: #0000ff; opacity: 0.5"/>
   </g>
   <g id="patch_208">
    <path d="M 410.256 174.528 
L 411.1488 174.528 
L 411.1488 174.528 
L 410.256 174.528 
z
" clip-path="url(#p37a3670ccf)" style="fill: #0000ff; opacity: 0.5"/>
   </g>
   <g id="patch_209">
    <path d="M 411.1488 174.528 
L 412.0416 174.528 
L 412.0416 174.528 
L 411.1488 174.528 
z
" clip-path="url(#p37a3670ccf)" style="fill: #0000ff; opacity: 0.5"/>
   </g>
   <g id="patch_210">
    <path d="M 412.0416 174.528 
L 412.9344 174.528 
L 412.9344 174.528 
L 412.0416 174.528 
z
" clip-path="url(#p37a3670ccf)" style="fill: #0000ff; opacity: 0.5"/>
   </g>
   <g id="patch_211">
    <path d="M 412.9344 174.528 
L 413.8272 174.528 
L 413.8272 174.528 
L 412.9344 174.528 
z
" clip-path="url(#p37a3670ccf)" style="fill: #0000ff; opacity: 0.5"/>
   </g>
   <g id="patch_212">
    <path d="M 413.8272 174.528 
L 414.72 174.528 
L 414.72 174.528 
L 413.8272 174.528 
z
" clip-path="url(#p37a3670ccf)" style="fill: #0000ff; opacity: 0.5"/>
   </g>
   <g id="matplotlib.axis_1">
    <g id="xtick_1">
     <g id="line2d_1">
      <defs>
       <path id="m14d7d00949" d="M 0 0 
L 0 3.5 
" style="stroke: #000000; stroke-width: 0.8"/>
      </defs>
      <g>
       <use xlink:href="#m14d7d00949" x="57.6" y="307.584" style="stroke: #000000; stroke-width: 0.8"/>
      </g>
     </g>
     <g id="text_1">
      <!-- −1.00 -->
      <g transform="translate(42.277344 322.182437) scale(0.1 -0.1)">
       <defs>
        <path id="DejaVuSans-2212" d="M 678 2272 
L 4684 2272 
L 4684 1741 
L 678 1741 
L 678 2272 
z
" transform="scale(0.015625)"/>
        <path id="DejaVuSans-31" d="M 794 531 
L 1825 531 
L 1825 4091 
L 703 3866 
L 703 4441 
L 1819 4666 
L 2450 4666 
L 2450 531 
L 3481 531 
L 3481 0 
L 794 0 
L 794 531 
z
" transform="scale(0.015625)"/>
        <path id="DejaVuSans-2e" d="M 684 794 
L 1344 794 
L 1344 0 
L 684 0 
L 684 794 
z
" transform="scale(0.015625)"/>
        <path id="DejaVuSans-30" d="M 2034 4250 
Q 1547 4250 1301 3770 
Q 1056 3291 1056 2328 
Q 1056 1369 1301 889 
Q 1547 409 2034 409 
Q 2525 409 2770 889 
Q 3016 1369 3016 2328 
Q 3016 3291 2770 3770 
Q 2525 4250 2034 4250 
z
M 2034 4750 
Q 2819 4750 3233 4129 
Q 3647 3509 3647 2328 
Q 3647 1150 3233 529 
Q 2819 -91 2034 -91 
Q 1250 -91 836 529 
Q 422 1150 422 2328 
Q 422 3509 836 4129 
Q 1250 4750 2034 4750 
z
" transform="scale(0.015625)"/>
       </defs>
       <use xlink:href="#DejaVuSans-2212"/>
       <use xlink:href="#DejaVuSans-31" x="83.789062"/>
       <use xlink:href="#DejaVuSans-2e" x="147.412109"/>
       <use xlink:href="#DejaVuSans-30" x="179.199219"/>
       <use xlink:href="#DejaVuSans-30" x="242.822266"/>
      </g>
     </g>
    </g>
    <g id="xtick_2">
     <g id="line2d_2">
      <g>
       <use xlink:href="#m14d7d00949" x="102.24" y="307.584" style="stroke: #000000; stroke-width: 0.8"/>
      </g>
     </g>
     <g id="text_2">
      <!-- −0.75 -->
      <g transform="translate(86.917344 322.182437) scale(0.1 -0.1)">
       <defs>
        <path id="DejaVuSans-37" d="M 525 4666 
L 3525 4666 
L 3525 4397 
L 1831 0 
L 1172 0 
L 2766 4134 
L 525 4134 
L 525 4666 
z
" transform="scale(0.015625)"/>
        <path id="DejaVuSans-35" d="M 691 4666 
L 3169 4666 
L 3169 4134 
L 1269 4134 
L 1269 2991 
Q 1406 3038 1543 3061 
Q 1681 3084 1819 3084 
Q 2600 3084 3056 2656 
Q 3513 2228 3513 1497 
Q 3513 744 3044 326 
Q 2575 -91 1722 -91 
Q 1428 -91 1123 -41 
Q 819 9 494 109 
L 494 744 
Q 775 591 1075 516 
Q 1375 441 1709 441 
Q 2250 441 2565 725 
Q 2881 1009 2881 1497 
Q 2881 1984 2565 2268 
Q 2250 2553 1709 2553 
Q 1456 2553 1204 2497 
Q 953 2441 691 2322 
L 691 4666 
z
" transform="scale(0.015625)"/>
       </defs>
       <use xlink:href="#DejaVuSans-2212"/>
       <use xlink:href="#DejaVuSans-30" x="83.789062"/>
       <use xlink:href="#DejaVuSans-2e" x="147.412109"/>
       <use xlink:href="#DejaVuSans-37" x="179.199219"/>
       <use xlink:href="#DejaVuSans-35" x="242.822266"/>
      </g>
     </g>
    </g>
    <g id="xtick_3">
     <g id="line2d_3">
      <g>
       <use xlink:href="#m14d7d00949" x="146.88" y="307.584" style="stroke: #000000; stroke-width: 0.8"/>
      </g>
     </g>
     <g id="text_3">
      <!-- −0.50 -->
      <g transform="translate(131.557344 322.182437) scale(0.1 -0.1)">
       <use xlink:href="#DejaVuSans-2212"/>
       <use xlink:href="#DejaVuSans-30" x="83.789062"/>
       <use xlink:href="#DejaVuSans-2e" x="147.412109"/>
       <use xlink:href="#DejaVuSans-35" x="179.199219"/>
       <use xlink:href="#DejaVuSans-30" x="242.822266"/>
      </g>
     </g>
    </g>
    <g id="xtick_4">
     <g id="line2d_4">
      <g>
       <use xlink:href="#m14d7d00949" x="191.52" y="307.584" style="stroke: #000000; stroke-width: 0.8"/>
      </g>
     </g>
     <g id="text_4">
      <!-- −0.25 -->
      <g transform="translate(176.197344 322.182437) scale(0.1 -0.1)">
       <defs>
        <path id="DejaVuSans-32" d="M 1228 531 
L 3431 531 
L 3431 0 
L 469 0 
L 469 531 
Q 828 903 1448 1529 
Q 2069 2156 2228 2338 
Q 2531 2678 2651 2914 
Q 2772 3150 2772 3378 
Q 2772 3750 2511 3984 
Q 2250 4219 1831 4219 
Q 1534 4219 1204 4116 
Q 875 4013 500 3803 
L 500 4441 
Q 881 4594 1212 4672 
Q 1544 4750 1819 4750 
Q 2544 4750 2975 4387 
Q 3406 4025 3406 3419 
Q 3406 3131 3298 2873 
Q 3191 2616 2906 2266 
Q 2828 2175 2409 1742 
Q 1991 1309 1228 531 
z
" transform="scale(0.015625)"/>
       </defs>
       <use xlink:href="#DejaVuSans-2212"/>
       <use xlink:href="#DejaVuSans-30" x="83.789062"/>
       <use xlink:href="#DejaVuSans-2e" x="147.412109"/>
       <use xlink:href="#DejaVuSans-32" x="179.199219"/>
       <use xlink:href="#DejaVuSans-35" x="242.822266"/>
      </g>
     </g>
    </g>
    <g id="xtick_5">
     <g id="line2d_5">
      <g>
       <use xlink:href="#m14d7d00949" x="236.16" y="307.584" style="stroke: #000000; stroke-width: 0.8"/>
      </g>
     </g>
     <g id="text_5">
      <!-- 0.00 -->
      <g transform="translate(225.027187 322.182437) scale(0.1 -0.1)">
       <use xlink:href="#DejaVuSans-30"/>
       <use xlink:href="#DejaVuSans-2e" x="63.623047"/>
       <use xlink:href="#DejaVuSans-30" x="95.410156"/>
       <use xlink:href="#DejaVuSans-30" x="159.033203"/>
      </g>
     </g>
    </g>
    <g id="xtick_6">
     <g id="line2d_6">
      <g>
       <use xlink:href="#m14d7d00949" x="280.8" y="307.584" style="stroke: #000000; stroke-width: 0.8"/>
      </g>
     </g>
     <g id="text_6">
      <!-- 0.25 -->
      <g transform="translate(269.667188 322.182437) scale(0.1 -0.1)">
       <use xlink:href="#DejaVuSans-30"/>
       <use xlink:href="#DejaVuSans-2e" x="63.623047"/>
       <use xlink:href="#DejaVuSans-32" x="95.410156"/>
       <use xlink:href="#DejaVuSans-35" x="159.033203"/>
      </g>
     </g>
    </g>
    <g id="xtick_7">
     <g id="line2d_7">
      <g>
       <use xlink:href="#m14d7d00949" x="325.44" y="307.584" style="stroke: #000000; stroke-width: 0.8"/>
      </g>
     </g>
     <g id="text_7">
      <!-- 0.50 -->
      <g transform="translate(314.307187 322.182437) scale(0.1 -0.1)">
       <use xlink:href="#DejaVuSans-30"/>
       <use xlink:href="#DejaVuSans-2e" x="63.623047"/>
       <use xlink:href="#DejaVuSans-35" x="95.410156"/>
       <use xlink:href="#DejaVuSans-30" x="159.033203"/>
      </g>
     </g>
    </g>
    <g id="xtick_8">
     <g id="line2d_8">
      <g>
       <use xlink:href="#m14d7d00949" x="370.08" y="307.584" style="stroke: #000000; stroke-width: 0.8"/>
      </g>
     </g>
     <g id="text_8">
      <!-- 0.75 -->
      <g transform="translate(358.947188 322.182437) scale(0.1 -0.1)">
       <use xlink:href="#DejaVuSans-30"/>
       <use xlink:href="#DejaVuSans-2e" x="63.623047"/>
       <use xlink:href="#DejaVuSans-37" x="95.410156"/>
       <use xlink:href="#DejaVuSans-35" x="159.033203"/>
      </g>
     </g>
    </g>
    <g id="xtick_9">
     <g id="line2d_9">
      <g>
       <use xlink:href="#m14d7d00949" x="414.72" y="307.584" style="stroke: #000000; stroke-width: 0.8"/>
      </g>
     </g>
     <g id="text_9">
      <!-- 1.00 -->
      <g transform="translate(403.587188 322.182437) scale(0.1 -0.1)">
       <use xlink:href="#DejaVuSans-31"/>
       <use xlink:href="#DejaVuSans-2e" x="63.623047"/>
       <use xlink:href="#DejaVuSans-30" x="95.410156"/>
       <use xlink:href="#DejaVuSans-30" x="159.033203"/>
      </g>
     </g>
    </g>
    <g id="text_10">
     <!-- Pearson Correlation -->
     <g transform="translate(187.139687 335.860562) scale(0.1 -0.1)">
      <defs>
       <path id="DejaVuSans-50" d="M 1259 4147 
L 1259 2394 
L 2053 2394 
Q 2494 2394 2734 2622 
Q 2975 2850 2975 3272 
Q 2975 3691 2734 3919 
Q 2494 4147 2053 4147 
L 1259 4147 
z
M 628 4666 
L 2053 4666 
Q 2838 4666 3239 4311 
Q 3641 3956 3641 3272 
Q 3641 2581 3239 2228 
Q 2838 1875 2053 1875 
L 1259 1875 
L 1259 0 
L 628 0 
L 628 4666 
z
" transform="scale(0.015625)"/>
       <path id="DejaVuSans-65" d="M 3597 1894 
L 3597 1613 
L 953 1613 
Q 991 1019 1311 708 
Q 1631 397 2203 397 
Q 2534 397 2845 478 
Q 3156 559 3463 722 
L 3463 178 
Q 3153 47 2828 -22 
Q 2503 -91 2169 -91 
Q 1331 -91 842 396 
Q 353 884 353 1716 
Q 353 2575 817 3079 
Q 1281 3584 2069 3584 
Q 2775 3584 3186 3129 
Q 3597 2675 3597 1894 
z
M 3022 2063 
Q 3016 2534 2758 2815 
Q 2500 3097 2075 3097 
Q 1594 3097 1305 2825 
Q 1016 2553 972 2059 
L 3022 2063 
z
" transform="scale(0.015625)"/>
       <path id="DejaVuSans-61" d="M 2194 1759 
Q 1497 1759 1228 1600 
Q 959 1441 959 1056 
Q 959 750 1161 570 
Q 1363 391 1709 391 
Q 2188 391 2477 730 
Q 2766 1069 2766 1631 
L 2766 1759 
L 2194 1759 
z
M 3341 1997 
L 3341 0 
L 2766 0 
L 2766 531 
Q 2569 213 2275 61 
Q 1981 -91 1556 -91 
Q 1019 -91 701 211 
Q 384 513 384 1019 
Q 384 1609 779 1909 
Q 1175 2209 1959 2209 
L 2766 2209 
L 2766 2266 
Q 2766 2663 2505 2880 
Q 2244 3097 1772 3097 
Q 1472 3097 1187 3025 
Q 903 2953 641 2809 
L 641 3341 
Q 956 3463 1253 3523 
Q 1550 3584 1831 3584 
Q 2591 3584 2966 3190 
Q 3341 2797 3341 1997 
z
" transform="scale(0.015625)"/>
       <path id="DejaVuSans-72" d="M 2631 2963 
Q 2534 3019 2420 3045 
Q 2306 3072 2169 3072 
Q 1681 3072 1420 2755 
Q 1159 2438 1159 1844 
L 1159 0 
L 581 0 
L 581 3500 
L 1159 3500 
L 1159 2956 
Q 1341 3275 1631 3429 
Q 1922 3584 2338 3584 
Q 2397 3584 2469 3576 
Q 2541 3569 2628 3553 
L 2631 2963 
z
" transform="scale(0.015625)"/>
       <path id="DejaVuSans-73" d="M 2834 3397 
L 2834 2853 
Q 2591 2978 2328 3040 
Q 2066 3103 1784 3103 
Q 1356 3103 1142 2972 
Q 928 2841 928 2578 
Q 928 2378 1081 2264 
Q 1234 2150 1697 2047 
L 1894 2003 
Q 2506 1872 2764 1633 
Q 3022 1394 3022 966 
Q 3022 478 2636 193 
Q 2250 -91 1575 -91 
Q 1294 -91 989 -36 
Q 684 19 347 128 
L 347 722 
Q 666 556 975 473 
Q 1284 391 1588 391 
Q 1994 391 2212 530 
Q 2431 669 2431 922 
Q 2431 1156 2273 1281 
Q 2116 1406 1581 1522 
L 1381 1569 
Q 847 1681 609 1914 
Q 372 2147 372 2553 
Q 372 3047 722 3315 
Q 1072 3584 1716 3584 
Q 2034 3584 2315 3537 
Q 2597 3491 2834 3397 
z
" transform="scale(0.015625)"/>
       <path id="DejaVuSans-6f" d="M 1959 3097 
Q 1497 3097 1228 2736 
Q 959 2375 959 1747 
Q 959 1119 1226 758 
Q 1494 397 1959 397 
Q 2419 397 2687 759 
Q 2956 1122 2956 1747 
Q 2956 2369 2687 2733 
Q 2419 3097 1959 3097 
z
M 1959 3584 
Q 2709 3584 3137 3096 
Q 3566 2609 3566 1747 
Q 3566 888 3137 398 
Q 2709 -91 1959 -91 
Q 1206 -91 779 398 
Q 353 888 353 1747 
Q 353 2609 779 3096 
Q 1206 3584 1959 3584 
z
" transform="scale(0.015625)"/>
       <path id="DejaVuSans-6e" d="M 3513 2113 
L 3513 0 
L 2938 0 
L 2938 2094 
Q 2938 2591 2744 2837 
Q 2550 3084 2163 3084 
Q 1697 3084 1428 2787 
Q 1159 2491 1159 1978 
L 1159 0 
L 581 0 
L 581 3500 
L 1159 3500 
L 1159 2956 
Q 1366 3272 1645 3428 
Q 1925 3584 2291 3584 
Q 2894 3584 3203 3211 
Q 3513 2838 3513 2113 
z
" transform="scale(0.015625)"/>
       <path id="DejaVuSans-20" transform="scale(0.015625)"/>
       <path id="DejaVuSans-43" d="M 4122 4306 
L 4122 3641 
Q 3803 3938 3442 4084 
Q 3081 4231 2675 4231 
Q 1875 4231 1450 3742 
Q 1025 3253 1025 2328 
Q 1025 1406 1450 917 
Q 1875 428 2675 428 
Q 3081 428 3442 575 
Q 3803 722 4122 1019 
L 4122 359 
Q 3791 134 3420 21 
Q 3050 -91 2638 -91 
Q 1578 -91 968 557 
Q 359 1206 359 2328 
Q 359 3453 968 4101 
Q 1578 4750 2638 4750 
Q 3056 4750 3426 4639 
Q 3797 4528 4122 4306 
z
" transform="scale(0.015625)"/>
       <path id="DejaVuSans-6c" d="M 603 4863 
L 1178 4863 
L 1178 0 
L 603 0 
L 603 4863 
z
" transform="scale(0.015625)"/>
       <path id="DejaVuSans-74" d="M 1172 4494 
L 1172 3500 
L 2356 3500 
L 2356 3053 
L 1172 3053 
L 1172 1153 
Q 1172 725 1289 603 
Q 1406 481 1766 481 
L 2356 481 
L 2356 0 
L 1766 0 
Q 1100 0 847 248 
Q 594 497 594 1153 
L 594 3053 
L 172 3053 
L 172 3500 
L 594 3500 
L 594 4494 
L 1172 4494 
z
" transform="scale(0.015625)"/>
       <path id="DejaVuSans-69" d="M 603 3500 
L 1178 3500 
L 1178 0 
L 603 0 
L 603 3500 
z
M 603 4863 
L 1178 4863 
L 1178 4134 
L 603 4134 
L 603 4863 
z
" transform="scale(0.015625)"/>
      </defs>
      <use xlink:href="#DejaVuSans-50"/>
      <use xlink:href="#DejaVuSans-65" x="56.677734"/>
      <use xlink:href="#DejaVuSans-61" x="118.201172"/>
      <use xlink:href="#DejaVuSans-72" x="179.480469"/>
      <use xlink:href="#DejaVuSans-73" x="220.59375"/>
      <use xlink:href="#DejaVuSans-6f" x="272.693359"/>
      <use xlink:href="#DejaVuSans-6e" x="333.875"/>
      <use xlink:href="#DejaVuSans-20" x="397.253906"/>
      <use xlink:href="#DejaVuSans-43" x="429.041016"/>
      <use xlink:href="#DejaVuSans-6f" x="498.865234"/>
      <use xlink:href="#DejaVuSans-72" x="560.046875"/>
      <use xlink:href="#DejaVuSans-72" x="599.410156"/>
      <use xlink:href="#DejaVuSans-65" x="638.273438"/>
      <use xlink:href="#DejaVuSans-6c" x="699.796875"/>
      <use xlink:href="#DejaVuSans-61" x="727.580078"/>
      <use xlink:href="#DejaVuSans-74" x="788.859375"/>
      <use xlink:href="#DejaVuSans-69" x="828.068359"/>
      <use xlink:href="#DejaVuSans-6f" x="855.851562"/>
      <use xlink:href="#DejaVuSans-6e" x="917.033203"/>
     </g>
    </g>
   </g>
   <g id="matplotlib.axis_2">
    <g id="ytick_1">
     <g id="line2d_10">
      <defs>
       <path id="mc67329cc8b" d="M 0 0 
L -3.5 0 
" style="stroke: #000000; stroke-width: 0.8"/>
      </defs>
      <g>
       <use xlink:href="#mc67329cc8b" x="57.6" y="271.296" style="stroke: #000000; stroke-width: 0.8"/>
      </g>
     </g>
     <g id="text_11">
      <!-- −0.04 -->
      <g transform="translate(19.954687 275.095219) scale(0.1 -0.1)">
       <defs>
        <path id="DejaVuSans-34" d="M 2419 4116 
L 825 1625 
L 2419 1625 
L 2419 4116 
z
M 2253 4666 
L 3047 4666 
L 3047 1625 
L 3713 1625 
L 3713 1100 
L 3047 1100 
L 3047 0 
L 2419 0 
L 2419 1100 
L 313 1100 
L 313 1709 
L 2253 4666 
z
" transform="scale(0.015625)"/>
       </defs>
       <use xlink:href="#DejaVuSans-2212"/>
       <use xlink:href="#DejaVuSans-30" x="83.789062"/>
       <use xlink:href="#DejaVuSans-2e" x="147.412109"/>
       <use xlink:href="#DejaVuSans-30" x="179.199219"/>
       <use xlink:href="#DejaVuSans-34" x="242.822266"/>
      </g>
     </g>
    </g>
    <g id="ytick_2">
     <g id="line2d_11">
      <g>
       <use xlink:href="#mc67329cc8b" x="57.6" y="222.912" style="stroke: #000000; stroke-width: 0.8"/>
      </g>
     </g>
     <g id="text_12">
      <!-- −0.02 -->
      <g transform="translate(19.954687 226.711219) scale(0.1 -0.1)">
       <use xlink:href="#DejaVuSans-2212"/>
       <use xlink:href="#DejaVuSans-30" x="83.789062"/>
       <use xlink:href="#DejaVuSans-2e" x="147.412109"/>
       <use xlink:href="#DejaVuSans-30" x="179.199219"/>
       <use xlink:href="#DejaVuSans-32" x="242.822266"/>
      </g>
     </g>
    </g>
    <g id="ytick_3">
     <g id="line2d_12">
      <g>
       <use xlink:href="#mc67329cc8b" x="57.6" y="174.528" style="stroke: #000000; stroke-width: 0.8"/>
      </g>
     </g>
     <g id="text_13">
      <!-- 0.00 -->
      <g transform="translate(28.334375 178.327219) scale(0.1 -0.1)">
       <use xlink:href="#DejaVuSans-30"/>
       <use xlink:href="#DejaVuSans-2e" x="63.623047"/>
       <use xlink:href="#DejaVuSans-30" x="95.410156"/>
       <use xlink:href="#DejaVuSans-30" x="159.033203"/>
      </g>
     </g>
    </g>
    <g id="ytick_4">
     <g id="line2d_13">
      <g>
       <use xlink:href="#mc67329cc8b" x="57.6" y="126.144" style="stroke: #000000; stroke-width: 0.8"/>
      </g>
     </g>
     <g id="text_14">
      <!-- 0.02 -->
      <g transform="translate(28.334375 129.943219) scale(0.1 -0.1)">
       <use xlink:href="#DejaVuSans-30"/>
       <use xlink:href="#DejaVuSans-2e" x="63.623047"/>
       <use xlink:href="#DejaVuSans-30" x="95.410156"/>
       <use xlink:href="#DejaVuSans-32" x="159.033203"/>
      </g>
     </g>
    </g>
    <g id="ytick_5">
     <g id="line2d_14">
      <g>
       <use xlink:href="#mc67329cc8b" x="57.6" y="77.76" style="stroke: #000000; stroke-width: 0.8"/>
      </g>
     </g>
     <g id="text_15">
      <!-- 0.04 -->
      <g transform="translate(28.334375 81.559219) scale(0.1 -0.1)">
       <use xlink:href="#DejaVuSans-30"/>
       <use xlink:href="#DejaVuSans-2e" x="63.623047"/>
       <use xlink:href="#DejaVuSans-30" x="95.410156"/>
       <use xlink:href="#DejaVuSans-34" x="159.033203"/>
      </g>
     </g>
    </g>
    <g id="text_16">
     <!-- # of trials -->
     <g transform="translate(13.875 199.178) rotate(-90) scale(0.1 -0.1)">
      <defs>
       <path id="DejaVuSans-23" d="M 3272 2816 
L 2363 2816 
L 2100 1772 
L 3016 1772 
L 3272 2816 
z
M 2803 4594 
L 2478 3297 
L 3391 3297 
L 3719 4594 
L 4219 4594 
L 3897 3297 
L 4872 3297 
L 4872 2816 
L 3775 2816 
L 3519 1772 
L 4513 1772 
L 4513 1294 
L 3397 1294 
L 3072 0 
L 2572 0 
L 2894 1294 
L 1978 1294 
L 1656 0 
L 1153 0 
L 1478 1294 
L 494 1294 
L 494 1772 
L 1594 1772 
L 1856 2816 
L 850 2816 
L 850 3297 
L 1978 3297 
L 2297 4594 
L 2803 4594 
z
" transform="scale(0.015625)"/>
       <path id="DejaVuSans-66" d="M 2375 4863 
L 2375 4384 
L 1825 4384 
Q 1516 4384 1395 4259 
Q 1275 4134 1275 3809 
L 1275 3500 
L 2222 3500 
L 2222 3053 
L 1275 3053 
L 1275 0 
L 697 0 
L 697 3053 
L 147 3053 
L 147 3500 
L 697 3500 
L 697 3744 
Q 697 4328 969 4595 
Q 1241 4863 1831 4863 
L 2375 4863 
z
" transform="scale(0.015625)"/>
      </defs>
      <use xlink:href="#DejaVuSans-23"/>
      <use xlink:href="#DejaVuSans-20" x="83.789062"/>
      <use xlink:href="#DejaVuSans-6f" x="115.576172"/>
      <use xlink:href="#DejaVuSans-66" x="176.757812"/>
      <use xlink:href="#DejaVuSans-20" x="211.962891"/>
      <use xlink:href="#DejaVuSans-74" x="243.75"/>
      <use xlink:href="#DejaVuSans-72" x="282.958984"/>
      <use xlink:href="#DejaVuSans-69" x="324.072266"/>
      <use xlink:href="#DejaVuSans-61" x="351.855469"/>
      <use xlink:href="#DejaVuSans-6c" x="413.134766"/>
      <use xlink:href="#DejaVuSans-73" x="440.917969"/>
     </g>
    </g>
   </g>
   <g id="line2d_15">
    <path clip-path="url(#p37a3670ccf)" style="fill: none; stroke-dasharray: 3.7,1.6; stroke-dashoffset: 0; stroke: #000000"/>
   </g>
   <g id="line2d_16">
    <path clip-path="url(#p37a3670ccf)" style="fill: none; stroke: #000000; stroke-linecap: square"/>
   </g>
   <g id="patch_213">
    <path d="M 57.6 307.584 
L 57.6 41.472 
" style="fill: none; stroke: #000000; stroke-width: 0.8; stroke-linejoin: miter; stroke-linecap: square"/>
   </g>
   <g id="patch_214">
    <path d="M 414.72 307.584 
L 414.72 41.472 
" style="fill: none; stroke: #000000; stroke-width: 0.8; stroke-linejoin: miter; stroke-linecap: square"/>
   </g>
   <g id="patch_215">
    <path d="M 57.6 307.584 
L 414.72 307.584 
" style="fill: none; stroke: #000000; stroke-width: 0.8; stroke-linejoin: miter; stroke-linecap: square"/>
   </g>
   <g id="patch_216">
    <path d="M 57.6 41.472 
L 414.72 41.472 
" style="fill: none; stroke: #000000; stroke-width: 0.8; stroke-linejoin: miter; stroke-linecap: square"/>
   </g>
   <g id="text_17">
    <!-- p = nan -->
    <g transform="translate(109.08025 252.281912) scale(0.1 -0.1)">
     <defs>
      <path id="DejaVuSans-70" d="M 1159 525 
L 1159 -1331 
L 581 -1331 
L 581 3500 
L 1159 3500 
L 1159 2969 
Q 1341 3281 1617 3432 
Q 1894 3584 2278 3584 
Q 2916 3584 3314 3078 
Q 3713 2572 3713 1747 
Q 3713 922 3314 415 
Q 2916 -91 2278 -91 
Q 1894 -91 1617 61 
Q 1341 213 1159 525 
z
M 3116 1747 
Q 3116 2381 2855 2742 
Q 2594 3103 2138 3103 
Q 1681 3103 1420 2742 
Q 1159 2381 1159 1747 
Q 1159 1113 1420 752 
Q 1681 391 2138 391 
Q 2594 391 2855 752 
Q 3116 1113 3116 1747 
z
" transform="scale(0.015625)"/>
      <path id="DejaVuSans-3d" d="M 678 2906 
L 4684 2906 
L 4684 2381 
L 678 2381 
L 678 2906 
z
M 678 1631 
L 4684 1631 
L 4684 1100 
L 678 1100 
L 678 1631 
z
" transform="scale(0.015625)"/>
     </defs>
     <use xlink:href="#DejaVuSans-70"/>
     <use xlink:href="#DejaVuSans-20" x="63.476562"/>
     <use xlink:href="#DejaVuSans-3d" x="95.263672"/>
     <use xlink:href="#DejaVuSans-20" x="179.052734"/>
     <use xlink:href="#DejaVuSans-6e" x="210.839844"/>
     <use xlink:href="#DejaVuSans-61" x="274.21875"/>
     <use xlink:href="#DejaVuSans-6e" x="335.498047"/>
    </g>
   </g>
   <g id="text_18">
    <!-- Correlation between 465A and 465C -->
    <g transform="translate(127.01625 35.472) scale(0.12 -0.12)">
     <defs>
      <path id="DejaVuSans-62" d="M 3116 1747 
Q 3116 2381 2855 2742 
Q 2594 3103 2138 3103 
Q 1681 3103 1420 2742 
Q 1159 2381 1159 1747 
Q 1159 1113 1420 752 
Q 1681 391 2138 391 
Q 2594 391 2855 752 
Q 3116 1113 3116 1747 
z
M 1159 2969 
Q 1341 3281 1617 3432 
Q 1894 3584 2278 3584 
Q 2916 3584 3314 3078 
Q 3713 2572 3713 1747 
Q 3713 922 3314 415 
Q 2916 -91 2278 -91 
Q 1894 -91 1617 61 
Q 1341 213 1159 525 
L 1159 0 
L 581 0 
L 581 4863 
L 1159 4863 
L 1159 2969 
z
" transform="scale(0.015625)"/>
      <path id="DejaVuSans-77" d="M 269 3500 
L 844 3500 
L 1563 769 
L 2278 3500 
L 2956 3500 
L 3675 769 
L 4391 3500 
L 4966 3500 
L 4050 0 
L 3372 0 
L 2619 2869 
L 1863 0 
L 1184 0 
L 269 3500 
z
" transform="scale(0.015625)"/>
      <path id="DejaVuSans-36" d="M 2113 2584 
Q 1688 2584 1439 2293 
Q 1191 2003 1191 1497 
Q 1191 994 1439 701 
Q 1688 409 2113 409 
Q 2538 409 2786 701 
Q 3034 994 3034 1497 
Q 3034 2003 2786 2293 
Q 2538 2584 2113 2584 
z
M 3366 4563 
L 3366 3988 
Q 3128 4100 2886 4159 
Q 2644 4219 2406 4219 
Q 1781 4219 1451 3797 
Q 1122 3375 1075 2522 
Q 1259 2794 1537 2939 
Q 1816 3084 2150 3084 
Q 2853 3084 3261 2657 
Q 3669 2231 3669 1497 
Q 3669 778 3244 343 
Q 2819 -91 2113 -91 
Q 1303 -91 875 529 
Q 447 1150 447 2328 
Q 447 3434 972 4092 
Q 1497 4750 2381 4750 
Q 2619 4750 2861 4703 
Q 3103 4656 3366 4563 
z
" transform="scale(0.015625)"/>
      <path id="DejaVuSans-41" d="M 2188 4044 
L 1331 1722 
L 3047 1722 
L 2188 4044 
z
M 1831 4666 
L 2547 4666 
L 4325 0 
L 3669 0 
L 3244 1197 
L 1141 1197 
L 716 0 
L 50 0 
L 1831 4666 
z
" transform="scale(0.015625)"/>
      <path id="DejaVuSans-64" d="M 2906 2969 
L 2906 4863 
L 3481 4863 
L 3481 0 
L 2906 0 
L 2906 525 
Q 2725 213 2448 61 
Q 2172 -91 1784 -91 
Q 1150 -91 751 415 
Q 353 922 353 1747 
Q 353 2572 751 3078 
Q 1150 3584 1784 3584 
Q 2172 3584 2448 3432 
Q 2725 3281 2906 2969 
z
M 947 1747 
Q 947 1113 1208 752 
Q 1469 391 1925 391 
Q 2381 391 2643 752 
Q 2906 1113 2906 1747 
Q 2906 2381 2643 2742 
Q 2381 3103 1925 3103 
Q 1469 3103 1208 2742 
Q 947 2381 947 1747 
z
" transform="scale(0.015625)"/>
     </defs>
     <use xlink:href="#DejaVuSans-43"/>
     <use xlink:href="#DejaVuSans-6f" x="69.824219"/>
     <use xlink:href="#DejaVuSans-72" x="131.005859"/>
     <use xlink:href="#DejaVuSans-72" x="170.369141"/>
     <use xlink:href="#DejaVuSans-65" x="209.232422"/>
     <use xlink:href="#DejaVuSans-6c" x="270.755859"/>
     <use xlink:href="#DejaVuSans-61" x="298.539062"/>
     <use xlink:href="#DejaVuSans-74" x="359.818359"/>
     <use xlink:href="#DejaVuSans-69" x="399.027344"/>
     <use xlink:href="#DejaVuSans-6f" x="426.810547"/>
     <use xlink:href="#DejaVuSans-6e" x="487.992188"/>
     <use xlink:href="#DejaVuSans-20" x="551.371094"/>
     <use xlink:href="#DejaVuSans-62" x="583.158203"/>
     <use xlink:href="#DejaVuSans-65" x="646.634766"/>
     <use xlink:href="#DejaVuSans-74" x="708.158203"/>
     <use xlink:href="#DejaVuSans-77" x="747.367188"/>
     <use xlink:href="#DejaVuSans-65" x="829.154297"/>
     <use xlink:href="#DejaVuSans-65" x="890.677734"/>
     <use xlink:href="#DejaVuSans-6e" x="952.201172"/>
     <use xlink:href="#DejaVuSans-20" x="1015.580078"/>
     <use xlink:href="#DejaVuSans-34" x="1047.367188"/>
     <use xlink:href="#DejaVuSans-36" x="1110.990234"/>
     <use xlink:href="#DejaVuSans-35" x="1174.613281"/>
     <use xlink:href="#DejaVuSans-41" x="1238.236328"/>
     <use xlink:href="#DejaVuSans-20" x="1306.644531"/>
     <use xlink:href="#DejaVuSans-61" x="1338.431641"/>
     <use xlink:href="#DejaVuSans-6e" x="1399.710938"/>
     <use xlink:href="#DejaVuSans-64" x="1463.089844"/>
     <use xlink:href="#DejaVuSans-20" x="1526.566406"/>
     <use xlink:href="#DejaVuSans-34" x="1558.353516"/>
     <use xlink:href="#DejaVuSans-36" x="1621.976562"/>
     <use xlink:href="#DejaVuSans-35" x="1685.599609"/>
     <use xlink:href="#DejaVuSans-43" x="1749.222656"/>
    </g>
   </g>
   <g id="legend_1">
    <g id="patch_217">
     <path d="M 268.430938 108.1845 
L 407.72 108.1845 
Q 409.72 108.1845 409.72 106.1845 
L 409.72 48.472 
Q 409.72 46.472 407.72 46.472 
L 268.430938 46.472 
Q 266.430938 46.472 266.430938 48.472 
L 266.430938 106.1845 
Q 266.430938 108.1845 268.430938 108.1845 
z
" style="fill: #ffffff; opacity: 0.8; stroke: #cccccc; stroke-linejoin: miter"/>
    </g>
    <g id="patch_218">
     <path d="M 270.430938 58.070438 
L 290.430938 58.070438 
L 290.430938 51.070438 
L 270.430938 51.070438 
z
" style="fill: #ff0000; opacity: 0.5"/>
    </g>
    <g id="text_19">
     <!-- Trials with interaction -->
     <g transform="translate(298.430938 58.070438) scale(0.1 -0.1)">
      <defs>
       <path id="DejaVuSans-54" d="M -19 4666 
L 3928 4666 
L 3928 4134 
L 2272 4134 
L 2272 0 
L 1638 0 
L 1638 4134 
L -19 4134 
L -19 4666 
z
" transform="scale(0.015625)"/>
       <path id="DejaVuSans-68" d="M 3513 2113 
L 3513 0 
L 2938 0 
L 2938 2094 
Q 2938 2591 2744 2837 
Q 2550 3084 2163 3084 
Q 1697 3084 1428 2787 
Q 1159 2491 1159 1978 
L 1159 0 
L 581 0 
L 581 4863 
L 1159 4863 
L 1159 2956 
Q 1366 3272 1645 3428 
Q 1925 3584 2291 3584 
Q 2894 3584 3203 3211 
Q 3513 2838 3513 2113 
z
" transform="scale(0.015625)"/>
       <path id="DejaVuSans-63" d="M 3122 3366 
L 3122 2828 
Q 2878 2963 2633 3030 
Q 2388 3097 2138 3097 
Q 1578 3097 1268 2742 
Q 959 2388 959 1747 
Q 959 1106 1268 751 
Q 1578 397 2138 397 
Q 2388 397 2633 464 
Q 2878 531 3122 666 
L 3122 134 
Q 2881 22 2623 -34 
Q 2366 -91 2075 -91 
Q 1284 -91 818 406 
Q 353 903 353 1747 
Q 353 2603 823 3093 
Q 1294 3584 2113 3584 
Q 2378 3584 2631 3529 
Q 2884 3475 3122 3366 
z
" transform="scale(0.015625)"/>
      </defs>
      <use xlink:href="#DejaVuSans-54"/>
      <use xlink:href="#DejaVuSans-72" x="46.333984"/>
      <use xlink:href="#DejaVuSans-69" x="87.447266"/>
      <use xlink:href="#DejaVuSans-61" x="115.230469"/>
      <use xlink:href="#DejaVuSans-6c" x="176.509766"/>
      <use xlink:href="#DejaVuSans-73" x="204.292969"/>
      <use xlink:href="#DejaVuSans-20" x="256.392578"/>
      <use xlink:href="#DejaVuSans-77" x="288.179688"/>
      <use xlink:href="#DejaVuSans-69" x="369.966797"/>
      <use xlink:href="#DejaVuSans-74" x="397.75"/>
      <use xlink:href="#DejaVuSans-68" x="436.958984"/>
      <use xlink:href="#DejaVuSans-20" x="500.337891"/>
      <use xlink:href="#DejaVuSans-69" x="532.125"/>
      <use xlink:href="#DejaVuSans-6e" x="559.908203"/>
      <use xlink:href="#DejaVuSans-74" x="623.287109"/>
      <use xlink:href="#DejaVuSans-65" x="662.496094"/>
      <use xlink:href="#DejaVuSans-72" x="724.019531"/>
      <use xlink:href="#DejaVuSans-61" x="765.132812"/>
      <use xlink:href="#DejaVuSans-63" x="826.412109"/>
      <use xlink:href="#DejaVuSans-74" x="881.392578"/>
      <use xlink:href="#DejaVuSans-69" x="920.601562"/>
      <use xlink:href="#DejaVuSans-6f" x="948.384766"/>
      <use xlink:href="#DejaVuSans-6e" x="1009.566406"/>
     </g>
    </g>
    <g id="patch_219">
     <path d="M 270.430938 72.748563 
L 290.430938 72.748563 
L 290.430938 65.748563 
L 270.430938 65.748563 
z
" style="fill: #0000ff; opacity: 0.5"/>
    </g>
    <g id="text_20">
     <!-- no interaction trials -->
     <g transform="translate(298.430938 72.748563) scale(0.1 -0.1)">
      <use xlink:href="#DejaVuSans-6e"/>
      <use xlink:href="#DejaVuSans-6f" x="63.378906"/>
      <use xlink:href="#DejaVuSans-20" x="124.560547"/>
      <use xlink:href="#DejaVuSans-69" x="156.347656"/>
      <use xlink:href="#DejaVuSans-6e" x="184.130859"/>
      <use xlink:href="#DejaVuSans-74" x="247.509766"/>
      <use xlink:href="#DejaVuSans-65" x="286.71875"/>
      <use xlink:href="#DejaVuSans-72" x="348.242188"/>
      <use xlink:href="#DejaVuSans-61" x="389.355469"/>
      <use xlink:href="#DejaVuSans-63" x="450.634766"/>
      <use xlink:href="#DejaVuSans-74" x="505.615234"/>
      <use xlink:href="#DejaVuSans-69" x="544.824219"/>
      <use xlink:href="#DejaVuSans-6f" x="572.607422"/>
      <use xlink:href="#DejaVuSans-6e" x="633.789062"/>
      <use xlink:href="#DejaVuSans-20" x="697.167969"/>
      <use xlink:href="#DejaVuSans-74" x="728.955078"/>
      <use xlink:href="#DejaVuSans-72" x="768.164062"/>
      <use xlink:href="#DejaVuSans-69" x="809.277344"/>
      <use xlink:href="#DejaVuSans-61" x="837.060547"/>
      <use xlink:href="#DejaVuSans-6c" x="898.339844"/>
      <use xlink:href="#DejaVuSans-73" x="926.123047"/>
     </g>
    </g>
    <g id="line2d_17">
     <path d="M 270.430938 83.926688 
L 280.430938 83.926688 
L 290.430938 83.926688 
" style="fill: none; stroke-dasharray: 3.7,1.6; stroke-dashoffset: 0; stroke: #000000"/>
    </g>
    <g id="text_21">
     <!-- No Interaction mean -->
     <g transform="translate(298.430938 87.426688) scale(0.1 -0.1)">
      <defs>
       <path id="DejaVuSans-4e" d="M 628 4666 
L 1478 4666 
L 3547 763 
L 3547 4666 
L 4159 4666 
L 4159 0 
L 3309 0 
L 1241 3903 
L 1241 0 
L 628 0 
L 628 4666 
z
" transform="scale(0.015625)"/>
       <path id="DejaVuSans-49" d="M 628 4666 
L 1259 4666 
L 1259 0 
L 628 0 
L 628 4666 
z
" transform="scale(0.015625)"/>
       <path id="DejaVuSans-6d" d="M 3328 2828 
Q 3544 3216 3844 3400 
Q 4144 3584 4550 3584 
Q 5097 3584 5394 3201 
Q 5691 2819 5691 2113 
L 5691 0 
L 5113 0 
L 5113 2094 
Q 5113 2597 4934 2840 
Q 4756 3084 4391 3084 
Q 3944 3084 3684 2787 
Q 3425 2491 3425 1978 
L 3425 0 
L 2847 0 
L 2847 2094 
Q 2847 2600 2669 2842 
Q 2491 3084 2119 3084 
Q 1678 3084 1418 2786 
Q 1159 2488 1159 1978 
L 1159 0 
L 581 0 
L 581 3500 
L 1159 3500 
L 1159 2956 
Q 1356 3278 1631 3431 
Q 1906 3584 2284 3584 
Q 2666 3584 2933 3390 
Q 3200 3197 3328 2828 
z
" transform="scale(0.015625)"/>
      </defs>
      <use xlink:href="#DejaVuSans-4e"/>
      <use xlink:href="#DejaVuSans-6f" x="74.804688"/>
      <use xlink:href="#DejaVuSans-20" x="135.986328"/>
      <use xlink:href="#DejaVuSans-49" x="167.773438"/>
      <use xlink:href="#DejaVuSans-6e" x="197.265625"/>
      <use xlink:href="#DejaVuSans-74" x="260.644531"/>
      <use xlink:href="#DejaVuSans-65" x="299.853516"/>
      <use xlink:href="#DejaVuSans-72" x="361.376953"/>
      <use xlink:href="#DejaVuSans-61" x="402.490234"/>
      <use xlink:href="#DejaVuSans-63" x="463.769531"/>
      <use xlink:href="#DejaVuSans-74" x="518.75"/>
      <use xlink:href="#DejaVuSans-69" x="557.958984"/>
      <use xlink:href="#DejaVuSans-6f" x="585.742188"/>
      <use xlink:href="#DejaVuSans-6e" x="646.923828"/>
      <use xlink:href="#DejaVuSans-20" x="710.302734"/>
      <use xlink:href="#DejaVuSans-6d" x="742.089844"/>
      <use xlink:href="#DejaVuSans-65" x="839.501953"/>
      <use xlink:href="#DejaVuSans-61" x="901.025391"/>
      <use xlink:href="#DejaVuSans-6e" x="962.304688"/>
     </g>
    </g>
    <g id="line2d_18">
     <path d="M 270.430938 98.604813 
L 280.430938 98.604813 
L 290.430938 98.604813 
" style="fill: none; stroke: #000000; stroke-linecap: square"/>
    </g>
    <g id="text_22">
     <!-- Interaction mean -->
     <g transform="translate(298.430938 102.104813) scale(0.1 -0.1)">
      <use xlink:href="#DejaVuSans-49"/>
      <use xlink:href="#DejaVuSans-6e" x="29.492188"/>
      <use xlink:href="#DejaVuSans-74" x="92.871094"/>
      <use xlink:href="#DejaVuSans-65" x="132.080078"/>
      <use xlink:href="#DejaVuSans-72" x="193.603516"/>
      <use xlink:href="#DejaVuSans-61" x="234.716797"/>
      <use xlink:href="#DejaVuSans-63" x="295.996094"/>
      <use xlink:href="#DejaVuSans-74" x="350.976562"/>
      <use xlink:href="#DejaVuSans-69" x="390.185547"/>
      <use xlink:href="#DejaVuSans-6f" x="417.96875"/>
      <use xlink:href="#DejaVuSans-6e" x="479.150391"/>
      <use xlink:href="#DejaVuSans-20" x="542.529297"/>
      <use xlink:href="#DejaVuSans-6d" x="574.316406"/>
      <use xlink:href="#DejaVuSans-65" x="671.728516"/>
      <use xlink:href="#DejaVuSans-61" x="733.251953"/>
      <use xlink:href="#DejaVuSans-6e" x="794.53125"/>
     </g>
    </g>
   </g>
  </g>
 </g>
 <defs>
  <clipPath id="p37a3670ccf">
   <rect x="57.6" y="41.472" width="357.12" height="266.112"/>
  </clipPath>
 </defs>
</svg>
