<?xml version="1.0" encoding="utf-8" standalone="no"?>
<!DOCTYPE svg PUBLIC "-//W3C//DTD SVG 1.1//EN"
  "http://www.w3.org/Graphics/SVG/1.1/DTD/svg11.dtd">
<svg xmlns:xlink="http://www.w3.org/1999/xlink" width="460.8pt" height="345.6pt" viewBox="0 0 460.8 345.6" xmlns="http://www.w3.org/2000/svg" version="1.1">
 <metadata>
  <rdf:RDF xmlns:dc="http://purl.org/dc/elements/1.1/" xmlns:cc="http://creativecommons.org/ns#" xmlns:rdf="http://www.w3.org/1999/02/22-rdf-syntax-ns#">
   <cc:Work>
    <dc:type rdf:resource="http://purl.org/dc/dcmitype/StillImage"/>
    <dc:date>2023-09-11T16:05:59.073784</dc:date>
    <dc:format>image/svg+xml</dc:format>
    <dc:creator>
     <cc:Agent>
      <dc:title>Matplotlib v3.7.2, https://matplotlib.org/</dc:title>
     </cc:Agent>
    </dc:creator>
   </cc:Work>
  </rdf:RDF>
 </metadata>
 <defs>
  <style type="text/css">*{stroke-linejoin: round; stroke-linecap: butt}</style>
 </defs>
 <g id="figure_1">
  <g id="patch_1">
   <path d="M 0 345.6 
L 460.8 345.6 
L 460.8 0 
L 0 0 
z
" style="fill: #ffffff"/>
  </g>
  <g id="axes_1">
   <g id="patch_2">
    <path d="M 42.01 303.64 
L 450 303.64 
L 450 26.88 
L 42.01 26.88 
z
" style="fill: #ffffff"/>
   </g>
   <g id="matplotlib.axis_1">
    <g id="xtick_1">
     <g id="line2d_1">
      <defs>
       <path id="me1d7f9ff31" d="M 0 0 
L 0 3.5 
" style="stroke: #000000; stroke-width: 0.8"/>
      </defs>
      <g>
       <use xlink:href="#me1d7f9ff31" x="60.555" y="303.64" style="stroke: #000000; stroke-width: 0.8"/>
      </g>
     </g>
     <g id="text_1">
      <!-- 0 -->
      <g transform="translate(57.37375 318.238437) scale(0.1 -0.1)">
       <defs>
        <path id="DejaVuSans-30" d="M 2034 4250 
Q 1547 4250 1301 3770 
Q 1056 3291 1056 2328 
Q 1056 1369 1301 889 
Q 1547 409 2034 409 
Q 2525 409 2770 889 
Q 3016 1369 3016 2328 
Q 3016 3291 2770 3770 
Q 2525 4250 2034 4250 
z
M 2034 4750 
Q 2819 4750 3233 4129 
Q 3647 3509 3647 2328 
Q 3647 1150 3233 529 
Q 2819 -91 2034 -91 
Q 1250 -91 836 529 
Q 422 1150 422 2328 
Q 422 3509 836 4129 
Q 1250 4750 2034 4750 
z
" transform="scale(0.015625)"/>
       </defs>
       <use xlink:href="#DejaVuSans-30"/>
      </g>
     </g>
    </g>
    <g id="xtick_2">
     <g id="line2d_2">
      <g>
       <use xlink:href="#me1d7f9ff31" x="134.782621" y="303.64" style="stroke: #000000; stroke-width: 0.8"/>
      </g>
     </g>
     <g id="text_2">
      <!-- 1 -->
      <g transform="translate(131.601371 318.238437) scale(0.1 -0.1)">
       <defs>
        <path id="DejaVuSans-31" d="M 794 531 
L 1825 531 
L 1825 4091 
L 703 3866 
L 703 4441 
L 1819 4666 
L 2450 4666 
L 2450 531 
L 3481 531 
L 3481 0 
L 794 0 
L 794 531 
z
" transform="scale(0.015625)"/>
       </defs>
       <use xlink:href="#DejaVuSans-31"/>
      </g>
     </g>
    </g>
    <g id="xtick_3">
     <g id="line2d_3">
      <g>
       <use xlink:href="#me1d7f9ff31" x="209.010242" y="303.64" style="stroke: #000000; stroke-width: 0.8"/>
      </g>
     </g>
     <g id="text_3">
      <!-- 2 -->
      <g transform="translate(205.828992 318.238437) scale(0.1 -0.1)">
       <defs>
        <path id="DejaVuSans-32" d="M 1228 531 
L 3431 531 
L 3431 0 
L 469 0 
L 469 531 
Q 828 903 1448 1529 
Q 2069 2156 2228 2338 
Q 2531 2678 2651 2914 
Q 2772 3150 2772 3378 
Q 2772 3750 2511 3984 
Q 2250 4219 1831 4219 
Q 1534 4219 1204 4116 
Q 875 4013 500 3803 
L 500 4441 
Q 881 4594 1212 4672 
Q 1544 4750 1819 4750 
Q 2544 4750 2975 4387 
Q 3406 4025 3406 3419 
Q 3406 3131 3298 2873 
Q 3191 2616 2906 2266 
Q 2828 2175 2409 1742 
Q 1991 1309 1228 531 
z
" transform="scale(0.015625)"/>
       </defs>
       <use xlink:href="#DejaVuSans-32"/>
      </g>
     </g>
    </g>
    <g id="xtick_4">
     <g id="line2d_4">
      <g>
       <use xlink:href="#me1d7f9ff31" x="283.237864" y="303.64" style="stroke: #000000; stroke-width: 0.8"/>
      </g>
     </g>
     <g id="text_4">
      <!-- 3 -->
      <g transform="translate(280.056614 318.238437) scale(0.1 -0.1)">
       <defs>
        <path id="DejaVuSans-33" d="M 2597 2516 
Q 3050 2419 3304 2112 
Q 3559 1806 3559 1356 
Q 3559 666 3084 287 
Q 2609 -91 1734 -91 
Q 1441 -91 1130 -33 
Q 819 25 488 141 
L 488 750 
Q 750 597 1062 519 
Q 1375 441 1716 441 
Q 2309 441 2620 675 
Q 2931 909 2931 1356 
Q 2931 1769 2642 2001 
Q 2353 2234 1838 2234 
L 1294 2234 
L 1294 2753 
L 1863 2753 
Q 2328 2753 2575 2939 
Q 2822 3125 2822 3475 
Q 2822 3834 2567 4026 
Q 2313 4219 1838 4219 
Q 1578 4219 1281 4162 
Q 984 4106 628 3988 
L 628 4550 
Q 988 4650 1302 4700 
Q 1616 4750 1894 4750 
Q 2613 4750 3031 4423 
Q 3450 4097 3450 3541 
Q 3450 3153 3228 2886 
Q 3006 2619 2597 2516 
z
" transform="scale(0.015625)"/>
       </defs>
       <use xlink:href="#DejaVuSans-33"/>
      </g>
     </g>
    </g>
    <g id="xtick_5">
     <g id="line2d_5">
      <g>
       <use xlink:href="#me1d7f9ff31" x="357.465485" y="303.64" style="stroke: #000000; stroke-width: 0.8"/>
      </g>
     </g>
     <g id="text_5">
      <!-- 4 -->
      <g transform="translate(354.284235 318.238437) scale(0.1 -0.1)">
       <defs>
        <path id="DejaVuSans-34" d="M 2419 4116 
L 825 1625 
L 2419 1625 
L 2419 4116 
z
M 2253 4666 
L 3047 4666 
L 3047 1625 
L 3713 1625 
L 3713 1100 
L 3047 1100 
L 3047 0 
L 2419 0 
L 2419 1100 
L 313 1100 
L 313 1709 
L 2253 4666 
z
" transform="scale(0.015625)"/>
       </defs>
       <use xlink:href="#DejaVuSans-34"/>
      </g>
     </g>
    </g>
    <g id="xtick_6">
     <g id="line2d_6">
      <g>
       <use xlink:href="#me1d7f9ff31" x="431.693106" y="303.64" style="stroke: #000000; stroke-width: 0.8"/>
      </g>
     </g>
     <g id="text_6">
      <!-- 5 -->
      <g transform="translate(428.511856 318.238437) scale(0.1 -0.1)">
       <defs>
        <path id="DejaVuSans-35" d="M 691 4666 
L 3169 4666 
L 3169 4134 
L 1269 4134 
L 1269 2991 
Q 1406 3038 1543 3061 
Q 1681 3084 1819 3084 
Q 2600 3084 3056 2656 
Q 3513 2228 3513 1497 
Q 3513 744 3044 326 
Q 2575 -91 1722 -91 
Q 1428 -91 1123 -41 
Q 819 9 494 109 
L 494 744 
Q 775 591 1075 516 
Q 1375 441 1709 441 
Q 2250 441 2565 725 
Q 2881 1009 2881 1497 
Q 2881 1984 2565 2268 
Q 2250 2553 1709 2553 
Q 1456 2553 1204 2497 
Q 953 2441 691 2322 
L 691 4666 
z
" transform="scale(0.015625)"/>
       </defs>
       <use xlink:href="#DejaVuSans-35"/>
      </g>
     </g>
    </g>
    <g id="text_7">
     <!-- Time after reward(s) -->
     <g transform="translate(194.943281 331.916562) scale(0.1 -0.1)">
      <defs>
       <path id="DejaVuSans-54" d="M -19 4666 
L 3928 4666 
L 3928 4134 
L 2272 4134 
L 2272 0 
L 1638 0 
L 1638 4134 
L -19 4134 
L -19 4666 
z
" transform="scale(0.015625)"/>
       <path id="DejaVuSans-69" d="M 603 3500 
L 1178 3500 
L 1178 0 
L 603 0 
L 603 3500 
z
M 603 4863 
L 1178 4863 
L 1178 4134 
L 603 4134 
L 603 4863 
z
" transform="scale(0.015625)"/>
       <path id="DejaVuSans-6d" d="M 3328 2828 
Q 3544 3216 3844 3400 
Q 4144 3584 4550 3584 
Q 5097 3584 5394 3201 
Q 5691 2819 5691 2113 
L 5691 0 
L 5113 0 
L 5113 2094 
Q 5113 2597 4934 2840 
Q 4756 3084 4391 3084 
Q 3944 3084 3684 2787 
Q 3425 2491 3425 1978 
L 3425 0 
L 2847 0 
L 2847 2094 
Q 2847 2600 2669 2842 
Q 2491 3084 2119 3084 
Q 1678 3084 1418 2786 
Q 1159 2488 1159 1978 
L 1159 0 
L 581 0 
L 581 3500 
L 1159 3500 
L 1159 2956 
Q 1356 3278 1631 3431 
Q 1906 3584 2284 3584 
Q 2666 3584 2933 3390 
Q 3200 3197 3328 2828 
z
" transform="scale(0.015625)"/>
       <path id="DejaVuSans-65" d="M 3597 1894 
L 3597 1613 
L 953 1613 
Q 991 1019 1311 708 
Q 1631 397 2203 397 
Q 2534 397 2845 478 
Q 3156 559 3463 722 
L 3463 178 
Q 3153 47 2828 -22 
Q 2503 -91 2169 -91 
Q 1331 -91 842 396 
Q 353 884 353 1716 
Q 353 2575 817 3079 
Q 1281 3584 2069 3584 
Q 2775 3584 3186 3129 
Q 3597 2675 3597 1894 
z
M 3022 2063 
Q 3016 2534 2758 2815 
Q 2500 3097 2075 3097 
Q 1594 3097 1305 2825 
Q 1016 2553 972 2059 
L 3022 2063 
z
" transform="scale(0.015625)"/>
       <path id="DejaVuSans-20" transform="scale(0.015625)"/>
       <path id="DejaVuSans-61" d="M 2194 1759 
Q 1497 1759 1228 1600 
Q 959 1441 959 1056 
Q 959 750 1161 570 
Q 1363 391 1709 391 
Q 2188 391 2477 730 
Q 2766 1069 2766 1631 
L 2766 1759 
L 2194 1759 
z
M 3341 1997 
L 3341 0 
L 2766 0 
L 2766 531 
Q 2569 213 2275 61 
Q 1981 -91 1556 -91 
Q 1019 -91 701 211 
Q 384 513 384 1019 
Q 384 1609 779 1909 
Q 1175 2209 1959 2209 
L 2766 2209 
L 2766 2266 
Q 2766 2663 2505 2880 
Q 2244 3097 1772 3097 
Q 1472 3097 1187 3025 
Q 903 2953 641 2809 
L 641 3341 
Q 956 3463 1253 3523 
Q 1550 3584 1831 3584 
Q 2591 3584 2966 3190 
Q 3341 2797 3341 1997 
z
" transform="scale(0.015625)"/>
       <path id="DejaVuSans-66" d="M 2375 4863 
L 2375 4384 
L 1825 4384 
Q 1516 4384 1395 4259 
Q 1275 4134 1275 3809 
L 1275 3500 
L 2222 3500 
L 2222 3053 
L 1275 3053 
L 1275 0 
L 697 0 
L 697 3053 
L 147 3053 
L 147 3500 
L 697 3500 
L 697 3744 
Q 697 4328 969 4595 
Q 1241 4863 1831 4863 
L 2375 4863 
z
" transform="scale(0.015625)"/>
       <path id="DejaVuSans-74" d="M 1172 4494 
L 1172 3500 
L 2356 3500 
L 2356 3053 
L 1172 3053 
L 1172 1153 
Q 1172 725 1289 603 
Q 1406 481 1766 481 
L 2356 481 
L 2356 0 
L 1766 0 
Q 1100 0 847 248 
Q 594 497 594 1153 
L 594 3053 
L 172 3053 
L 172 3500 
L 594 3500 
L 594 4494 
L 1172 4494 
z
" transform="scale(0.015625)"/>
       <path id="DejaVuSans-72" d="M 2631 2963 
Q 2534 3019 2420 3045 
Q 2306 3072 2169 3072 
Q 1681 3072 1420 2755 
Q 1159 2438 1159 1844 
L 1159 0 
L 581 0 
L 581 3500 
L 1159 3500 
L 1159 2956 
Q 1341 3275 1631 3429 
Q 1922 3584 2338 3584 
Q 2397 3584 2469 3576 
Q 2541 3569 2628 3553 
L 2631 2963 
z
" transform="scale(0.015625)"/>
       <path id="DejaVuSans-77" d="M 269 3500 
L 844 3500 
L 1563 769 
L 2278 3500 
L 2956 3500 
L 3675 769 
L 4391 3500 
L 4966 3500 
L 4050 0 
L 3372 0 
L 2619 2869 
L 1863 0 
L 1184 0 
L 269 3500 
z
" transform="scale(0.015625)"/>
       <path id="DejaVuSans-64" d="M 2906 2969 
L 2906 4863 
L 3481 4863 
L 3481 0 
L 2906 0 
L 2906 525 
Q 2725 213 2448 61 
Q 2172 -91 1784 -91 
Q 1150 -91 751 415 
Q 353 922 353 1747 
Q 353 2572 751 3078 
Q 1150 3584 1784 3584 
Q 2172 3584 2448 3432 
Q 2725 3281 2906 2969 
z
M 947 1747 
Q 947 1113 1208 752 
Q 1469 391 1925 391 
Q 2381 391 2643 752 
Q 2906 1113 2906 1747 
Q 2906 2381 2643 2742 
Q 2381 3103 1925 3103 
Q 1469 3103 1208 2742 
Q 947 2381 947 1747 
z
" transform="scale(0.015625)"/>
       <path id="DejaVuSans-28" d="M 1984 4856 
Q 1566 4138 1362 3434 
Q 1159 2731 1159 2009 
Q 1159 1288 1364 580 
Q 1569 -128 1984 -844 
L 1484 -844 
Q 1016 -109 783 600 
Q 550 1309 550 2009 
Q 550 2706 781 3412 
Q 1013 4119 1484 4856 
L 1984 4856 
z
" transform="scale(0.015625)"/>
       <path id="DejaVuSans-73" d="M 2834 3397 
L 2834 2853 
Q 2591 2978 2328 3040 
Q 2066 3103 1784 3103 
Q 1356 3103 1142 2972 
Q 928 2841 928 2578 
Q 928 2378 1081 2264 
Q 1234 2150 1697 2047 
L 1894 2003 
Q 2506 1872 2764 1633 
Q 3022 1394 3022 966 
Q 3022 478 2636 193 
Q 2250 -91 1575 -91 
Q 1294 -91 989 -36 
Q 684 19 347 128 
L 347 722 
Q 666 556 975 473 
Q 1284 391 1588 391 
Q 1994 391 2212 530 
Q 2431 669 2431 922 
Q 2431 1156 2273 1281 
Q 2116 1406 1581 1522 
L 1381 1569 
Q 847 1681 609 1914 
Q 372 2147 372 2553 
Q 372 3047 722 3315 
Q 1072 3584 1716 3584 
Q 2034 3584 2315 3537 
Q 2597 3491 2834 3397 
z
" transform="scale(0.015625)"/>
       <path id="DejaVuSans-29" d="M 513 4856 
L 1013 4856 
Q 1481 4119 1714 3412 
Q 1947 2706 1947 2009 
Q 1947 1309 1714 600 
Q 1481 -109 1013 -844 
L 513 -844 
Q 928 -128 1133 580 
Q 1338 1288 1338 2009 
Q 1338 2731 1133 3434 
Q 928 4138 513 4856 
z
" transform="scale(0.015625)"/>
      </defs>
      <use xlink:href="#DejaVuSans-54"/>
      <use xlink:href="#DejaVuSans-69" x="57.958984"/>
      <use xlink:href="#DejaVuSans-6d" x="85.742188"/>
      <use xlink:href="#DejaVuSans-65" x="183.154297"/>
      <use xlink:href="#DejaVuSans-20" x="244.677734"/>
      <use xlink:href="#DejaVuSans-61" x="276.464844"/>
      <use xlink:href="#DejaVuSans-66" x="337.744141"/>
      <use xlink:href="#DejaVuSans-74" x="371.199219"/>
      <use xlink:href="#DejaVuSans-65" x="410.408203"/>
      <use xlink:href="#DejaVuSans-72" x="471.931641"/>
      <use xlink:href="#DejaVuSans-20" x="513.044922"/>
      <use xlink:href="#DejaVuSans-72" x="544.832031"/>
      <use xlink:href="#DejaVuSans-65" x="583.695312"/>
      <use xlink:href="#DejaVuSans-77" x="645.21875"/>
      <use xlink:href="#DejaVuSans-61" x="727.005859"/>
      <use xlink:href="#DejaVuSans-72" x="788.285156"/>
      <use xlink:href="#DejaVuSans-64" x="827.648438"/>
      <use xlink:href="#DejaVuSans-28" x="891.125"/>
      <use xlink:href="#DejaVuSans-73" x="930.138672"/>
      <use xlink:href="#DejaVuSans-29" x="982.238281"/>
     </g>
    </g>
   </g>
   <g id="matplotlib.axis_2">
    <g id="ytick_1">
     <g id="line2d_7">
      <defs>
       <path id="m95e1be0961" d="M 0 0 
L -3.5 0 
" style="stroke: #000000; stroke-width: 0.8"/>
      </defs>
      <g>
       <use xlink:href="#m95e1be0961" x="42.01" y="281.616502" style="stroke: #000000; stroke-width: 0.8"/>
      </g>
     </g>
     <g id="text_8">
      <!-- −0.3 -->
      <g transform="translate(10.727187 285.415721) scale(0.1 -0.1)">
       <defs>
        <path id="DejaVuSans-2212" d="M 678 2272 
L 4684 2272 
L 4684 1741 
L 678 1741 
L 678 2272 
z
" transform="scale(0.015625)"/>
        <path id="DejaVuSans-2e" d="M 684 794 
L 1344 794 
L 1344 0 
L 684 0 
L 684 794 
z
" transform="scale(0.015625)"/>
       </defs>
       <use xlink:href="#DejaVuSans-2212"/>
       <use xlink:href="#DejaVuSans-30" x="83.789062"/>
       <use xlink:href="#DejaVuSans-2e" x="147.412109"/>
       <use xlink:href="#DejaVuSans-33" x="179.199219"/>
      </g>
     </g>
    </g>
    <g id="ytick_2">
     <g id="line2d_8">
      <g>
       <use xlink:href="#m95e1be0961" x="42.01" y="249.582212" style="stroke: #000000; stroke-width: 0.8"/>
      </g>
     </g>
     <g id="text_9">
      <!-- −0.2 -->
      <g transform="translate(10.727187 253.381431) scale(0.1 -0.1)">
       <use xlink:href="#DejaVuSans-2212"/>
       <use xlink:href="#DejaVuSans-30" x="83.789062"/>
       <use xlink:href="#DejaVuSans-2e" x="147.412109"/>
       <use xlink:href="#DejaVuSans-32" x="179.199219"/>
      </g>
     </g>
    </g>
    <g id="ytick_3">
     <g id="line2d_9">
      <g>
       <use xlink:href="#m95e1be0961" x="42.01" y="217.547923" style="stroke: #000000; stroke-width: 0.8"/>
      </g>
     </g>
     <g id="text_10">
      <!-- −0.1 -->
      <g transform="translate(10.727187 221.347141) scale(0.1 -0.1)">
       <use xlink:href="#DejaVuSans-2212"/>
       <use xlink:href="#DejaVuSans-30" x="83.789062"/>
       <use xlink:href="#DejaVuSans-2e" x="147.412109"/>
       <use xlink:href="#DejaVuSans-31" x="179.199219"/>
      </g>
     </g>
    </g>
    <g id="ytick_4">
     <g id="line2d_10">
      <g>
       <use xlink:href="#m95e1be0961" x="42.01" y="185.513633" style="stroke: #000000; stroke-width: 0.8"/>
      </g>
     </g>
     <g id="text_11">
      <!-- 0.0 -->
      <g transform="translate(19.106875 189.312852) scale(0.1 -0.1)">
       <use xlink:href="#DejaVuSans-30"/>
       <use xlink:href="#DejaVuSans-2e" x="63.623047"/>
       <use xlink:href="#DejaVuSans-30" x="95.410156"/>
      </g>
     </g>
    </g>
    <g id="ytick_5">
     <g id="line2d_11">
      <g>
       <use xlink:href="#m95e1be0961" x="42.01" y="153.479343" style="stroke: #000000; stroke-width: 0.8"/>
      </g>
     </g>
     <g id="text_12">
      <!-- 0.1 -->
      <g transform="translate(19.106875 157.278562) scale(0.1 -0.1)">
       <use xlink:href="#DejaVuSans-30"/>
       <use xlink:href="#DejaVuSans-2e" x="63.623047"/>
       <use xlink:href="#DejaVuSans-31" x="95.410156"/>
      </g>
     </g>
    </g>
    <g id="ytick_6">
     <g id="line2d_12">
      <g>
       <use xlink:href="#m95e1be0961" x="42.01" y="121.445054" style="stroke: #000000; stroke-width: 0.8"/>
      </g>
     </g>
     <g id="text_13">
      <!-- 0.2 -->
      <g transform="translate(19.106875 125.244272) scale(0.1 -0.1)">
       <use xlink:href="#DejaVuSans-30"/>
       <use xlink:href="#DejaVuSans-2e" x="63.623047"/>
       <use xlink:href="#DejaVuSans-32" x="95.410156"/>
      </g>
     </g>
    </g>
    <g id="ytick_7">
     <g id="line2d_13">
      <g>
       <use xlink:href="#m95e1be0961" x="42.01" y="89.410764" style="stroke: #000000; stroke-width: 0.8"/>
      </g>
     </g>
     <g id="text_14">
      <!-- 0.3 -->
      <g transform="translate(19.106875 93.209983) scale(0.1 -0.1)">
       <use xlink:href="#DejaVuSans-30"/>
       <use xlink:href="#DejaVuSans-2e" x="63.623047"/>
       <use xlink:href="#DejaVuSans-33" x="95.410156"/>
      </g>
     </g>
    </g>
    <g id="ytick_8">
     <g id="line2d_14">
      <g>
       <use xlink:href="#m95e1be0961" x="42.01" y="57.376474" style="stroke: #000000; stroke-width: 0.8"/>
      </g>
     </g>
     <g id="text_15">
      <!-- 0.4 -->
      <g transform="translate(19.106875 61.175693) scale(0.1 -0.1)">
       <use xlink:href="#DejaVuSans-30"/>
       <use xlink:href="#DejaVuSans-2e" x="63.623047"/>
       <use xlink:href="#DejaVuSans-34" x="95.410156"/>
      </g>
     </g>
    </g>
   </g>
   <g id="line2d_15">
    <path d="M 60.555 39.46 
L 63.035936 67.348884 
L 64.276405 80.054284 
L 65.152029 86.679256 
L 65.735779 89.675792 
L 66.319529 91.532918 
L 66.83031 92.402916 
L 67.341091 92.840395 
L 67.924841 93.058459 
L 68.50859 92.957225 
L 69.09234 92.598281 
L 69.822027 91.88027 
L 70.916558 90.817462 
L 71.427339 90.508682 
L 71.792183 90.485338 
L 72.084058 90.690353 
L 72.448901 91.278952 
L 72.959682 92.651324 
L 73.616401 95.126302 
L 74.710932 100.47888 
L 75.659525 106.143464 
L 76.53515 112.998535 
L 77.62968 123.456496 
L 78.943117 138.25978 
L 80.183585 151.375244 
L 80.913273 156.94506 
L 81.569991 160.341521 
L 82.080772 162.071196 
L 82.518584 162.918103 
L 82.956397 163.319772 
L 83.32124 163.397941 
L 83.686084 163.253648 
L 84.196865 162.77341 
L 84.926552 161.813953 
L 85.583271 160.536861 
L 86.458895 158.888388 
L 87.188583 157.946173 
L 87.845301 157.416425 
L 88.283113 157.301585 
L 88.720926 157.477562 
L 89.304675 158.008603 
L 89.815456 158.857727 
L 90.472175 160.490113 
L 91.055925 162.582159 
L 91.785612 166.195501 
L 93.244986 174.843184 
L 94.704361 183.85046 
L 95.87186 193.04998 
L 98.060922 210.43642 
L 98.71764 214.038282 
L 99.228421 215.854198 
L 99.739202 216.889286 
L 100.322952 217.540757 
L 100.833733 217.775463 
L 101.198577 217.734112 
L 101.636389 217.364789 
L 102.220139 216.52637 
L 103.679513 214.26868 
L 104.4092 213.608526 
L 104.99295 213.375286 
L 105.5767 213.368642 
L 106.16045 213.590691 
L 107.619824 214.315569 
L 108.130605 214.24795 
L 109.298104 213.913369 
L 110.10076 213.981036 
L 111.414197 214.234175 
L 112.143885 214.140652 
L 112.654666 213.856581 
L 113.165447 213.324077 
L 113.968102 212.467048 
L 114.69779 211.979748 
L 115.281539 211.849851 
L 115.79232 211.988653 
L 116.449039 212.439681 
L 117.397632 213.092536 
L 117.835445 213.141407 
L 118.200288 212.980604 
L 118.565132 212.590059 
L 119.002944 211.698517 
L 119.732631 209.602461 
L 123.23513 198.776339 
L 123.672942 198.277034 
L 123.964817 198.225196 
L 124.329661 198.453631 
L 124.767473 199.065879 
L 125.424191 200.455025 
L 126.226847 202.720744 
L 129.583408 212.495677 
L 130.532002 214.484975 
L 133.085907 219.22043 
L 133.742625 220.121161 
L 134.180438 220.416272 
L 134.545281 220.442437 
L 134.983094 220.213543 
L 135.420906 219.676362 
L 135.931687 218.646341 
L 136.515437 216.882948 
L 137.099187 214.394104 
L 137.828874 210.089776 
L 139.580123 199.14853 
L 140.163873 196.827756 
L 140.674654 195.598667 
L 141.039497 195.264492 
L 141.331372 195.322434 
L 141.696216 195.745639 
L 142.134028 196.660473 
L 142.644809 198.36049 
L 143.520434 202.393139 
L 145.636527 212.040343 
L 146.439183 214.430311 
L 147.241838 216.087625 
L 147.679651 216.597717 
L 147.971526 216.68231 
L 148.409338 216.529956 
L 149.139025 215.95333 
L 150.01465 215.265767 
L 152.27668 214.059871 
L 152.714492 214.222116 
L 153.225273 214.664752 
L 155.12246 216.621197 
L 155.70621 216.837237 
L 156.216991 216.790873 
L 157.019647 216.512861 
L 158.260115 215.712309 
L 158.916834 215.104562 
L 159.427615 214.312002 
L 160.230271 212.533101 
L 160.886989 210.497278 
L 162.200426 205.347401 
L 163.513863 200.499896 
L 163.951675 199.572679 
L 164.24355 199.361412 
L 164.462456 199.437833 
L 164.754331 199.814637 
L 165.119175 200.635983 
L 165.629956 202.42787 
L 166.432612 206.196326 
L 167.891986 214.386829 
L 168.767611 220.427205 
L 170.299954 231.28867 
L 171.029641 234.839146 
L 171.686359 236.948704 
L 172.489015 238.65264 
L 174.240265 241.768224 
L 174.969952 242.415322 
L 175.553702 242.718429 
L 176.429326 243.084139 
L 176.867139 243.524952 
L 177.37792 244.416802 
L 177.961669 245.926145 
L 179.566981 251.210829 
L 182.047918 259.501479 
L 182.412761 259.887396 
L 182.704636 259.923751 
L 182.996511 259.751403 
L 183.361355 259.229926 
L 183.872136 257.937765 
L 184.455885 255.660774 
L 185.550416 250.19933 
L 186.863853 242.413686 
L 188.031353 236.053466 
L 189.125883 231.037241 
L 189.782602 228.951235 
L 190.293383 227.950145 
L 190.658226 227.671897 
L 190.950101 227.698129 
L 191.387914 228.022275 
L 192.920257 229.346224 
L 195.474162 230.660262 
L 195.839006 230.535965 
L 196.276818 230.148974 
L 196.933536 229.211186 
L 197.663223 227.779288 
L 198.319942 225.963888 
L 199.341504 222.298366 
L 201.165722 215.511823 
L 202.552128 211.582296 
L 203.865565 208.227306 
L 204.595252 206.883669 
L 207.149157 202.925697 
L 207.951813 200.805157 
L 210.140874 194.685881 
L 211.162437 192.544441 
L 211.892124 191.531445 
L 212.69478 190.818235 
L 213.278529 190.589087 
L 213.643373 190.648208 
L 214.081185 190.97133 
L 215.175716 192.062275 
L 216.489153 193.631371 
L 216.999934 193.825549 
L 217.364778 193.741503 
L 217.80259 193.432716 
L 218.605246 192.500816 
L 220.940245 189.973461 
L 222.034776 189.076339 
L 222.837432 188.045146 
L 223.931962 186.2745 
L 224.66165 184.596382 
L 225.391337 182.419131 
L 226.266961 178.97492 
L 229.039773 167.333839 
L 229.76946 165.392392 
L 230.499147 164.105897 
L 230.936959 163.696307 
L 231.301803 163.608537 
L 231.666647 163.808105 
L 232.250396 164.511876 
L 232.761177 165.446921 
L 233.344927 167.062931 
L 234.074614 169.916798 
L 235.242114 174.352406 
L 235.825864 175.717155 
L 236.336645 176.38638 
L 236.701488 176.525071 
L 237.066332 176.451509 
L 237.504144 176.124185 
L 238.087894 175.359634 
L 238.744612 174.015778 
L 239.839143 171.095229 
L 241.444455 166.98444 
L 242.101174 165.827419 
L 242.611955 165.301255 
L 242.976798 165.181486 
L 243.341642 165.323075 
L 243.852423 165.824846 
L 244.509141 166.854197 
L 247.500859 172.07587 
L 248.230546 174.22372 
L 249.543983 178.082047 
L 250.27367 179.598993 
L 250.784451 180.20126 
L 251.295232 180.457635 
L 252.024919 180.558228 
L 252.5357 180.500043 
L 253.192419 180.191337 
L 254.28695 179.486571 
L 254.651793 179.532313 
L 255.016637 179.902224 
L 255.454449 180.754703 
L 255.96523 182.37307 
L 258.519135 192.235924 
L 259.832572 197.025569 
L 260.562259 199.005104 
L 261.000072 199.573186 
L 261.291947 199.643745 
L 261.583822 199.491717 
L 261.948665 199.054021 
L 262.386477 198.197746 
L 262.970227 196.459208 
L 263.699914 193.445027 
L 264.721476 188.057311 
L 266.034913 179.944738 
L 268.078038 167.126087 
L 268.880693 163.458482 
L 269.610381 161.145319 
L 270.121162 160.118991 
L 270.704911 159.394277 
L 272.310223 158.036892 
L 273.915535 156.943169 
L 274.353347 157.015097 
L 274.864128 157.375502 
L 275.593816 157.896137 
L 276.177565 158.048683 
L 276.907253 158.26073 
L 277.345065 158.605875 
L 277.928815 159.372389 
L 281.06647 163.498678 
L 281.577251 163.826884 
L 281.942094 163.817877 
L 282.598813 163.487723 
L 283.182562 163.01355 
L 285.225687 161.084377 
L 285.955374 160.34581 
L 287.049905 159.175203 
L 287.414748 159.008642 
L 287.706623 159.093158 
L 288.071467 159.465554 
L 288.582248 160.389793 
L 289.238966 162.186977 
L 294.273808 177.827419 
L 295.003495 179.135738 
L 295.514276 179.687475 
L 296.025057 179.939193 
L 296.535838 179.953499 
L 296.97365 179.778961 
L 297.411463 179.335095 
L 298.214119 178.081016 
L 301.643648 172.096538 
L 304.41646 168.159866 
L 305.00021 167.708391 
L 307.26224 166.29942 
L 307.918958 165.904831 
L 308.283802 165.882694 
L 308.648645 166.062144 
L 309.086458 166.538476 
L 309.670208 167.536092 
L 310.326926 169.220247 
L 311.640363 173.350264 
L 313.610518 180.025165 
L 315.434736 185.590603 
L 316.018486 186.858021 
L 316.456298 187.344178 
L 316.894111 187.538505 
L 317.550829 187.500262 
L 318.134579 187.23609 
L 319.302078 186.374126 
L 319.958797 185.566505 
L 322.293796 181.923935 
L 325.50442 177.192356 
L 326.088169 176.889175 
L 326.525982 176.947204 
L 326.963794 177.233067 
L 327.401606 177.783241 
L 327.912387 178.810088 
L 328.642075 180.917025 
L 330.466293 186.494725 
L 330.977074 187.311668 
L 331.487855 187.712832 
L 331.998636 187.849276 
L 333.385041 188.066276 
L 334.114729 188.279471 
L 334.552541 188.23516 
L 334.990353 187.990853 
L 335.355197 187.560534 
L 335.865978 186.547768 
L 336.522696 184.682803 
L 338.346914 179.010322 
L 340.535976 173.874012 
L 341.630507 170.940054 
L 342.287225 169.831405 
L 342.943944 169.114321 
L 343.381756 168.965991 
L 343.746599 169.08939 
L 344.25738 169.563231 
L 345.205974 170.842026 
L 346.665348 172.630387 
L 347.322067 173.194367 
L 347.832848 173.402387 
L 348.343629 173.385791 
L 349.000347 173.144093 
L 349.730034 172.639746 
L 350.313784 171.968751 
L 352.648783 168.841788 
L 353.159564 168.547647 
L 353.670345 168.49611 
L 354.910813 168.532977 
L 355.640501 168.088959 
L 356.297219 167.416295 
L 358.340343 165.232246 
L 359.507843 163.806564 
L 360.310499 162.56503 
L 361.186123 160.749809 
L 362.061748 158.300834 
L 363.229247 154.299386 
L 364.469716 150.122132 
L 365.418309 147.596023 
L 366.002059 146.581542 
L 366.439871 146.23673 
L 366.877683 146.169178 
L 367.388464 146.367863 
L 367.899246 146.829694 
L 370.307213 149.631675 
L 371.109869 150.554247 
L 373.517837 153.021568 
L 374.393462 154.774791 
L 375.487992 156.813284 
L 375.998773 157.417897 
L 376.363617 157.593468 
L 376.728461 157.514047 
L 377.166273 157.140841 
L 377.531116 156.554118 
L 378.041898 155.258869 
L 378.771585 152.736151 
L 380.522834 146.35309 
L 381.252521 144.589192 
L 381.836271 143.669072 
L 382.420021 143.158645 
L 382.857833 143.029668 
L 383.368614 143.10492 
L 383.879395 143.39726 
L 384.536114 144.044715 
L 385.046895 144.883875 
L 385.84955 146.729733 
L 386.725175 149.414958 
L 387.527831 151.640189 
L 388.038612 152.516864 
L 388.549393 152.968351 
L 388.987205 153.127546 
L 389.497986 153.06751 
L 390.519548 152.905214 
L 390.884392 153.017741 
L 391.322204 153.406267 
L 392.051892 154.444103 
L 392.635641 155.621068 
L 393.146422 157.174756 
L 393.87611 160.23031 
L 395.408453 166.740406 
L 396.284077 169.35153 
L 396.867827 170.523885 
L 397.232671 170.816054 
L 397.524546 170.770406 
L 397.889389 170.437446 
L 398.327201 169.700957 
L 398.98392 168.106946 
L 399.859545 165.382628 
L 401.027044 160.685761 
L 404.09173 148.25971 
L 404.602511 147.247029 
L 404.967355 146.911253 
L 405.25923 146.919991 
L 405.551105 147.171013 
L 405.915948 147.813338 
L 406.353761 149.13807 
L 406.864542 151.46207 
L 407.594229 155.99628 
L 408.469853 162.923156 
L 409.78329 175.579187 
L 411.461571 191.308029 
L 412.556102 199.73705 
L 413.358758 204.334964 
L 413.942507 206.523851 
L 414.599226 208.069778 
L 415.182976 208.944132 
L 415.693757 209.309498 
L 416.131569 209.385168 
L 416.569381 209.205562 
L 417.080162 208.681759 
L 418.977349 206.372486 
L 419.925942 206.021287 
L 420.582661 205.897233 
L 420.947504 206.004525 
L 421.312348 206.311705 
L 421.896098 207.138101 
L 424.012191 210.491511 
L 424.304066 210.520037 
L 424.59594 210.317703 
L 424.960784 209.723082 
L 425.398596 208.513615 
L 426.055315 205.922421 
L 428.60922 194.428089 
L 429.265938 192.861907 
L 429.922657 191.871384 
L 430.360469 191.484072 
L 430.652344 191.45047 
L 430.944219 191.646639 
L 431.309063 192.261068 
L 431.455 192.63076 
L 431.455 192.63076 
" clip-path="url(#pe33159a224)" style="fill: none; stroke: #1f77b4; stroke-width: 1.5; stroke-linecap: square"/>
   </g>
   <g id="line2d_16">
    <path d="M 60.555 110.358815 
L 61.576562 109.834823 
L 62.014374 109.926451 
L 62.671093 110.298445 
L 63.108905 110.784769 
L 63.838592 112.064492 
L 64.56828 113.855986 
L 65.66281 116.638877 
L 66.611404 118.456013 
L 68.800465 121.916421 
L 69.822027 124.228852 
L 71.135464 127.872357 
L 72.813745 132.887027 
L 73.543432 134.238342 
L 74.127182 134.884253 
L 74.564994 135.059896 
L 74.929838 135.007967 
L 75.36765 134.694191 
L 75.878431 134.036677 
L 78.870149 129.67362 
L 79.38093 129.345267 
L 79.745773 129.385516 
L 80.037648 129.675914 
L 80.402492 130.399362 
L 80.913273 131.989144 
L 81.64296 135.130157 
L 82.883428 141.699144 
L 84.561709 150.591708 
L 85.218427 152.98519 
L 85.875146 154.554334 
L 86.458895 155.477884 
L 86.896708 155.807343 
L 87.772332 156.341822 
L 89.158738 157.589879 
L 89.669519 158.371861 
L 90.1803 159.620786 
L 90.909987 162.065189 
L 91.785612 165.865083 
L 93.901705 175.196912 
L 95.361079 180.401927 
L 96.45561 183.490598 
L 97.112328 184.680109 
L 97.696078 185.268646 
L 98.206859 185.482079 
L 98.790609 185.471498 
L 99.520296 185.196244 
L 100.104046 184.718598 
L 100.614827 184.0049 
L 101.198577 182.740341 
L 101.928264 180.587153 
L 103.825451 174.641149 
L 104.482169 173.202945 
L 104.99295 172.601112 
L 105.357794 172.444632 
L 105.649669 172.519872 
L 106.014512 172.858768 
L 106.452324 173.572549 
L 106.963105 174.843315 
L 107.619824 177.163694 
L 108.787323 182.250308 
L 110.319667 188.956476 
L 111.122322 191.506282 
L 111.85201 193.112014 
L 113.895134 196.998087 
L 114.989665 200.043246 
L 115.865289 203.120979 
L 116.667945 206.829116 
L 118.200288 215.246869 
L 120.024506 225.316679 
L 120.754193 228.231323 
L 121.337943 229.718968 
L 121.702787 230.159051 
L 121.921693 230.180178 
L 122.140599 230.012892 
L 122.432474 229.485921 
L 122.870286 228.071058 
L 123.527005 224.938456 
L 124.475598 219.151684 
L 126.591691 205.832005 
L 127.321378 202.985568 
L 127.905128 201.499475 
L 128.34294 200.942973 
L 128.707784 200.846666 
L 128.999659 201.000436 
L 129.51044 201.610853 
L 130.167158 202.784167 
L 130.823877 204.458786 
L 132.283251 208.395546 
L 132.867001 209.32936 
L 133.231844 209.574742 
L 133.523719 209.507974 
L 133.888563 209.121399 
L 134.399344 208.09152 
L 134.983094 206.357081 
L 135.639812 203.67159 
L 136.588405 198.84221 
L 137.901842 192.089906 
L 138.63153 189.508821 
L 139.215279 188.126065 
L 139.653092 187.595961 
L 140.017935 187.470975 
L 140.455748 187.621136 
L 140.89356 188.064131 
L 141.550278 189.141096 
L 142.717778 190.946637 
L 143.374496 191.637299 
L 143.812309 191.776356 
L 144.177152 191.690561 
L 144.469027 191.408485 
L 144.906839 190.564233 
L 145.344652 189.238926 
L 146.00137 186.399919 
L 146.731057 182.171831 
L 148.117463 172.39823 
L 149.795744 161.29323 
L 150.744337 156.356426 
L 151.401055 153.98178 
L 151.911837 152.851599 
L 152.349649 152.366114 
L 152.714492 152.27505 
L 153.079336 152.404816 
L 153.44418 152.792276 
L 153.881992 153.633451 
L 154.392773 155.113803 
L 155.414335 159.035733 
L 156.362928 163.47391 
L 157.530428 168.817329 
L 158.260115 171.291941 
L 158.843865 172.622518 
L 159.281677 173.160172 
L 159.719489 173.363257 
L 160.303239 173.364609 
L 160.741052 173.163023 
L 161.39777 172.557334 
L 161.908551 171.831126 
L 163.294957 168.957345 
L 164.024644 167.695923 
L 164.608394 167.056081 
L 165.192143 166.759882 
L 165.629956 166.750831 
L 166.797455 166.887651 
L 168.25683 166.245772 
L 168.986517 166.332239 
L 169.93511 166.387381 
L 171.321516 166.211714 
L 171.905266 165.709797 
L 174.021358 163.636613 
L 174.605108 163.535607 
L 175.115889 163.658641 
L 175.699639 164.071218 
L 176.21042 164.765958 
L 176.79417 165.94948 
L 177.37792 167.74609 
L 177.961669 170.256795 
L 178.691356 174.412532 
L 179.785887 182.267791 
L 181.099324 193.146013 
L 183.361355 212.241548 
L 184.16401 217.095319 
L 184.893698 220.17189 
L 185.477447 221.746002 
L 185.988228 222.542226 
L 186.353072 222.792533 
L 186.644947 222.761321 
L 187.00979 222.418639 
L 187.59354 221.401996 
L 190.43932 215.710902 
L 191.169007 214.810782 
L 191.825726 214.302398 
L 192.920257 213.806252 
L 193.431038 213.838281 
L 193.86885 214.127328 
L 194.233694 214.657535 
L 194.817443 216.00295 
L 195.620099 218.524879 
L 196.787599 222.189464 
L 197.517286 223.626814 
L 198.246973 224.644468 
L 198.684786 224.944425 
L 199.122598 225.005657 
L 199.56041 224.853936 
L 199.998223 224.493883 
L 200.509004 223.7584 
L 200.946816 222.737954 
L 201.530566 220.815484 
L 202.333222 217.227865 
L 205.470876 202.368776 
L 206.054626 200.797622 
L 206.41947 200.309236 
L 206.784313 200.178213 
L 207.076188 200.303857 
L 207.441032 200.714035 
L 208.024782 201.779933 
L 209.119312 204.409174 
L 210.94353 208.821433 
L 211.600249 209.888221 
L 212.402905 210.654239 
L 213.643373 211.872712 
L 214.518998 213.109044 
L 215.832435 215.509391 
L 217.145872 218.072082 
L 217.948527 220.341616 
L 219.626808 225.812062 
L 222.545557 236.010394 
L 223.348213 238.021404 
L 224.150869 239.465852 
L 225.026493 240.568115 
L 225.902118 241.294277 
L 226.777742 241.8171 
L 227.50743 241.988992 
L 228.747898 242.015549 
L 229.550554 241.977087 
L 230.134304 242.159975 
L 230.718053 242.640643 
L 232.250396 244.348448 
L 232.980084 245.285646 
L 234.147583 247.291647 
L 235.533989 249.827215 
L 236.04477 250.247528 
L 236.62852 250.424571 
L 237.504144 250.412391 
L 238.014925 250.248449 
L 238.525706 249.857998 
L 239.620237 248.981952 
L 241.15258 248.139995 
L 241.444455 248.308382 
L 241.809299 248.864757 
L 242.247111 250.077804 
L 242.830861 252.497272 
L 243.633517 256.88074 
L 245.238828 265.670855 
L 245.895547 268.021787 
L 246.333359 268.925239 
L 246.698203 269.265971 
L 246.990078 269.269116 
L 247.281953 269.053965 
L 247.646796 268.506003 
L 248.157577 267.234173 
L 248.741327 265.163381 
L 249.471014 261.644227 
L 250.565545 255.068317 
L 252.316794 244.692252 
L 253.192419 240.88061 
L 253.849137 238.896616 
L 254.578825 237.389636 
L 255.162574 236.551957 
L 255.600387 236.259912 
L 256.038199 236.268081 
L 256.621949 236.576599 
L 257.424605 237.377439 
L 259.540697 239.770948 
L 260.270385 240.978137 
L 261.729759 243.432422 
L 262.751321 244.673046 
L 263.335071 245.042279 
L 263.772883 245.066966 
L 264.283664 244.850757 
L 264.794445 244.392228 
L 265.232258 243.761883 
L 265.888976 242.286332 
L 266.618663 240.137434 
L 268.369912 234.790647 
L 269.026631 233.364846 
L 269.537412 232.699563 
L 269.902256 232.533564 
L 270.19413 232.60743 
L 270.558974 232.922033 
L 270.996786 233.593878 
L 271.580536 234.935445 
L 272.602098 237.909168 
L 274.426316 244.37318 
L 275.228972 246.746371 
L 275.812722 247.916874 
L 276.323503 248.470182 
L 276.834284 248.692165 
L 277.345065 248.662989 
L 277.855846 248.386826 
L 278.512564 247.66645 
L 279.388189 246.658548 
L 279.753033 246.474987 
L 280.117876 246.547986 
L 280.555689 246.901212 
L 281.06647 247.598865 
L 281.796157 249.070899 
L 282.671781 251.364097 
L 284.204125 255.42019 
L 285.444593 258.237834 
L 286.101311 259.108338 
L 286.75803 259.654692 
L 287.487717 260.253874 
L 287.998498 260.972749 
L 288.582248 262.244269 
L 289.311935 264.383165 
L 290.406466 268.467836 
L 291.646934 274.153663 
L 293.908964 284.980337 
L 294.784589 287.979323 
L 295.441307 289.517817 
L 296.098026 290.55821 
L 296.608807 291.005972 
L 296.97365 291.03802 
L 297.265525 290.848468 
L 297.703338 290.210727 
L 298.214119 289.053429 
L 298.7249 287.366961 
L 299.308649 284.629241 
L 300.330211 278.407642 
L 303.540835 258.718964 
L 304.343491 255.609586 
L 304.854272 254.391222 
L 305.292084 253.840297 
L 305.729897 253.665549 
L 306.09474 253.72856 
L 306.459584 254.004218 
L 306.824428 254.573337 
L 307.26224 255.678559 
L 307.991927 258.242997 
L 310.472863 267.57615 
L 311.056613 268.838374 
L 311.494426 269.346794 
L 311.932238 269.525352 
L 312.224113 269.444355 
L 312.588956 269.068586 
L 313.172706 268.028635 
L 316.091455 262.118812 
L 316.821142 261.249183 
L 317.331923 260.910872 
L 317.769735 260.849219 
L 318.207548 261.030274 
L 318.791297 261.532549 
L 319.666922 262.641896 
L 321.783015 265.632386 
L 322.439733 267.060195 
L 323.242389 269.496217 
L 324.555826 273.568421 
L 325.139576 274.672699 
L 325.577388 275.116238 
L 325.942232 275.197619 
L 326.234107 275.027736 
L 326.59895 274.480935 
L 327.036763 273.343178 
L 327.547544 271.31832 
L 328.204262 267.661024 
L 329.152856 260.791059 
L 331.852698 240.37373 
L 332.655354 236.602382 
L 333.312073 234.426927 
L 333.822854 233.402195 
L 334.260666 232.966149 
L 334.771447 232.745965 
L 335.136291 232.816122 
L 335.865978 233.295955 
L 336.668634 233.955746 
L 337.398321 234.832939 
L 339.295508 237.257441 
L 340.244101 237.943241 
L 340.754882 238.0274 
L 341.119726 237.900574 
L 341.557538 237.479694 
L 342.068319 236.638835 
L 342.943944 234.595409 
L 344.111443 231.975389 
L 345.716755 229.110039 
L 346.519411 227.907908 
L 347.176129 227.244525 
L 347.540973 227.13532 
L 347.905816 227.29164 
L 348.197691 227.684115 
L 348.635504 228.704454 
L 349.219253 230.672874 
L 349.875972 233.688845 
L 350.824565 239.268917 
L 353.816283 257.117261 
L 354.54597 260.120528 
L 355.12972 261.705174 
L 355.567532 262.276929 
L 355.932376 262.41623 
L 356.22425 262.324041 
L 356.589094 261.947351 
L 356.953938 261.218947 
L 357.537687 259.418973 
L 358.267375 256.347564 
L 361.477998 241.496775 
L 362.353623 238.534518 
L 363.156279 236.630051 
L 363.66706 235.890204 
L 364.031903 235.654575 
L 364.396747 235.642163 
L 364.761591 235.89251 
L 365.34534 236.674873 
L 366.950652 239.550987 
L 368.264089 241.887529 
L 368.701901 242.280113 
L 369.066745 242.330595 
L 369.504557 242.109264 
L 369.94237 241.596242 
L 370.745026 240.191644 
L 371.474713 238.493331 
L 372.78815 234.607899 
L 375.196117 226.538063 
L 375.779867 225.642856 
L 376.436586 225.099908 
L 377.166273 224.769231 
L 377.822991 224.698028 
L 378.47971 224.851033 
L 378.990491 225.19408 
L 380.15799 226.430351 
L 380.960646 227.195135 
L 381.836271 227.645853 
L 383.295645 228.161322 
L 383.660489 227.983593 
L 384.17127 227.461045 
L 384.900957 226.314639 
L 385.557676 224.901322 
L 388.184549 218.693112 
L 388.622362 218.213229 
L 388.987205 218.109516 
L 389.352049 218.258602 
L 389.789861 218.708579 
L 390.300642 219.640063 
L 390.884392 221.201889 
L 391.760017 224.284101 
L 392.854548 228.916951 
L 393.87611 234.073763 
L 394.897672 240.329208 
L 396.065171 249.118181 
L 397.451577 261.191483 
L 399.421732 278.556259 
L 400.370326 284.936801 
L 400.954075 287.601636 
L 401.464856 288.971588 
L 401.975637 289.696682 
L 402.41345 289.93213 
L 402.851262 289.909275 
L 403.289074 289.636979 
L 403.872824 288.901172 
L 405.478136 286.24646 
L 406.645635 284.425565 
L 407.156416 284.023537 
L 407.740166 283.865357 
L 408.323916 284.001128 
L 409.126572 284.451613 
L 410.294071 285.108416 
L 411.023759 285.185263 
L 411.461571 285.069743 
L 411.899383 284.688095 
L 412.337196 283.954969 
L 412.993914 282.307958 
L 413.723601 279.822168 
L 414.745163 275.484794 
L 417.736881 262.577753 
L 418.612505 259.804578 
L 419.415161 257.926655 
L 419.998911 257.014835 
L 420.363755 256.775355 
L 420.65563 256.81767 
L 421.093442 257.144176 
L 421.531254 257.807385 
L 422.115004 259.237322 
L 423.136566 262.518106 
L 424.668909 267.41996 
L 425.471565 269.39517 
L 425.982346 270.112464 
L 426.420158 270.446698 
L 426.785002 270.459595 
L 427.149846 270.230291 
L 427.587658 269.646271 
L 428.098439 268.506154 
L 428.682189 266.547632 
L 431.163125 257.529287 
L 431.455 256.726367 
L 431.455 256.726367 
" clip-path="url(#pe33159a224)" style="fill: none; stroke: #ff7f0e; stroke-width: 1.5; stroke-linecap: square"/>
   </g>
   <g id="patch_3">
    <path d="M 42.01 303.64 
L 42.01 26.88 
" style="fill: none; stroke: #000000; stroke-width: 0.8; stroke-linejoin: miter; stroke-linecap: square"/>
   </g>
   <g id="patch_4">
    <path d="M 450 303.64 
L 450 26.88 
" style="fill: none; stroke: #000000; stroke-width: 0.8; stroke-linejoin: miter; stroke-linecap: square"/>
   </g>
   <g id="patch_5">
    <path d="M 42.01 303.64 
L 450 303.64 
" style="fill: none; stroke: #000000; stroke-width: 0.8; stroke-linejoin: miter; stroke-linecap: square"/>
   </g>
   <g id="patch_6">
    <path d="M 42.01 26.88 
L 450 26.88 
" style="fill: none; stroke: #000000; stroke-width: 0.8; stroke-linejoin: miter; stroke-linecap: square"/>
   </g>
   <g id="text_16">
    <!-- Mean 5 seconds post reward Trials -->
    <g transform="translate(142.661563 20.88) scale(0.12 -0.12)">
     <defs>
      <path id="DejaVuSans-4d" d="M 628 4666 
L 1569 4666 
L 2759 1491 
L 3956 4666 
L 4897 4666 
L 4897 0 
L 4281 0 
L 4281 4097 
L 3078 897 
L 2444 897 
L 1241 4097 
L 1241 0 
L 628 0 
L 628 4666 
z
" transform="scale(0.015625)"/>
      <path id="DejaVuSans-6e" d="M 3513 2113 
L 3513 0 
L 2938 0 
L 2938 2094 
Q 2938 2591 2744 2837 
Q 2550 3084 2163 3084 
Q 1697 3084 1428 2787 
Q 1159 2491 1159 1978 
L 1159 0 
L 581 0 
L 581 3500 
L 1159 3500 
L 1159 2956 
Q 1366 3272 1645 3428 
Q 1925 3584 2291 3584 
Q 2894 3584 3203 3211 
Q 3513 2838 3513 2113 
z
" transform="scale(0.015625)"/>
      <path id="DejaVuSans-63" d="M 3122 3366 
L 3122 2828 
Q 2878 2963 2633 3030 
Q 2388 3097 2138 3097 
Q 1578 3097 1268 2742 
Q 959 2388 959 1747 
Q 959 1106 1268 751 
Q 1578 397 2138 397 
Q 2388 397 2633 464 
Q 2878 531 3122 666 
L 3122 134 
Q 2881 22 2623 -34 
Q 2366 -91 2075 -91 
Q 1284 -91 818 406 
Q 353 903 353 1747 
Q 353 2603 823 3093 
Q 1294 3584 2113 3584 
Q 2378 3584 2631 3529 
Q 2884 3475 3122 3366 
z
" transform="scale(0.015625)"/>
      <path id="DejaVuSans-6f" d="M 1959 3097 
Q 1497 3097 1228 2736 
Q 959 2375 959 1747 
Q 959 1119 1226 758 
Q 1494 397 1959 397 
Q 2419 397 2687 759 
Q 2956 1122 2956 1747 
Q 2956 2369 2687 2733 
Q 2419 3097 1959 3097 
z
M 1959 3584 
Q 2709 3584 3137 3096 
Q 3566 2609 3566 1747 
Q 3566 888 3137 398 
Q 2709 -91 1959 -91 
Q 1206 -91 779 398 
Q 353 888 353 1747 
Q 353 2609 779 3096 
Q 1206 3584 1959 3584 
z
" transform="scale(0.015625)"/>
      <path id="DejaVuSans-70" d="M 1159 525 
L 1159 -1331 
L 581 -1331 
L 581 3500 
L 1159 3500 
L 1159 2969 
Q 1341 3281 1617 3432 
Q 1894 3584 2278 3584 
Q 2916 3584 3314 3078 
Q 3713 2572 3713 1747 
Q 3713 922 3314 415 
Q 2916 -91 2278 -91 
Q 1894 -91 1617 61 
Q 1341 213 1159 525 
z
M 3116 1747 
Q 3116 2381 2855 2742 
Q 2594 3103 2138 3103 
Q 1681 3103 1420 2742 
Q 1159 2381 1159 1747 
Q 1159 1113 1420 752 
Q 1681 391 2138 391 
Q 2594 391 2855 752 
Q 3116 1113 3116 1747 
z
" transform="scale(0.015625)"/>
      <path id="DejaVuSans-6c" d="M 603 4863 
L 1178 4863 
L 1178 0 
L 603 0 
L 603 4863 
z
" transform="scale(0.015625)"/>
     </defs>
     <use xlink:href="#DejaVuSans-4d"/>
     <use xlink:href="#DejaVuSans-65" x="86.279297"/>
     <use xlink:href="#DejaVuSans-61" x="147.802734"/>
     <use xlink:href="#DejaVuSans-6e" x="209.082031"/>
     <use xlink:href="#DejaVuSans-20" x="272.460938"/>
     <use xlink:href="#DejaVuSans-35" x="304.248047"/>
     <use xlink:href="#DejaVuSans-20" x="367.871094"/>
     <use xlink:href="#DejaVuSans-73" x="399.658203"/>
     <use xlink:href="#DejaVuSans-65" x="451.757812"/>
     <use xlink:href="#DejaVuSans-63" x="513.28125"/>
     <use xlink:href="#DejaVuSans-6f" x="568.261719"/>
     <use xlink:href="#DejaVuSans-6e" x="629.443359"/>
     <use xlink:href="#DejaVuSans-64" x="692.822266"/>
     <use xlink:href="#DejaVuSans-73" x="756.298828"/>
     <use xlink:href="#DejaVuSans-20" x="808.398438"/>
     <use xlink:href="#DejaVuSans-70" x="840.185547"/>
     <use xlink:href="#DejaVuSans-6f" x="903.662109"/>
     <use xlink:href="#DejaVuSans-73" x="964.84375"/>
     <use xlink:href="#DejaVuSans-74" x="1016.943359"/>
     <use xlink:href="#DejaVuSans-20" x="1056.152344"/>
     <use xlink:href="#DejaVuSans-72" x="1087.939453"/>
     <use xlink:href="#DejaVuSans-65" x="1126.802734"/>
     <use xlink:href="#DejaVuSans-77" x="1188.326172"/>
     <use xlink:href="#DejaVuSans-61" x="1270.113281"/>
     <use xlink:href="#DejaVuSans-72" x="1331.392578"/>
     <use xlink:href="#DejaVuSans-64" x="1370.755859"/>
     <use xlink:href="#DejaVuSans-20" x="1434.232422"/>
     <use xlink:href="#DejaVuSans-54" x="1466.019531"/>
     <use xlink:href="#DejaVuSans-72" x="1512.353516"/>
     <use xlink:href="#DejaVuSans-69" x="1553.466797"/>
     <use xlink:href="#DejaVuSans-61" x="1581.25"/>
     <use xlink:href="#DejaVuSans-6c" x="1642.529297"/>
     <use xlink:href="#DejaVuSans-73" x="1670.3125"/>
    </g>
   </g>
   <g id="legend_1">
    <g id="patch_7">
     <path d="M 396.009375 64.23625 
L 443 64.23625 
Q 445 64.23625 445 62.23625 
L 445 33.88 
Q 445 31.88 443 31.88 
L 396.009375 31.88 
Q 394.009375 31.88 394.009375 33.88 
L 394.009375 62.23625 
Q 394.009375 64.23625 396.009375 64.23625 
z
" style="fill: #ffffff; opacity: 0.8; stroke: #cccccc; stroke-linejoin: miter"/>
    </g>
    <g id="line2d_17">
     <path d="M 398.009375 39.978437 
L 408.009375 39.978437 
L 418.009375 39.978437 
" style="fill: none; stroke: #1f77b4; stroke-width: 1.5; stroke-linecap: square"/>
    </g>
    <g id="text_17">
     <!-- M5 -->
     <g transform="translate(426.009375 43.478437) scale(0.1 -0.1)">
      <use xlink:href="#DejaVuSans-4d"/>
      <use xlink:href="#DejaVuSans-35" x="86.279297"/>
     </g>
    </g>
    <g id="line2d_18">
     <path d="M 398.009375 54.656563 
L 408.009375 54.656563 
L 418.009375 54.656563 
" style="fill: none; stroke: #ff7f0e; stroke-width: 1.5; stroke-linecap: square"/>
    </g>
    <g id="text_18">
     <!-- M6 -->
     <g transform="translate(426.009375 58.156563) scale(0.1 -0.1)">
      <defs>
       <path id="DejaVuSans-36" d="M 2113 2584 
Q 1688 2584 1439 2293 
Q 1191 2003 1191 1497 
Q 1191 994 1439 701 
Q 1688 409 2113 409 
Q 2538 409 2786 701 
Q 3034 994 3034 1497 
Q 3034 2003 2786 2293 
Q 2538 2584 2113 2584 
z
M 3366 4563 
L 3366 3988 
Q 3128 4100 2886 4159 
Q 2644 4219 2406 4219 
Q 1781 4219 1451 3797 
Q 1122 3375 1075 2522 
Q 1259 2794 1537 2939 
Q 1816 3084 2150 3084 
Q 2853 3084 3261 2657 
Q 3669 2231 3669 1497 
Q 3669 778 3244 343 
Q 2819 -91 2113 -91 
Q 1303 -91 875 529 
Q 447 1150 447 2328 
Q 447 3434 972 4092 
Q 1497 4750 2381 4750 
Q 2619 4750 2861 4703 
Q 3103 4656 3366 4563 
z
" transform="scale(0.015625)"/>
      </defs>
      <use xlink:href="#DejaVuSans-4d"/>
      <use xlink:href="#DejaVuSans-36" x="86.279297"/>
     </g>
    </g>
   </g>
  </g>
 </g>
 <defs>
  <clipPath id="pe33159a224">
   <rect x="42.01" y="26.88" width="407.99" height="276.76"/>
  </clipPath>
 </defs>
</svg>
