<?xml version="1.0" encoding="utf-8" standalone="no"?>
<!DOCTYPE svg PUBLIC "-//W3C//DTD SVG 1.1//EN"
  "http://www.w3.org/Graphics/SVG/1.1/DTD/svg11.dtd">
<svg xmlns:xlink="http://www.w3.org/1999/xlink" width="460.8pt" height="345.6pt" viewBox="0 0 460.8 345.6" xmlns="http://www.w3.org/2000/svg" version="1.1">
 <metadata>
  <rdf:RDF xmlns:dc="http://purl.org/dc/elements/1.1/" xmlns:cc="http://creativecommons.org/ns#" xmlns:rdf="http://www.w3.org/1999/02/22-rdf-syntax-ns#">
   <cc:Work>
    <dc:type rdf:resource="http://purl.org/dc/dcmitype/StillImage"/>
    <dc:date>2023-09-19T14:22:32.127334</dc:date>
    <dc:format>image/svg+xml</dc:format>
    <dc:creator>
     <cc:Agent>
      <dc:title>Matplotlib v3.7.2, https://matplotlib.org/</dc:title>
     </cc:Agent>
    </dc:creator>
   </cc:Work>
  </rdf:RDF>
 </metadata>
 <defs>
  <style type="text/css">*{stroke-linejoin: round; stroke-linecap: butt}</style>
 </defs>
 <g id="figure_1">
  <g id="patch_1">
   <path d="M 0 345.6 
L 460.8 345.6 
L 460.8 0 
L 0 0 
z
" style="fill: #ffffff"/>
  </g>
  <g id="axes_1">
   <g id="patch_2">
    <path d="M 42.01 303.64 
L 450 303.64 
L 450 26.88 
L 42.01 26.88 
z
" style="fill: #ffffff"/>
   </g>
   <g id="matplotlib.axis_1">
    <g id="xtick_1">
     <g id="line2d_1">
      <defs>
       <path id="mab3607fa1d" d="M 0 0 
L 0 3.5 
" style="stroke: #000000; stroke-width: 0.8"/>
      </defs>
      <g>
       <use xlink:href="#mab3607fa1d" x="60.555" y="303.64" style="stroke: #000000; stroke-width: 0.8"/>
      </g>
     </g>
     <g id="text_1">
      <!-- 0 -->
      <g transform="translate(57.37375 318.238437) scale(0.1 -0.1)">
       <defs>
        <path id="DejaVuSans-30" d="M 2034 4250 
Q 1547 4250 1301 3770 
Q 1056 3291 1056 2328 
Q 1056 1369 1301 889 
Q 1547 409 2034 409 
Q 2525 409 2770 889 
Q 3016 1369 3016 2328 
Q 3016 3291 2770 3770 
Q 2525 4250 2034 4250 
z
M 2034 4750 
Q 2819 4750 3233 4129 
Q 3647 3509 3647 2328 
Q 3647 1150 3233 529 
Q 2819 -91 2034 -91 
Q 1250 -91 836 529 
Q 422 1150 422 2328 
Q 422 3509 836 4129 
Q 1250 4750 2034 4750 
z
" transform="scale(0.015625)"/>
       </defs>
       <use xlink:href="#DejaVuSans-30"/>
      </g>
     </g>
    </g>
    <g id="xtick_2">
     <g id="line2d_2">
      <g>
       <use xlink:href="#mab3607fa1d" x="134.782621" y="303.64" style="stroke: #000000; stroke-width: 0.8"/>
      </g>
     </g>
     <g id="text_2">
      <!-- 1 -->
      <g transform="translate(131.601371 318.238437) scale(0.1 -0.1)">
       <defs>
        <path id="DejaVuSans-31" d="M 794 531 
L 1825 531 
L 1825 4091 
L 703 3866 
L 703 4441 
L 1819 4666 
L 2450 4666 
L 2450 531 
L 3481 531 
L 3481 0 
L 794 0 
L 794 531 
z
" transform="scale(0.015625)"/>
       </defs>
       <use xlink:href="#DejaVuSans-31"/>
      </g>
     </g>
    </g>
    <g id="xtick_3">
     <g id="line2d_3">
      <g>
       <use xlink:href="#mab3607fa1d" x="209.010242" y="303.64" style="stroke: #000000; stroke-width: 0.8"/>
      </g>
     </g>
     <g id="text_3">
      <!-- 2 -->
      <g transform="translate(205.828992 318.238437) scale(0.1 -0.1)">
       <defs>
        <path id="DejaVuSans-32" d="M 1228 531 
L 3431 531 
L 3431 0 
L 469 0 
L 469 531 
Q 828 903 1448 1529 
Q 2069 2156 2228 2338 
Q 2531 2678 2651 2914 
Q 2772 3150 2772 3378 
Q 2772 3750 2511 3984 
Q 2250 4219 1831 4219 
Q 1534 4219 1204 4116 
Q 875 4013 500 3803 
L 500 4441 
Q 881 4594 1212 4672 
Q 1544 4750 1819 4750 
Q 2544 4750 2975 4387 
Q 3406 4025 3406 3419 
Q 3406 3131 3298 2873 
Q 3191 2616 2906 2266 
Q 2828 2175 2409 1742 
Q 1991 1309 1228 531 
z
" transform="scale(0.015625)"/>
       </defs>
       <use xlink:href="#DejaVuSans-32"/>
      </g>
     </g>
    </g>
    <g id="xtick_4">
     <g id="line2d_4">
      <g>
       <use xlink:href="#mab3607fa1d" x="283.237864" y="303.64" style="stroke: #000000; stroke-width: 0.8"/>
      </g>
     </g>
     <g id="text_4">
      <!-- 3 -->
      <g transform="translate(280.056614 318.238437) scale(0.1 -0.1)">
       <defs>
        <path id="DejaVuSans-33" d="M 2597 2516 
Q 3050 2419 3304 2112 
Q 3559 1806 3559 1356 
Q 3559 666 3084 287 
Q 2609 -91 1734 -91 
Q 1441 -91 1130 -33 
Q 819 25 488 141 
L 488 750 
Q 750 597 1062 519 
Q 1375 441 1716 441 
Q 2309 441 2620 675 
Q 2931 909 2931 1356 
Q 2931 1769 2642 2001 
Q 2353 2234 1838 2234 
L 1294 2234 
L 1294 2753 
L 1863 2753 
Q 2328 2753 2575 2939 
Q 2822 3125 2822 3475 
Q 2822 3834 2567 4026 
Q 2313 4219 1838 4219 
Q 1578 4219 1281 4162 
Q 984 4106 628 3988 
L 628 4550 
Q 988 4650 1302 4700 
Q 1616 4750 1894 4750 
Q 2613 4750 3031 4423 
Q 3450 4097 3450 3541 
Q 3450 3153 3228 2886 
Q 3006 2619 2597 2516 
z
" transform="scale(0.015625)"/>
       </defs>
       <use xlink:href="#DejaVuSans-33"/>
      </g>
     </g>
    </g>
    <g id="xtick_5">
     <g id="line2d_5">
      <g>
       <use xlink:href="#mab3607fa1d" x="357.465485" y="303.64" style="stroke: #000000; stroke-width: 0.8"/>
      </g>
     </g>
     <g id="text_5">
      <!-- 4 -->
      <g transform="translate(354.284235 318.238437) scale(0.1 -0.1)">
       <defs>
        <path id="DejaVuSans-34" d="M 2419 4116 
L 825 1625 
L 2419 1625 
L 2419 4116 
z
M 2253 4666 
L 3047 4666 
L 3047 1625 
L 3713 1625 
L 3713 1100 
L 3047 1100 
L 3047 0 
L 2419 0 
L 2419 1100 
L 313 1100 
L 313 1709 
L 2253 4666 
z
" transform="scale(0.015625)"/>
       </defs>
       <use xlink:href="#DejaVuSans-34"/>
      </g>
     </g>
    </g>
    <g id="xtick_6">
     <g id="line2d_6">
      <g>
       <use xlink:href="#mab3607fa1d" x="431.693106" y="303.64" style="stroke: #000000; stroke-width: 0.8"/>
      </g>
     </g>
     <g id="text_6">
      <!-- 5 -->
      <g transform="translate(428.511856 318.238437) scale(0.1 -0.1)">
       <defs>
        <path id="DejaVuSans-35" d="M 691 4666 
L 3169 4666 
L 3169 4134 
L 1269 4134 
L 1269 2991 
Q 1406 3038 1543 3061 
Q 1681 3084 1819 3084 
Q 2600 3084 3056 2656 
Q 3513 2228 3513 1497 
Q 3513 744 3044 326 
Q 2575 -91 1722 -91 
Q 1428 -91 1123 -41 
Q 819 9 494 109 
L 494 744 
Q 775 591 1075 516 
Q 1375 441 1709 441 
Q 2250 441 2565 725 
Q 2881 1009 2881 1497 
Q 2881 1984 2565 2268 
Q 2250 2553 1709 2553 
Q 1456 2553 1204 2497 
Q 953 2441 691 2322 
L 691 4666 
z
" transform="scale(0.015625)"/>
       </defs>
       <use xlink:href="#DejaVuSans-35"/>
      </g>
     </g>
    </g>
    <g id="text_7">
     <!-- Time after reward(s) -->
     <g transform="translate(194.943281 331.916562) scale(0.1 -0.1)">
      <defs>
       <path id="DejaVuSans-54" d="M -19 4666 
L 3928 4666 
L 3928 4134 
L 2272 4134 
L 2272 0 
L 1638 0 
L 1638 4134 
L -19 4134 
L -19 4666 
z
" transform="scale(0.015625)"/>
       <path id="DejaVuSans-69" d="M 603 3500 
L 1178 3500 
L 1178 0 
L 603 0 
L 603 3500 
z
M 603 4863 
L 1178 4863 
L 1178 4134 
L 603 4134 
L 603 4863 
z
" transform="scale(0.015625)"/>
       <path id="DejaVuSans-6d" d="M 3328 2828 
Q 3544 3216 3844 3400 
Q 4144 3584 4550 3584 
Q 5097 3584 5394 3201 
Q 5691 2819 5691 2113 
L 5691 0 
L 5113 0 
L 5113 2094 
Q 5113 2597 4934 2840 
Q 4756 3084 4391 3084 
Q 3944 3084 3684 2787 
Q 3425 2491 3425 1978 
L 3425 0 
L 2847 0 
L 2847 2094 
Q 2847 2600 2669 2842 
Q 2491 3084 2119 3084 
Q 1678 3084 1418 2786 
Q 1159 2488 1159 1978 
L 1159 0 
L 581 0 
L 581 3500 
L 1159 3500 
L 1159 2956 
Q 1356 3278 1631 3431 
Q 1906 3584 2284 3584 
Q 2666 3584 2933 3390 
Q 3200 3197 3328 2828 
z
" transform="scale(0.015625)"/>
       <path id="DejaVuSans-65" d="M 3597 1894 
L 3597 1613 
L 953 1613 
Q 991 1019 1311 708 
Q 1631 397 2203 397 
Q 2534 397 2845 478 
Q 3156 559 3463 722 
L 3463 178 
Q 3153 47 2828 -22 
Q 2503 -91 2169 -91 
Q 1331 -91 842 396 
Q 353 884 353 1716 
Q 353 2575 817 3079 
Q 1281 3584 2069 3584 
Q 2775 3584 3186 3129 
Q 3597 2675 3597 1894 
z
M 3022 2063 
Q 3016 2534 2758 2815 
Q 2500 3097 2075 3097 
Q 1594 3097 1305 2825 
Q 1016 2553 972 2059 
L 3022 2063 
z
" transform="scale(0.015625)"/>
       <path id="DejaVuSans-20" transform="scale(0.015625)"/>
       <path id="DejaVuSans-61" d="M 2194 1759 
Q 1497 1759 1228 1600 
Q 959 1441 959 1056 
Q 959 750 1161 570 
Q 1363 391 1709 391 
Q 2188 391 2477 730 
Q 2766 1069 2766 1631 
L 2766 1759 
L 2194 1759 
z
M 3341 1997 
L 3341 0 
L 2766 0 
L 2766 531 
Q 2569 213 2275 61 
Q 1981 -91 1556 -91 
Q 1019 -91 701 211 
Q 384 513 384 1019 
Q 384 1609 779 1909 
Q 1175 2209 1959 2209 
L 2766 2209 
L 2766 2266 
Q 2766 2663 2505 2880 
Q 2244 3097 1772 3097 
Q 1472 3097 1187 3025 
Q 903 2953 641 2809 
L 641 3341 
Q 956 3463 1253 3523 
Q 1550 3584 1831 3584 
Q 2591 3584 2966 3190 
Q 3341 2797 3341 1997 
z
" transform="scale(0.015625)"/>
       <path id="DejaVuSans-66" d="M 2375 4863 
L 2375 4384 
L 1825 4384 
Q 1516 4384 1395 4259 
Q 1275 4134 1275 3809 
L 1275 3500 
L 2222 3500 
L 2222 3053 
L 1275 3053 
L 1275 0 
L 697 0 
L 697 3053 
L 147 3053 
L 147 3500 
L 697 3500 
L 697 3744 
Q 697 4328 969 4595 
Q 1241 4863 1831 4863 
L 2375 4863 
z
" transform="scale(0.015625)"/>
       <path id="DejaVuSans-74" d="M 1172 4494 
L 1172 3500 
L 2356 3500 
L 2356 3053 
L 1172 3053 
L 1172 1153 
Q 1172 725 1289 603 
Q 1406 481 1766 481 
L 2356 481 
L 2356 0 
L 1766 0 
Q 1100 0 847 248 
Q 594 497 594 1153 
L 594 3053 
L 172 3053 
L 172 3500 
L 594 3500 
L 594 4494 
L 1172 4494 
z
" transform="scale(0.015625)"/>
       <path id="DejaVuSans-72" d="M 2631 2963 
Q 2534 3019 2420 3045 
Q 2306 3072 2169 3072 
Q 1681 3072 1420 2755 
Q 1159 2438 1159 1844 
L 1159 0 
L 581 0 
L 581 3500 
L 1159 3500 
L 1159 2956 
Q 1341 3275 1631 3429 
Q 1922 3584 2338 3584 
Q 2397 3584 2469 3576 
Q 2541 3569 2628 3553 
L 2631 2963 
z
" transform="scale(0.015625)"/>
       <path id="DejaVuSans-77" d="M 269 3500 
L 844 3500 
L 1563 769 
L 2278 3500 
L 2956 3500 
L 3675 769 
L 4391 3500 
L 4966 3500 
L 4050 0 
L 3372 0 
L 2619 2869 
L 1863 0 
L 1184 0 
L 269 3500 
z
" transform="scale(0.015625)"/>
       <path id="DejaVuSans-64" d="M 2906 2969 
L 2906 4863 
L 3481 4863 
L 3481 0 
L 2906 0 
L 2906 525 
Q 2725 213 2448 61 
Q 2172 -91 1784 -91 
Q 1150 -91 751 415 
Q 353 922 353 1747 
Q 353 2572 751 3078 
Q 1150 3584 1784 3584 
Q 2172 3584 2448 3432 
Q 2725 3281 2906 2969 
z
M 947 1747 
Q 947 1113 1208 752 
Q 1469 391 1925 391 
Q 2381 391 2643 752 
Q 2906 1113 2906 1747 
Q 2906 2381 2643 2742 
Q 2381 3103 1925 3103 
Q 1469 3103 1208 2742 
Q 947 2381 947 1747 
z
" transform="scale(0.015625)"/>
       <path id="DejaVuSans-28" d="M 1984 4856 
Q 1566 4138 1362 3434 
Q 1159 2731 1159 2009 
Q 1159 1288 1364 580 
Q 1569 -128 1984 -844 
L 1484 -844 
Q 1016 -109 783 600 
Q 550 1309 550 2009 
Q 550 2706 781 3412 
Q 1013 4119 1484 4856 
L 1984 4856 
z
" transform="scale(0.015625)"/>
       <path id="DejaVuSans-73" d="M 2834 3397 
L 2834 2853 
Q 2591 2978 2328 3040 
Q 2066 3103 1784 3103 
Q 1356 3103 1142 2972 
Q 928 2841 928 2578 
Q 928 2378 1081 2264 
Q 1234 2150 1697 2047 
L 1894 2003 
Q 2506 1872 2764 1633 
Q 3022 1394 3022 966 
Q 3022 478 2636 193 
Q 2250 -91 1575 -91 
Q 1294 -91 989 -36 
Q 684 19 347 128 
L 347 722 
Q 666 556 975 473 
Q 1284 391 1588 391 
Q 1994 391 2212 530 
Q 2431 669 2431 922 
Q 2431 1156 2273 1281 
Q 2116 1406 1581 1522 
L 1381 1569 
Q 847 1681 609 1914 
Q 372 2147 372 2553 
Q 372 3047 722 3315 
Q 1072 3584 1716 3584 
Q 2034 3584 2315 3537 
Q 2597 3491 2834 3397 
z
" transform="scale(0.015625)"/>
       <path id="DejaVuSans-29" d="M 513 4856 
L 1013 4856 
Q 1481 4119 1714 3412 
Q 1947 2706 1947 2009 
Q 1947 1309 1714 600 
Q 1481 -109 1013 -844 
L 513 -844 
Q 928 -128 1133 580 
Q 1338 1288 1338 2009 
Q 1338 2731 1133 3434 
Q 928 4138 513 4856 
z
" transform="scale(0.015625)"/>
      </defs>
      <use xlink:href="#DejaVuSans-54"/>
      <use xlink:href="#DejaVuSans-69" x="57.958984"/>
      <use xlink:href="#DejaVuSans-6d" x="85.742188"/>
      <use xlink:href="#DejaVuSans-65" x="183.154297"/>
      <use xlink:href="#DejaVuSans-20" x="244.677734"/>
      <use xlink:href="#DejaVuSans-61" x="276.464844"/>
      <use xlink:href="#DejaVuSans-66" x="337.744141"/>
      <use xlink:href="#DejaVuSans-74" x="371.199219"/>
      <use xlink:href="#DejaVuSans-65" x="410.408203"/>
      <use xlink:href="#DejaVuSans-72" x="471.931641"/>
      <use xlink:href="#DejaVuSans-20" x="513.044922"/>
      <use xlink:href="#DejaVuSans-72" x="544.832031"/>
      <use xlink:href="#DejaVuSans-65" x="583.695312"/>
      <use xlink:href="#DejaVuSans-77" x="645.21875"/>
      <use xlink:href="#DejaVuSans-61" x="727.005859"/>
      <use xlink:href="#DejaVuSans-72" x="788.285156"/>
      <use xlink:href="#DejaVuSans-64" x="827.648438"/>
      <use xlink:href="#DejaVuSans-28" x="891.125"/>
      <use xlink:href="#DejaVuSans-73" x="930.138672"/>
      <use xlink:href="#DejaVuSans-29" x="982.238281"/>
     </g>
    </g>
   </g>
   <g id="matplotlib.axis_2">
    <g id="ytick_1">
     <g id="line2d_7">
      <defs>
       <path id="m71204acb25" d="M 0 0 
L -3.5 0 
" style="stroke: #000000; stroke-width: 0.8"/>
      </defs>
      <g>
       <use xlink:href="#m71204acb25" x="42.01" y="299.799134" style="stroke: #000000; stroke-width: 0.8"/>
      </g>
     </g>
     <g id="text_8">
      <!-- −0.2 -->
      <g transform="translate(10.727187 303.598353) scale(0.1 -0.1)">
       <defs>
        <path id="DejaVuSans-2212" d="M 678 2272 
L 4684 2272 
L 4684 1741 
L 678 1741 
L 678 2272 
z
" transform="scale(0.015625)"/>
        <path id="DejaVuSans-2e" d="M 684 794 
L 1344 794 
L 1344 0 
L 684 0 
L 684 794 
z
" transform="scale(0.015625)"/>
       </defs>
       <use xlink:href="#DejaVuSans-2212"/>
       <use xlink:href="#DejaVuSans-30" x="83.789062"/>
       <use xlink:href="#DejaVuSans-2e" x="147.412109"/>
       <use xlink:href="#DejaVuSans-32" x="179.199219"/>
      </g>
     </g>
    </g>
    <g id="ytick_2">
     <g id="line2d_8">
      <g>
       <use xlink:href="#m71204acb25" x="42.01" y="262.736289" style="stroke: #000000; stroke-width: 0.8"/>
      </g>
     </g>
     <g id="text_9">
      <!-- −0.1 -->
      <g transform="translate(10.727187 266.535508) scale(0.1 -0.1)">
       <use xlink:href="#DejaVuSans-2212"/>
       <use xlink:href="#DejaVuSans-30" x="83.789062"/>
       <use xlink:href="#DejaVuSans-2e" x="147.412109"/>
       <use xlink:href="#DejaVuSans-31" x="179.199219"/>
      </g>
     </g>
    </g>
    <g id="ytick_3">
     <g id="line2d_9">
      <g>
       <use xlink:href="#m71204acb25" x="42.01" y="225.673444" style="stroke: #000000; stroke-width: 0.8"/>
      </g>
     </g>
     <g id="text_10">
      <!-- 0.0 -->
      <g transform="translate(19.106875 229.472663) scale(0.1 -0.1)">
       <use xlink:href="#DejaVuSans-30"/>
       <use xlink:href="#DejaVuSans-2e" x="63.623047"/>
       <use xlink:href="#DejaVuSans-30" x="95.410156"/>
      </g>
     </g>
    </g>
    <g id="ytick_4">
     <g id="line2d_10">
      <g>
       <use xlink:href="#m71204acb25" x="42.01" y="188.6106" style="stroke: #000000; stroke-width: 0.8"/>
      </g>
     </g>
     <g id="text_11">
      <!-- 0.1 -->
      <g transform="translate(19.106875 192.409818) scale(0.1 -0.1)">
       <use xlink:href="#DejaVuSans-30"/>
       <use xlink:href="#DejaVuSans-2e" x="63.623047"/>
       <use xlink:href="#DejaVuSans-31" x="95.410156"/>
      </g>
     </g>
    </g>
    <g id="ytick_5">
     <g id="line2d_11">
      <g>
       <use xlink:href="#m71204acb25" x="42.01" y="151.547755" style="stroke: #000000; stroke-width: 0.8"/>
      </g>
     </g>
     <g id="text_12">
      <!-- 0.2 -->
      <g transform="translate(19.106875 155.346973) scale(0.1 -0.1)">
       <use xlink:href="#DejaVuSans-30"/>
       <use xlink:href="#DejaVuSans-2e" x="63.623047"/>
       <use xlink:href="#DejaVuSans-32" x="95.410156"/>
      </g>
     </g>
    </g>
    <g id="ytick_6">
     <g id="line2d_12">
      <g>
       <use xlink:href="#m71204acb25" x="42.01" y="114.48491" style="stroke: #000000; stroke-width: 0.8"/>
      </g>
     </g>
     <g id="text_13">
      <!-- 0.3 -->
      <g transform="translate(19.106875 118.284129) scale(0.1 -0.1)">
       <use xlink:href="#DejaVuSans-30"/>
       <use xlink:href="#DejaVuSans-2e" x="63.623047"/>
       <use xlink:href="#DejaVuSans-33" x="95.410156"/>
      </g>
     </g>
    </g>
    <g id="ytick_7">
     <g id="line2d_13">
      <g>
       <use xlink:href="#m71204acb25" x="42.01" y="77.422065" style="stroke: #000000; stroke-width: 0.8"/>
      </g>
     </g>
     <g id="text_14">
      <!-- 0.4 -->
      <g transform="translate(19.106875 81.221284) scale(0.1 -0.1)">
       <use xlink:href="#DejaVuSans-30"/>
       <use xlink:href="#DejaVuSans-2e" x="63.623047"/>
       <use xlink:href="#DejaVuSans-34" x="95.410156"/>
      </g>
     </g>
    </g>
    <g id="ytick_8">
     <g id="line2d_14">
      <g>
       <use xlink:href="#m71204acb25" x="42.01" y="40.35922" style="stroke: #000000; stroke-width: 0.8"/>
      </g>
     </g>
     <g id="text_15">
      <!-- 0.5 -->
      <g transform="translate(19.106875 44.158439) scale(0.1 -0.1)">
       <use xlink:href="#DejaVuSans-30"/>
       <use xlink:href="#DejaVuSans-2e" x="63.623047"/>
       <use xlink:href="#DejaVuSans-35" x="95.410156"/>
      </g>
     </g>
    </g>
   </g>
   <g id="line2d_15">
    <path d="M 60.555 39.46 
L 61.649531 53.957993 
L 62.525155 62.841863 
L 63.254843 68.213522 
L 63.838592 71.140865 
L 64.349373 72.713737 
L 64.787186 73.476288 
L 65.224998 73.867257 
L 65.735779 74.001719 
L 66.83031 74.172639 
L 67.268122 74.566144 
L 67.778903 75.337922 
L 68.362653 76.639743 
L 69.165309 79.029222 
L 70.040934 82.34512 
L 70.916558 86.539631 
L 72.084058 93.302733 
L 73.981244 104.302338 
L 75.075775 109.365967 
L 76.899993 117.500337 
L 77.921555 123.09481 
L 79.162023 131.250243 
L 81.861866 149.97927 
L 83.029366 156.21659 
L 84.342802 161.96669 
L 85.510302 166.311165 
L 89.59655 179.900568 
L 90.837018 185.031301 
L 96.528579 210.169566 
L 98.571703 216.878868 
L 99.447327 219.099885 
L 100.322952 220.701799 
L 101.198577 221.819669 
L 102.366076 223.292497 
L 104.4092 226.51361 
L 106.598262 230.938714 
L 107.765761 233.995331 
L 109.808886 240.039928 
L 111.122322 244.046721 
L 111.706072 245.166577 
L 112.289822 245.826154 
L 112.654666 245.974461 
L 113.019509 245.896055 
L 113.53029 245.512018 
L 114.332946 244.641338 
L 115.719352 242.898809 
L 116.303102 242.529805 
L 116.886851 242.432063 
L 117.397632 242.593092 
L 117.981382 243.086115 
L 118.711069 244.041272 
L 119.367788 245.2609 
L 120.024506 246.939147 
L 120.754193 249.386906 
L 121.775755 253.716277 
L 123.23513 259.973243 
L 124.183723 263.120079 
L 124.986379 265.017267 
L 125.716066 266.261819 
L 126.372785 266.958218 
L 126.883566 267.184174 
L 129.218565 267.711714 
L 130.459033 268.323115 
L 131.042783 268.871421 
L 131.991376 270.225066 
L 133.815594 272.834301 
L 134.326375 273.074489 
L 134.764187 273.020003 
L 135.202 272.704165 
L 135.712781 272.008044 
L 136.369499 270.669811 
L 137.026218 268.773771 
L 137.974811 265.144611 
L 140.090904 256.759689 
L 140.89356 254.642853 
L 141.550278 253.510392 
L 142.206997 252.796888 
L 142.644809 252.581642 
L 143.082621 252.621532 
L 143.666371 252.958566 
L 144.32309 253.558183 
L 145.855433 255.444606 
L 147.387776 257.177828 
L 148.190432 257.768051 
L 149.649806 258.558418 
L 151.109181 259.088912 
L 152.27668 259.600418 
L 152.933399 260.264008 
L 155.414335 263.128202 
L 155.998085 263.37385 
L 156.654803 263.375316 
L 158.406053 262.948412 
L 158.989802 262.563547 
L 159.573552 261.876172 
L 160.449177 260.443115 
L 161.470739 258.197686 
L 163.586832 253.48547 
L 164.389488 252.210256 
L 165.265112 251.232265 
L 166.578549 250.178041 
L 168.037923 249.182575 
L 168.475736 249.142635 
L 168.986517 249.34508 
L 169.643235 249.887469 
L 170.51886 250.886733 
L 172.343078 253.3509 
L 173.802452 255.044048 
L 174.386202 255.47152 
L 174.896983 255.5585 
L 175.407764 255.437933 
L 176.064483 255.005382 
L 176.867139 254.227248 
L 177.669794 253.153991 
L 178.47245 251.687338 
L 179.275106 249.771224 
L 180.077762 247.219484 
L 181.829011 241.636142 
L 183.799167 235.538137 
L 185.404479 230.345349 
L 186.061197 229.055265 
L 186.644947 228.353159 
L 187.301665 227.886986 
L 190.877133 226.411502 
L 191.825726 226.205496 
L 192.847288 225.700178 
L 194.014788 225.233003 
L 194.598537 225.292956 
L 195.693068 225.445165 
L 196.495724 225.572344 
L 198.538848 226.26901 
L 200.290097 226.898725 
L 202.187284 227.522474 
L 203.208846 227.493466 
L 204.741189 227.25284 
L 205.397908 226.907418 
L 206.127595 226.621894 
L 206.857282 226.60542 
L 208.243688 226.663667 
L 209.849 226.702216 
L 210.432749 226.450136 
L 211.673218 225.502764 
L 213.716342 224.114018 
L 214.154154 224.081671 
L 214.518998 224.24368 
L 214.95681 224.699266 
L 215.467591 225.568563 
L 216.124309 227.136118 
L 217.364778 230.810448 
L 220.575401 240.543899 
L 221.669932 243.025631 
L 222.618525 244.495509 
L 223.49415 245.566693 
L 224.0779 245.979694 
L 224.515712 246.052792 
L 225.026493 245.893238 
L 225.610243 245.455663 
L 226.193993 244.735296 
L 226.92368 243.485965 
L 228.310086 240.524025 
L 229.258679 238.781186 
L 230.426178 237.207484 
L 231.082897 236.563002 
L 231.520709 236.397904 
L 232.03149 236.47437 
L 232.469303 236.754606 
L 232.980084 237.379134 
L 233.709771 238.717232 
L 234.585395 240.850001 
L 236.117739 245.383972 
L 237.139301 248.162166 
L 238.014925 249.915233 
L 238.598675 250.693321 
L 239.255393 251.222966 
L 239.985081 251.545076 
L 241.371486 252.042992 
L 242.028205 252.493274 
L 242.611955 253.14052 
L 243.195704 254.089284 
L 244.071329 256.009286 
L 245.16586 259.023345 
L 247.354921 265.186703 
L 248.522421 267.770066 
L 249.106171 268.535677 
L 249.543983 268.785386 
L 249.981795 268.813798 
L 250.492576 268.630579 
L 251.076326 268.172961 
L 253.7032 265.615754 
L 254.213981 265.563654 
L 254.724762 265.760669 
L 255.162574 266.191114 
L 255.600387 266.944862 
L 256.184136 268.425663 
L 257.059761 271.384179 
L 258.519135 276.264084 
L 259.686635 279.473647 
L 260.489291 281.053518 
L 261.000072 281.671823 
L 261.437884 281.89233 
L 261.802728 281.849592 
L 262.167571 281.595261 
L 262.678352 280.900748 
L 263.553977 279.239167 
L 264.356633 277.294398 
L 266.910538 270.567744 
L 267.713194 269.14065 
L 268.296944 268.485434 
L 268.807725 268.202248 
L 269.537412 268.062916 
L 270.048193 268.214371 
L 270.850849 268.749198 
L 272.893973 270.404122 
L 273.477723 270.459501 
L 274.061473 270.288257 
L 274.718191 269.894876 
L 275.228972 269.306589 
L 275.812722 268.23664 
L 276.688346 266.085376 
L 278.22069 261.619546 
L 279.169283 257.978725 
L 280.774595 251.680165 
L 282.379907 246.531884 
L 284.495999 240.56744 
L 285.298655 239.083213 
L 285.955374 238.33488 
L 286.466155 238.04659 
L 286.830998 238.067468 
L 287.195842 238.288273 
L 287.560686 238.76459 
L 288.071467 239.80726 
L 288.655216 241.505074 
L 289.530841 244.936315 
L 291.428028 252.683067 
L 292.230684 254.866353 
L 292.814433 255.965065 
L 293.252246 256.349925 
L 293.544121 256.362453 
L 293.908964 256.123172 
L 294.346777 255.505533 
L 294.857558 254.345757 
L 295.441307 252.478544 
L 297.703338 244.485206 
L 298.287087 243.397072 
L 298.870837 242.785629 
L 299.381618 242.558071 
L 299.965368 242.545663 
L 300.549118 242.730858 
L 301.205836 243.15318 
L 303.175992 244.608555 
L 304.051616 244.969231 
L 305.292084 245.305238 
L 306.67849 245.342236 
L 307.26224 245.129001 
L 309.52427 244.005028 
L 311.348488 243.623318 
L 312.515988 242.822195 
L 313.829425 241.564021 
L 314.486143 240.615111 
L 317.550829 235.6433 
L 318.280516 234.876099 
L 319.010204 234.4337 
L 319.885828 234.217811 
L 320.688484 234.254535 
L 324.263951 234.772792 
L 325.212545 234.851368 
L 326.088169 234.901005 
L 326.671919 234.714976 
L 327.109731 234.367976 
L 327.693481 233.557216 
L 328.423168 232.08142 
L 330.539261 226.803452 
L 331.852698 223.674025 
L 332.582385 222.457579 
L 333.093166 221.984226 
L 333.530979 221.879498 
L 334.04176 222.025436 
L 336.376759 223.19624 
L 337.033477 223.074266 
L 337.617227 222.706037 
L 338.784727 221.648145 
L 340.608945 219.764891 
L 341.192694 219.509117 
L 341.776444 219.544118 
L 342.214256 219.772518 
L 342.725037 220.304168 
L 343.235818 221.189731 
L 343.819568 222.759657 
L 344.622224 225.637846 
L 345.862692 230.966979 
L 348.781441 244.185383 
L 349.803003 247.783171 
L 350.824565 250.529016 
L 352.210971 253.663794 
L 353.232533 255.448786 
L 354.327064 256.941779 
L 355.421595 258.062548 
L 356.078313 258.500052 
L 357.172844 258.805313 
L 357.756594 258.793683 
L 358.267375 258.555953 
L 358.851124 258.019085 
L 359.580812 256.97989 
L 361.040186 254.391822 
L 362.207685 252.51053 
L 363.010341 251.623557 
L 364.177841 250.744241 
L 365.126434 249.985518 
L 367.315496 247.934945 
L 368.118152 247.55323 
L 368.847839 247.477758 
L 369.504557 247.665058 
L 370.088307 248.079546 
L 370.745026 248.901065 
L 371.474713 250.160963 
L 372.2044 251.888136 
L 373.225962 254.905725 
L 374.831274 259.799586 
L 375.487992 261.090738 
L 375.998773 261.661379 
L 376.363617 261.801778 
L 376.728461 261.717342 
L 377.166273 261.381587 
L 377.677054 260.743468 
L 378.47971 259.278713 
L 380.522834 255.210395 
L 381.106584 254.537109 
L 381.617365 254.235357 
L 382.128146 254.209632 
L 382.638927 254.428947 
L 383.368614 255.086045 
L 384.025332 255.956475 
L 384.827988 257.412888 
L 385.703613 259.562382 
L 388.038612 265.691265 
L 388.695331 266.650304 
L 389.27908 267.12157 
L 389.86283 267.305157 
L 390.519548 267.263401 
L 391.176267 266.989709 
L 391.832985 266.518956 
L 392.562673 265.663116 
L 393.438297 264.289736 
L 394.678765 261.800027 
L 396.940796 257.125281 
L 397.889389 255.714976 
L 399.932513 253.07025 
L 400.589232 251.544131 
L 401.391888 249.011347 
L 402.194544 245.777025 
L 404.967355 233.552048 
L 405.84298 231.113591 
L 406.499698 229.804383 
L 407.010479 229.217779 
L 407.52126 228.984671 
L 408.10501 228.998909 
L 408.615791 229.262561 
L 409.78329 230.247028 
L 410.512978 231.063659 
L 411.388602 232.460466 
L 412.920945 235.461222 
L 415.839694 240.855582 
L 416.496413 241.735536 
L 417.007194 242.065124 
L 417.372037 242.041534 
L 417.809849 241.761351 
L 418.320631 241.16106 
L 419.196255 239.644477 
L 420.728598 236.857568 
L 421.312348 236.178974 
L 421.823129 235.890469 
L 422.260941 235.867751 
L 422.771722 236.097959 
L 423.209535 236.548773 
L 423.939222 237.735668 
L 426.128283 241.594046 
L 426.712033 242.09062 
L 427.514689 242.428317 
L 428.244376 242.454623 
L 429.120001 242.536979 
L 430.360469 243.01168 
L 430.87125 243.38082 
L 431.455 244.076209 
L 431.455 244.076209 
" clip-path="url(#pb8d2551149)" style="fill: none; stroke: #1f77b4; stroke-width: 1.5; stroke-linecap: square"/>
   </g>
   <g id="line2d_16">
    <path d="M 60.555 119.641895 
L 62.160312 129.153642 
L 63.619686 136.200001 
L 65.443904 144.139545 
L 66.24656 146.593965 
L 66.903279 147.91123 
L 67.559997 148.777608 
L 68.362653 149.43322 
L 69.384215 149.995275 
L 70.697652 150.592943 
L 71.719214 150.945116 
L 72.229995 151.384262 
L 72.886714 152.2498 
L 73.470463 153.448202 
L 74.127182 155.329509 
L 75.075775 158.883094 
L 78.505305 172.544339 
L 79.234992 174.313263 
L 80.767335 177.248329 
L 81.861866 179.056301 
L 82.445616 179.612459 
L 83.32124 180.08739 
L 84.196865 180.532698 
L 84.707646 181.059772 
L 85.291396 181.987523 
L 85.948114 183.543377 
L 86.823739 186.327059 
L 88.137176 191.225075 
L 91.566706 204.857567 
L 92.661236 208.109826 
L 93.536861 209.997298 
L 94.339517 211.191493 
L 95.069204 211.886786 
L 96.528579 212.885673 
L 97.185297 213.109535 
L 97.914984 213.108223 
L 100.687796 212.823069 
L 102.439045 212.865912 
L 103.241701 212.918206 
L 104.190294 213.268395 
L 104.774044 213.790475 
L 105.795606 215.063941 
L 106.817168 216.699396 
L 107.619824 218.414056 
L 108.933261 221.848186 
L 110.173729 224.931311 
L 111.122322 226.645253 
L 112.070916 227.993523 
L 112.800603 228.65359 
L 113.676228 229.13189 
L 114.405915 229.272794 
L 115.500446 229.476081 
L 116.157164 229.826615 
L 116.886851 230.515582 
L 117.54357 231.460778 
L 118.273257 232.944626 
L 119.659663 236.448057 
L 120.900131 240.117461 
L 122.286536 244.355563 
L 122.943255 245.627789 
L 123.527005 246.318284 
L 123.964817 246.53371 
L 124.329661 246.473002 
L 124.767473 246.146122 
L 125.278254 245.512149 
L 125.862004 244.424881 
L 126.518722 242.714193 
L 127.248409 240.188991 
L 128.561846 234.571269 
L 130.532002 226.323657 
L 131.553564 222.775409 
L 132.35622 220.703864 
L 132.93997 219.769358 
L 133.523719 219.220769 
L 133.961532 219.043843 
L 134.399344 219.093613 
L 134.837156 219.419842 
L 135.347937 220.142999 
L 136.223562 221.848565 
L 137.026218 223.908637 
L 138.996373 229.326135 
L 139.871998 230.879872 
L 142.206997 234.123606 
L 142.863715 234.483056 
L 143.885277 234.751399 
L 145.563558 235.108193 
L 146.512151 235.743962 
L 147.971526 236.90526 
L 148.84715 237.990517 
L 149.503869 239.094481 
L 150.379493 241.060409 
L 151.401055 243.94684 
L 152.86043 248.824984 
L 154.611679 254.364562 
L 156.435897 258.755591 
L 157.38449 260.710858 
L 157.96824 261.446876 
L 158.479021 261.723626 
L 158.916834 261.708054 
L 159.354646 261.470012 
L 159.938396 260.888485 
L 160.522145 259.950362 
L 161.251833 258.238143 
L 162.054488 255.744839 
L 163.586832 250.788744 
L 164.170581 249.57677 
L 164.681362 248.994712 
L 165.119175 248.818521 
L 165.484018 248.911422 
L 165.921831 249.286543 
L 166.432612 250.022606 
L 167.016361 251.265564 
L 167.67308 253.247668 
L 168.475736 256.503231 
L 170.664797 265.953999 
L 171.321516 267.754048 
L 171.832297 268.577499 
L 172.19714 268.798658 
L 172.561984 268.770196 
L 172.926828 268.522932 
L 173.291671 267.978971 
L 173.729484 266.897512 
L 174.313233 264.844645 
L 175.407764 259.988326 
L 176.940107 253.306296 
L 177.961669 249.834526 
L 178.545419 248.612794 
L 178.983231 248.154732 
L 179.494012 247.995931 
L 180.004793 248.086524 
L 180.588543 248.482345 
L 182.193855 249.616285 
L 182.850573 249.843234 
L 183.653229 249.806284 
L 184.382917 249.589452 
L 185.258541 249.078682 
L 186.353072 248.131149 
L 188.104321 246.688581 
L 188.834008 246.464034 
L 189.563696 246.526737 
L 190.804164 246.803961 
L 192.19057 247.333108 
L 193.212132 247.5916 
L 194.4526 248.324955 
L 195.474162 248.983717 
L 195.984943 249.081358 
L 196.71463 248.94738 
L 197.371349 248.556927 
L 198.174005 247.806481 
L 199.049629 246.600842 
L 200.071191 244.754531 
L 200.946816 242.774569 
L 202.041347 239.734535 
L 204.376346 233.169562 
L 205.179002 231.491581 
L 206.127595 230.028593 
L 206.638376 229.606226 
L 207.076188 229.471664 
L 207.586969 229.54888 
L 208.535563 229.96871 
L 209.192281 230.522181 
L 210.724624 232.189298 
L 212.256967 234.256628 
L 214.518998 237.469342 
L 215.394622 238.196117 
L 216.270247 238.705382 
L 216.708059 238.775986 
L 217.145872 238.623159 
L 217.656653 238.201165 
L 218.094465 237.587578 
L 218.605246 236.465944 
L 219.553839 233.677005 
L 220.867276 229.847514 
L 221.742901 227.877145 
L 223.640088 223.892564 
L 224.588681 221.978364 
L 225.391337 220.853896 
L 225.902118 220.445856 
L 226.33993 220.327617 
L 226.996649 220.429203 
L 228.018211 220.844799 
L 229.915397 221.93752 
L 230.499147 222.676498 
L 232.323365 225.241154 
L 232.980084 225.723818 
L 233.636802 225.930039 
L 234.220552 225.93474 
L 234.87727 225.702626 
L 235.46102 225.271712 
L 236.117739 224.486922 
L 238.3068 221.396775 
L 238.89055 220.947806 
L 239.401331 220.843149 
L 239.912112 220.959119 
L 240.641799 221.329988 
L 241.298518 221.911628 
L 243.41461 224.000737 
L 243.852423 224.034581 
L 244.217266 223.839992 
L 244.655079 223.317534 
L 245.311797 222.0873 
L 246.041484 220.284957 
L 246.990078 217.279774 
L 249.616952 208.118423 
L 250.200701 207.178652 
L 250.711482 206.733434 
L 251.44117 206.421044 
L 252.097888 206.393778 
L 253.192419 206.60436 
L 253.995075 206.667141 
L 254.797731 206.498568 
L 255.892261 206.06835 
L 256.913824 205.75576 
L 257.497573 205.797716 
L 257.935386 206.044522 
L 258.446167 206.618722 
L 259.102885 207.773667 
L 259.905541 209.713085 
L 261.073041 213.124278 
L 262.605384 217.438363 
L 263.699914 219.879456 
L 264.429602 220.993345 
L 265.013351 221.541209 
L 265.597101 221.781143 
L 266.25382 221.838197 
L 268.51585 221.646732 
L 269.172568 221.911501 
L 269.902256 222.413846 
L 270.704911 223.297369 
L 271.36163 224.390973 
L 274.937097 230.860956 
L 275.447878 231.206938 
L 275.812722 231.237671 
L 276.177565 231.075873 
L 276.615378 230.642796 
L 277.199127 229.732608 
L 278.512564 227.088464 
L 279.31522 225.69575 
L 279.89897 225.100127 
L 280.336782 224.924901 
L 280.774595 224.975128 
L 281.285376 225.274364 
L 282.671781 226.478006 
L 283.693343 227.57717 
L 284.641937 228.539612 
L 285.663499 229.280944 
L 286.685061 229.757455 
L 287.414748 229.797914 
L 288.655216 229.773948 
L 289.311935 230.014544 
L 290.114591 230.587469 
L 291.646934 232.017897 
L 293.179277 233.546669 
L 293.690058 233.753508 
L 294.200839 233.722616 
L 294.784589 233.452221 
L 295.514276 232.839033 
L 296.243963 231.918618 
L 296.97365 230.599847 
L 297.630369 228.959171 
L 298.505994 226.211295 
L 300.40318 219.890997 
L 301.059899 218.608271 
L 301.57068 217.998505 
L 302.081461 217.719368 
L 302.592242 217.714698 
L 303.103023 217.918288 
L 303.83271 218.51597 
L 304.781303 219.536065 
L 306.970365 222.368216 
L 307.700052 222.804725 
L 309.743176 223.86877 
L 311.421457 225.084365 
L 312.661925 226.063969 
L 314.194268 226.991013 
L 314.996924 227.357981 
L 315.653643 227.447467 
L 317.477861 227.603796 
L 318.134579 227.791533 
L 318.718329 228.195655 
L 319.375047 228.998952 
L 320.104734 230.246161 
L 321.053328 232.37024 
L 321.928952 234.811582 
L 322.877546 238.19642 
L 325.358482 247.233899 
L 326.015201 248.71731 
L 326.817857 249.887077 
L 327.547544 250.579029 
L 328.131294 250.815468 
L 329.006918 250.851812 
L 330.539261 251.012781 
L 331.268948 251.3605 
L 331.779729 251.827358 
L 332.363479 252.695334 
L 333.020198 254.064102 
L 333.895822 256.489967 
L 335.647072 261.368389 
L 336.522696 263.169771 
L 337.106446 263.968728 
L 337.617227 264.360701 
L 338.711758 264.7997 
L 339.514414 265.04242 
L 340.098163 264.969576 
L 343.308787 264.011998 
L 344.25738 264.312139 
L 347.468004 265.848727 
L 347.978785 266.3804 
L 348.562535 267.370253 
L 349.511128 269.512758 
L 350.970503 272.901611 
L 351.70019 274.011747 
L 352.429877 274.713366 
L 353.013627 274.961479 
L 353.524408 274.966898 
L 354.035189 274.733223 
L 354.910813 274.05693 
L 356.151282 272.759492 
L 356.953938 271.640329 
L 358.121437 269.513143 
L 358.924093 268.220833 
L 359.507843 267.716387 
L 359.945655 267.597274 
L 360.456436 267.717245 
L 361.332061 268.26581 
L 362.426592 269.233863 
L 363.448154 270.637005 
L 364.25081 272.075512 
L 365.272372 274.578555 
L 366.731746 278.710578 
L 367.972214 282.993646 
L 369.723464 288.983412 
L 370.380182 290.338909 
L 370.890963 290.90873 
L 371.255807 291.058527 
L 371.62065 290.955942 
L 371.985494 290.581577 
L 372.423306 289.798559 
L 372.934087 288.288477 
L 373.736743 285.020425 
L 374.904243 279.081085 
L 376.21768 272.617504 
L 377.093304 269.378525 
L 377.822991 267.422703 
L 378.47971 266.201462 
L 379.06346 265.538068 
L 379.574241 265.298354 
L 380.085022 265.326242 
L 380.595803 265.585015 
L 381.32549 266.236175 
L 383.514551 268.602101 
L 383.879395 268.614542 
L 384.244239 268.390415 
L 384.682051 267.79066 
L 385.192832 266.663825 
L 385.776582 264.776561 
L 386.725175 260.841575 
L 387.965643 255.937122 
L 388.841268 253.296076 
L 389.497986 251.965798 
L 390.081736 251.304549 
L 390.519548 251.080267 
L 390.957361 251.082996 
L 391.395173 251.305007 
L 391.978923 251.843695 
L 392.635641 252.80956 
L 394.240953 255.366327 
L 395.481421 257.271165 
L 396.357046 259.052296 
L 397.013765 260.964754 
L 397.889389 264.312476 
L 401.24595 278.009358 
L 401.902669 279.751929 
L 402.41345 280.602023 
L 402.851262 280.984201 
L 403.289074 281.089838 
L 403.799855 280.944719 
L 404.310636 280.540076 
L 404.894386 279.784673 
L 405.697042 278.367421 
L 407.886104 274.189772 
L 408.615791 273.392466 
L 409.199541 273.0547 
L 409.78329 272.993395 
L 411.680477 272.954613 
L 412.556102 272.641204 
L 413.650633 272.067717 
L 414.307351 271.432508 
L 414.818132 270.630675 
L 415.401882 269.299656 
L 416.131569 266.952377 
L 417.007194 263.268953 
L 418.685474 255.079613 
L 419.925942 249.383433 
L 420.509692 247.527048 
L 421.020473 246.587963 
L 421.385317 246.326455 
L 421.677192 246.368171 
L 422.042035 246.680992 
L 422.479848 247.372238 
L 423.136566 248.894961 
L 424.814847 253.119769 
L 425.398596 253.929986 
L 425.836409 254.204044 
L 426.274221 254.22533 
L 426.712033 254.000403 
L 427.295783 253.394758 
L 427.879533 252.450887 
L 428.755157 250.528185 
L 429.849688 247.63432 
L 431.163125 244.359054 
L 431.455 243.773611 
L 431.455 243.773611 
" clip-path="url(#pb8d2551149)" style="fill: none; stroke: #ff7f0e; stroke-width: 1.5; stroke-linecap: square"/>
   </g>
   <g id="patch_3">
    <path d="M 42.01 303.64 
L 42.01 26.88 
" style="fill: none; stroke: #000000; stroke-width: 0.8; stroke-linejoin: miter; stroke-linecap: square"/>
   </g>
   <g id="patch_4">
    <path d="M 450 303.64 
L 450 26.88 
" style="fill: none; stroke: #000000; stroke-width: 0.8; stroke-linejoin: miter; stroke-linecap: square"/>
   </g>
   <g id="patch_5">
    <path d="M 42.01 303.64 
L 450 303.64 
" style="fill: none; stroke: #000000; stroke-width: 0.8; stroke-linejoin: miter; stroke-linecap: square"/>
   </g>
   <g id="patch_6">
    <path d="M 42.01 26.88 
L 450 26.88 
" style="fill: none; stroke: #000000; stroke-width: 0.8; stroke-linejoin: miter; stroke-linecap: square"/>
   </g>
   <g id="text_16">
    <!-- Mean 5 seconds post reward Trials -->
    <g transform="translate(142.661563 20.88) scale(0.12 -0.12)">
     <defs>
      <path id="DejaVuSans-4d" d="M 628 4666 
L 1569 4666 
L 2759 1491 
L 3956 4666 
L 4897 4666 
L 4897 0 
L 4281 0 
L 4281 4097 
L 3078 897 
L 2444 897 
L 1241 4097 
L 1241 0 
L 628 0 
L 628 4666 
z
" transform="scale(0.015625)"/>
      <path id="DejaVuSans-6e" d="M 3513 2113 
L 3513 0 
L 2938 0 
L 2938 2094 
Q 2938 2591 2744 2837 
Q 2550 3084 2163 3084 
Q 1697 3084 1428 2787 
Q 1159 2491 1159 1978 
L 1159 0 
L 581 0 
L 581 3500 
L 1159 3500 
L 1159 2956 
Q 1366 3272 1645 3428 
Q 1925 3584 2291 3584 
Q 2894 3584 3203 3211 
Q 3513 2838 3513 2113 
z
" transform="scale(0.015625)"/>
      <path id="DejaVuSans-63" d="M 3122 3366 
L 3122 2828 
Q 2878 2963 2633 3030 
Q 2388 3097 2138 3097 
Q 1578 3097 1268 2742 
Q 959 2388 959 1747 
Q 959 1106 1268 751 
Q 1578 397 2138 397 
Q 2388 397 2633 464 
Q 2878 531 3122 666 
L 3122 134 
Q 2881 22 2623 -34 
Q 2366 -91 2075 -91 
Q 1284 -91 818 406 
Q 353 903 353 1747 
Q 353 2603 823 3093 
Q 1294 3584 2113 3584 
Q 2378 3584 2631 3529 
Q 2884 3475 3122 3366 
z
" transform="scale(0.015625)"/>
      <path id="DejaVuSans-6f" d="M 1959 3097 
Q 1497 3097 1228 2736 
Q 959 2375 959 1747 
Q 959 1119 1226 758 
Q 1494 397 1959 397 
Q 2419 397 2687 759 
Q 2956 1122 2956 1747 
Q 2956 2369 2687 2733 
Q 2419 3097 1959 3097 
z
M 1959 3584 
Q 2709 3584 3137 3096 
Q 3566 2609 3566 1747 
Q 3566 888 3137 398 
Q 2709 -91 1959 -91 
Q 1206 -91 779 398 
Q 353 888 353 1747 
Q 353 2609 779 3096 
Q 1206 3584 1959 3584 
z
" transform="scale(0.015625)"/>
      <path id="DejaVuSans-70" d="M 1159 525 
L 1159 -1331 
L 581 -1331 
L 581 3500 
L 1159 3500 
L 1159 2969 
Q 1341 3281 1617 3432 
Q 1894 3584 2278 3584 
Q 2916 3584 3314 3078 
Q 3713 2572 3713 1747 
Q 3713 922 3314 415 
Q 2916 -91 2278 -91 
Q 1894 -91 1617 61 
Q 1341 213 1159 525 
z
M 3116 1747 
Q 3116 2381 2855 2742 
Q 2594 3103 2138 3103 
Q 1681 3103 1420 2742 
Q 1159 2381 1159 1747 
Q 1159 1113 1420 752 
Q 1681 391 2138 391 
Q 2594 391 2855 752 
Q 3116 1113 3116 1747 
z
" transform="scale(0.015625)"/>
      <path id="DejaVuSans-6c" d="M 603 4863 
L 1178 4863 
L 1178 0 
L 603 0 
L 603 4863 
z
" transform="scale(0.015625)"/>
     </defs>
     <use xlink:href="#DejaVuSans-4d"/>
     <use xlink:href="#DejaVuSans-65" x="86.279297"/>
     <use xlink:href="#DejaVuSans-61" x="147.802734"/>
     <use xlink:href="#DejaVuSans-6e" x="209.082031"/>
     <use xlink:href="#DejaVuSans-20" x="272.460938"/>
     <use xlink:href="#DejaVuSans-35" x="304.248047"/>
     <use xlink:href="#DejaVuSans-20" x="367.871094"/>
     <use xlink:href="#DejaVuSans-73" x="399.658203"/>
     <use xlink:href="#DejaVuSans-65" x="451.757812"/>
     <use xlink:href="#DejaVuSans-63" x="513.28125"/>
     <use xlink:href="#DejaVuSans-6f" x="568.261719"/>
     <use xlink:href="#DejaVuSans-6e" x="629.443359"/>
     <use xlink:href="#DejaVuSans-64" x="692.822266"/>
     <use xlink:href="#DejaVuSans-73" x="756.298828"/>
     <use xlink:href="#DejaVuSans-20" x="808.398438"/>
     <use xlink:href="#DejaVuSans-70" x="840.185547"/>
     <use xlink:href="#DejaVuSans-6f" x="903.662109"/>
     <use xlink:href="#DejaVuSans-73" x="964.84375"/>
     <use xlink:href="#DejaVuSans-74" x="1016.943359"/>
     <use xlink:href="#DejaVuSans-20" x="1056.152344"/>
     <use xlink:href="#DejaVuSans-72" x="1087.939453"/>
     <use xlink:href="#DejaVuSans-65" x="1126.802734"/>
     <use xlink:href="#DejaVuSans-77" x="1188.326172"/>
     <use xlink:href="#DejaVuSans-61" x="1270.113281"/>
     <use xlink:href="#DejaVuSans-72" x="1331.392578"/>
     <use xlink:href="#DejaVuSans-64" x="1370.755859"/>
     <use xlink:href="#DejaVuSans-20" x="1434.232422"/>
     <use xlink:href="#DejaVuSans-54" x="1466.019531"/>
     <use xlink:href="#DejaVuSans-72" x="1512.353516"/>
     <use xlink:href="#DejaVuSans-69" x="1553.466797"/>
     <use xlink:href="#DejaVuSans-61" x="1581.25"/>
     <use xlink:href="#DejaVuSans-6c" x="1642.529297"/>
     <use xlink:href="#DejaVuSans-73" x="1670.3125"/>
    </g>
   </g>
   <g id="legend_1">
    <g id="patch_7">
     <path d="M 396.009375 64.23625 
L 443 64.23625 
Q 445 64.23625 445 62.23625 
L 445 33.88 
Q 445 31.88 443 31.88 
L 396.009375 31.88 
Q 394.009375 31.88 394.009375 33.88 
L 394.009375 62.23625 
Q 394.009375 64.23625 396.009375 64.23625 
z
" style="fill: #ffffff; opacity: 0.8; stroke: #cccccc; stroke-linejoin: miter"/>
    </g>
    <g id="line2d_17">
     <path d="M 398.009375 39.978437 
L 408.009375 39.978437 
L 418.009375 39.978437 
" style="fill: none; stroke: #1f77b4; stroke-width: 1.5; stroke-linecap: square"/>
    </g>
    <g id="text_17">
     <!-- M5 -->
     <g transform="translate(426.009375 43.478437) scale(0.1 -0.1)">
      <use xlink:href="#DejaVuSans-4d"/>
      <use xlink:href="#DejaVuSans-35" x="86.279297"/>
     </g>
    </g>
    <g id="line2d_18">
     <path d="M 398.009375 54.656563 
L 408.009375 54.656563 
L 418.009375 54.656563 
" style="fill: none; stroke: #ff7f0e; stroke-width: 1.5; stroke-linecap: square"/>
    </g>
    <g id="text_18">
     <!-- M6 -->
     <g transform="translate(426.009375 58.156563) scale(0.1 -0.1)">
      <defs>
       <path id="DejaVuSans-36" d="M 2113 2584 
Q 1688 2584 1439 2293 
Q 1191 2003 1191 1497 
Q 1191 994 1439 701 
Q 1688 409 2113 409 
Q 2538 409 2786 701 
Q 3034 994 3034 1497 
Q 3034 2003 2786 2293 
Q 2538 2584 2113 2584 
z
M 3366 4563 
L 3366 3988 
Q 3128 4100 2886 4159 
Q 2644 4219 2406 4219 
Q 1781 4219 1451 3797 
Q 1122 3375 1075 2522 
Q 1259 2794 1537 2939 
Q 1816 3084 2150 3084 
Q 2853 3084 3261 2657 
Q 3669 2231 3669 1497 
Q 3669 778 3244 343 
Q 2819 -91 2113 -91 
Q 1303 -91 875 529 
Q 447 1150 447 2328 
Q 447 3434 972 4092 
Q 1497 4750 2381 4750 
Q 2619 4750 2861 4703 
Q 3103 4656 3366 4563 
z
" transform="scale(0.015625)"/>
      </defs>
      <use xlink:href="#DejaVuSans-4d"/>
      <use xlink:href="#DejaVuSans-36" x="86.279297"/>
     </g>
    </g>
   </g>
  </g>
 </g>
 <defs>
  <clipPath id="pb8d2551149">
   <rect x="42.01" y="26.88" width="407.99" height="276.76"/>
  </clipPath>
 </defs>
</svg>
