<?xml version="1.0" encoding="utf-8" standalone="no"?>
<!DOCTYPE svg PUBLIC "-//W3C//DTD SVG 1.1//EN"
  "http://www.w3.org/Graphics/SVG/1.1/DTD/svg11.dtd">
<svg xmlns:xlink="http://www.w3.org/1999/xlink" width="460.8pt" height="345.6pt" viewBox="0 0 460.8 345.6" xmlns="http://www.w3.org/2000/svg" version="1.1">
 <metadata>
  <rdf:RDF xmlns:dc="http://purl.org/dc/elements/1.1/" xmlns:cc="http://creativecommons.org/ns#" xmlns:rdf="http://www.w3.org/1999/02/22-rdf-syntax-ns#">
   <cc:Work>
    <dc:type rdf:resource="http://purl.org/dc/dcmitype/StillImage"/>
    <dc:date>2023-09-27T16:36:56.878218</dc:date>
    <dc:format>image/svg+xml</dc:format>
    <dc:creator>
     <cc:Agent>
      <dc:title>Matplotlib v3.7.2, https://matplotlib.org/</dc:title>
     </cc:Agent>
    </dc:creator>
   </cc:Work>
  </rdf:RDF>
 </metadata>
 <defs>
  <style type="text/css">*{stroke-linejoin: round; stroke-linecap: butt}</style>
 </defs>
 <g id="figure_1">
  <g id="patch_1">
   <path d="M 0 345.6 
L 460.8 345.6 
L 460.8 0 
L 0 0 
z
" style="fill: #ffffff"/>
  </g>
  <g id="axes_1">
   <g id="patch_2">
    <path d="M 41.92 303.64 
L 450 303.64 
L 450 26.88 
L 41.92 26.88 
z
" style="fill: #ffffff"/>
   </g>
   <g id="matplotlib.axis_1">
    <g id="xtick_1">
     <g id="line2d_1">
      <defs>
       <path id="m548a60c277" d="M 0 0 
L 0 3.5 
" style="stroke: #000000; stroke-width: 0.8"/>
      </defs>
      <g>
       <use xlink:href="#m548a60c277" x="60.469091" y="303.64" style="stroke: #000000; stroke-width: 0.8"/>
      </g>
     </g>
     <g id="text_1">
      <!-- 0 -->
      <g transform="translate(57.287841 318.238437) scale(0.1 -0.1)">
       <defs>
        <path id="DejaVuSans-30" d="M 2034 4250 
Q 1547 4250 1301 3770 
Q 1056 3291 1056 2328 
Q 1056 1369 1301 889 
Q 1547 409 2034 409 
Q 2525 409 2770 889 
Q 3016 1369 3016 2328 
Q 3016 3291 2770 3770 
Q 2525 4250 2034 4250 
z
M 2034 4750 
Q 2819 4750 3233 4129 
Q 3647 3509 3647 2328 
Q 3647 1150 3233 529 
Q 2819 -91 2034 -91 
Q 1250 -91 836 529 
Q 422 1150 422 2328 
Q 422 3509 836 4129 
Q 1250 4750 2034 4750 
z
" transform="scale(0.015625)"/>
       </defs>
       <use xlink:href="#DejaVuSans-30"/>
      </g>
     </g>
    </g>
    <g id="xtick_2">
     <g id="line2d_2">
      <g>
       <use xlink:href="#m548a60c277" x="134.713086" y="303.64" style="stroke: #000000; stroke-width: 0.8"/>
      </g>
     </g>
     <g id="text_2">
      <!-- 1 -->
      <g transform="translate(131.531836 318.238437) scale(0.1 -0.1)">
       <defs>
        <path id="DejaVuSans-31" d="M 794 531 
L 1825 531 
L 1825 4091 
L 703 3866 
L 703 4441 
L 1819 4666 
L 2450 4666 
L 2450 531 
L 3481 531 
L 3481 0 
L 794 0 
L 794 531 
z
" transform="scale(0.015625)"/>
       </defs>
       <use xlink:href="#DejaVuSans-31"/>
      </g>
     </g>
    </g>
    <g id="xtick_3">
     <g id="line2d_3">
      <g>
       <use xlink:href="#m548a60c277" x="208.957082" y="303.64" style="stroke: #000000; stroke-width: 0.8"/>
      </g>
     </g>
     <g id="text_3">
      <!-- 2 -->
      <g transform="translate(205.775832 318.238437) scale(0.1 -0.1)">
       <defs>
        <path id="DejaVuSans-32" d="M 1228 531 
L 3431 531 
L 3431 0 
L 469 0 
L 469 531 
Q 828 903 1448 1529 
Q 2069 2156 2228 2338 
Q 2531 2678 2651 2914 
Q 2772 3150 2772 3378 
Q 2772 3750 2511 3984 
Q 2250 4219 1831 4219 
Q 1534 4219 1204 4116 
Q 875 4013 500 3803 
L 500 4441 
Q 881 4594 1212 4672 
Q 1544 4750 1819 4750 
Q 2544 4750 2975 4387 
Q 3406 4025 3406 3419 
Q 3406 3131 3298 2873 
Q 3191 2616 2906 2266 
Q 2828 2175 2409 1742 
Q 1991 1309 1228 531 
z
" transform="scale(0.015625)"/>
       </defs>
       <use xlink:href="#DejaVuSans-32"/>
      </g>
     </g>
    </g>
    <g id="xtick_4">
     <g id="line2d_4">
      <g>
       <use xlink:href="#m548a60c277" x="283.201077" y="303.64" style="stroke: #000000; stroke-width: 0.8"/>
      </g>
     </g>
     <g id="text_4">
      <!-- 3 -->
      <g transform="translate(280.019827 318.238437) scale(0.1 -0.1)">
       <defs>
        <path id="DejaVuSans-33" d="M 2597 2516 
Q 3050 2419 3304 2112 
Q 3559 1806 3559 1356 
Q 3559 666 3084 287 
Q 2609 -91 1734 -91 
Q 1441 -91 1130 -33 
Q 819 25 488 141 
L 488 750 
Q 750 597 1062 519 
Q 1375 441 1716 441 
Q 2309 441 2620 675 
Q 2931 909 2931 1356 
Q 2931 1769 2642 2001 
Q 2353 2234 1838 2234 
L 1294 2234 
L 1294 2753 
L 1863 2753 
Q 2328 2753 2575 2939 
Q 2822 3125 2822 3475 
Q 2822 3834 2567 4026 
Q 2313 4219 1838 4219 
Q 1578 4219 1281 4162 
Q 984 4106 628 3988 
L 628 4550 
Q 988 4650 1302 4700 
Q 1616 4750 1894 4750 
Q 2613 4750 3031 4423 
Q 3450 4097 3450 3541 
Q 3450 3153 3228 2886 
Q 3006 2619 2597 2516 
z
" transform="scale(0.015625)"/>
       </defs>
       <use xlink:href="#DejaVuSans-33"/>
      </g>
     </g>
    </g>
    <g id="xtick_5">
     <g id="line2d_5">
      <g>
       <use xlink:href="#m548a60c277" x="357.445072" y="303.64" style="stroke: #000000; stroke-width: 0.8"/>
      </g>
     </g>
     <g id="text_5">
      <!-- 4 -->
      <g transform="translate(354.263822 318.238437) scale(0.1 -0.1)">
       <defs>
        <path id="DejaVuSans-34" d="M 2419 4116 
L 825 1625 
L 2419 1625 
L 2419 4116 
z
M 2253 4666 
L 3047 4666 
L 3047 1625 
L 3713 1625 
L 3713 1100 
L 3047 1100 
L 3047 0 
L 2419 0 
L 2419 1100 
L 313 1100 
L 313 1709 
L 2253 4666 
z
" transform="scale(0.015625)"/>
       </defs>
       <use xlink:href="#DejaVuSans-34"/>
      </g>
     </g>
    </g>
    <g id="xtick_6">
     <g id="line2d_6">
      <g>
       <use xlink:href="#m548a60c277" x="431.689067" y="303.64" style="stroke: #000000; stroke-width: 0.8"/>
      </g>
     </g>
     <g id="text_6">
      <!-- 5 -->
      <g transform="translate(428.507817 318.238437) scale(0.1 -0.1)">
       <defs>
        <path id="DejaVuSans-35" d="M 691 4666 
L 3169 4666 
L 3169 4134 
L 1269 4134 
L 1269 2991 
Q 1406 3038 1543 3061 
Q 1681 3084 1819 3084 
Q 2600 3084 3056 2656 
Q 3513 2228 3513 1497 
Q 3513 744 3044 326 
Q 2575 -91 1722 -91 
Q 1428 -91 1123 -41 
Q 819 9 494 109 
L 494 744 
Q 775 591 1075 516 
Q 1375 441 1709 441 
Q 2250 441 2565 725 
Q 2881 1009 2881 1497 
Q 2881 1984 2565 2268 
Q 2250 2553 1709 2553 
Q 1456 2553 1204 2497 
Q 953 2441 691 2322 
L 691 4666 
z
" transform="scale(0.015625)"/>
       </defs>
       <use xlink:href="#DejaVuSans-35"/>
      </g>
     </g>
    </g>
    <g id="text_7">
     <!-- Time after reward(s) -->
     <g transform="translate(194.898281 331.916562) scale(0.1 -0.1)">
      <defs>
       <path id="DejaVuSans-54" d="M -19 4666 
L 3928 4666 
L 3928 4134 
L 2272 4134 
L 2272 0 
L 1638 0 
L 1638 4134 
L -19 4134 
L -19 4666 
z
" transform="scale(0.015625)"/>
       <path id="DejaVuSans-69" d="M 603 3500 
L 1178 3500 
L 1178 0 
L 603 0 
L 603 3500 
z
M 603 4863 
L 1178 4863 
L 1178 4134 
L 603 4134 
L 603 4863 
z
" transform="scale(0.015625)"/>
       <path id="DejaVuSans-6d" d="M 3328 2828 
Q 3544 3216 3844 3400 
Q 4144 3584 4550 3584 
Q 5097 3584 5394 3201 
Q 5691 2819 5691 2113 
L 5691 0 
L 5113 0 
L 5113 2094 
Q 5113 2597 4934 2840 
Q 4756 3084 4391 3084 
Q 3944 3084 3684 2787 
Q 3425 2491 3425 1978 
L 3425 0 
L 2847 0 
L 2847 2094 
Q 2847 2600 2669 2842 
Q 2491 3084 2119 3084 
Q 1678 3084 1418 2786 
Q 1159 2488 1159 1978 
L 1159 0 
L 581 0 
L 581 3500 
L 1159 3500 
L 1159 2956 
Q 1356 3278 1631 3431 
Q 1906 3584 2284 3584 
Q 2666 3584 2933 3390 
Q 3200 3197 3328 2828 
z
" transform="scale(0.015625)"/>
       <path id="DejaVuSans-65" d="M 3597 1894 
L 3597 1613 
L 953 1613 
Q 991 1019 1311 708 
Q 1631 397 2203 397 
Q 2534 397 2845 478 
Q 3156 559 3463 722 
L 3463 178 
Q 3153 47 2828 -22 
Q 2503 -91 2169 -91 
Q 1331 -91 842 396 
Q 353 884 353 1716 
Q 353 2575 817 3079 
Q 1281 3584 2069 3584 
Q 2775 3584 3186 3129 
Q 3597 2675 3597 1894 
z
M 3022 2063 
Q 3016 2534 2758 2815 
Q 2500 3097 2075 3097 
Q 1594 3097 1305 2825 
Q 1016 2553 972 2059 
L 3022 2063 
z
" transform="scale(0.015625)"/>
       <path id="DejaVuSans-20" transform="scale(0.015625)"/>
       <path id="DejaVuSans-61" d="M 2194 1759 
Q 1497 1759 1228 1600 
Q 959 1441 959 1056 
Q 959 750 1161 570 
Q 1363 391 1709 391 
Q 2188 391 2477 730 
Q 2766 1069 2766 1631 
L 2766 1759 
L 2194 1759 
z
M 3341 1997 
L 3341 0 
L 2766 0 
L 2766 531 
Q 2569 213 2275 61 
Q 1981 -91 1556 -91 
Q 1019 -91 701 211 
Q 384 513 384 1019 
Q 384 1609 779 1909 
Q 1175 2209 1959 2209 
L 2766 2209 
L 2766 2266 
Q 2766 2663 2505 2880 
Q 2244 3097 1772 3097 
Q 1472 3097 1187 3025 
Q 903 2953 641 2809 
L 641 3341 
Q 956 3463 1253 3523 
Q 1550 3584 1831 3584 
Q 2591 3584 2966 3190 
Q 3341 2797 3341 1997 
z
" transform="scale(0.015625)"/>
       <path id="DejaVuSans-66" d="M 2375 4863 
L 2375 4384 
L 1825 4384 
Q 1516 4384 1395 4259 
Q 1275 4134 1275 3809 
L 1275 3500 
L 2222 3500 
L 2222 3053 
L 1275 3053 
L 1275 0 
L 697 0 
L 697 3053 
L 147 3053 
L 147 3500 
L 697 3500 
L 697 3744 
Q 697 4328 969 4595 
Q 1241 4863 1831 4863 
L 2375 4863 
z
" transform="scale(0.015625)"/>
       <path id="DejaVuSans-74" d="M 1172 4494 
L 1172 3500 
L 2356 3500 
L 2356 3053 
L 1172 3053 
L 1172 1153 
Q 1172 725 1289 603 
Q 1406 481 1766 481 
L 2356 481 
L 2356 0 
L 1766 0 
Q 1100 0 847 248 
Q 594 497 594 1153 
L 594 3053 
L 172 3053 
L 172 3500 
L 594 3500 
L 594 4494 
L 1172 4494 
z
" transform="scale(0.015625)"/>
       <path id="DejaVuSans-72" d="M 2631 2963 
Q 2534 3019 2420 3045 
Q 2306 3072 2169 3072 
Q 1681 3072 1420 2755 
Q 1159 2438 1159 1844 
L 1159 0 
L 581 0 
L 581 3500 
L 1159 3500 
L 1159 2956 
Q 1341 3275 1631 3429 
Q 1922 3584 2338 3584 
Q 2397 3584 2469 3576 
Q 2541 3569 2628 3553 
L 2631 2963 
z
" transform="scale(0.015625)"/>
       <path id="DejaVuSans-77" d="M 269 3500 
L 844 3500 
L 1563 769 
L 2278 3500 
L 2956 3500 
L 3675 769 
L 4391 3500 
L 4966 3500 
L 4050 0 
L 3372 0 
L 2619 2869 
L 1863 0 
L 1184 0 
L 269 3500 
z
" transform="scale(0.015625)"/>
       <path id="DejaVuSans-64" d="M 2906 2969 
L 2906 4863 
L 3481 4863 
L 3481 0 
L 2906 0 
L 2906 525 
Q 2725 213 2448 61 
Q 2172 -91 1784 -91 
Q 1150 -91 751 415 
Q 353 922 353 1747 
Q 353 2572 751 3078 
Q 1150 3584 1784 3584 
Q 2172 3584 2448 3432 
Q 2725 3281 2906 2969 
z
M 947 1747 
Q 947 1113 1208 752 
Q 1469 391 1925 391 
Q 2381 391 2643 752 
Q 2906 1113 2906 1747 
Q 2906 2381 2643 2742 
Q 2381 3103 1925 3103 
Q 1469 3103 1208 2742 
Q 947 2381 947 1747 
z
" transform="scale(0.015625)"/>
       <path id="DejaVuSans-28" d="M 1984 4856 
Q 1566 4138 1362 3434 
Q 1159 2731 1159 2009 
Q 1159 1288 1364 580 
Q 1569 -128 1984 -844 
L 1484 -844 
Q 1016 -109 783 600 
Q 550 1309 550 2009 
Q 550 2706 781 3412 
Q 1013 4119 1484 4856 
L 1984 4856 
z
" transform="scale(0.015625)"/>
       <path id="DejaVuSans-73" d="M 2834 3397 
L 2834 2853 
Q 2591 2978 2328 3040 
Q 2066 3103 1784 3103 
Q 1356 3103 1142 2972 
Q 928 2841 928 2578 
Q 928 2378 1081 2264 
Q 1234 2150 1697 2047 
L 1894 2003 
Q 2506 1872 2764 1633 
Q 3022 1394 3022 966 
Q 3022 478 2636 193 
Q 2250 -91 1575 -91 
Q 1294 -91 989 -36 
Q 684 19 347 128 
L 347 722 
Q 666 556 975 473 
Q 1284 391 1588 391 
Q 1994 391 2212 530 
Q 2431 669 2431 922 
Q 2431 1156 2273 1281 
Q 2116 1406 1581 1522 
L 1381 1569 
Q 847 1681 609 1914 
Q 372 2147 372 2553 
Q 372 3047 722 3315 
Q 1072 3584 1716 3584 
Q 2034 3584 2315 3537 
Q 2597 3491 2834 3397 
z
" transform="scale(0.015625)"/>
       <path id="DejaVuSans-29" d="M 513 4856 
L 1013 4856 
Q 1481 4119 1714 3412 
Q 1947 2706 1947 2009 
Q 1947 1309 1714 600 
Q 1481 -109 1013 -844 
L 513 -844 
Q 928 -128 1133 580 
Q 1338 1288 1338 2009 
Q 1338 2731 1133 3434 
Q 928 4138 513 4856 
z
" transform="scale(0.015625)"/>
      </defs>
      <use xlink:href="#DejaVuSans-54"/>
      <use xlink:href="#DejaVuSans-69" x="57.958984"/>
      <use xlink:href="#DejaVuSans-6d" x="85.742188"/>
      <use xlink:href="#DejaVuSans-65" x="183.154297"/>
      <use xlink:href="#DejaVuSans-20" x="244.677734"/>
      <use xlink:href="#DejaVuSans-61" x="276.464844"/>
      <use xlink:href="#DejaVuSans-66" x="337.744141"/>
      <use xlink:href="#DejaVuSans-74" x="371.199219"/>
      <use xlink:href="#DejaVuSans-65" x="410.408203"/>
      <use xlink:href="#DejaVuSans-72" x="471.931641"/>
      <use xlink:href="#DejaVuSans-20" x="513.044922"/>
      <use xlink:href="#DejaVuSans-72" x="544.832031"/>
      <use xlink:href="#DejaVuSans-65" x="583.695312"/>
      <use xlink:href="#DejaVuSans-77" x="645.21875"/>
      <use xlink:href="#DejaVuSans-61" x="727.005859"/>
      <use xlink:href="#DejaVuSans-72" x="788.285156"/>
      <use xlink:href="#DejaVuSans-64" x="827.648438"/>
      <use xlink:href="#DejaVuSans-28" x="891.125"/>
      <use xlink:href="#DejaVuSans-73" x="930.138672"/>
      <use xlink:href="#DejaVuSans-29" x="982.238281"/>
     </g>
    </g>
   </g>
   <g id="matplotlib.axis_2">
    <g id="ytick_1">
     <g id="line2d_7">
      <defs>
       <path id="ma09c4eefe1" d="M 0 0 
L -3.5 0 
" style="stroke: #000000; stroke-width: 0.8"/>
      </defs>
      <g>
       <use xlink:href="#ma09c4eefe1" x="41.92" y="281.523295" style="stroke: #000000; stroke-width: 0.8"/>
      </g>
     </g>
     <g id="text_8">
      <!-- −0.4 -->
      <g transform="translate(10.637188 285.322513) scale(0.1 -0.1)">
       <defs>
        <path id="DejaVuSans-2212" d="M 678 2272 
L 4684 2272 
L 4684 1741 
L 678 1741 
L 678 2272 
z
" transform="scale(0.015625)"/>
        <path id="DejaVuSans-2e" d="M 684 794 
L 1344 794 
L 1344 0 
L 684 0 
L 684 794 
z
" transform="scale(0.015625)"/>
       </defs>
       <use xlink:href="#DejaVuSans-2212"/>
       <use xlink:href="#DejaVuSans-30" x="83.789062"/>
       <use xlink:href="#DejaVuSans-2e" x="147.412109"/>
       <use xlink:href="#DejaVuSans-34" x="179.199219"/>
      </g>
     </g>
    </g>
    <g id="ytick_2">
     <g id="line2d_8">
      <g>
       <use xlink:href="#ma09c4eefe1" x="41.92" y="238.164725" style="stroke: #000000; stroke-width: 0.8"/>
      </g>
     </g>
     <g id="text_9">
      <!-- −0.2 -->
      <g transform="translate(10.637188 241.963943) scale(0.1 -0.1)">
       <use xlink:href="#DejaVuSans-2212"/>
       <use xlink:href="#DejaVuSans-30" x="83.789062"/>
       <use xlink:href="#DejaVuSans-2e" x="147.412109"/>
       <use xlink:href="#DejaVuSans-32" x="179.199219"/>
      </g>
     </g>
    </g>
    <g id="ytick_3">
     <g id="line2d_9">
      <g>
       <use xlink:href="#ma09c4eefe1" x="41.92" y="194.806155" style="stroke: #000000; stroke-width: 0.8"/>
      </g>
     </g>
     <g id="text_10">
      <!-- 0.0 -->
      <g transform="translate(19.016875 198.605373) scale(0.1 -0.1)">
       <use xlink:href="#DejaVuSans-30"/>
       <use xlink:href="#DejaVuSans-2e" x="63.623047"/>
       <use xlink:href="#DejaVuSans-30" x="95.410156"/>
      </g>
     </g>
    </g>
    <g id="ytick_4">
     <g id="line2d_10">
      <g>
       <use xlink:href="#ma09c4eefe1" x="41.92" y="151.447585" style="stroke: #000000; stroke-width: 0.8"/>
      </g>
     </g>
     <g id="text_11">
      <!-- 0.2 -->
      <g transform="translate(19.016875 155.246803) scale(0.1 -0.1)">
       <use xlink:href="#DejaVuSans-30"/>
       <use xlink:href="#DejaVuSans-2e" x="63.623047"/>
       <use xlink:href="#DejaVuSans-32" x="95.410156"/>
      </g>
     </g>
    </g>
    <g id="ytick_5">
     <g id="line2d_11">
      <g>
       <use xlink:href="#ma09c4eefe1" x="41.92" y="108.089015" style="stroke: #000000; stroke-width: 0.8"/>
      </g>
     </g>
     <g id="text_12">
      <!-- 0.4 -->
      <g transform="translate(19.016875 111.888233) scale(0.1 -0.1)">
       <use xlink:href="#DejaVuSans-30"/>
       <use xlink:href="#DejaVuSans-2e" x="63.623047"/>
       <use xlink:href="#DejaVuSans-34" x="95.410156"/>
      </g>
     </g>
    </g>
    <g id="ytick_6">
     <g id="line2d_12">
      <g>
       <use xlink:href="#ma09c4eefe1" x="41.92" y="64.730445" style="stroke: #000000; stroke-width: 0.8"/>
      </g>
     </g>
     <g id="text_13">
      <!-- 0.6 -->
      <g transform="translate(19.016875 68.529664) scale(0.1 -0.1)">
       <defs>
        <path id="DejaVuSans-36" d="M 2113 2584 
Q 1688 2584 1439 2293 
Q 1191 2003 1191 1497 
Q 1191 994 1439 701 
Q 1688 409 2113 409 
Q 2538 409 2786 701 
Q 3034 994 3034 1497 
Q 3034 2003 2786 2293 
Q 2538 2584 2113 2584 
z
M 3366 4563 
L 3366 3988 
Q 3128 4100 2886 4159 
Q 2644 4219 2406 4219 
Q 1781 4219 1451 3797 
Q 1122 3375 1075 2522 
Q 1259 2794 1537 2939 
Q 1816 3084 2150 3084 
Q 2853 3084 3261 2657 
Q 3669 2231 3669 1497 
Q 3669 778 3244 343 
Q 2819 -91 2113 -91 
Q 1303 -91 875 529 
Q 447 1150 447 2328 
Q 447 3434 972 4092 
Q 1497 4750 2381 4750 
Q 2619 4750 2861 4703 
Q 3103 4656 3366 4563 
z
" transform="scale(0.015625)"/>
       </defs>
       <use xlink:href="#DejaVuSans-30"/>
       <use xlink:href="#DejaVuSans-2e" x="63.623047"/>
       <use xlink:href="#DejaVuSans-36" x="95.410156"/>
      </g>
     </g>
    </g>
   </g>
   <g id="line2d_13">
    <path d="M 60.469091 182.884095 
L 61.198939 178.550422 
L 62.220726 170.704191 
L 63.680423 159.938686 
L 64.337286 156.472276 
L 64.84818 154.832621 
L 65.140119 154.418611 
L 65.432058 154.331249 
L 65.723998 154.53148 
L 66.088922 155.182353 
L 66.453846 156.293995 
L 66.891755 158.499664 
L 67.548618 163.422677 
L 68.570405 173.128844 
L 71.197859 198.520207 
L 72.146661 206.509278 
L 72.657555 209.365511 
L 73.095464 210.670004 
L 73.387403 210.940737 
L 73.606358 210.826873 
L 73.898297 210.32072 
L 74.336206 209.018779 
L 74.774115 206.955848 
L 75.357993 202.952022 
L 76.233811 194.875552 
L 78.350371 174.487928 
L 79.080219 170.011294 
L 79.664097 167.662723 
L 80.029022 166.842433 
L 80.393946 166.451952 
L 80.6129 166.426955 
L 80.831854 166.604699 
L 81.123794 167.132137 
L 81.488718 168.287155 
L 81.926627 170.387186 
L 82.58349 174.721053 
L 83.386323 181.508545 
L 84.481095 193.269154 
L 85.721837 206.162161 
L 86.3787 210.716298 
L 86.889594 212.939849 
L 87.327503 214.055365 
L 87.692427 214.470716 
L 87.911382 214.45852 
L 88.203321 214.164658 
L 88.568245 213.380374 
L 89.006154 211.758073 
L 89.590032 208.604868 
L 90.538835 201.804209 
L 92.728379 185.757489 
L 93.312258 182.649138 
L 93.677182 181.653267 
L 93.969121 181.422718 
L 94.188076 181.573381 
L 94.480015 182.217655 
L 94.917924 183.92643 
L 95.501802 187.306443 
L 96.596575 195.51263 
L 99.005074 214.037198 
L 99.442982 215.907357 
L 99.807907 216.751137 
L 100.099846 216.955475 
L 100.3188 216.818425 
L 100.683724 216.15577 
L 101.194618 214.545093 
L 101.778497 211.978807 
L 102.654314 206.910247 
L 103.457147 200.841826 
L 105.865646 181.119024 
L 106.668479 176.572279 
L 107.252358 174.320784 
L 107.690267 173.435093 
L 107.982206 173.263731 
L 108.20116 173.358966 
L 108.4931 173.820353 
L 108.858024 174.99677 
L 109.441902 177.832839 
L 110.17175 182.639333 
L 111.485477 193.314846 
L 114.039946 214.298999 
L 114.696809 217.566576 
L 115.134718 218.817374 
L 115.426657 219.125665 
L 115.645612 219.125575 
L 115.937551 218.821546 
L 116.302475 217.995817 
L 116.813369 216.166138 
L 117.543217 212.452002 
L 118.419035 206.663896 
L 119.586792 199.032839 
L 120.31664 195.659371 
L 120.827533 194.048903 
L 121.192458 193.453021 
L 121.484397 193.3578 
L 121.703351 193.517003 
L 121.995291 194.057802 
L 122.360215 195.364674 
L 122.798124 197.883394 
L 123.527972 203.747839 
L 125.133638 219.245238 
L 126.301395 229.76981 
L 126.885273 233.224003 
L 127.323182 234.721712 
L 127.615121 235.119581 
L 127.834076 235.094532 
L 128.05303 234.798816 
L 128.34497 233.979536 
L 128.782878 231.913175 
L 129.585711 226.671258 
L 131.410332 212.79369 
L 132.578089 204.420102 
L 133.088983 202.148001 
L 133.453907 201.432734 
L 133.672861 201.353484 
L 133.891815 201.513788 
L 134.183755 202.035991 
L 134.621664 203.319517 
L 135.351512 206.273395 
L 136.884193 212.342091 
L 137.614041 214.748268 
L 138.05195 215.480147 
L 138.489859 215.735593 
L 138.781798 215.71364 
L 139.073737 215.476623 
L 139.438661 214.765828 
L 139.949555 213.11767 
L 140.679403 209.868494 
L 142.941933 198.792908 
L 143.452826 197.725574 
L 143.744766 197.47208 
L 144.10969 197.478623 
L 144.474614 197.738904 
L 144.985507 198.457106 
L 145.423416 199.492307 
L 145.93431 201.322594 
L 146.591173 204.593938 
L 147.685946 210.177328 
L 148.196839 211.653687 
L 148.561763 212.123569 
L 148.926688 212.267798 
L 149.656536 212.207985 
L 150.313399 211.981113 
L 150.824293 211.501219 
L 151.335186 210.626158 
L 152.429959 208.614663 
L 152.721898 208.462715 
L 153.013837 208.580161 
L 153.305776 208.972354 
L 153.743685 210.058775 
L 154.473534 212.634636 
L 155.78726 217.549471 
L 156.882032 220.613163 
L 159.071577 225.863731 
L 159.509486 226.336067 
L 159.87441 226.392193 
L 160.385304 226.166337 
L 161.480076 225.565315 
L 162.428878 225.316682 
L 163.012757 225.423609 
L 163.450666 225.689014 
L 163.888575 226.211426 
L 164.618423 227.460012 
L 165.93215 229.856275 
L 166.297074 230.110758 
L 166.661998 230.088158 
L 166.953937 229.840692 
L 167.391846 229.106419 
L 168.121694 227.271218 
L 169.143481 224.063984 
L 172.062874 213.622428 
L 172.573768 212.674184 
L 172.938692 212.366907 
L 173.230631 212.433518 
L 173.66854 212.914202 
L 174.106449 213.683371 
L 174.763312 215.40717 
L 175.712115 218.48121 
L 176.587933 222.345167 
L 177.317781 226.399003 
L 178.923447 235.720925 
L 179.361356 237.026286 
L 179.653295 237.369637 
L 179.872249 237.354443 
L 180.164189 237.042702 
L 180.529113 236.276085 
L 181.040006 234.500371 
L 181.69687 231.357764 
L 185.200141 212.834928 
L 185.784019 211.113142 
L 186.367898 210.134983 
L 186.732822 209.87773 
L 187.097746 209.876855 
L 187.46267 210.114947 
L 188.338488 210.790567 
L 188.630427 210.738384 
L 188.995351 210.418572 
L 189.43326 209.641895 
L 189.944154 208.250003 
L 190.528032 205.918682 
L 191.184896 202.353763 
L 192.206683 195.345244 
L 193.52041 186.447729 
L 194.177273 183.394347 
L 194.615182 182.394876 
L 194.907121 182.20136 
L 195.126076 182.267464 
L 195.418015 182.615472 
L 195.782939 183.536919 
L 196.220848 185.384031 
L 196.804727 189.041038 
L 197.534575 195.227007 
L 198.556362 205.884998 
L 201.183816 234.465909 
L 201.767694 238.272742 
L 202.278588 240.209425 
L 202.716497 241.131973 
L 202.935451 241.256038 
L 203.154406 241.114389 
L 203.446345 240.573861 
L 203.811269 239.35642 
L 204.322163 236.658528 
L 205.052011 231.406435 
L 205.927829 223.563143 
L 208.117373 203.238917 
L 208.920206 197.853928 
L 209.504085 195.290314 
L 210.087963 193.591597 
L 210.744826 192.331772 
L 211.182735 191.959945 
L 211.474675 191.982041 
L 211.766614 192.261897 
L 212.131538 192.967128 
L 212.569447 194.451337 
L 213.080341 197.154644 
L 213.737204 202.139713 
L 215.050931 214.64542 
L 217.240475 236.157659 
L 217.897338 240.39712 
L 218.335247 242.102066 
L 218.627187 242.63751 
L 218.846141 242.709233 
L 219.065095 242.510522 
L 219.357035 241.868037 
L 219.794944 240.226884 
L 220.305837 237.433669 
L 220.889716 232.812195 
L 221.911503 222.359637 
L 223.006275 211.984927 
L 223.736124 207.048208 
L 224.247017 204.958482 
L 224.684926 204.089256 
L 224.976865 203.919782 
L 225.268805 204.084769 
L 225.706714 204.719985 
L 226.582531 206.405111 
L 227.093425 208.039352 
L 228.042228 212.188132 
L 228.772076 214.935302 
L 229.209985 215.963031 
L 229.574909 216.320577 
L 229.866848 216.332099 
L 230.231772 216.053998 
L 230.742666 215.385661 
L 231.25356 214.308026 
L 231.691469 212.881115 
L 232.202362 210.334929 
L 232.786241 206.220826 
L 235.778618 182.906468 
L 237.01936 176.132369 
L 238.041147 171.561306 
L 238.625026 169.872649 
L 239.500844 168.204827 
L 239.938753 167.632035 
L 240.449646 167.358866 
L 241.033525 167.167094 
L 241.763373 167.278522 
L 243.223069 167.503228 
L 244.317842 167.540864 
L 244.682766 167.406887 
L 245.412614 167.032161 
L 245.850523 167.088898 
L 247.821113 167.764982 
L 248.186037 167.487677 
L 248.623946 166.861339 
L 249.426779 165.13904 
L 250.083642 163.093987 
L 250.81349 160.109418 
L 251.543338 156.295071 
L 254.170792 141.068923 
L 254.75467 139.190496 
L 255.265564 138.317162 
L 255.630488 138.020879 
L 255.995412 137.948478 
L 256.360336 138.133218 
L 256.72526 138.614361 
L 257.090184 139.524615 
L 257.528093 141.318447 
L 258.111972 144.848126 
L 258.98779 151.738754 
L 261.177334 169.686524 
L 261.980167 174.525661 
L 262.564046 176.745373 
L 263.074939 177.88867 
L 263.439863 178.219615 
L 263.731803 178.178799 
L 264.023742 177.855435 
L 264.534636 176.884598 
L 265.045529 175.439521 
L 266.651195 170.089138 
L 267.235074 168.89619 
L 267.672983 168.446607 
L 268.037907 168.349235 
L 268.329846 168.486592 
L 268.69477 169.022255 
L 269.205664 170.313181 
L 269.935512 172.75243 
L 271.030284 176.337244 
L 272.344011 179.715873 
L 272.78192 180.147355 
L 273.365798 180.322255 
L 274.241616 180.387657 
L 274.825495 180.909997 
L 275.190419 181.543025 
L 275.628328 182.880974 
L 276.139221 185.26371 
L 277.015039 190.688881 
L 278.255781 198.31391 
L 279.277568 203.527735 
L 279.934432 205.79472 
L 280.372341 206.520715 
L 280.810249 206.841113 
L 281.175174 206.858532 
L 281.540098 206.646187 
L 281.905022 206.167606 
L 282.63487 204.644485 
L 283.437703 202.686929 
L 284.75143 198.758177 
L 285.408293 197.13357 
L 286.649035 194.639348 
L 287.743807 192.213594 
L 288.254701 191.758808 
L 288.911564 191.125122 
L 289.495443 190.178862 
L 291.393048 187.108725 
L 291.684987 187.00477 
L 291.976926 187.176876 
L 292.34185 187.755459 
L 292.779759 188.968676 
L 293.436623 191.740103 
L 294.31244 196.507532 
L 295.845122 204.794873 
L 296.866909 209.099476 
L 297.450787 210.584679 
L 297.961681 211.376643 
L 298.326605 211.56526 
L 298.618545 211.44287 
L 298.910484 211.065861 
L 299.421377 209.977902 
L 299.932271 208.356081 
L 300.589135 205.433942 
L 302.997633 194.14677 
L 304.165391 190.332536 
L 304.822254 188.832123 
L 305.479117 187.880951 
L 306.062996 187.360276 
L 306.573889 187.197048 
L 307.011798 187.282598 
L 307.376722 187.603835 
L 307.814631 188.360232 
L 308.836419 190.872946 
L 309.566267 193.202841 
L 311.244918 199.745098 
L 312.047751 203.930231 
L 314.602219 218.505263 
L 315.624007 223.04935 
L 316.353855 225.35856 
L 317.156688 227.147276 
L 317.740566 228.046704 
L 318.178475 228.372261 
L 318.689369 228.479029 
L 319.127278 228.362125 
L 320.36802 227.891936 
L 320.805928 227.945563 
L 321.170853 228.234086 
L 321.681746 228.946569 
L 322.265625 230.241102 
L 323.579351 233.971578 
L 324.3092 236.709185 
L 325.258002 241.229345 
L 326.206805 245.45266 
L 327.009638 248.125264 
L 327.593516 249.395634 
L 327.95844 249.79557 
L 328.323365 249.87099 
L 328.761273 249.630472 
L 329.856046 248.906529 
L 330.512909 248.931923 
L 331.096788 249.220291 
L 331.461712 249.760344 
L 331.972605 251.063828 
L 332.556484 253.204719 
L 333.140362 256.390793 
L 333.724241 261.032293 
L 336.643634 286.641808 
L 337.227512 289.567491 
L 337.665421 290.799268 
L 337.95736 291.06 
L 338.176315 290.95401 
L 338.468254 290.361334 
L 338.833178 288.890493 
L 339.271087 286.015783 
L 339.854965 280.50815 
L 340.511829 272.079556 
L 341.533616 255.543635 
L 343.650176 220.601484 
L 344.307039 213.662471 
L 344.744948 211.127367 
L 345.036887 210.431519 
L 345.255842 210.317769 
L 345.474796 210.534175 
L 345.766735 211.257893 
L 346.277629 213.381494 
L 347.153447 218.355882 
L 348.759113 229.134996 
L 349.415976 232.788389 
L 349.853885 234.213555 
L 350.145824 234.546398 
L 350.364779 234.426752 
L 350.656718 233.815518 
L 351.021642 232.339403 
L 351.459551 229.594898 
L 352.04343 224.334956 
L 354.889837 195.952573 
L 355.400731 193.450381 
L 355.765655 192.589783 
L 355.98461 192.45628 
L 356.203564 192.611985 
L 356.495503 193.244205 
L 356.860427 194.653444 
L 357.371321 197.677882 
L 358.101169 203.72466 
L 359.341911 216.443302 
L 360.509668 227.564256 
L 361.385486 233.980796 
L 361.969365 236.806551 
L 362.407273 238.025771 
L 362.772198 238.479574 
L 362.991152 238.505879 
L 363.210106 238.332383 
L 363.502046 237.80563 
L 363.939955 236.452225 
L 364.596818 233.468483 
L 366.056514 226.67594 
L 366.494423 225.670767 
L 366.859347 225.241885 
L 367.078302 225.211981 
L 367.370241 225.413187 
L 367.735165 225.98527 
L 368.246059 227.34689 
L 369.194861 230.678404 
L 370.289634 235.459157 
L 371.238436 239.288033 
L 371.822315 240.880606 
L 372.260224 241.502524 
L 372.552163 241.593492 
L 372.844102 241.47536 
L 373.209026 241.02435 
L 373.792905 239.783965 
L 374.449768 237.870847 
L 376.347373 231.706739 
L 376.858267 230.799279 
L 378.099009 229.303906 
L 378.828857 227.559139 
L 380.726462 222.022322 
L 382.697052 216.375153 
L 384.010779 213.6321 
L 384.448688 213.266164 
L 384.740627 213.237482 
L 385.105551 213.469102 
L 385.68943 214.160932 
L 386.273308 215.241648 
L 386.857187 216.817392 
L 387.36808 218.844578 
L 388.243898 223.398076 
L 389.703595 231.333418 
L 390.214488 232.87698 
L 390.652397 233.516063 
L 391.017321 233.725878 
L 391.382245 233.630409 
L 391.893139 233.258497 
L 392.331048 232.638456 
L 392.987911 231.213603 
L 395.031486 226.443557 
L 395.615365 225.570319 
L 396.053273 225.22062 
L 396.491182 225.17224 
L 396.856106 225.312697 
L 397.221031 225.716376 
L 397.658939 226.58748 
L 398.169833 228.140174 
L 398.753712 230.628866 
L 399.775499 235.143107 
L 400.359378 236.735791 
L 400.870271 237.528518 
L 401.162211 237.71996 
L 401.45415 237.649561 
L 401.746089 237.320606 
L 402.111013 236.480823 
L 402.621907 234.603841 
L 403.42474 230.602939 
L 404.519512 225.358148 
L 405.103391 223.484618 
L 405.468315 222.901704 
L 405.687269 222.813415 
L 405.906224 222.965419 
L 406.198163 223.525414 
L 406.563087 224.824602 
L 407.073981 227.738917 
L 407.803829 233.56935 
L 410.212328 254.378668 
L 410.796206 257.133252 
L 411.234115 258.342381 
L 411.526054 258.732067 
L 411.745009 258.748188 
L 411.963963 258.523137 
L 412.255903 257.823823 
L 412.693811 256.025943 
L 413.27769 252.42266 
L 414.299477 244.539448 
L 415.540219 234.605043 
L 416.270067 230.606805 
L 416.780961 228.808918 
L 417.21887 227.955844 
L 417.510809 227.721502 
L 417.802749 227.757499 
L 418.094688 228.10611 
L 418.459612 228.956167 
L 418.970506 230.892788 
L 419.773339 234.931412 
L 420.795126 241.285859 
L 421.524974 247.652241 
L 424.736306 278.077227 
L 425.539139 283.164194 
L 426.123018 285.552896 
L 426.487942 286.250418 
L 426.706896 286.345221 
L 426.925851 286.177367 
L 427.21779 285.571896 
L 427.582714 284.25001 
L 428.166592 281.09984 
L 428.823456 276.295627 
L 429.699274 268.022387 
L 431.450909 249.438272 
L 431.450909 249.438272 
" clip-path="url(#p14932f386a)" style="fill: none; stroke: #1f77b4; stroke-width: 1.5; stroke-linecap: square"/>
   </g>
   <g id="line2d_14">
    <path d="M 60.469091 39.46 
L 61.490878 60.475227 
L 62.220726 71.377548 
L 62.804605 77.116364 
L 63.242514 79.377823 
L 63.534453 79.910746 
L 63.680423 79.915421 
L 63.899377 79.635743 
L 64.191317 78.816476 
L 64.556241 77.062947 
L 65.140119 72.971405 
L 66.307876 62.676532 
L 67.256679 55.075098 
L 67.913542 51.582785 
L 68.351451 50.197855 
L 68.716375 49.725217 
L 68.93533 49.723424 
L 69.227269 50.003422 
L 69.592193 50.796538 
L 70.030102 52.338955 
L 70.61398 55.29209 
L 71.416813 60.692621 
L 73.460388 75.112644 
L 74.263221 79.260363 
L 75.139039 82.652267 
L 76.014857 85.245176 
L 76.452766 85.904656 
L 76.81769 86.062124 
L 77.109629 85.96197 
L 77.474553 85.554864 
L 78.861264 83.508637 
L 79.299173 83.371601 
L 79.664097 83.48161 
L 80.029022 83.830563 
L 80.46693 84.668193 
L 80.977824 86.194562 
L 81.707672 89.069443 
L 83.459308 96.323971 
L 84.481095 99.358069 
L 85.210943 100.985773 
L 85.575868 101.396863 
L 85.940792 101.468731 
L 86.451685 101.27252 
L 87.254518 100.979757 
L 88.130336 100.875441 
L 88.714215 101.151642 
L 89.152123 101.554128 
L 89.590032 102.362344 
L 89.954956 103.485177 
L 90.46585 105.956875 
L 91.195698 110.759416 
L 94.334045 132.662475 
L 95.282848 137.449859 
L 95.939711 139.755809 
L 96.37762 140.591104 
L 96.815529 140.944477 
L 97.180453 140.954245 
L 97.545377 140.684232 
L 97.983286 140.055232 
L 98.49418 138.848335 
L 99.151043 136.714158 
L 100.026861 132.842154 
L 101.997451 123.909501 
L 102.654314 122.175991 
L 103.238193 121.246192 
L 103.749087 120.762962 
L 104.114011 120.668024 
L 104.40595 120.792547 
L 104.770874 121.209033 
L 105.281768 122.207578 
L 106.157586 124.453246 
L 107.398327 127.663227 
L 109.368917 131.943397 
L 109.806826 132.379979 
L 110.17175 132.458092 
L 110.46369 132.311133 
L 110.828614 131.887462 
L 111.266523 131.023599 
L 111.777416 129.508419 
L 112.799204 125.597368 
L 113.602037 121.629079 
L 116.010536 108.165081 
L 116.594414 106.564021 
L 116.959338 106.064005 
L 117.251278 105.939587 
L 117.543217 106.047079 
L 117.835156 106.418621 
L 118.127095 107.204739 
L 118.565004 109.161066 
L 119.075898 112.50579 
L 119.878731 119.547518 
L 122.28723 141.747115 
L 123.454987 150.014078 
L 124.184835 153.838274 
L 124.622744 155.110304 
L 124.987668 155.534973 
L 125.279607 155.503355 
L 125.571547 155.134988 
L 125.936471 154.268105 
L 126.593334 151.968367 
L 127.396167 149.240754 
L 127.907061 148.238484 
L 128.417954 147.695298 
L 128.855863 147.51337 
L 129.147802 147.600379 
L 129.512727 148.001385 
L 129.877651 148.786299 
L 130.31556 150.299193 
L 130.972423 153.457145 
L 131.99421 159.502547 
L 132.870028 166.242336 
L 134.402709 178.294935 
L 135.059573 181.660974 
L 135.497481 182.921537 
L 135.789421 183.255867 
L 136.008375 183.244795 
L 136.22733 183.028757 
L 136.519269 182.327218 
L 136.957178 180.523309 
L 138.927768 171.159889 
L 139.438661 169.593692 
L 139.803586 168.987985 
L 140.095525 168.882768 
L 140.314479 169.052609 
L 140.606419 169.623691 
L 141.044327 171.121349 
L 141.628206 174.170178 
L 142.358054 179.419887 
L 143.233872 187.731353 
L 144.401629 201.18609 
L 146.153265 221.816693 
L 146.883113 228.163748 
L 147.466991 231.684375 
L 147.977885 233.584731 
L 148.415794 234.402961 
L 148.707733 234.578107 
L 148.926688 234.512297 
L 149.218627 234.159894 
L 149.583551 233.274725 
L 150.167429 231.126003 
L 152.867868 219.778844 
L 153.305776 219.120306 
L 153.743685 218.872586 
L 154.181594 218.911087 
L 154.619503 219.174832 
L 155.93323 220.101579 
L 156.371139 219.998474 
L 156.736063 219.73916 
L 157.100987 219.213869 
L 157.611881 217.994934 
L 158.195759 215.909297 
L 159.071577 211.978853 
L 159.947395 206.795088 
L 161.334106 198.432879 
L 162.209924 194.275959 
L 162.939772 191.858271 
L 163.450666 190.803709 
L 163.888575 190.408208 
L 164.253499 190.340363 
L 164.545438 190.499243 
L 164.910362 191.019648 
L 165.421256 192.245 
L 166.078119 194.368014 
L 166.734983 197.300073 
L 168.267664 204.679109 
L 171.406011 216.167977 
L 172.062874 217.876691 
L 172.646753 218.747819 
L 173.66854 219.962879 
L 174.179434 221.281625 
L 175.858085 225.769618 
L 176.660917 227.400004 
L 177.244796 228.143393 
L 177.75569 228.461129 
L 178.266583 228.465964 
L 178.631508 228.285312 
L 179.069416 227.819255 
L 179.58031 226.88382 
L 180.164189 225.335095 
L 180.967022 222.438549 
L 182.134779 218.311406 
L 183.083581 215.474305 
L 183.594475 214.560284 
L 183.959399 214.280789 
L 184.397308 214.236113 
L 184.689247 214.387458 
L 185.200141 214.981546 
L 185.784019 216.052168 
L 186.586852 218.028218 
L 188.046549 221.713368 
L 188.557442 222.490043 
L 189.141321 222.901726 
L 189.57923 222.962951 
L 190.017139 222.744886 
L 190.382063 222.317895 
L 190.746987 221.54037 
L 191.330865 219.62808 
L 192.571607 215.407733 
L 193.37444 213.521625 
L 193.958319 212.67914 
L 194.323243 212.417795 
L 194.615182 212.431148 
L 194.907121 212.75098 
L 195.272045 213.594598 
L 195.709954 215.273244 
L 196.220848 218.226955 
L 196.950696 223.94222 
L 198.264423 236.423131 
L 199.359195 246.325173 
L 199.943074 249.664089 
L 200.380983 251.186584 
L 200.672922 251.661041 
L 200.891876 251.672056 
L 201.110831 251.389939 
L 201.475755 250.377112 
L 201.913664 248.356905 
L 202.497542 244.430458 
L 203.37336 236.469021 
L 205.052011 221.036085 
L 205.708874 217.04131 
L 206.219768 214.955462 
L 206.584692 214.22592 
L 206.876631 214.104176 
L 207.095586 214.249031 
L 207.387525 214.73576 
L 207.752449 215.845893 
L 208.336328 218.589307 
L 209.066176 223.332986 
L 210.014978 231.279942 
L 211.036766 239.184893 
L 211.547659 241.562226 
L 211.912583 242.44625 
L 212.131538 242.526613 
L 212.350492 242.258605 
L 212.642432 241.347006 
L 213.080341 238.941894 
L 213.664219 234.261297 
L 214.831976 222.471658 
L 216.510627 206.165866 
L 217.459429 198.519298 
L 218.043308 195.522073 
L 218.481217 194.283847 
L 218.773156 194.003963 
L 218.992111 194.051941 
L 219.211065 194.322144 
L 219.503004 195.028564 
L 219.940913 196.820587 
L 220.597777 200.673723 
L 222.057473 211.222846 
L 222.860306 216.236273 
L 223.444184 218.760185 
L 223.955078 220.041915 
L 224.247017 220.355955 
L 224.465972 220.377765 
L 224.684926 220.195896 
L 224.976865 219.650164 
L 225.414774 218.275908 
L 226.217607 214.857049 
L 227.239395 209.560499 
L 229.428939 197.189696 
L 230.012818 195.60252 
L 230.450727 194.957636 
L 230.815651 194.719693 
L 231.180575 194.757649 
L 231.545499 195.07582 
L 231.983408 195.759452 
L 232.567286 197.134081 
L 234.172952 201.182827 
L 234.537876 201.471795 
L 234.9028 201.515081 
L 235.267725 201.348373 
L 235.705633 200.920718 
L 236.216527 200.131381 
L 236.87339 198.668911 
L 237.384284 196.918178 
L 238.041147 193.86845 
L 239.13592 187.430307 
L 240.230692 181.524574 
L 240.887555 179.169144 
L 241.252479 178.486011 
L 241.544419 178.351292 
L 241.763373 178.50108 
L 242.055312 179.002126 
L 242.420236 180.163227 
L 243.004115 182.929023 
L 244.025902 189.19618 
L 247.456189 211.144722 
L 247.967082 212.561008 
L 248.332007 213.037545 
L 248.623946 213.093425 
L 248.915885 212.916979 
L 249.426779 212.308078 
L 250.667521 210.298054 
L 252.565126 207.137442 
L 252.93005 206.975787 
L 253.149004 207.073721 
L 253.440944 207.511791 
L 253.805868 208.603484 
L 254.243777 210.753129 
L 254.90064 215.437258 
L 258.038987 239.924928 
L 258.622866 242.621315 
L 259.060774 243.842094 
L 259.425698 244.302272 
L 259.644653 244.269974 
L 259.863607 243.966474 
L 260.155547 243.108554 
L 260.593456 240.901385 
L 261.104349 236.871492 
L 261.761213 229.608776 
L 262.92897 213.370601 
L 263.877772 201.556125 
L 264.60762 195.116941 
L 265.191499 191.819078 
L 265.629408 190.466271 
L 265.921347 190.140555 
L 266.140302 190.16883 
L 266.432241 190.51635 
L 266.797165 191.405823 
L 267.235074 193.123465 
L 267.745967 196.040937 
L 268.5488 202.239366 
L 270.592375 218.777254 
L 271.103269 221.200073 
L 271.541178 222.32452 
L 271.833117 222.527889 
L 272.052072 222.409466 
L 272.344011 221.941086 
L 272.78192 220.689199 
L 273.292813 218.540952 
L 275.701312 206.79018 
L 276.285191 205.041241 
L 276.650115 204.517746 
L 276.942054 204.437262 
L 277.161009 204.602074 
L 277.452948 205.14707 
L 277.817872 206.367872 
L 278.255781 208.705911 
L 278.766675 212.752339 
L 279.496523 220.504581 
L 281.613082 244.485067 
L 282.415915 251.083466 
L 282.926809 253.713999 
L 283.291733 254.601081 
L 283.510688 254.744701 
L 283.729642 254.621742 
L 284.021581 254.080784 
L 284.386505 252.816358 
L 284.897399 250.097825 
L 285.773217 243.918848 
L 287.962761 227.466109 
L 288.54664 224.606409 
L 288.984549 223.266513 
L 289.276488 222.841849 
L 289.495443 222.797109 
L 289.714397 222.972507 
L 290.079321 223.668104 
L 290.51723 225.088751 
L 291.101109 227.939148 
L 293.582592 241.288352 
L 294.020501 242.50084 
L 294.385425 242.992755 
L 294.677364 243.040789 
L 294.896319 242.853619 
L 295.188258 242.292013 
L 295.626167 240.850356 
L 296.210046 237.880314 
L 297.231833 231.036958 
L 298.180636 225.091138 
L 298.764514 222.684035 
L 299.202423 221.737631 
L 299.567347 221.353697 
L 299.786302 221.345404 
L 300.005256 221.5428 
L 300.297195 222.180042 
L 300.662119 223.679088 
L 301.173013 226.93315 
L 301.902861 233.46737 
L 303.508527 250.755732 
L 304.530315 260.424401 
L 305.114193 264.136477 
L 305.552102 265.851342 
L 305.917026 266.487687 
L 306.135981 266.454615 
L 306.354935 266.076761 
L 306.646874 265.053811 
L 307.084783 262.499447 
L 307.741646 256.877032 
L 309.347312 240.023037 
L 310.515069 228.808981 
L 311.025963 225.844186 
L 311.390887 224.743819 
L 311.682827 224.42084 
L 311.901781 224.519204 
L 312.120735 224.90517 
L 312.48566 226.178358 
L 312.923568 228.707044 
L 313.653417 234.632105 
L 315.186098 249.620275 
L 316.061915 257.382491 
L 316.645794 260.883092 
L 317.083703 262.335915 
L 317.375642 262.696534 
L 317.594597 262.627725 
L 317.813551 262.271652 
L 318.10549 261.335959 
L 318.543399 259.018411 
L 319.127278 254.603573 
L 320.149065 244.856377 
L 321.973686 227.193699 
L 322.630549 222.950686 
L 323.068458 221.29861 
L 323.433382 220.733158 
L 323.652336 220.688635 
L 323.871291 220.912844 
L 324.16323 221.67589 
L 324.601139 223.676906 
L 325.185017 227.659504 
L 326.13382 236.174689 
L 327.885456 252.020345 
L 328.542319 255.898274 
L 329.053213 257.747386 
L 329.418137 258.294218 
L 329.637091 258.339274 
L 329.856046 258.16982 
L 330.147985 257.640143 
L 330.585894 256.207124 
L 331.315742 252.709404 
L 332.264545 248.298526 
L 332.848423 246.611376 
L 333.213347 246.083539 
L 333.505286 246.002064 
L 333.797226 246.218025 
L 334.16215 246.832222 
L 334.673043 248.242414 
L 335.183937 250.312764 
L 335.840801 254.140585 
L 338.249299 269.6816 
L 338.833178 271.713655 
L 339.198102 272.403935 
L 339.490041 272.575341 
L 339.781981 272.463181 
L 340.07392 272.06993 
L 340.438844 271.150443 
L 340.949738 269.236557 
L 341.533616 266.097299 
L 342.336449 260.33979 
L 343.796145 249.923458 
L 344.453009 246.876632 
L 345.036887 245.107429 
L 345.620766 243.996849 
L 345.98569 243.690348 
L 346.350614 243.674477 
L 346.715538 243.898687 
L 347.299417 244.5709 
L 348.10225 245.977446 
L 348.905083 248.007113 
L 349.7809 250.025638 
L 350.291794 250.796828 
L 350.583733 250.954209 
L 350.802688 250.875882 
L 351.094627 250.504691 
L 351.459551 249.680076 
L 351.89746 248.052926 
L 352.408354 245.234372 
L 353.430141 237.792622 
L 354.962822 227.096696 
L 355.69267 223.489353 
L 356.203564 221.986256 
L 356.568488 221.485603 
L 356.860427 221.409493 
L 357.152367 221.632917 
L 357.517291 222.270803 
L 358.174154 223.931976 
L 358.976987 226.573591 
L 359.998775 230.793285 
L 361.75041 238.307536 
L 362.115334 238.939791 
L 362.334289 239.034545 
L 362.553243 238.896408 
L 362.845182 238.392956 
L 363.283091 237.009873 
L 363.939955 234.036241 
L 365.107712 227.206549 
L 366.494423 217.846642 
L 367.589195 210.740677 
L 368.392028 206.858761 
L 368.829937 205.634345 
L 369.267846 205.043318 
L 369.63277 204.926935 
L 370.362618 205.052144 
L 370.800527 205.358429 
L 371.238436 205.980316 
L 371.822315 207.258769 
L 372.479178 209.348138 
L 373.354996 213.192366 
L 374.084844 215.843013 
L 374.960662 218.111927 
L 375.83648 219.741 
L 376.347373 220.286446 
L 377.077221 220.680173 
L 377.442145 220.670099 
L 377.80707 220.401406 
L 378.099009 219.916739 
L 378.609903 218.545462 
L 380.142584 214.130184 
L 380.653477 213.236834 
L 381.018401 212.971235 
L 381.45631 212.960545 
L 381.894219 213.159118 
L 382.332128 213.68437 
L 382.697052 214.46311 
L 383.134961 216.041973 
L 383.791824 219.408644 
L 384.594657 224.88853 
L 386.054354 235.121994 
L 386.784202 238.673228 
L 387.36808 240.533539 
L 387.805989 241.404686 
L 388.170913 241.728609 
L 388.535837 241.771727 
L 388.827777 241.561829 
L 389.265686 240.860477 
L 389.922549 239.262929 
L 391.090306 236.390677 
L 391.528215 235.819865 
L 391.893139 235.705251 
L 392.185078 235.841969 
L 392.622987 236.323453 
L 393.352835 237.49499 
L 393.863729 238.923299 
L 394.374623 241.075393 
L 395.323425 246.371495 
L 396.126258 250.401059 
L 396.710137 252.342955 
L 397.221031 253.295135 
L 398.242818 254.371639 
L 398.680727 254.672989 
L 399.045651 254.653987 
L 399.410575 254.360315 
L 399.775499 253.739217 
L 400.140423 252.661706 
L 400.651317 250.350706 
L 401.600119 244.61433 
L 403.059816 234.563373 
L 404.519512 224.347644 
L 405.176375 221.191864 
L 405.614284 219.974867 
L 405.979208 219.484329 
L 406.271148 219.392505 
L 406.563087 219.52696 
L 406.928011 219.973586 
L 407.657859 221.353958 
L 408.898601 224.278724 
L 410.577252 228.5285 
L 411.088146 229.149284 
L 412.036948 229.834434 
L 414.664401 230.962299 
L 418.386627 232.720769 
L 418.897521 232.724907 
L 419.481399 232.506258 
L 420.065278 231.999446 
L 420.576172 231.214776 
L 421.233035 229.66546 
L 422.108853 226.797509 
L 422.98467 224.115903 
L 423.860488 222.283538 
L 424.736306 220.905723 
L 425.174215 220.486197 
L 425.539139 220.405858 
L 425.904063 220.573271 
L 426.341972 221.043029 
L 427.07182 222.361228 
L 427.728683 223.945819 
L 428.458532 226.270103 
L 429.626289 229.999586 
L 430.721061 232.903171 
L 431.450909 234.430452 
L 431.450909 234.430452 
" clip-path="url(#p14932f386a)" style="fill: none; stroke: #ff7f0e; stroke-width: 1.5; stroke-linecap: square"/>
   </g>
   <g id="patch_3">
    <path d="M 41.92 303.64 
L 41.92 26.88 
" style="fill: none; stroke: #000000; stroke-width: 0.8; stroke-linejoin: miter; stroke-linecap: square"/>
   </g>
   <g id="patch_4">
    <path d="M 450 303.64 
L 450 26.88 
" style="fill: none; stroke: #000000; stroke-width: 0.8; stroke-linejoin: miter; stroke-linecap: square"/>
   </g>
   <g id="patch_5">
    <path d="M 41.92 303.64 
L 450 303.64 
" style="fill: none; stroke: #000000; stroke-width: 0.8; stroke-linejoin: miter; stroke-linecap: square"/>
   </g>
   <g id="patch_6">
    <path d="M 41.92 26.88 
L 450 26.88 
" style="fill: none; stroke: #000000; stroke-width: 0.8; stroke-linejoin: miter; stroke-linecap: square"/>
   </g>
   <g id="text_14">
    <!-- Mean 5 seconds post reward Trials -->
    <g transform="translate(142.616563 20.88) scale(0.12 -0.12)">
     <defs>
      <path id="DejaVuSans-4d" d="M 628 4666 
L 1569 4666 
L 2759 1491 
L 3956 4666 
L 4897 4666 
L 4897 0 
L 4281 0 
L 4281 4097 
L 3078 897 
L 2444 897 
L 1241 4097 
L 1241 0 
L 628 0 
L 628 4666 
z
" transform="scale(0.015625)"/>
      <path id="DejaVuSans-6e" d="M 3513 2113 
L 3513 0 
L 2938 0 
L 2938 2094 
Q 2938 2591 2744 2837 
Q 2550 3084 2163 3084 
Q 1697 3084 1428 2787 
Q 1159 2491 1159 1978 
L 1159 0 
L 581 0 
L 581 3500 
L 1159 3500 
L 1159 2956 
Q 1366 3272 1645 3428 
Q 1925 3584 2291 3584 
Q 2894 3584 3203 3211 
Q 3513 2838 3513 2113 
z
" transform="scale(0.015625)"/>
      <path id="DejaVuSans-63" d="M 3122 3366 
L 3122 2828 
Q 2878 2963 2633 3030 
Q 2388 3097 2138 3097 
Q 1578 3097 1268 2742 
Q 959 2388 959 1747 
Q 959 1106 1268 751 
Q 1578 397 2138 397 
Q 2388 397 2633 464 
Q 2878 531 3122 666 
L 3122 134 
Q 2881 22 2623 -34 
Q 2366 -91 2075 -91 
Q 1284 -91 818 406 
Q 353 903 353 1747 
Q 353 2603 823 3093 
Q 1294 3584 2113 3584 
Q 2378 3584 2631 3529 
Q 2884 3475 3122 3366 
z
" transform="scale(0.015625)"/>
      <path id="DejaVuSans-6f" d="M 1959 3097 
Q 1497 3097 1228 2736 
Q 959 2375 959 1747 
Q 959 1119 1226 758 
Q 1494 397 1959 397 
Q 2419 397 2687 759 
Q 2956 1122 2956 1747 
Q 2956 2369 2687 2733 
Q 2419 3097 1959 3097 
z
M 1959 3584 
Q 2709 3584 3137 3096 
Q 3566 2609 3566 1747 
Q 3566 888 3137 398 
Q 2709 -91 1959 -91 
Q 1206 -91 779 398 
Q 353 888 353 1747 
Q 353 2609 779 3096 
Q 1206 3584 1959 3584 
z
" transform="scale(0.015625)"/>
      <path id="DejaVuSans-70" d="M 1159 525 
L 1159 -1331 
L 581 -1331 
L 581 3500 
L 1159 3500 
L 1159 2969 
Q 1341 3281 1617 3432 
Q 1894 3584 2278 3584 
Q 2916 3584 3314 3078 
Q 3713 2572 3713 1747 
Q 3713 922 3314 415 
Q 2916 -91 2278 -91 
Q 1894 -91 1617 61 
Q 1341 213 1159 525 
z
M 3116 1747 
Q 3116 2381 2855 2742 
Q 2594 3103 2138 3103 
Q 1681 3103 1420 2742 
Q 1159 2381 1159 1747 
Q 1159 1113 1420 752 
Q 1681 391 2138 391 
Q 2594 391 2855 752 
Q 3116 1113 3116 1747 
z
" transform="scale(0.015625)"/>
      <path id="DejaVuSans-6c" d="M 603 4863 
L 1178 4863 
L 1178 0 
L 603 0 
L 603 4863 
z
" transform="scale(0.015625)"/>
     </defs>
     <use xlink:href="#DejaVuSans-4d"/>
     <use xlink:href="#DejaVuSans-65" x="86.279297"/>
     <use xlink:href="#DejaVuSans-61" x="147.802734"/>
     <use xlink:href="#DejaVuSans-6e" x="209.082031"/>
     <use xlink:href="#DejaVuSans-20" x="272.460938"/>
     <use xlink:href="#DejaVuSans-35" x="304.248047"/>
     <use xlink:href="#DejaVuSans-20" x="367.871094"/>
     <use xlink:href="#DejaVuSans-73" x="399.658203"/>
     <use xlink:href="#DejaVuSans-65" x="451.757812"/>
     <use xlink:href="#DejaVuSans-63" x="513.28125"/>
     <use xlink:href="#DejaVuSans-6f" x="568.261719"/>
     <use xlink:href="#DejaVuSans-6e" x="629.443359"/>
     <use xlink:href="#DejaVuSans-64" x="692.822266"/>
     <use xlink:href="#DejaVuSans-73" x="756.298828"/>
     <use xlink:href="#DejaVuSans-20" x="808.398438"/>
     <use xlink:href="#DejaVuSans-70" x="840.185547"/>
     <use xlink:href="#DejaVuSans-6f" x="903.662109"/>
     <use xlink:href="#DejaVuSans-73" x="964.84375"/>
     <use xlink:href="#DejaVuSans-74" x="1016.943359"/>
     <use xlink:href="#DejaVuSans-20" x="1056.152344"/>
     <use xlink:href="#DejaVuSans-72" x="1087.939453"/>
     <use xlink:href="#DejaVuSans-65" x="1126.802734"/>
     <use xlink:href="#DejaVuSans-77" x="1188.326172"/>
     <use xlink:href="#DejaVuSans-61" x="1270.113281"/>
     <use xlink:href="#DejaVuSans-72" x="1331.392578"/>
     <use xlink:href="#DejaVuSans-64" x="1370.755859"/>
     <use xlink:href="#DejaVuSans-20" x="1434.232422"/>
     <use xlink:href="#DejaVuSans-54" x="1466.019531"/>
     <use xlink:href="#DejaVuSans-72" x="1512.353516"/>
     <use xlink:href="#DejaVuSans-69" x="1553.466797"/>
     <use xlink:href="#DejaVuSans-61" x="1581.25"/>
     <use xlink:href="#DejaVuSans-6c" x="1642.529297"/>
     <use xlink:href="#DejaVuSans-73" x="1670.3125"/>
    </g>
   </g>
   <g id="legend_1">
    <g id="patch_7">
     <path d="M 396.009375 64.23625 
L 443 64.23625 
Q 445 64.23625 445 62.23625 
L 445 33.88 
Q 445 31.88 443 31.88 
L 396.009375 31.88 
Q 394.009375 31.88 394.009375 33.88 
L 394.009375 62.23625 
Q 394.009375 64.23625 396.009375 64.23625 
z
" style="fill: #ffffff; opacity: 0.8; stroke: #cccccc; stroke-linejoin: miter"/>
    </g>
    <g id="line2d_15">
     <path d="M 398.009375 39.978437 
L 408.009375 39.978437 
L 418.009375 39.978437 
" style="fill: none; stroke: #1f77b4; stroke-width: 1.5; stroke-linecap: square"/>
    </g>
    <g id="text_15">
     <!-- M5 -->
     <g transform="translate(426.009375 43.478437) scale(0.1 -0.1)">
      <use xlink:href="#DejaVuSans-4d"/>
      <use xlink:href="#DejaVuSans-35" x="86.279297"/>
     </g>
    </g>
    <g id="line2d_16">
     <path d="M 398.009375 54.656563 
L 408.009375 54.656563 
L 418.009375 54.656563 
" style="fill: none; stroke: #ff7f0e; stroke-width: 1.5; stroke-linecap: square"/>
    </g>
    <g id="text_16">
     <!-- M6 -->
     <g transform="translate(426.009375 58.156563) scale(0.1 -0.1)">
      <use xlink:href="#DejaVuSans-4d"/>
      <use xlink:href="#DejaVuSans-36" x="86.279297"/>
     </g>
    </g>
   </g>
  </g>
 </g>
 <defs>
  <clipPath id="p14932f386a">
   <rect x="41.92" y="26.88" width="408.08" height="276.76"/>
  </clipPath>
 </defs>
</svg>
