<?xml version="1.0" encoding="utf-8" standalone="no"?>
<!DOCTYPE svg PUBLIC "-//W3C//DTD SVG 1.1//EN"
  "http://www.w3.org/Graphics/SVG/1.1/DTD/svg11.dtd">
<svg xmlns:xlink="http://www.w3.org/1999/xlink" width="720pt" height="360pt" viewBox="0 0 720 360" xmlns="http://www.w3.org/2000/svg" version="1.1">
 <metadata>
  <rdf:RDF xmlns:dc="http://purl.org/dc/elements/1.1/" xmlns:cc="http://creativecommons.org/ns#" xmlns:rdf="http://www.w3.org/1999/02/22-rdf-syntax-ns#">
   <cc:Work>
    <dc:type rdf:resource="http://purl.org/dc/dcmitype/StillImage"/>
    <dc:date>2023-09-07T14:19:07.588220</dc:date>
    <dc:format>image/svg+xml</dc:format>
    <dc:creator>
     <cc:Agent>
      <dc:title>Matplotlib v3.7.2, https://matplotlib.org/</dc:title>
     </cc:Agent>
    </dc:creator>
   </cc:Work>
  </rdf:RDF>
 </metadata>
 <defs>
  <style type="text/css">*{stroke-linejoin: round; stroke-linecap: butt}</style>
 </defs>
 <g id="figure_1">
  <g id="patch_1">
   <path d="M 0 360 
L 720 360 
L 720 0 
L 0 0 
z
" style="fill: #ffffff"/>
  </g>
  <g id="axes_1">
   <g id="patch_2">
    <path d="M 90 320.4 
L 648 320.4 
L 648 43.2 
L 90 43.2 
z
" style="fill: #ffffff"/>
   </g>
   <g id="PolyCollection_1">
    <path d="M 149.181818 307.799739 
L 115.363636 307.799739 
L 115.382587 306.746404 
L 115.743249 305.693069 
L 116.412603 304.639735 
L 117.338708 303.5864 
L 118.456485 302.533065 
L 119.694561 301.47973 
L 120.982189 300.426395 
L 122.255351 299.37306 
L 123.461372 298.319725 
L 124.561645 297.26639 
L 125.532425 296.213055 
L 126.363906 295.15972 
L 127.058003 294.106385 
L 127.625362 293.05305 
L 128.08213 291.999716 
L 128.446903 290.946381 
L 128.738218 289.893046 
L 128.972722 288.839711 
L 129.164109 287.786376 
L 129.322739 286.733041 
L 129.455817 285.679706 
L 129.567959 284.626371 
L 129.661967 283.573036 
L 129.739638 282.519701 
L 129.802493 281.466366 
L 129.852318 280.413031 
L 129.891478 279.359697 
L 129.922984 278.306362 
L 129.950349 277.253027 
L 129.977262 276.199692 
L 130.007183 275.146357 
L 130.042896 274.093022 
L 130.08614 273.039687 
L 130.137345 271.986352 
L 130.19555 270.933017 
L 130.258504 269.879682 
L 130.322948 268.826347 
L 130.385031 267.773012 
L 130.440821 266.719678 
L 130.48681 265.666343 
L 130.520372 264.613008 
L 130.540093 263.559673 
L 130.545941 262.506338 
L 130.539258 261.453003 
L 130.522576 260.399668 
L 130.499296 259.346333 
L 130.473281 258.292998 
L 130.44841 257.239663 
L 130.428172 256.186328 
L 130.415336 255.132994 
L 130.411742 254.079659 
L 130.418223 253.026324 
L 130.434651 251.972989 
L 130.460092 250.919654 
L 130.49302 249.866319 
L 130.531563 248.812984 
L 130.573737 247.759649 
L 130.617647 246.706314 
L 130.661637 245.652979 
L 130.704389 244.599644 
L 130.744969 243.546309 
L 130.78284 242.492975 
L 130.817841 241.43964 
L 130.850159 240.386305 
L 130.880283 239.33297 
L 130.908959 238.279635 
L 130.937144 237.2263 
L 130.965942 236.172965 
L 130.996542 235.11963 
L 131.030142 234.066295 
L 131.067852 233.01296 
L 131.1106 231.959625 
L 131.159031 230.90629 
L 131.213418 229.852956 
L 131.273603 228.799621 
L 131.338976 227.746286 
L 131.408499 226.692951 
L 131.480783 225.639616 
L 131.554198 224.586281 
L 131.627018 223.532946 
L 131.697564 222.479611 
L 131.76434 221.426276 
L 131.826134 220.372941 
L 131.882085 219.319606 
L 131.931704 218.266271 
L 131.974856 217.212937 
L 132.011712 216.159602 
L 132.042686 215.106267 
L 132.068365 214.052932 
L 132.089437 212.999597 
L 132.106634 211.946262 
L 132.120685 210.892927 
L 132.132286 209.839592 
L 132.14207 208.786257 
L 132.150599 207.732922 
L 132.15835 206.679587 
L 132.165709 205.626252 
L 132.172969 204.572918 
L 132.180331 203.519583 
L 132.365124 203.519583 
L 132.365124 203.519583 
L 132.372485 204.572918 
L 132.379746 205.626252 
L 132.387105 206.679587 
L 132.394856 207.732922 
L 132.403385 208.786257 
L 132.413169 209.839592 
L 132.424769 210.892927 
L 132.438821 211.946262 
L 132.456018 212.999597 
L 132.477089 214.052932 
L 132.502768 215.106267 
L 132.533743 216.159602 
L 132.570599 217.212937 
L 132.61375 218.266271 
L 132.663369 219.319606 
L 132.719321 220.372941 
L 132.781115 221.426276 
L 132.84789 222.479611 
L 132.918436 223.532946 
L 132.991256 224.586281 
L 133.064672 225.639616 
L 133.136955 226.692951 
L 133.206479 227.746286 
L 133.271852 228.799621 
L 133.332037 229.852956 
L 133.386424 230.90629 
L 133.434854 231.959625 
L 133.477603 233.01296 
L 133.515313 234.066295 
L 133.548912 235.11963 
L 133.579513 236.172965 
L 133.60831 237.2263 
L 133.636495 238.279635 
L 133.665172 239.33297 
L 133.695296 240.386305 
L 133.727613 241.43964 
L 133.762615 242.492975 
L 133.800486 243.546309 
L 133.841066 244.599644 
L 133.883818 245.652979 
L 133.927808 246.706314 
L 133.971717 247.759649 
L 134.013891 248.812984 
L 134.052434 249.866319 
L 134.085363 250.919654 
L 134.110804 251.972989 
L 134.127232 253.026324 
L 134.133712 254.079659 
L 134.130118 255.132994 
L 134.117282 256.186328 
L 134.097044 257.239663 
L 134.072173 258.292998 
L 134.046158 259.346333 
L 134.022879 260.399668 
L 134.006196 261.453003 
L 133.999513 262.506338 
L 134.005361 263.559673 
L 134.025082 264.613008 
L 134.058644 265.666343 
L 134.104633 266.719678 
L 134.160423 267.773012 
L 134.222507 268.826347 
L 134.28695 269.879682 
L 134.349904 270.933017 
L 134.408109 271.986352 
L 134.459314 273.039687 
L 134.502558 274.093022 
L 134.538272 275.146357 
L 134.568192 276.199692 
L 134.595106 277.253027 
L 134.62247 278.306362 
L 134.653977 279.359697 
L 134.693137 280.413031 
L 134.742962 281.466366 
L 134.805816 282.519701 
L 134.883487 283.573036 
L 134.977495 284.626371 
L 135.089638 285.679706 
L 135.222716 286.733041 
L 135.381346 287.786376 
L 135.572733 288.839711 
L 135.807237 289.893046 
L 136.098551 290.946381 
L 136.463325 291.999716 
L 136.920092 293.05305 
L 137.487452 294.106385 
L 138.181549 295.15972 
L 139.01303 296.213055 
L 139.98381 297.26639 
L 141.084083 298.319725 
L 142.290103 299.37306 
L 143.563266 300.426395 
L 144.850893 301.47973 
L 146.08897 302.533065 
L 147.206747 303.5864 
L 148.132851 304.639735 
L 148.802205 305.693069 
L 149.162867 306.746404 
L 149.181818 307.799739 
z
" clip-path="url(#p5492cba006)" style="fill: #1f77b4; fill-opacity: 0.3"/>
   </g>
   <g id="PolyCollection_2">
    <path d="M 216.818182 307.79887 
L 183 307.79887 
L 183.027335 306.570001 
L 183.535481 305.341132 
L 184.46204 304.112262 
L 185.710835 302.883393 
L 187.166905 301.654524 
L 188.712797 300.425655 
L 190.243061 299.196785 
L 191.674635 297.967916 
L 192.952007 296.739047 
L 194.047314 295.510177 
L 194.956457 294.281308 
L 195.692857 293.052439 
L 196.28047 291.823569 
L 196.747417 290.5947 
L 197.121038 289.365831 
L 197.424739 288.136962 
L 197.676541 286.908092 
L 197.888997 285.679223 
L 198.070023 284.450354 
L 198.224176 283.221484 
L 198.353988 281.992615 
L 198.461112 280.763746 
L 198.547099 279.534876 
L 198.613819 278.306007 
L 198.663529 277.077138 
L 198.698716 275.848268 
L 198.721811 274.619399 
L 198.734877 273.39053 
L 198.739381 272.161661 
L 198.736088 270.932791 
L 198.725113 269.703922 
L 198.706136 268.475053 
L 198.67872 267.246183 
L 198.642699 266.017314 
L 198.598555 264.788445 
L 198.547699 263.559575 
L 198.492606 262.330706 
L 198.436733 261.101837 
L 198.384215 259.872967 
L 198.339358 258.644098 
L 198.306017 257.415229 
L 198.286955 256.18636 
L 198.283347 254.95749 
L 198.294522 253.728621 
L 198.318027 252.499752 
L 198.350015 251.270882 
L 198.385881 250.042013 
L 198.421032 248.813144 
L 198.451629 247.584274 
L 198.475188 246.355405 
L 198.49092 245.126536 
L 198.499786 243.897667 
L 198.504254 242.668797 
L 198.507841 241.439928 
L 198.514526 240.211059 
L 198.528134 238.982189 
L 198.551826 237.75332 
L 198.587752 236.524451 
L 198.63691 235.295581 
L 198.699192 234.066712 
L 198.773563 232.837843 
L 198.858296 231.608973 
L 198.951196 230.380104 
L 199.049769 229.151235 
L 199.151346 227.922366 
L 199.253171 226.693496 
L 199.352498 225.464627 
L 199.446717 224.235758 
L 199.533511 223.006888 
L 199.611015 221.778019 
L 199.677951 220.54915 
L 199.733701 219.32028 
L 199.7783 218.091411 
L 199.812352 216.862542 
L 199.836902 215.633673 
L 199.853276 214.404803 
L 199.862933 213.175934 
L 199.867354 211.947065 
L 199.867952 210.718195 
L 199.866023 209.489326 
L 199.862717 208.260457 
L 199.859005 207.031587 
L 199.855663 205.802718 
L 199.85324 204.573849 
L 199.852042 203.344979 
L 199.852126 202.11611 
L 199.85332 200.887241 
L 199.855267 199.658372 
L 199.857496 198.429502 
L 199.859512 197.200633 
L 199.860884 195.971764 
L 199.861324 194.742894 
L 199.860743 193.514025 
L 199.859262 192.285156 
L 199.857195 191.056286 
L 199.854992 189.827417 
L 199.853161 188.598548 
L 199.852179 187.369679 
L 199.852418 186.140809 
L 199.965764 186.140809 
L 199.965764 186.140809 
L 199.966002 187.369679 
L 199.965021 188.598548 
L 199.963189 189.827417 
L 199.960986 191.056286 
L 199.95892 192.285156 
L 199.957439 193.514025 
L 199.956858 194.742894 
L 199.957298 195.971764 
L 199.95867 197.200633 
L 199.960686 198.429502 
L 199.962915 199.658372 
L 199.964862 200.887241 
L 199.966056 202.11611 
L 199.96614 203.344979 
L 199.964942 204.573849 
L 199.962519 205.802718 
L 199.959177 207.031587 
L 199.955465 208.260457 
L 199.952158 209.489326 
L 199.95023 210.718195 
L 199.950828 211.947065 
L 199.955249 213.175934 
L 199.964906 214.404803 
L 199.981279 215.633673 
L 200.005829 216.862542 
L 200.039882 218.091411 
L 200.084481 219.32028 
L 200.140231 220.54915 
L 200.207167 221.778019 
L 200.284671 223.006888 
L 200.371465 224.235758 
L 200.465684 225.464627 
L 200.565011 226.693496 
L 200.666836 227.922366 
L 200.768413 229.151235 
L 200.866986 230.380104 
L 200.959886 231.608973 
L 201.044619 232.837843 
L 201.11899 234.066712 
L 201.181271 235.295581 
L 201.23043 236.524451 
L 201.266356 237.75332 
L 201.290048 238.982189 
L 201.303656 240.211059 
L 201.31034 241.439928 
L 201.313928 242.668797 
L 201.318396 243.897667 
L 201.327261 245.126536 
L 201.342994 246.355405 
L 201.366553 247.584274 
L 201.39715 248.813144 
L 201.432301 250.042013 
L 201.468167 251.270882 
L 201.500155 252.499752 
L 201.52366 253.728621 
L 201.534834 254.95749 
L 201.531227 256.18636 
L 201.512165 257.415229 
L 201.478823 258.644098 
L 201.433967 259.872967 
L 201.381448 261.101837 
L 201.325575 262.330706 
L 201.270483 263.559575 
L 201.219627 264.788445 
L 201.175483 266.017314 
L 201.139462 267.246183 
L 201.112046 268.475053 
L 201.093068 269.703922 
L 201.082094 270.932791 
L 201.078801 272.161661 
L 201.083305 273.39053 
L 201.096371 274.619399 
L 201.119466 275.848268 
L 201.154653 277.077138 
L 201.204363 278.306007 
L 201.271082 279.534876 
L 201.35707 280.763746 
L 201.464193 281.992615 
L 201.594006 283.221484 
L 201.748158 284.450354 
L 201.929185 285.679223 
L 202.141641 286.908092 
L 202.393443 288.136962 
L 202.697144 289.365831 
L 203.070765 290.5947 
L 203.537711 291.823569 
L 204.125325 293.052439 
L 204.861725 294.281308 
L 205.770868 295.510177 
L 206.866175 296.739047 
L 208.143547 297.967916 
L 209.57512 299.196785 
L 211.105385 300.425655 
L 212.651277 301.654524 
L 214.107347 302.883393 
L 215.356142 304.112262 
L 216.282701 305.341132 
L 216.790847 306.570001 
L 216.818182 307.79887 
z
" clip-path="url(#p5492cba006)" style="fill: #1f77b4; fill-opacity: 0.3"/>
   </g>
   <g id="PolyCollection_3">
    <path d="M 283.588805 307.79224 
L 251.502104 307.79224 
L 251.169422 307.002293 
L 250.916844 306.212345 
L 250.744823 305.422398 
L 250.652212 304.63245 
L 250.636364 303.842503 
L 250.693278 303.052555 
L 250.817793 302.262608 
L 251.003803 301.47266 
L 251.2445 300.682713 
L 251.532618 299.892765 
L 251.860679 299.102818 
L 252.221219 298.31287 
L 252.606995 297.522923 
L 253.011165 296.732975 
L 253.427426 295.943028 
L 253.850121 295.15308 
L 254.274309 294.363133 
L 254.695796 293.573186 
L 255.111135 292.783238 
L 255.517601 291.993291 
L 255.913137 291.203343 
L 256.296291 290.413396 
L 256.666133 289.623448 
L 257.022172 288.833501 
L 257.364272 288.043553 
L 257.692564 287.253606 
L 258.007376 286.463658 
L 258.309156 285.673711 
L 258.598421 284.883763 
L 258.875701 284.093816 
L 259.141506 283.303868 
L 259.396293 282.513921 
L 259.640447 281.723973 
L 259.874268 280.934026 
L 260.097968 280.144078 
L 260.311662 279.354131 
L 260.515378 278.564183 
L 260.709061 277.774236 
L 260.892584 276.984288 
L 261.065755 276.194341 
L 261.228336 275.404393 
L 261.380058 274.614446 
L 261.520633 273.824498 
L 261.649782 273.034551 
L 261.767246 272.244603 
L 261.872816 271.454656 
L 261.96635 270.664708 
L 262.047796 269.874761 
L 262.117215 269.084813 
L 262.174801 268.294866 
L 262.220894 267.504918 
L 262.255998 266.714971 
L 262.280787 265.925023 
L 262.296108 265.135076 
L 262.302977 264.345128 
L 262.30257 263.555181 
L 262.296203 262.765233 
L 262.285312 261.975286 
L 262.271419 261.185338 
L 262.256098 260.395391 
L 262.240939 259.605443 
L 262.227502 258.815496 
L 262.217276 258.025548 
L 262.211637 257.235601 
L 262.211812 256.445653 
L 262.21884 255.655706 
L 262.233546 254.865758 
L 262.256519 254.075811 
L 262.288095 253.285863 
L 262.328357 252.495916 
L 262.377135 251.705968 
L 262.434019 250.916021 
L 262.49838 250.126073 
L 262.5694 249.336126 
L 262.646103 248.546178 
L 262.727402 247.756231 
L 262.812135 246.966283 
L 262.89912 246.176336 
L 262.987196 245.386388 
L 263.075273 244.596441 
L 263.162375 243.806493 
L 263.247677 243.016546 
L 263.33054 242.226598 
L 263.410538 241.436651 
L 263.487471 240.646703 
L 263.561378 239.856756 
L 263.63253 239.066808 
L 263.701422 238.276861 
L 263.76875 237.486914 
L 263.835377 236.696966 
L 263.902299 235.907019 
L 263.970596 235.117071 
L 264.041386 234.327124 
L 264.11577 233.537176 
L 264.194779 232.747229 
L 264.279331 231.957281 
L 264.370179 231.167334 
L 264.467878 230.377386 
L 264.572754 229.587439 
L 270.518155 229.587439 
L 270.518155 229.587439 
L 270.623031 230.377386 
L 270.72073 231.167334 
L 270.811578 231.957281 
L 270.89613 232.747229 
L 270.97514 233.537176 
L 271.049523 234.327124 
L 271.120313 235.117071 
L 271.188611 235.907019 
L 271.255532 236.696966 
L 271.322159 237.486914 
L 271.389487 238.276861 
L 271.458379 239.066808 
L 271.529531 239.856756 
L 271.603438 240.646703 
L 271.680371 241.436651 
L 271.760369 242.226598 
L 271.843232 243.016546 
L 271.928534 243.806493 
L 272.015636 244.596441 
L 272.103713 245.386388 
L 272.191789 246.176336 
L 272.278774 246.966283 
L 272.363507 247.756231 
L 272.444806 248.546178 
L 272.521509 249.336126 
L 272.592529 250.126073 
L 272.65689 250.916021 
L 272.713774 251.705968 
L 272.762552 252.495916 
L 272.802814 253.285863 
L 272.83439 254.075811 
L 272.857363 254.865758 
L 272.872069 255.655706 
L 272.879097 256.445653 
L 272.879272 257.235601 
L 272.873633 258.025548 
L 272.863407 258.815496 
L 272.84997 259.605443 
L 272.834811 260.395391 
L 272.81949 261.185338 
L 272.805597 261.975286 
L 272.794706 262.765233 
L 272.788339 263.555181 
L 272.787932 264.345128 
L 272.794801 265.135076 
L 272.810122 265.925023 
L 272.834911 266.714971 
L 272.870016 267.504918 
L 272.916109 268.294866 
L 272.973694 269.084813 
L 273.043113 269.874761 
L 273.124559 270.664708 
L 273.218093 271.454656 
L 273.323663 272.244603 
L 273.441127 273.034551 
L 273.570276 273.824498 
L 273.710851 274.614446 
L 273.862573 275.404393 
L 274.025154 276.194341 
L 274.198325 276.984288 
L 274.381848 277.774236 
L 274.575531 278.564183 
L 274.779247 279.354131 
L 274.992941 280.144078 
L 275.216641 280.934026 
L 275.450463 281.723973 
L 275.694617 282.513921 
L 275.949403 283.303868 
L 276.215208 284.093816 
L 276.492488 284.883763 
L 276.781753 285.673711 
L 277.083533 286.463658 
L 277.398345 287.253606 
L 277.726637 288.043553 
L 278.068737 288.833501 
L 278.424776 289.623448 
L 278.794618 290.413396 
L 279.177772 291.203343 
L 279.573308 291.993291 
L 279.979774 292.783238 
L 280.395113 293.573186 
L 280.8166 294.363133 
L 281.240788 295.15308 
L 281.663483 295.943028 
L 282.079744 296.732975 
L 282.483914 297.522923 
L 282.86969 298.31287 
L 283.23023 299.102818 
L 283.558291 299.892765 
L 283.846409 300.682713 
L 284.087106 301.47266 
L 284.273117 302.262608 
L 284.397631 303.052555 
L 284.454545 303.842503 
L 284.438697 304.63245 
L 284.346086 305.422398 
L 284.174065 306.212345 
L 283.921487 307.002293 
L 283.588805 307.79224 
z
" clip-path="url(#p5492cba006)" style="fill: #1f77b4; fill-opacity: 0.3"/>
   </g>
   <g id="PolyCollection_4">
    <path d="M 351.465875 307.79529 
L 318.897762 307.79529 
L 318.58196 306.917567 
L 318.373888 306.039843 
L 318.272727 305.16212 
L 318.274923 304.284396 
L 318.374421 303.406673 
L 318.563005 302.52895 
L 318.830709 301.651226 
L 319.166284 300.773503 
L 319.557684 299.895779 
L 319.992552 299.018056 
L 320.45867 298.140332 
L 320.944364 297.262609 
L 321.438838 296.384885 
L 321.93243 295.507162 
L 322.416793 294.629438 
L 322.884986 293.751715 
L 323.331509 292.873991 
L 323.752253 291.996268 
L 324.14442 291.118545 
L 324.506391 290.240821 
L 324.83758 289.363098 
L 325.138269 288.485374 
L 325.409451 287.607651 
L 325.652673 286.729927 
L 325.8699 285.852204 
L 326.063388 284.97448 
L 326.235586 284.096757 
L 326.389047 283.219033 
L 326.526362 282.34131 
L 326.650099 281.463586 
L 326.762764 280.585863 
L 326.866762 279.708139 
L 326.964361 278.830416 
L 327.05767 277.952693 
L 327.148606 277.074969 
L 327.238878 276.197246 
L 327.329959 275.319522 
L 327.423073 274.441799 
L 327.519183 273.564075 
L 327.618981 272.686352 
L 327.722893 271.808628 
L 327.831083 270.930905 
L 327.943474 270.053181 
L 328.059764 269.175458 
L 328.179461 268.297734 
L 328.301916 267.420011 
L 328.426357 266.542288 
L 328.551929 265.664564 
L 328.67773 264.786841 
L 328.802844 263.909117 
L 328.926373 263.031394 
L 329.047459 262.15367 
L 329.165304 261.275947 
L 329.279183 260.398223 
L 329.38845 259.5205 
L 329.492549 258.642776 
L 329.591008 257.765053 
L 329.683442 256.887329 
L 329.769557 256.009606 
L 329.849148 255.131882 
L 329.922102 254.254159 
L 329.988409 253.376436 
L 330.048164 252.498712 
L 330.101584 251.620989 
L 330.149014 250.743265 
L 330.190939 249.865542 
L 330.227994 248.987818 
L 330.260965 248.110095 
L 330.29079 247.232371 
L 330.318554 246.354648 
L 330.345469 245.476924 
L 330.37286 244.599201 
L 330.402129 243.721477 
L 330.434722 242.843754 
L 330.472091 241.966031 
L 330.515646 241.088307 
L 330.566713 240.210584 
L 330.62649 239.33286 
L 330.696003 238.455137 
L 330.776074 237.577413 
L 330.867289 236.69969 
L 330.96998 235.821966 
L 331.084207 234.944243 
L 331.209763 234.066519 
L 331.346176 233.188796 
L 331.492721 232.311072 
L 331.648447 231.433349 
L 331.812206 230.555625 
L 331.982682 229.677902 
L 332.158433 228.800179 
L 332.337928 227.922455 
L 332.519591 227.044732 
L 332.701834 226.167008 
L 332.883101 225.289285 
L 333.0619 224.411561 
L 333.236834 223.533838 
L 333.406626 222.656114 
L 333.570144 221.778391 
L 333.726413 220.900667 
L 336.637223 220.900667 
L 336.637223 220.900667 
L 336.793493 221.778391 
L 336.957011 222.656114 
L 337.126803 223.533838 
L 337.301736 224.411561 
L 337.480535 225.289285 
L 337.661802 226.167008 
L 337.844045 227.044732 
L 338.025708 227.922455 
L 338.205204 228.800179 
L 338.380955 229.677902 
L 338.551431 230.555625 
L 338.715189 231.433349 
L 338.870916 232.311072 
L 339.017461 233.188796 
L 339.153873 234.066519 
L 339.279429 234.944243 
L 339.393657 235.821966 
L 339.496347 236.69969 
L 339.587562 237.577413 
L 339.667633 238.455137 
L 339.737146 239.33286 
L 339.796923 240.210584 
L 339.84799 241.088307 
L 339.891545 241.966031 
L 339.928914 242.843754 
L 339.961507 243.721477 
L 339.990776 244.599201 
L 340.018167 245.476924 
L 340.045083 246.354648 
L 340.072846 247.232371 
L 340.102671 248.110095 
L 340.135642 248.987818 
L 340.172697 249.865542 
L 340.214622 250.743265 
L 340.262052 251.620989 
L 340.315472 252.498712 
L 340.375228 253.376436 
L 340.441534 254.254159 
L 340.514488 255.131882 
L 340.594079 256.009606 
L 340.680194 256.887329 
L 340.772629 257.765053 
L 340.871087 258.642776 
L 340.975186 259.5205 
L 341.084454 260.398223 
L 341.198332 261.275947 
L 341.316177 262.15367 
L 341.437263 263.031394 
L 341.560793 263.909117 
L 341.685907 264.786841 
L 341.811707 265.664564 
L 341.937279 266.542288 
L 342.06172 267.420011 
L 342.184175 268.297734 
L 342.303873 269.175458 
L 342.420163 270.053181 
L 342.532553 270.930905 
L 342.640743 271.808628 
L 342.744655 272.686352 
L 342.844453 273.564075 
L 342.940563 274.441799 
L 343.033678 275.319522 
L 343.124758 276.197246 
L 343.21503 277.074969 
L 343.305967 277.952693 
L 343.399275 278.830416 
L 343.496874 279.708139 
L 343.600872 280.585863 
L 343.713538 281.463586 
L 343.837275 282.34131 
L 343.974589 283.219033 
L 344.128051 284.096757 
L 344.300249 284.97448 
L 344.493737 285.852204 
L 344.710963 286.729927 
L 344.954185 287.607651 
L 345.225367 288.485374 
L 345.526056 289.363098 
L 345.857245 290.240821 
L 346.219216 291.118545 
L 346.611383 291.996268 
L 347.032127 292.873991 
L 347.47865 293.751715 
L 347.946844 294.629438 
L 348.431206 295.507162 
L 348.924798 296.384885 
L 349.419272 297.262609 
L 349.904967 298.140332 
L 350.371085 299.018056 
L 350.805952 299.895779 
L 351.197352 300.773503 
L 351.532927 301.651226 
L 351.800631 302.52895 
L 351.989215 303.406673 
L 352.088713 304.284396 
L 352.090909 305.16212 
L 351.989748 306.039843 
L 351.781677 306.917567 
L 351.465875 307.79529 
z
" clip-path="url(#p5492cba006)" style="fill: #1f77b4; fill-opacity: 0.3"/>
   </g>
   <g id="PolyCollection_5">
    <path d="M 419.693319 307.799887 
L 385.943044 307.799887 
L 385.909091 305.34212 
L 386.787207 302.884354 
L 388.359586 300.426587 
L 390.315574 297.96882 
L 392.339806 295.511054 
L 394.184428 293.053287 
L 395.704885 290.59552 
L 396.857745 288.137753 
L 397.67355 285.679987 
L 398.22208 283.22222 
L 398.583176 280.764453 
L 398.828542 278.306687 
L 399.013685 275.84892 
L 399.176401 273.391153 
L 399.338427 270.933387 
L 399.5083 268.47562 
L 399.684679 266.017853 
L 399.859878 263.560086 
L 400.023372 261.10232 
L 400.164865 258.644553 
L 400.276571 256.186786 
L 400.354491 253.72902 
L 400.398741 251.271253 
L 400.413135 248.813486 
L 400.404312 246.35572 
L 400.380694 243.897953 
L 400.351439 241.440186 
L 400.325483 238.98242 
L 400.310656 236.524653 
L 400.312864 234.066886 
L 400.335399 231.609119 
L 400.378494 229.151353 
L 400.439321 226.693586 
L 400.512526 224.235819 
L 400.591285 221.778053 
L 400.668635 219.320286 
L 400.73879 216.862519 
L 400.798101 214.404753 
L 400.845498 211.946986 
L 400.882414 209.489219 
L 400.912311 207.031452 
L 400.94003 204.573686 
L 400.971167 202.115919 
L 401.011564 199.658152 
L 401.066906 197.200386 
L 401.142271 194.742619 
L 401.241473 192.284852 
L 401.366183 189.827086 
L 401.515006 187.369319 
L 401.682932 184.911552 
L 401.86157 182.453786 
L 402.040345 179.996019 
L 402.208428 177.538252 
L 402.35682 175.080485 
L 402.479891 172.622719 
L 402.57592 170.164952 
L 402.646605 167.707185 
L 402.695862 165.249419 
L 402.728442 162.791652 
L 402.748809 160.333885 
L 402.760509 157.876119 
L 402.766041 155.418352 
L 402.767073 152.960585 
L 402.764783 150.502818 
L 402.76014 148.045052 
L 402.754026 145.587285 
L 402.747214 143.129518 
L 402.74029 140.671752 
L 402.733631 138.213985 
L 402.72749 135.756218 
L 402.722143 133.298452 
L 402.718003 130.840685 
L 402.715615 128.382918 
L 402.715509 125.925151 
L 402.717994 123.467385 
L 402.722991 121.009618 
L 402.730013 118.551851 
L 402.738267 116.094085 
L 402.746836 113.636318 
L 402.75484 111.178551 
L 402.761532 108.720785 
L 402.766336 106.263018 
L 402.768876 103.805251 
L 402.769035 101.347485 
L 402.767022 98.889718 
L 402.763397 96.431951 
L 402.758983 93.974184 
L 402.754682 91.516418 
L 402.751231 89.058651 
L 402.749006 86.600884 
L 402.747962 84.143118 
L 402.74773 81.685351 
L 402.747839 79.227584 
L 402.747954 76.769818 
L 402.748058 74.312051 
L 402.748492 71.854284 
L 402.749843 69.396517 
L 402.752729 66.938751 
L 402.757549 64.480984 
L 402.878814 64.480984 
L 402.878814 64.480984 
L 402.883635 66.938751 
L 402.88652 69.396517 
L 402.887872 71.854284 
L 402.888306 74.312051 
L 402.88841 76.769818 
L 402.888525 79.227584 
L 402.888633 81.685351 
L 402.888402 84.143118 
L 402.887357 86.600884 
L 402.885132 89.058651 
L 402.881681 91.516418 
L 402.877381 93.974184 
L 402.872967 96.431951 
L 402.869341 98.889718 
L 402.867329 101.347485 
L 402.867488 103.805251 
L 402.870028 106.263018 
L 402.874831 108.720785 
L 402.881524 111.178551 
L 402.889528 113.636318 
L 402.898097 116.094085 
L 402.90635 118.551851 
L 402.913372 121.009618 
L 402.91837 123.467385 
L 402.920855 125.925151 
L 402.920749 128.382918 
L 402.918361 130.840685 
L 402.914221 133.298452 
L 402.908874 135.756218 
L 402.902733 138.213985 
L 402.896074 140.671752 
L 402.889149 143.129518 
L 402.882337 145.587285 
L 402.876224 148.045052 
L 402.871581 150.502818 
L 402.869291 152.960585 
L 402.870323 155.418352 
L 402.875855 157.876119 
L 402.887555 160.333885 
L 402.907922 162.791652 
L 402.940502 165.249419 
L 402.989758 167.707185 
L 403.060443 170.164952 
L 403.156473 172.622719 
L 403.279543 175.080485 
L 403.427936 177.538252 
L 403.596019 179.996019 
L 403.774793 182.453786 
L 403.953432 184.911552 
L 404.121358 187.369319 
L 404.270181 189.827086 
L 404.39489 192.284852 
L 404.494092 194.742619 
L 404.569457 197.200386 
L 404.6248 199.658152 
L 404.665197 202.115919 
L 404.696333 204.573686 
L 404.724053 207.031452 
L 404.753949 209.489219 
L 404.790866 211.946986 
L 404.838263 214.404753 
L 404.897573 216.862519 
L 404.967729 219.320286 
L 405.045079 221.778053 
L 405.123837 224.235819 
L 405.197043 226.693586 
L 405.25787 229.151353 
L 405.300965 231.609119 
L 405.3235 234.066886 
L 405.325708 236.524653 
L 405.31088 238.98242 
L 405.284924 241.440186 
L 405.25567 243.897953 
L 405.232051 246.35572 
L 405.223229 248.813486 
L 405.237623 251.271253 
L 405.281873 253.72902 
L 405.359793 256.186786 
L 405.471498 258.644553 
L 405.612992 261.10232 
L 405.776486 263.560086 
L 405.951685 266.017853 
L 406.128063 268.47562 
L 406.297937 270.933387 
L 406.459962 273.391153 
L 406.622678 275.84892 
L 406.807822 278.306687 
L 407.053188 280.764453 
L 407.414284 283.22222 
L 407.962814 285.679987 
L 408.778619 288.137753 
L 409.931479 290.59552 
L 411.451936 293.053287 
L 413.296558 295.511054 
L 415.320789 297.96882 
L 417.276777 300.426587 
L 418.849156 302.884354 
L 419.727273 305.34212 
L 419.693319 307.799887 
z
" clip-path="url(#p5492cba006)" style="fill: #1f77b4; fill-opacity: 0.3"/>
   </g>
   <g id="PolyCollection_6">
    <path d="M 487.363636 307.8 
L 453.545455 307.8 
L 454.439718 305.254545 
L 457.206429 302.709091 
L 460.744586 300.163636 
L 463.972219 297.618182 
L 466.310858 295.072727 
L 467.727105 292.527273 
L 468.4811 289.981818 
L 468.864168 287.436364 
L 469.073404 284.890909 
L 469.206621 282.345455 
L 469.302586 279.8 
L 469.375905 277.254545 
L 469.434169 274.709091 
L 469.482815 272.163636 
L 469.525038 269.618182 
L 469.561617 267.072727 
L 469.592154 264.527273 
L 469.616527 261.981818 
L 469.635489 259.436364 
L 469.650539 256.890909 
L 469.663214 254.345455 
L 469.674255 251.8 
L 469.683672 249.254545 
L 469.69172 246.709091 
L 469.699753 244.163636 
L 469.710455 241.618182 
L 469.72737 239.072727 
L 469.75353 236.527273 
L 469.789991 233.981818 
L 469.835503 231.436364 
L 469.886786 228.890909 
L 469.938309 226.345455 
L 469.982582 223.8 
L 470.012684 221.254545 
L 470.026071 218.709091 
L 470.026531 216.163636 
L 470.022197 213.618182 
L 470.020618 211.072727 
L 470.024473 208.527273 
L 470.031115 205.981818 
L 470.035779 203.436364 
L 470.035383 200.890909 
L 470.030116 198.345455 
L 470.022164 195.8 
L 470.012805 193.254545 
L 470.000416 190.709091 
L 469.981688 188.163636 
L 469.955995 185.618182 
L 469.930029 183.072727 
L 469.918481 180.527273 
L 469.937965 177.981818 
L 469.996479 175.436364 
L 470.086346 172.890909 
L 470.187442 170.345455 
L 470.278411 167.8 
L 470.346573 165.254545 
L 470.390081 162.709091 
L 470.413913 160.163636 
L 470.424984 157.618182 
L 470.429408 155.072727 
L 470.431651 152.527273 
L 470.434337 149.981818 
L 470.438273 147.436364 
L 470.442878 144.890909 
L 470.446995 142.345455 
L 470.44965 139.8 
L 470.450373 137.254545 
L 470.449143 134.709091 
L 470.446247 132.163636 
L 470.442226 129.618182 
L 470.437812 127.072727 
L 470.433804 124.527273 
L 470.430954 121.981818 
L 470.429894 119.436364 
L 470.430997 116.890909 
L 470.434091 114.345455 
L 470.438295 111.8 
L 470.44228 109.254545 
L 470.444878 106.709091 
L 470.445596 104.163636 
L 470.444681 101.618182 
L 470.44283 99.072727 
L 470.440865 96.527273 
L 470.439554 93.981818 
L 470.43947 91.436364 
L 470.440771 88.890909 
L 470.443022 86.345455 
L 470.445323 83.8 
L 470.446746 81.254545 
L 470.446781 78.709091 
L 470.445474 76.163636 
L 470.443243 73.618182 
L 470.4406 71.072727 
L 470.43801 68.527273 
L 470.435868 65.981818 
L 470.434508 63.436364 
L 470.434193 60.890909 
L 470.435102 58.345455 
L 470.43728 55.8 
L 470.471811 55.8 
L 470.471811 55.8 
L 470.473989 58.345455 
L 470.474897 60.890909 
L 470.474583 63.436364 
L 470.473223 65.981818 
L 470.471081 68.527273 
L 470.468491 71.072727 
L 470.465848 73.618182 
L 470.463616 76.163636 
L 470.46231 78.709091 
L 470.462345 81.254545 
L 470.463768 83.8 
L 470.466069 86.345455 
L 470.46832 88.890909 
L 470.46962 91.436364 
L 470.469537 93.981818 
L 470.468226 96.527273 
L 470.466261 99.072727 
L 470.46441 101.618182 
L 470.463495 104.163636 
L 470.464213 106.709091 
L 470.466811 109.254545 
L 470.470796 111.8 
L 470.475 114.345455 
L 470.478094 116.890909 
L 470.479196 119.436364 
L 470.478137 121.981818 
L 470.475286 124.527273 
L 470.471279 127.072727 
L 470.466865 129.618182 
L 470.462844 132.163636 
L 470.459948 134.709091 
L 470.458718 137.254545 
L 470.459441 139.8 
L 470.462095 142.345455 
L 470.466212 144.890909 
L 470.470818 147.436364 
L 470.474754 149.981818 
L 470.47744 152.527273 
L 470.479683 155.072727 
L 470.484107 157.618182 
L 470.495178 160.163636 
L 470.51901 162.709091 
L 470.562518 165.254545 
L 470.63068 167.8 
L 470.721649 170.345455 
L 470.822745 172.890909 
L 470.912612 175.436364 
L 470.971126 177.981818 
L 470.99061 180.527273 
L 470.979062 183.072727 
L 470.953096 185.618182 
L 470.927403 188.163636 
L 470.908675 190.709091 
L 470.896286 193.254545 
L 470.886927 195.8 
L 470.878975 198.345455 
L 470.873708 200.890909 
L 470.873312 203.436364 
L 470.877976 205.981818 
L 470.884618 208.527273 
L 470.888473 211.072727 
L 470.886894 213.618182 
L 470.88256 216.163636 
L 470.88302 218.709091 
L 470.896407 221.254545 
L 470.926508 223.8 
L 470.970782 226.345455 
L 471.022305 228.890909 
L 471.073588 231.436364 
L 471.1191 233.981818 
L 471.155561 236.527273 
L 471.181721 239.072727 
L 471.198635 241.618182 
L 471.209338 244.163636 
L 471.21737 246.709091 
L 471.225419 249.254545 
L 471.234836 251.8 
L 471.245877 254.345455 
L 471.258552 256.890909 
L 471.273602 259.436364 
L 471.292564 261.981818 
L 471.316937 264.527273 
L 471.347474 267.072727 
L 471.384053 269.618182 
L 471.426276 272.163636 
L 471.474922 274.709091 
L 471.533186 277.254545 
L 471.606505 279.8 
L 471.70247 282.345455 
L 471.835687 284.890909 
L 472.044923 287.436364 
L 472.427991 289.981818 
L 473.181986 292.527273 
L 474.598232 295.072727 
L 476.936871 297.618182 
L 480.164505 300.163636 
L 483.702662 302.709091 
L 486.469373 305.254545 
L 487.363636 307.8 
z
" clip-path="url(#p5492cba006)" style="fill: #1f77b4; fill-opacity: 0.3"/>
   </g>
   <g id="PolyCollection_7">
    <path d="M 554.887829 307.799835 
L 521.293989 307.799835 
L 521.181818 305.254385 
L 521.781778 302.708935 
L 522.961553 300.163485 
L 524.523006 297.618035 
L 526.249919 295.072585 
L 527.95223 292.527136 
L 529.494891 289.981686 
L 530.806663 287.436236 
L 531.871579 284.890786 
L 532.710511 282.345336 
L 533.361134 279.799886 
L 533.862406 277.254436 
L 534.24622 274.708986 
L 534.535711 272.163536 
L 534.747801 269.618086 
L 534.897103 267.072637 
L 534.998876 264.527187 
L 535.069813 261.981737 
L 535.126671 259.436287 
L 535.18363 256.890837 
L 535.249748 254.345387 
L 535.327729 251.799937 
L 535.414638 249.254487 
L 535.504407 246.709037 
L 535.591202 244.163588 
L 535.672419 241.618138 
L 535.750221 239.072688 
L 535.831113 236.527238 
L 535.923783 233.981788 
L 536.036069 231.436338 
L 536.172187 228.890888 
L 536.331164 226.345438 
L 536.506967 223.799988 
L 536.690146 221.254539 
L 536.870345 218.709089 
L 537.038779 216.163639 
L 537.189918 213.618189 
L 537.321987 211.072739 
L 537.436342 208.527289 
L 537.536139 205.981839 
L 537.624866 203.436389 
L 537.705198 200.890939 
L 537.778462 198.345489 
L 537.844701 195.80004 
L 537.903158 193.25459 
L 537.952899 190.70914 
L 537.993326 188.16369 
L 538.024447 185.61824 
L 538.046862 183.07279 
L 538.061556 180.52734 
L 538.069601 177.98189 
L 538.0719 175.43644 
L 538.069033 172.890991 
L 538.061261 170.345541 
L 538.048642 167.800091 
L 538.031255 165.254641 
L 538.009428 162.709191 
L 537.983928 160.163741 
L 537.956043 157.618291 
L 537.927535 155.072841 
L 537.900471 152.527391 
L 537.876986 149.981942 
L 537.859013 147.436492 
L 537.848068 144.891042 
L 537.845079 142.345592 
L 537.850301 139.800142 
L 537.863288 137.254692 
L 537.882942 134.709242 
L 537.907616 132.163792 
L 537.935299 129.618342 
L 537.963862 127.072892 
L 537.99132 124.527443 
L 538.01608 121.981993 
L 538.037097 119.436543 
L 538.053923 116.891093 
L 538.066643 114.345643 
L 538.075728 111.800193 
L 538.08186 109.254743 
L 538.085773 106.709293 
L 538.088132 104.163843 
L 538.08947 101.618394 
L 538.090172 99.072944 
L 538.090481 96.527494 
L 538.090523 93.982044 
L 538.090318 91.436594 
L 538.089792 88.891144 
L 538.088768 86.345694 
L 538.086965 83.800244 
L 538.084004 81.254794 
L 538.079441 78.709344 
L 538.072852 76.163895 
L 538.063955 73.618445 
L 538.052768 71.072995 
L 538.039744 68.527545 
L 538.025843 65.982095 
L 538.012468 63.436645 
L 538.001263 60.891195 
L 537.993785 58.345745 
L 537.991156 55.800295 
L 538.190662 55.800295 
L 538.190662 55.800295 
L 538.188033 58.345745 
L 538.180555 60.891195 
L 538.16935 63.436645 
L 538.155975 65.982095 
L 538.142074 68.527545 
L 538.12905 71.072995 
L 538.117863 73.618445 
L 538.108966 76.163895 
L 538.102377 78.709344 
L 538.097814 81.254794 
L 538.094853 83.800244 
L 538.09305 86.345694 
L 538.092026 88.891144 
L 538.0915 91.436594 
L 538.091295 93.982044 
L 538.091337 96.527494 
L 538.091647 99.072944 
L 538.092348 101.618394 
L 538.093686 104.163843 
L 538.096045 106.709293 
L 538.099958 109.254743 
L 538.106091 111.800193 
L 538.115175 114.345643 
L 538.127895 116.891093 
L 538.144721 119.436543 
L 538.165738 121.981993 
L 538.190498 124.527443 
L 538.217956 127.072892 
L 538.246519 129.618342 
L 538.274202 132.163792 
L 538.298876 134.709242 
L 538.31853 137.254692 
L 538.331518 139.800142 
L 538.336739 142.345592 
L 538.33375 144.891042 
L 538.322805 147.436492 
L 538.304833 149.981942 
L 538.281347 152.527391 
L 538.254283 155.072841 
L 538.225775 157.618291 
L 538.19789 160.163741 
L 538.17239 162.709191 
L 538.150563 165.254641 
L 538.133176 167.800091 
L 538.120557 170.345541 
L 538.112785 172.890991 
L 538.109919 175.43644 
L 538.112217 177.98189 
L 538.120262 180.52734 
L 538.134956 183.07279 
L 538.157372 185.61824 
L 538.188492 188.16369 
L 538.228919 190.70914 
L 538.27866 193.25459 
L 538.337117 195.80004 
L 538.403356 198.345489 
L 538.47662 200.890939 
L 538.556952 203.436389 
L 538.645679 205.981839 
L 538.745477 208.527289 
L 538.859831 211.072739 
L 538.9919 213.618189 
L 539.14304 216.163639 
L 539.311473 218.709089 
L 539.491672 221.254539 
L 539.674851 223.799988 
L 539.850654 226.345438 
L 540.009631 228.890888 
L 540.145749 231.436338 
L 540.258035 233.981788 
L 540.350705 236.527238 
L 540.431597 239.072688 
L 540.5094 241.618138 
L 540.590616 244.163588 
L 540.677411 246.709037 
L 540.76718 249.254487 
L 540.85409 251.799937 
L 540.93207 254.345387 
L 540.998188 256.890837 
L 541.055147 259.436287 
L 541.112005 261.981737 
L 541.182942 264.527187 
L 541.284715 267.072637 
L 541.434017 269.618086 
L 541.646107 272.163536 
L 541.935598 274.708986 
L 542.319413 277.254436 
L 542.820684 279.799886 
L 543.471307 282.345336 
L 544.310239 284.890786 
L 545.375155 287.436236 
L 546.686927 289.981686 
L 548.229589 292.527136 
L 549.9319 295.072585 
L 551.658812 297.618035 
L 553.220265 300.163485 
L 554.40004 302.708935 
L 555 305.254385 
L 554.887829 307.799835 
z
" clip-path="url(#p5492cba006)" style="fill: #1f77b4; fill-opacity: 0.3"/>
   </g>
   <g id="PolyCollection_8">
    <path d="M 622.425181 307.799878 
L 589.029364 307.799878 
L 588.818182 305.254428 
L 589.136023 302.708978 
L 589.919991 300.163527 
L 591.062878 297.618077 
L 592.432373 295.072627 
L 593.892239 292.527176 
L 595.320916 289.981726 
L 596.624353 287.436276 
L 597.741806 284.890825 
L 598.645236 282.345375 
L 599.334161 279.799925 
L 599.828234 277.254474 
L 600.159552 274.709024 
L 600.365978 272.163574 
L 600.486041 269.618123 
L 600.555391 267.072673 
L 600.604478 264.527223 
L 600.657128 261.981772 
L 600.729777 259.436322 
L 600.831308 256.890872 
L 600.963531 254.345421 
L 601.122358 251.799971 
L 601.299617 249.254521 
L 601.485299 246.70907 
L 601.669865 244.16362 
L 601.84619 241.61817 
L 602.010752 239.072719 
L 602.163854 236.527269 
L 602.308917 233.981819 
L 602.451089 231.436368 
L 602.595614 228.890918 
L 602.746399 226.345468 
L 602.905114 223.800017 
L 603.070975 221.254567 
L 603.241127 218.709117 
L 603.411418 216.163666 
L 603.577281 213.618216 
L 603.734492 211.072766 
L 603.879713 208.527315 
L 604.010769 205.981865 
L 604.126759 203.436415 
L 604.228045 200.890964 
L 604.316168 198.345514 
L 604.393671 195.800064 
L 604.463813 193.254613 
L 604.530148 190.709163 
L 604.59603 188.163713 
L 604.664111 185.618262 
L 604.735976 183.072812 
L 604.811989 180.527362 
L 604.891401 177.981911 
L 604.972667 175.436461 
L 605.053878 172.891011 
L 605.13317 170.34556 
L 605.209018 167.80011 
L 605.28036 165.25466 
L 605.346569 162.709209 
L 605.407322 160.163759 
L 605.462457 157.618309 
L 605.51186 155.072858 
L 605.55542 152.527408 
L 605.593046 149.981958 
L 605.62471 147.436507 
L 605.650498 144.891057 
L 605.670629 142.345607 
L 605.685447 139.800156 
L 605.695376 137.254706 
L 605.700874 134.709256 
L 605.702391 132.163805 
L 605.700354 129.618355 
L 605.695172 127.072905 
L 605.68726 124.527454 
L 605.677072 121.982004 
L 605.665109 119.436554 
L 605.651906 116.891103 
L 605.637989 114.345653 
L 605.623814 111.800203 
L 605.609714 109.254752 
L 605.595868 106.709302 
L 605.582322 104.163852 
L 605.569043 101.618401 
L 605.556018 99.072951 
L 605.543343 96.527501 
L 605.531291 93.98205 
L 605.52032 91.4366 
L 605.511032 88.89115 
L 605.504064 86.345699 
L 605.499973 83.800249 
L 605.499112 81.254799 
L 605.501559 78.709348 
L 605.507097 76.163898 
L 605.515262 73.618448 
L 605.525442 71.072997 
L 605.537002 68.527547 
L 605.549402 65.982097 
L 605.562268 63.436646 
L 605.575421 60.891196 
L 605.588829 58.345746 
L 605.602531 55.800295 
L 605.852014 55.800295 
L 605.852014 55.800295 
L 605.865717 58.345746 
L 605.879125 60.891196 
L 605.892277 63.436646 
L 605.905144 65.982097 
L 605.917543 68.527547 
L 605.929104 71.072997 
L 605.939284 73.618448 
L 605.947448 76.163898 
L 605.952986 78.709348 
L 605.955433 81.254799 
L 605.954572 83.800249 
L 605.950481 86.345699 
L 605.943514 88.89115 
L 605.934225 91.4366 
L 605.923255 93.98205 
L 605.911202 96.527501 
L 605.898527 99.072951 
L 605.885502 101.618401 
L 605.872224 104.163852 
L 605.858677 106.709302 
L 605.844832 109.254752 
L 605.830732 111.800203 
L 605.816557 114.345653 
L 605.802639 116.891103 
L 605.789436 119.436554 
L 605.777473 121.982004 
L 605.767285 124.527454 
L 605.759374 127.072905 
L 605.754191 129.618355 
L 605.752154 132.163805 
L 605.753672 134.709256 
L 605.75917 137.254706 
L 605.769098 139.800156 
L 605.783916 142.345607 
L 605.804048 144.891057 
L 605.829835 147.436507 
L 605.861499 149.981958 
L 605.899125 152.527408 
L 605.942686 155.072858 
L 605.992089 157.618309 
L 606.047224 160.163759 
L 606.107977 162.709209 
L 606.174185 165.25466 
L 606.245528 167.80011 
L 606.321376 170.34556 
L 606.400667 172.891011 
L 606.481878 175.436461 
L 606.563145 177.981911 
L 606.642556 180.527362 
L 606.718569 183.072812 
L 606.790434 185.618262 
L 606.858516 188.163713 
L 606.924397 190.709163 
L 606.990733 193.254613 
L 607.060874 195.800064 
L 607.138378 198.345514 
L 607.2265 200.890964 
L 607.327787 203.436415 
L 607.443777 205.981865 
L 607.574832 208.527315 
L 607.720053 211.072766 
L 607.877265 213.618216 
L 608.043127 216.163666 
L 608.213419 218.709117 
L 608.383571 221.254567 
L 608.549431 223.800017 
L 608.708146 226.345468 
L 608.858931 228.890918 
L 609.003456 231.436368 
L 609.145628 233.981819 
L 609.290691 236.527269 
L 609.443794 239.072719 
L 609.608355 241.61817 
L 609.78468 244.16362 
L 609.969246 246.70907 
L 610.154929 249.254521 
L 610.332188 251.799971 
L 610.491015 254.345421 
L 610.623238 256.890872 
L 610.724769 259.436322 
L 610.797418 261.981772 
L 610.850067 264.527223 
L 610.899154 267.072673 
L 610.968504 269.618123 
L 611.088568 272.163574 
L 611.294993 274.709024 
L 611.626311 277.254474 
L 612.120385 279.799925 
L 612.80931 282.345375 
L 613.71274 284.890825 
L 614.830192 287.436276 
L 616.133629 289.981726 
L 617.562307 292.527176 
L 619.022172 295.072627 
L 620.391667 297.618077 
L 621.534554 300.163527 
L 622.318522 302.708978 
L 622.636364 305.254428 
L 622.425181 307.799878 
z
" clip-path="url(#p5492cba006)" style="fill: #1f77b4; fill-opacity: 0.3"/>
   </g>
   <g id="matplotlib.axis_1">
    <g id="xtick_1">
     <g id="line2d_1">
      <defs>
       <path id="mef43243cf5" d="M 0 0 
L 0 3.5 
" style="stroke: #000000; stroke-width: 0.8"/>
      </defs>
      <g>
       <use xlink:href="#mef43243cf5" x="132.272727" y="320.4" style="stroke: #000000; stroke-width: 0.8"/>
      </g>
     </g>
     <g id="text_1">
      <!-- M1 -->
      <g transform="translate(124.777415 334.998438) scale(0.1 -0.1)">
       <defs>
        <path id="DejaVuSans-4d" d="M 628 4666 
L 1569 4666 
L 2759 1491 
L 3956 4666 
L 4897 4666 
L 4897 0 
L 4281 0 
L 4281 4097 
L 3078 897 
L 2444 897 
L 1241 4097 
L 1241 0 
L 628 0 
L 628 4666 
z
" transform="scale(0.015625)"/>
        <path id="DejaVuSans-31" d="M 794 531 
L 1825 531 
L 1825 4091 
L 703 3866 
L 703 4441 
L 1819 4666 
L 2450 4666 
L 2450 531 
L 3481 531 
L 3481 0 
L 794 0 
L 794 531 
z
" transform="scale(0.015625)"/>
       </defs>
       <use xlink:href="#DejaVuSans-4d"/>
       <use xlink:href="#DejaVuSans-31" x="86.279297"/>
      </g>
     </g>
    </g>
    <g id="xtick_2">
     <g id="line2d_2">
      <g>
       <use xlink:href="#mef43243cf5" x="199.909091" y="320.4" style="stroke: #000000; stroke-width: 0.8"/>
      </g>
     </g>
     <g id="text_2">
      <!-- M2 -->
      <g transform="translate(192.413778 334.998438) scale(0.1 -0.1)">
       <defs>
        <path id="DejaVuSans-32" d="M 1228 531 
L 3431 531 
L 3431 0 
L 469 0 
L 469 531 
Q 828 903 1448 1529 
Q 2069 2156 2228 2338 
Q 2531 2678 2651 2914 
Q 2772 3150 2772 3378 
Q 2772 3750 2511 3984 
Q 2250 4219 1831 4219 
Q 1534 4219 1204 4116 
Q 875 4013 500 3803 
L 500 4441 
Q 881 4594 1212 4672 
Q 1544 4750 1819 4750 
Q 2544 4750 2975 4387 
Q 3406 4025 3406 3419 
Q 3406 3131 3298 2873 
Q 3191 2616 2906 2266 
Q 2828 2175 2409 1742 
Q 1991 1309 1228 531 
z
" transform="scale(0.015625)"/>
       </defs>
       <use xlink:href="#DejaVuSans-4d"/>
       <use xlink:href="#DejaVuSans-32" x="86.279297"/>
      </g>
     </g>
    </g>
    <g id="xtick_3">
     <g id="line2d_3">
      <g>
       <use xlink:href="#mef43243cf5" x="267.545455" y="320.4" style="stroke: #000000; stroke-width: 0.8"/>
      </g>
     </g>
     <g id="text_3">
      <!-- M3 -->
      <g transform="translate(260.050142 334.998438) scale(0.1 -0.1)">
       <defs>
        <path id="DejaVuSans-33" d="M 2597 2516 
Q 3050 2419 3304 2112 
Q 3559 1806 3559 1356 
Q 3559 666 3084 287 
Q 2609 -91 1734 -91 
Q 1441 -91 1130 -33 
Q 819 25 488 141 
L 488 750 
Q 750 597 1062 519 
Q 1375 441 1716 441 
Q 2309 441 2620 675 
Q 2931 909 2931 1356 
Q 2931 1769 2642 2001 
Q 2353 2234 1838 2234 
L 1294 2234 
L 1294 2753 
L 1863 2753 
Q 2328 2753 2575 2939 
Q 2822 3125 2822 3475 
Q 2822 3834 2567 4026 
Q 2313 4219 1838 4219 
Q 1578 4219 1281 4162 
Q 984 4106 628 3988 
L 628 4550 
Q 988 4650 1302 4700 
Q 1616 4750 1894 4750 
Q 2613 4750 3031 4423 
Q 3450 4097 3450 3541 
Q 3450 3153 3228 2886 
Q 3006 2619 2597 2516 
z
" transform="scale(0.015625)"/>
       </defs>
       <use xlink:href="#DejaVuSans-4d"/>
       <use xlink:href="#DejaVuSans-33" x="86.279297"/>
      </g>
     </g>
    </g>
    <g id="xtick_4">
     <g id="line2d_4">
      <g>
       <use xlink:href="#mef43243cf5" x="335.181818" y="320.4" style="stroke: #000000; stroke-width: 0.8"/>
      </g>
     </g>
     <g id="text_4">
      <!-- M4 -->
      <g transform="translate(327.686506 334.998438) scale(0.1 -0.1)">
       <defs>
        <path id="DejaVuSans-34" d="M 2419 4116 
L 825 1625 
L 2419 1625 
L 2419 4116 
z
M 2253 4666 
L 3047 4666 
L 3047 1625 
L 3713 1625 
L 3713 1100 
L 3047 1100 
L 3047 0 
L 2419 0 
L 2419 1100 
L 313 1100 
L 313 1709 
L 2253 4666 
z
" transform="scale(0.015625)"/>
       </defs>
       <use xlink:href="#DejaVuSans-4d"/>
       <use xlink:href="#DejaVuSans-34" x="86.279297"/>
      </g>
     </g>
    </g>
    <g id="xtick_5">
     <g id="line2d_5">
      <g>
       <use xlink:href="#mef43243cf5" x="402.818182" y="320.4" style="stroke: #000000; stroke-width: 0.8"/>
      </g>
     </g>
     <g id="text_5">
      <!-- M5 -->
      <g transform="translate(395.322869 334.998438) scale(0.1 -0.1)">
       <defs>
        <path id="DejaVuSans-35" d="M 691 4666 
L 3169 4666 
L 3169 4134 
L 1269 4134 
L 1269 2991 
Q 1406 3038 1543 3061 
Q 1681 3084 1819 3084 
Q 2600 3084 3056 2656 
Q 3513 2228 3513 1497 
Q 3513 744 3044 326 
Q 2575 -91 1722 -91 
Q 1428 -91 1123 -41 
Q 819 9 494 109 
L 494 744 
Q 775 591 1075 516 
Q 1375 441 1709 441 
Q 2250 441 2565 725 
Q 2881 1009 2881 1497 
Q 2881 1984 2565 2268 
Q 2250 2553 1709 2553 
Q 1456 2553 1204 2497 
Q 953 2441 691 2322 
L 691 4666 
z
" transform="scale(0.015625)"/>
       </defs>
       <use xlink:href="#DejaVuSans-4d"/>
       <use xlink:href="#DejaVuSans-35" x="86.279297"/>
      </g>
     </g>
    </g>
    <g id="xtick_6">
     <g id="line2d_6">
      <g>
       <use xlink:href="#mef43243cf5" x="470.454545" y="320.4" style="stroke: #000000; stroke-width: 0.8"/>
      </g>
     </g>
     <g id="text_6">
      <!-- M6 -->
      <g transform="translate(462.959233 334.998438) scale(0.1 -0.1)">
       <defs>
        <path id="DejaVuSans-36" d="M 2113 2584 
Q 1688 2584 1439 2293 
Q 1191 2003 1191 1497 
Q 1191 994 1439 701 
Q 1688 409 2113 409 
Q 2538 409 2786 701 
Q 3034 994 3034 1497 
Q 3034 2003 2786 2293 
Q 2538 2584 2113 2584 
z
M 3366 4563 
L 3366 3988 
Q 3128 4100 2886 4159 
Q 2644 4219 2406 4219 
Q 1781 4219 1451 3797 
Q 1122 3375 1075 2522 
Q 1259 2794 1537 2939 
Q 1816 3084 2150 3084 
Q 2853 3084 3261 2657 
Q 3669 2231 3669 1497 
Q 3669 778 3244 343 
Q 2819 -91 2113 -91 
Q 1303 -91 875 529 
Q 447 1150 447 2328 
Q 447 3434 972 4092 
Q 1497 4750 2381 4750 
Q 2619 4750 2861 4703 
Q 3103 4656 3366 4563 
z
" transform="scale(0.015625)"/>
       </defs>
       <use xlink:href="#DejaVuSans-4d"/>
       <use xlink:href="#DejaVuSans-36" x="86.279297"/>
      </g>
     </g>
    </g>
    <g id="xtick_7">
     <g id="line2d_7">
      <g>
       <use xlink:href="#mef43243cf5" x="538.090909" y="320.4" style="stroke: #000000; stroke-width: 0.8"/>
      </g>
     </g>
     <g id="text_7">
      <!-- M7 -->
      <g transform="translate(530.595597 334.998438) scale(0.1 -0.1)">
       <defs>
        <path id="DejaVuSans-37" d="M 525 4666 
L 3525 4666 
L 3525 4397 
L 1831 0 
L 1172 0 
L 2766 4134 
L 525 4134 
L 525 4666 
z
" transform="scale(0.015625)"/>
       </defs>
       <use xlink:href="#DejaVuSans-4d"/>
       <use xlink:href="#DejaVuSans-37" x="86.279297"/>
      </g>
     </g>
    </g>
    <g id="xtick_8">
     <g id="line2d_8">
      <g>
       <use xlink:href="#mef43243cf5" x="605.727273" y="320.4" style="stroke: #000000; stroke-width: 0.8"/>
      </g>
     </g>
     <g id="text_8">
      <!-- M8 -->
      <g transform="translate(598.23196 334.998438) scale(0.1 -0.1)">
       <defs>
        <path id="DejaVuSans-38" d="M 2034 2216 
Q 1584 2216 1326 1975 
Q 1069 1734 1069 1313 
Q 1069 891 1326 650 
Q 1584 409 2034 409 
Q 2484 409 2743 651 
Q 3003 894 3003 1313 
Q 3003 1734 2745 1975 
Q 2488 2216 2034 2216 
z
M 1403 2484 
Q 997 2584 770 2862 
Q 544 3141 544 3541 
Q 544 4100 942 4425 
Q 1341 4750 2034 4750 
Q 2731 4750 3128 4425 
Q 3525 4100 3525 3541 
Q 3525 3141 3298 2862 
Q 3072 2584 2669 2484 
Q 3125 2378 3379 2068 
Q 3634 1759 3634 1313 
Q 3634 634 3220 271 
Q 2806 -91 2034 -91 
Q 1263 -91 848 271 
Q 434 634 434 1313 
Q 434 1759 690 2068 
Q 947 2378 1403 2484 
z
M 1172 3481 
Q 1172 3119 1398 2916 
Q 1625 2713 2034 2713 
Q 2441 2713 2670 2916 
Q 2900 3119 2900 3481 
Q 2900 3844 2670 4047 
Q 2441 4250 2034 4250 
Q 1625 4250 1398 4047 
Q 1172 3844 1172 3481 
z
" transform="scale(0.015625)"/>
       </defs>
       <use xlink:href="#DejaVuSans-4d"/>
       <use xlink:href="#DejaVuSans-38" x="86.279297"/>
      </g>
     </g>
    </g>
    <g id="text_9">
     <!-- Mouse Number -->
     <g transform="translate(331.101562 348.676562) scale(0.1 -0.1)">
      <defs>
       <path id="DejaVuSans-6f" d="M 1959 3097 
Q 1497 3097 1228 2736 
Q 959 2375 959 1747 
Q 959 1119 1226 758 
Q 1494 397 1959 397 
Q 2419 397 2687 759 
Q 2956 1122 2956 1747 
Q 2956 2369 2687 2733 
Q 2419 3097 1959 3097 
z
M 1959 3584 
Q 2709 3584 3137 3096 
Q 3566 2609 3566 1747 
Q 3566 888 3137 398 
Q 2709 -91 1959 -91 
Q 1206 -91 779 398 
Q 353 888 353 1747 
Q 353 2609 779 3096 
Q 1206 3584 1959 3584 
z
" transform="scale(0.015625)"/>
       <path id="DejaVuSans-75" d="M 544 1381 
L 544 3500 
L 1119 3500 
L 1119 1403 
Q 1119 906 1312 657 
Q 1506 409 1894 409 
Q 2359 409 2629 706 
Q 2900 1003 2900 1516 
L 2900 3500 
L 3475 3500 
L 3475 0 
L 2900 0 
L 2900 538 
Q 2691 219 2414 64 
Q 2138 -91 1772 -91 
Q 1169 -91 856 284 
Q 544 659 544 1381 
z
M 1991 3584 
L 1991 3584 
z
" transform="scale(0.015625)"/>
       <path id="DejaVuSans-73" d="M 2834 3397 
L 2834 2853 
Q 2591 2978 2328 3040 
Q 2066 3103 1784 3103 
Q 1356 3103 1142 2972 
Q 928 2841 928 2578 
Q 928 2378 1081 2264 
Q 1234 2150 1697 2047 
L 1894 2003 
Q 2506 1872 2764 1633 
Q 3022 1394 3022 966 
Q 3022 478 2636 193 
Q 2250 -91 1575 -91 
Q 1294 -91 989 -36 
Q 684 19 347 128 
L 347 722 
Q 666 556 975 473 
Q 1284 391 1588 391 
Q 1994 391 2212 530 
Q 2431 669 2431 922 
Q 2431 1156 2273 1281 
Q 2116 1406 1581 1522 
L 1381 1569 
Q 847 1681 609 1914 
Q 372 2147 372 2553 
Q 372 3047 722 3315 
Q 1072 3584 1716 3584 
Q 2034 3584 2315 3537 
Q 2597 3491 2834 3397 
z
" transform="scale(0.015625)"/>
       <path id="DejaVuSans-65" d="M 3597 1894 
L 3597 1613 
L 953 1613 
Q 991 1019 1311 708 
Q 1631 397 2203 397 
Q 2534 397 2845 478 
Q 3156 559 3463 722 
L 3463 178 
Q 3153 47 2828 -22 
Q 2503 -91 2169 -91 
Q 1331 -91 842 396 
Q 353 884 353 1716 
Q 353 2575 817 3079 
Q 1281 3584 2069 3584 
Q 2775 3584 3186 3129 
Q 3597 2675 3597 1894 
z
M 3022 2063 
Q 3016 2534 2758 2815 
Q 2500 3097 2075 3097 
Q 1594 3097 1305 2825 
Q 1016 2553 972 2059 
L 3022 2063 
z
" transform="scale(0.015625)"/>
       <path id="DejaVuSans-20" transform="scale(0.015625)"/>
       <path id="DejaVuSans-4e" d="M 628 4666 
L 1478 4666 
L 3547 763 
L 3547 4666 
L 4159 4666 
L 4159 0 
L 3309 0 
L 1241 3903 
L 1241 0 
L 628 0 
L 628 4666 
z
" transform="scale(0.015625)"/>
       <path id="DejaVuSans-6d" d="M 3328 2828 
Q 3544 3216 3844 3400 
Q 4144 3584 4550 3584 
Q 5097 3584 5394 3201 
Q 5691 2819 5691 2113 
L 5691 0 
L 5113 0 
L 5113 2094 
Q 5113 2597 4934 2840 
Q 4756 3084 4391 3084 
Q 3944 3084 3684 2787 
Q 3425 2491 3425 1978 
L 3425 0 
L 2847 0 
L 2847 2094 
Q 2847 2600 2669 2842 
Q 2491 3084 2119 3084 
Q 1678 3084 1418 2786 
Q 1159 2488 1159 1978 
L 1159 0 
L 581 0 
L 581 3500 
L 1159 3500 
L 1159 2956 
Q 1356 3278 1631 3431 
Q 1906 3584 2284 3584 
Q 2666 3584 2933 3390 
Q 3200 3197 3328 2828 
z
" transform="scale(0.015625)"/>
       <path id="DejaVuSans-62" d="M 3116 1747 
Q 3116 2381 2855 2742 
Q 2594 3103 2138 3103 
Q 1681 3103 1420 2742 
Q 1159 2381 1159 1747 
Q 1159 1113 1420 752 
Q 1681 391 2138 391 
Q 2594 391 2855 752 
Q 3116 1113 3116 1747 
z
M 1159 2969 
Q 1341 3281 1617 3432 
Q 1894 3584 2278 3584 
Q 2916 3584 3314 3078 
Q 3713 2572 3713 1747 
Q 3713 922 3314 415 
Q 2916 -91 2278 -91 
Q 1894 -91 1617 61 
Q 1341 213 1159 525 
L 1159 0 
L 581 0 
L 581 4863 
L 1159 4863 
L 1159 2969 
z
" transform="scale(0.015625)"/>
       <path id="DejaVuSans-72" d="M 2631 2963 
Q 2534 3019 2420 3045 
Q 2306 3072 2169 3072 
Q 1681 3072 1420 2755 
Q 1159 2438 1159 1844 
L 1159 0 
L 581 0 
L 581 3500 
L 1159 3500 
L 1159 2956 
Q 1341 3275 1631 3429 
Q 1922 3584 2338 3584 
Q 2397 3584 2469 3576 
Q 2541 3569 2628 3553 
L 2631 2963 
z
" transform="scale(0.015625)"/>
      </defs>
      <use xlink:href="#DejaVuSans-4d"/>
      <use xlink:href="#DejaVuSans-6f" x="86.279297"/>
      <use xlink:href="#DejaVuSans-75" x="147.460938"/>
      <use xlink:href="#DejaVuSans-73" x="210.839844"/>
      <use xlink:href="#DejaVuSans-65" x="262.939453"/>
      <use xlink:href="#DejaVuSans-20" x="324.462891"/>
      <use xlink:href="#DejaVuSans-4e" x="356.25"/>
      <use xlink:href="#DejaVuSans-75" x="431.054688"/>
      <use xlink:href="#DejaVuSans-6d" x="494.433594"/>
      <use xlink:href="#DejaVuSans-62" x="591.845703"/>
      <use xlink:href="#DejaVuSans-65" x="655.322266"/>
      <use xlink:href="#DejaVuSans-72" x="716.845703"/>
     </g>
    </g>
   </g>
   <g id="matplotlib.axis_2">
    <g id="ytick_1">
     <g id="line2d_9">
      <defs>
       <path id="mb008d501a4" d="M 0 0 
L -3.5 0 
" style="stroke: #000000; stroke-width: 0.8"/>
      </defs>
      <g>
       <use xlink:href="#mb008d501a4" x="90" y="316.481636" style="stroke: #000000; stroke-width: 0.8"/>
      </g>
     </g>
     <g id="text_10">
      <!-- 0 -->
      <g transform="translate(76.6375 320.280855) scale(0.1 -0.1)">
       <defs>
        <path id="DejaVuSans-30" d="M 2034 4250 
Q 1547 4250 1301 3770 
Q 1056 3291 1056 2328 
Q 1056 1369 1301 889 
Q 1547 409 2034 409 
Q 2525 409 2770 889 
Q 3016 1369 3016 2328 
Q 3016 3291 2770 3770 
Q 2525 4250 2034 4250 
z
M 2034 4750 
Q 2819 4750 3233 4129 
Q 3647 3509 3647 2328 
Q 3647 1150 3233 529 
Q 2819 -91 2034 -91 
Q 1250 -91 836 529 
Q 422 1150 422 2328 
Q 422 3509 836 4129 
Q 1250 4750 2034 4750 
z
" transform="scale(0.015625)"/>
       </defs>
       <use xlink:href="#DejaVuSans-30"/>
      </g>
     </g>
    </g>
    <g id="ytick_2">
     <g id="line2d_10">
      <g>
       <use xlink:href="#mb008d501a4" x="90" y="273.034746" style="stroke: #000000; stroke-width: 0.8"/>
      </g>
     </g>
     <g id="text_11">
      <!-- 5 -->
      <g transform="translate(76.6375 276.833964) scale(0.1 -0.1)">
       <use xlink:href="#DejaVuSans-35"/>
      </g>
     </g>
    </g>
    <g id="ytick_3">
     <g id="line2d_11">
      <g>
       <use xlink:href="#mb008d501a4" x="90" y="229.587856" style="stroke: #000000; stroke-width: 0.8"/>
      </g>
     </g>
     <g id="text_12">
      <!-- 10 -->
      <g transform="translate(70.275 233.387074) scale(0.1 -0.1)">
       <use xlink:href="#DejaVuSans-31"/>
       <use xlink:href="#DejaVuSans-30" x="63.623047"/>
      </g>
     </g>
    </g>
    <g id="ytick_4">
     <g id="line2d_12">
      <g>
       <use xlink:href="#mb008d501a4" x="90" y="186.140966" style="stroke: #000000; stroke-width: 0.8"/>
      </g>
     </g>
     <g id="text_13">
      <!-- 15 -->
      <g transform="translate(70.275 189.940184) scale(0.1 -0.1)">
       <use xlink:href="#DejaVuSans-31"/>
       <use xlink:href="#DejaVuSans-35" x="63.623047"/>
      </g>
     </g>
    </g>
    <g id="ytick_5">
     <g id="line2d_13">
      <g>
       <use xlink:href="#mb008d501a4" x="90" y="142.694076" style="stroke: #000000; stroke-width: 0.8"/>
      </g>
     </g>
     <g id="text_14">
      <!-- 20 -->
      <g transform="translate(70.275 146.493294) scale(0.1 -0.1)">
       <use xlink:href="#DejaVuSans-32"/>
       <use xlink:href="#DejaVuSans-30" x="63.623047"/>
      </g>
     </g>
    </g>
    <g id="ytick_6">
     <g id="line2d_14">
      <g>
       <use xlink:href="#mb008d501a4" x="90" y="99.247185" style="stroke: #000000; stroke-width: 0.8"/>
      </g>
     </g>
     <g id="text_15">
      <!-- 25 -->
      <g transform="translate(70.275 103.046404) scale(0.1 -0.1)">
       <use xlink:href="#DejaVuSans-32"/>
       <use xlink:href="#DejaVuSans-35" x="63.623047"/>
      </g>
     </g>
    </g>
    <g id="ytick_7">
     <g id="line2d_15">
      <g>
       <use xlink:href="#mb008d501a4" x="90" y="55.800295" style="stroke: #000000; stroke-width: 0.8"/>
      </g>
     </g>
     <g id="text_16">
      <!-- 30 -->
      <g transform="translate(70.275 59.599514) scale(0.1 -0.1)">
       <use xlink:href="#DejaVuSans-33"/>
       <use xlink:href="#DejaVuSans-30" x="63.623047"/>
      </g>
     </g>
    </g>
    <g id="text_17">
     <!-- Tim Until Break in Seconds -->
     <g transform="translate(64.195312 248.853906) rotate(-90) scale(0.1 -0.1)">
      <defs>
       <path id="DejaVuSans-54" d="M -19 4666 
L 3928 4666 
L 3928 4134 
L 2272 4134 
L 2272 0 
L 1638 0 
L 1638 4134 
L -19 4134 
L -19 4666 
z
" transform="scale(0.015625)"/>
       <path id="DejaVuSans-69" d="M 603 3500 
L 1178 3500 
L 1178 0 
L 603 0 
L 603 3500 
z
M 603 4863 
L 1178 4863 
L 1178 4134 
L 603 4134 
L 603 4863 
z
" transform="scale(0.015625)"/>
       <path id="DejaVuSans-55" d="M 556 4666 
L 1191 4666 
L 1191 1831 
Q 1191 1081 1462 751 
Q 1734 422 2344 422 
Q 2950 422 3222 751 
Q 3494 1081 3494 1831 
L 3494 4666 
L 4128 4666 
L 4128 1753 
Q 4128 841 3676 375 
Q 3225 -91 2344 -91 
Q 1459 -91 1007 375 
Q 556 841 556 1753 
L 556 4666 
z
" transform="scale(0.015625)"/>
       <path id="DejaVuSans-6e" d="M 3513 2113 
L 3513 0 
L 2938 0 
L 2938 2094 
Q 2938 2591 2744 2837 
Q 2550 3084 2163 3084 
Q 1697 3084 1428 2787 
Q 1159 2491 1159 1978 
L 1159 0 
L 581 0 
L 581 3500 
L 1159 3500 
L 1159 2956 
Q 1366 3272 1645 3428 
Q 1925 3584 2291 3584 
Q 2894 3584 3203 3211 
Q 3513 2838 3513 2113 
z
" transform="scale(0.015625)"/>
       <path id="DejaVuSans-74" d="M 1172 4494 
L 1172 3500 
L 2356 3500 
L 2356 3053 
L 1172 3053 
L 1172 1153 
Q 1172 725 1289 603 
Q 1406 481 1766 481 
L 2356 481 
L 2356 0 
L 1766 0 
Q 1100 0 847 248 
Q 594 497 594 1153 
L 594 3053 
L 172 3053 
L 172 3500 
L 594 3500 
L 594 4494 
L 1172 4494 
z
" transform="scale(0.015625)"/>
       <path id="DejaVuSans-6c" d="M 603 4863 
L 1178 4863 
L 1178 0 
L 603 0 
L 603 4863 
z
" transform="scale(0.015625)"/>
       <path id="DejaVuSans-42" d="M 1259 2228 
L 1259 519 
L 2272 519 
Q 2781 519 3026 730 
Q 3272 941 3272 1375 
Q 3272 1813 3026 2020 
Q 2781 2228 2272 2228 
L 1259 2228 
z
M 1259 4147 
L 1259 2741 
L 2194 2741 
Q 2656 2741 2882 2914 
Q 3109 3088 3109 3444 
Q 3109 3797 2882 3972 
Q 2656 4147 2194 4147 
L 1259 4147 
z
M 628 4666 
L 2241 4666 
Q 2963 4666 3353 4366 
Q 3744 4066 3744 3513 
Q 3744 3084 3544 2831 
Q 3344 2578 2956 2516 
Q 3422 2416 3680 2098 
Q 3938 1781 3938 1306 
Q 3938 681 3513 340 
Q 3088 0 2303 0 
L 628 0 
L 628 4666 
z
" transform="scale(0.015625)"/>
       <path id="DejaVuSans-61" d="M 2194 1759 
Q 1497 1759 1228 1600 
Q 959 1441 959 1056 
Q 959 750 1161 570 
Q 1363 391 1709 391 
Q 2188 391 2477 730 
Q 2766 1069 2766 1631 
L 2766 1759 
L 2194 1759 
z
M 3341 1997 
L 3341 0 
L 2766 0 
L 2766 531 
Q 2569 213 2275 61 
Q 1981 -91 1556 -91 
Q 1019 -91 701 211 
Q 384 513 384 1019 
Q 384 1609 779 1909 
Q 1175 2209 1959 2209 
L 2766 2209 
L 2766 2266 
Q 2766 2663 2505 2880 
Q 2244 3097 1772 3097 
Q 1472 3097 1187 3025 
Q 903 2953 641 2809 
L 641 3341 
Q 956 3463 1253 3523 
Q 1550 3584 1831 3584 
Q 2591 3584 2966 3190 
Q 3341 2797 3341 1997 
z
" transform="scale(0.015625)"/>
       <path id="DejaVuSans-6b" d="M 581 4863 
L 1159 4863 
L 1159 1991 
L 2875 3500 
L 3609 3500 
L 1753 1863 
L 3688 0 
L 2938 0 
L 1159 1709 
L 1159 0 
L 581 0 
L 581 4863 
z
" transform="scale(0.015625)"/>
       <path id="DejaVuSans-53" d="M 3425 4513 
L 3425 3897 
Q 3066 4069 2747 4153 
Q 2428 4238 2131 4238 
Q 1616 4238 1336 4038 
Q 1056 3838 1056 3469 
Q 1056 3159 1242 3001 
Q 1428 2844 1947 2747 
L 2328 2669 
Q 3034 2534 3370 2195 
Q 3706 1856 3706 1288 
Q 3706 609 3251 259 
Q 2797 -91 1919 -91 
Q 1588 -91 1214 -16 
Q 841 59 441 206 
L 441 856 
Q 825 641 1194 531 
Q 1563 422 1919 422 
Q 2459 422 2753 634 
Q 3047 847 3047 1241 
Q 3047 1584 2836 1778 
Q 2625 1972 2144 2069 
L 1759 2144 
Q 1053 2284 737 2584 
Q 422 2884 422 3419 
Q 422 4038 858 4394 
Q 1294 4750 2059 4750 
Q 2388 4750 2728 4690 
Q 3069 4631 3425 4513 
z
" transform="scale(0.015625)"/>
       <path id="DejaVuSans-63" d="M 3122 3366 
L 3122 2828 
Q 2878 2963 2633 3030 
Q 2388 3097 2138 3097 
Q 1578 3097 1268 2742 
Q 959 2388 959 1747 
Q 959 1106 1268 751 
Q 1578 397 2138 397 
Q 2388 397 2633 464 
Q 2878 531 3122 666 
L 3122 134 
Q 2881 22 2623 -34 
Q 2366 -91 2075 -91 
Q 1284 -91 818 406 
Q 353 903 353 1747 
Q 353 2603 823 3093 
Q 1294 3584 2113 3584 
Q 2378 3584 2631 3529 
Q 2884 3475 3122 3366 
z
" transform="scale(0.015625)"/>
       <path id="DejaVuSans-64" d="M 2906 2969 
L 2906 4863 
L 3481 4863 
L 3481 0 
L 2906 0 
L 2906 525 
Q 2725 213 2448 61 
Q 2172 -91 1784 -91 
Q 1150 -91 751 415 
Q 353 922 353 1747 
Q 353 2572 751 3078 
Q 1150 3584 1784 3584 
Q 2172 3584 2448 3432 
Q 2725 3281 2906 2969 
z
M 947 1747 
Q 947 1113 1208 752 
Q 1469 391 1925 391 
Q 2381 391 2643 752 
Q 2906 1113 2906 1747 
Q 2906 2381 2643 2742 
Q 2381 3103 1925 3103 
Q 1469 3103 1208 2742 
Q 947 2381 947 1747 
z
" transform="scale(0.015625)"/>
      </defs>
      <use xlink:href="#DejaVuSans-54"/>
      <use xlink:href="#DejaVuSans-69" x="57.958984"/>
      <use xlink:href="#DejaVuSans-6d" x="85.742188"/>
      <use xlink:href="#DejaVuSans-20" x="183.154297"/>
      <use xlink:href="#DejaVuSans-55" x="214.941406"/>
      <use xlink:href="#DejaVuSans-6e" x="288.134766"/>
      <use xlink:href="#DejaVuSans-74" x="351.513672"/>
      <use xlink:href="#DejaVuSans-69" x="390.722656"/>
      <use xlink:href="#DejaVuSans-6c" x="418.505859"/>
      <use xlink:href="#DejaVuSans-20" x="446.289062"/>
      <use xlink:href="#DejaVuSans-42" x="478.076172"/>
      <use xlink:href="#DejaVuSans-72" x="546.679688"/>
      <use xlink:href="#DejaVuSans-65" x="585.542969"/>
      <use xlink:href="#DejaVuSans-61" x="647.066406"/>
      <use xlink:href="#DejaVuSans-6b" x="708.345703"/>
      <use xlink:href="#DejaVuSans-20" x="766.255859"/>
      <use xlink:href="#DejaVuSans-69" x="798.042969"/>
      <use xlink:href="#DejaVuSans-6e" x="825.826172"/>
      <use xlink:href="#DejaVuSans-20" x="889.205078"/>
      <use xlink:href="#DejaVuSans-53" x="920.992188"/>
      <use xlink:href="#DejaVuSans-65" x="984.46875"/>
      <use xlink:href="#DejaVuSans-63" x="1045.992188"/>
      <use xlink:href="#DejaVuSans-6f" x="1100.972656"/>
      <use xlink:href="#DejaVuSans-6e" x="1162.154297"/>
      <use xlink:href="#DejaVuSans-64" x="1225.533203"/>
      <use xlink:href="#DejaVuSans-73" x="1289.009766"/>
     </g>
    </g>
   </g>
   <g id="LineCollection_1">
    <path d="M 123.818182 293.584239 
L 140.727273 293.584239 
" clip-path="url(#p5492cba006)" style="fill: none; stroke: #1f77b4; stroke-width: 1.5"/>
    <path d="M 191.454545 295.288897 
L 208.363636 295.288897 
" clip-path="url(#p5492cba006)" style="fill: none; stroke: #1f77b4; stroke-width: 1.5"/>
    <path d="M 259.090909 285.074809 
L 276 285.074809 
" clip-path="url(#p5492cba006)" style="fill: none; stroke: #1f77b4; stroke-width: 1.5"/>
    <path d="M 326.727273 284.108222 
L 343.636364 284.108222 
" clip-path="url(#p5492cba006)" style="fill: none; stroke: #1f77b4; stroke-width: 1.5"/>
    <path d="M 394.363636 279.83279 
L 411.272727 279.83279 
" clip-path="url(#p5492cba006)" style="fill: none; stroke: #1f77b4; stroke-width: 1.5"/>
    <path d="M 462 291.811047 
L 478.909091 291.811047 
" clip-path="url(#p5492cba006)" style="fill: none; stroke: #1f77b4; stroke-width: 1.5"/>
    <path d="M 529.636364 288.357188 
L 546.545455 288.357188 
" clip-path="url(#p5492cba006)" style="fill: none; stroke: #1f77b4; stroke-width: 1.5"/>
    <path d="M 597.272727 279.136168 
L 614.181818 279.136168 
" clip-path="url(#p5492cba006)" style="fill: none; stroke: #1f77b4; stroke-width: 1.5"/>
   </g>
   <g id="LineCollection_2">
    <path d="M 123.818182 203.519583 
L 140.727273 203.519583 
" clip-path="url(#p5492cba006)" style="fill: none; stroke: #1f77b4; stroke-width: 1.5"/>
    <path d="M 191.454545 186.140809 
L 208.363636 186.140809 
" clip-path="url(#p5492cba006)" style="fill: none; stroke: #1f77b4; stroke-width: 1.5"/>
    <path d="M 259.090909 229.587439 
L 276 229.587439 
" clip-path="url(#p5492cba006)" style="fill: none; stroke: #1f77b4; stroke-width: 1.5"/>
    <path d="M 326.727273 220.900667 
L 343.636364 220.900667 
" clip-path="url(#p5492cba006)" style="fill: none; stroke: #1f77b4; stroke-width: 1.5"/>
    <path d="M 394.363636 64.480984 
L 411.272727 64.480984 
" clip-path="url(#p5492cba006)" style="fill: none; stroke: #1f77b4; stroke-width: 1.5"/>
    <path d="M 462 55.8 
L 478.909091 55.8 
" clip-path="url(#p5492cba006)" style="fill: none; stroke: #1f77b4; stroke-width: 1.5"/>
    <path d="M 529.636364 55.800295 
L 546.545455 55.800295 
" clip-path="url(#p5492cba006)" style="fill: none; stroke: #1f77b4; stroke-width: 1.5"/>
    <path d="M 597.272727 55.800295 
L 614.181818 55.800295 
" clip-path="url(#p5492cba006)" style="fill: none; stroke: #1f77b4; stroke-width: 1.5"/>
   </g>
   <g id="LineCollection_3">
    <path d="M 123.818182 307.799739 
L 140.727273 307.799739 
" clip-path="url(#p5492cba006)" style="fill: none; stroke: #1f77b4; stroke-width: 1.5"/>
    <path d="M 191.454545 307.79887 
L 208.363636 307.79887 
" clip-path="url(#p5492cba006)" style="fill: none; stroke: #1f77b4; stroke-width: 1.5"/>
    <path d="M 259.090909 307.79224 
L 276 307.79224 
" clip-path="url(#p5492cba006)" style="fill: none; stroke: #1f77b4; stroke-width: 1.5"/>
    <path d="M 326.727273 307.79529 
L 343.636364 307.79529 
" clip-path="url(#p5492cba006)" style="fill: none; stroke: #1f77b4; stroke-width: 1.5"/>
    <path d="M 394.363636 307.799887 
L 411.272727 307.799887 
" clip-path="url(#p5492cba006)" style="fill: none; stroke: #1f77b4; stroke-width: 1.5"/>
    <path d="M 462 307.8 
L 478.909091 307.8 
" clip-path="url(#p5492cba006)" style="fill: none; stroke: #1f77b4; stroke-width: 1.5"/>
    <path d="M 529.636364 307.799835 
L 546.545455 307.799835 
" clip-path="url(#p5492cba006)" style="fill: none; stroke: #1f77b4; stroke-width: 1.5"/>
    <path d="M 597.272727 307.799878 
L 614.181818 307.799878 
" clip-path="url(#p5492cba006)" style="fill: none; stroke: #1f77b4; stroke-width: 1.5"/>
   </g>
   <g id="LineCollection_4">
    <path d="M 132.272727 307.799739 
L 132.272727 203.519583 
" clip-path="url(#p5492cba006)" style="fill: none; stroke: #1f77b4; stroke-width: 1.5"/>
    <path d="M 199.909091 307.79887 
L 199.909091 186.140809 
" clip-path="url(#p5492cba006)" style="fill: none; stroke: #1f77b4; stroke-width: 1.5"/>
    <path d="M 267.545455 307.79224 
L 267.545455 229.587439 
" clip-path="url(#p5492cba006)" style="fill: none; stroke: #1f77b4; stroke-width: 1.5"/>
    <path d="M 335.181818 307.79529 
L 335.181818 220.900667 
" clip-path="url(#p5492cba006)" style="fill: none; stroke: #1f77b4; stroke-width: 1.5"/>
    <path d="M 402.818182 307.799887 
L 402.818182 64.480984 
" clip-path="url(#p5492cba006)" style="fill: none; stroke: #1f77b4; stroke-width: 1.5"/>
    <path d="M 470.454545 307.8 
L 470.454545 55.8 
" clip-path="url(#p5492cba006)" style="fill: none; stroke: #1f77b4; stroke-width: 1.5"/>
    <path d="M 538.090909 307.799835 
L 538.090909 55.800295 
" clip-path="url(#p5492cba006)" style="fill: none; stroke: #1f77b4; stroke-width: 1.5"/>
    <path d="M 605.727273 307.799878 
L 605.727273 55.800295 
" clip-path="url(#p5492cba006)" style="fill: none; stroke: #1f77b4; stroke-width: 1.5"/>
   </g>
   <g id="patch_3">
    <path d="M 90 320.4 
L 90 43.2 
" style="fill: none; stroke: #000000; stroke-width: 0.8; stroke-linejoin: miter; stroke-linecap: square"/>
   </g>
   <g id="patch_4">
    <path d="M 648 320.4 
L 648 43.2 
" style="fill: none; stroke: #000000; stroke-width: 0.8; stroke-linejoin: miter; stroke-linecap: square"/>
   </g>
   <g id="patch_5">
    <path d="M 90 320.4 
L 648 320.4 
" style="fill: none; stroke: #000000; stroke-width: 0.8; stroke-linejoin: miter; stroke-linecap: square"/>
   </g>
   <g id="patch_6">
    <path d="M 90 43.2 
L 648 43.2 
" style="fill: none; stroke: #000000; stroke-width: 0.8; stroke-linejoin: miter; stroke-linecap: square"/>
   </g>
   <g id="text_18">
    <!-- Break Times -->
    <g transform="translate(331.995938 37.2) scale(0.12 -0.12)">
     <use xlink:href="#DejaVuSans-42"/>
     <use xlink:href="#DejaVuSans-72" x="68.603516"/>
     <use xlink:href="#DejaVuSans-65" x="107.466797"/>
     <use xlink:href="#DejaVuSans-61" x="168.990234"/>
     <use xlink:href="#DejaVuSans-6b" x="230.269531"/>
     <use xlink:href="#DejaVuSans-20" x="288.179688"/>
     <use xlink:href="#DejaVuSans-54" x="319.966797"/>
     <use xlink:href="#DejaVuSans-69" x="377.925781"/>
     <use xlink:href="#DejaVuSans-6d" x="405.708984"/>
     <use xlink:href="#DejaVuSans-65" x="503.121094"/>
     <use xlink:href="#DejaVuSans-73" x="564.644531"/>
    </g>
   </g>
  </g>
 </g>
 <defs>
  <clipPath id="p5492cba006">
   <rect x="90" y="43.2" width="558" height="277.2"/>
  </clipPath>
 </defs>
</svg>
