<?xml version="1.0" encoding="utf-8" standalone="no"?>
<!DOCTYPE svg PUBLIC "-//W3C//DTD SVG 1.1//EN"
  "http://www.w3.org/Graphics/SVG/1.1/DTD/svg11.dtd">
<svg xmlns:xlink="http://www.w3.org/1999/xlink" width="720pt" height="360pt" viewBox="0 0 720 360" xmlns="http://www.w3.org/2000/svg" version="1.1">
 <metadata>
  <rdf:RDF xmlns:dc="http://purl.org/dc/elements/1.1/" xmlns:cc="http://creativecommons.org/ns#" xmlns:rdf="http://www.w3.org/1999/02/22-rdf-syntax-ns#">
   <cc:Work>
    <dc:type rdf:resource="http://purl.org/dc/dcmitype/StillImage"/>
    <dc:date>2023-08-02T13:44:54.293262</dc:date>
    <dc:format>image/svg+xml</dc:format>
    <dc:creator>
     <cc:Agent>
      <dc:title>Matplotlib v3.7.2, https://matplotlib.org/</dc:title>
     </cc:Agent>
    </dc:creator>
   </cc:Work>
  </rdf:RDF>
 </metadata>
 <defs>
  <style type="text/css">*{stroke-linejoin: round; stroke-linecap: butt}</style>
 </defs>
 <g id="figure_1">
  <g id="patch_1">
   <path d="M 0 360 
L 720 360 
L 720 0 
L 0 0 
z
" style="fill: #ffffff"/>
  </g>
  <g id="axes_1">
   <g id="patch_2">
    <path d="M 90 320.4 
L 648 320.4 
L 648 43.2 
L 90 43.2 
z
" style="fill: #ffffff"/>
   </g>
   <g id="PolyCollection_1">
    <path d="M 149.181818 307.799852 
L 115.363636 307.799852 
L 115.394046 306.746516 
L 115.78439 305.693179 
L 116.49784 304.639842 
L 117.476836 303.586506 
L 118.649802 302.533169 
L 119.938982 301.479833 
L 121.268266 300.426496 
L 122.569944 299.373159 
L 123.789631 298.319823 
L 124.888958 297.266486 
L 125.846051 296.213149 
L 126.654097 295.159813 
L 127.318556 294.106476 
L 127.853633 293.05314 
L 128.278609 291.999803 
L 128.614516 290.946466 
L 128.881495 289.89313 
L 129.09698 288.839793 
L 129.274742 287.786456 
L 129.42468 286.73312 
L 129.553191 285.679783 
L 129.663926 284.626447 
L 129.758714 283.57311 
L 129.838493 282.519773 
L 129.90411 281.466437 
L 129.956889 280.4131 
L 129.998951 279.359763 
L 130.033249 278.306427 
L 130.063377 277.25309 
L 130.093193 276.199754 
L 130.126341 275.146417 
L 130.165747 274.09308 
L 130.213194 273.039744 
L 130.269023 271.986407 
L 130.332036 270.93307 
L 130.399612 269.879734 
L 130.468025 268.826397 
L 130.532929 267.773061 
L 130.58993 266.719724 
L 130.635177 265.666387 
L 130.665873 264.613051 
L 130.680651 263.559714 
L 130.679757 262.506377 
L 130.665018 261.453041 
L 130.63961 260.399704 
L 130.607661 259.346368 
L 130.573752 258.293031 
L 130.542386 257.239694 
L 130.517493 256.186358 
L 130.502055 255.133021 
L 130.49787 254.079684 
L 130.505493 253.026348 
L 130.524326 251.973011 
L 130.552848 250.919675 
L 130.588904 249.866338 
L 130.630035 248.813001 
L 130.673774 247.759665 
L 130.717891 246.706328 
L 130.760564 245.652991 
L 130.800475 244.599655 
L 130.836832 243.546318 
L 130.869353 242.492982 
L 130.898205 241.439645 
L 130.923935 240.386308 
L 130.947397 239.332972 
L 130.96968 238.279635 
L 130.992044 237.226299 
L 131.015858 236.172962 
L 131.042536 235.119625 
L 131.07346 234.066289 
L 131.109889 233.012952 
L 131.152856 231.959615 
L 131.203056 230.906279 
L 131.260745 229.852942 
L 131.325662 228.799606 
L 131.397002 227.746269 
L 131.473445 226.692932 
L 131.553243 225.639596 
L 131.634363 224.586259 
L 131.714662 223.532922 
L 131.792071 222.479586 
L 131.864758 221.426249 
L 131.93125 220.372913 
L 131.99051 219.319576 
L 132.041952 218.266239 
L 132.085414 217.212903 
L 132.121094 216.159566 
L 132.149474 215.106229 
L 132.171238 214.052893 
L 132.187199 212.999556 
L 132.19824 211.94622 
L 132.205267 210.892883 
L 132.209182 209.839546 
L 132.21085 208.78621 
L 132.211079 207.732873 
L 132.210597 206.679536 
L 132.210032 205.6262 
L 132.209886 204.572863 
L 132.210524 203.519527 
L 132.33493 203.519527 
L 132.33493 203.519527 
L 132.335568 204.572863 
L 132.335422 205.6262 
L 132.334857 206.679536 
L 132.334376 207.732873 
L 132.334605 208.78621 
L 132.336272 209.839546 
L 132.340187 210.892883 
L 132.347215 211.94622 
L 132.358255 212.999556 
L 132.374216 214.052893 
L 132.395981 215.106229 
L 132.424361 216.159566 
L 132.460041 217.212903 
L 132.503503 218.266239 
L 132.554945 219.319576 
L 132.614205 220.372913 
L 132.680697 221.426249 
L 132.753383 222.479586 
L 132.830793 223.532922 
L 132.911092 224.586259 
L 132.992212 225.639596 
L 133.072009 226.692932 
L 133.148452 227.746269 
L 133.219793 228.799606 
L 133.28471 229.852942 
L 133.342398 230.906279 
L 133.392599 231.959615 
L 133.435566 233.012952 
L 133.471994 234.066289 
L 133.502918 235.119625 
L 133.529596 236.172962 
L 133.55341 237.226299 
L 133.575774 238.279635 
L 133.598057 239.332972 
L 133.62152 240.386308 
L 133.64725 241.439645 
L 133.676101 242.492982 
L 133.708622 243.546318 
L 133.74498 244.599655 
L 133.78489 245.652991 
L 133.827564 246.706328 
L 133.871681 247.759665 
L 133.915419 248.813001 
L 133.95655 249.866338 
L 133.992606 250.919675 
L 134.021128 251.973011 
L 134.039962 253.026348 
L 134.047584 254.079684 
L 134.043399 255.133021 
L 134.027961 256.186358 
L 134.003069 257.239694 
L 133.971702 258.293031 
L 133.937794 259.346368 
L 133.905845 260.399704 
L 133.880436 261.453041 
L 133.865697 262.506377 
L 133.864804 263.559714 
L 133.879582 264.613051 
L 133.910278 265.666387 
L 133.955525 266.719724 
L 134.012526 267.773061 
L 134.07743 268.826397 
L 134.145843 269.879734 
L 134.213418 270.93307 
L 134.276431 271.986407 
L 134.33226 273.039744 
L 134.379707 274.09308 
L 134.419114 275.146417 
L 134.452261 276.199754 
L 134.482078 277.25309 
L 134.512206 278.306427 
L 134.546504 279.359763 
L 134.588566 280.4131 
L 134.641345 281.466437 
L 134.706961 282.519773 
L 134.786741 283.57311 
L 134.881529 284.626447 
L 134.992264 285.679783 
L 135.120775 286.73312 
L 135.270712 287.786456 
L 135.448475 288.839793 
L 135.66396 289.89313 
L 135.930939 290.946466 
L 136.266846 291.999803 
L 136.691821 293.05314 
L 137.226898 294.106476 
L 137.891358 295.159813 
L 138.699404 296.213149 
L 139.656496 297.266486 
L 140.755824 298.319823 
L 141.97551 299.373159 
L 143.277189 300.426496 
L 144.606472 301.479833 
L 145.895652 302.533169 
L 147.068618 303.586506 
L 148.047615 304.639842 
L 148.761064 305.693179 
L 149.151409 306.746516 
L 149.181818 307.799852 
z
" clip-path="url(#p9aa6031154)" style="fill: #1f77b4; fill-opacity: 0.3"/>
   </g>
   <g id="PolyCollection_2">
    <path d="M 216.818182 307.798983 
L 183 307.798983 
L 183.034008 306.570112 
L 183.557613 305.341241 
L 184.506442 304.112369 
L 185.781451 302.883498 
L 187.26459 301.654627 
L 188.835726 300.425756 
L 190.387578 299.196884 
L 191.836259 297.968013 
L 193.126339 296.739142 
L 194.230659 295.51027 
L 195.146094 294.281399 
L 195.886996 293.052528 
L 196.478 291.823656 
L 196.947551 290.594785 
L 197.322981 289.365914 
L 197.627417 288.137043 
L 197.878448 286.908171 
L 198.088152 285.6793 
L 198.264033 284.450429 
L 198.41038 283.221557 
L 198.529673 281.992686 
L 198.623748 280.763815 
L 198.694585 279.534944 
L 198.744684 278.306072 
L 198.777073 277.077201 
L 198.795055 275.84833 
L 198.801828 274.619458 
L 198.800091 273.390587 
L 198.791747 272.161716 
L 198.777772 270.932844 
L 198.758279 269.703973 
L 198.732764 268.475102 
L 198.700485 267.246231 
L 198.660913 266.017359 
L 198.614166 264.788488 
L 198.561344 263.559617 
L 198.504697 262.330745 
L 198.447558 261.101874 
L 198.394042 259.873003 
L 198.348519 258.644131 
L 198.314964 257.41526 
L 198.296282 256.186389 
L 198.293777 254.957518 
L 198.306872 253.728646 
L 198.333162 252.499775 
L 198.368806 251.270904 
L 198.409166 250.042032 
L 198.449584 248.813161 
L 198.486137 247.58429 
L 198.516228 246.355419 
L 198.538929 245.126547 
L 198.555022 243.897676 
L 198.56677 242.668805 
L 198.577455 241.439933 
L 198.590797 240.211062 
L 198.610363 238.982191 
L 198.63906 237.753319 
L 198.678801 236.524448 
L 198.730382 235.295577 
L 198.793537 234.066706 
L 198.867138 232.837834 
L 198.94944 231.608963 
L 199.038314 230.380092 
L 199.131422 229.15122 
L 199.226333 227.922349 
L 199.320591 226.693478 
L 199.411798 225.464606 
L 199.497701 224.235735 
L 199.576327 223.006864 
L 199.646113 221.777993 
L 199.706021 220.549121 
L 199.755593 219.32025 
L 199.794948 218.091379 
L 199.824701 216.862507 
L 199.845841 215.633636 
L 199.859595 214.404765 
L 199.867301 213.175894 
L 199.870306 211.947022 
L 199.869898 210.718151 
L 199.867269 209.48928 
L 199.863482 208.260408 
L 199.85945 207.031537 
L 199.855907 205.802666 
L 199.853377 204.573794 
L 199.852149 203.344923 
L 199.852264 202.116052 
L 199.853534 200.887181 
L 199.855583 199.658309 
L 199.857921 198.429438 
L 199.860031 197.200567 
L 199.861466 195.971695 
L 199.861926 194.742824 
L 199.861318 193.513953 
L 199.859768 192.285081 
L 199.857602 191.05621 
L 199.855286 189.827339 
L 199.853347 188.598468 
L 199.852279 187.369596 
L 199.852464 186.140725 
L 199.965718 186.140725 
L 199.965718 186.140725 
L 199.965903 187.369596 
L 199.964835 188.598468 
L 199.962896 189.827339 
L 199.96058 191.05621 
L 199.958413 192.285081 
L 199.956863 193.513953 
L 199.956256 194.742824 
L 199.956716 195.971695 
L 199.958151 197.200567 
L 199.960261 198.429438 
L 199.962598 199.658309 
L 199.964648 200.887181 
L 199.965918 202.116052 
L 199.966033 203.344923 
L 199.964805 204.573794 
L 199.962275 205.802666 
L 199.958732 207.031537 
L 199.9547 208.260408 
L 199.950913 209.48928 
L 199.948284 210.718151 
L 199.947876 211.947022 
L 199.950881 213.175894 
L 199.958587 214.404765 
L 199.972341 215.633636 
L 199.993481 216.862507 
L 200.023233 218.091379 
L 200.062589 219.32025 
L 200.112161 220.549121 
L 200.172069 221.777993 
L 200.241855 223.006864 
L 200.320481 224.235735 
L 200.406384 225.464606 
L 200.49759 226.693478 
L 200.591849 227.922349 
L 200.686759 229.15122 
L 200.779868 230.380092 
L 200.868742 231.608963 
L 200.951044 232.837834 
L 201.024645 234.066706 
L 201.0878 235.295577 
L 201.139381 236.524448 
L 201.179122 237.753319 
L 201.207818 238.982191 
L 201.227385 240.211062 
L 201.240727 241.439933 
L 201.251412 242.668805 
L 201.26316 243.897676 
L 201.279253 245.126547 
L 201.301954 246.355419 
L 201.332045 247.58429 
L 201.368598 248.813161 
L 201.409016 250.042032 
L 201.449376 251.270904 
L 201.485019 252.499775 
L 201.51131 253.728646 
L 201.524405 254.957518 
L 201.5219 256.186389 
L 201.503218 257.41526 
L 201.469662 258.644131 
L 201.42414 259.873003 
L 201.370624 261.101874 
L 201.313485 262.330745 
L 201.256837 263.559617 
L 201.204016 264.788488 
L 201.157268 266.017359 
L 201.117696 267.246231 
L 201.085418 268.475102 
L 201.059903 269.703973 
L 201.04041 270.932844 
L 201.026435 272.161716 
L 201.01809 273.390587 
L 201.016353 274.619458 
L 201.023127 275.84833 
L 201.041109 277.077201 
L 201.073498 278.306072 
L 201.123597 279.534944 
L 201.194434 280.763815 
L 201.288509 281.992686 
L 201.407802 283.221557 
L 201.554149 284.450429 
L 201.730029 285.6793 
L 201.939734 286.908171 
L 202.190765 288.137043 
L 202.495201 289.365914 
L 202.87063 290.594785 
L 203.340182 291.823656 
L 203.931185 293.052528 
L 204.672087 294.281399 
L 205.587523 295.51027 
L 206.691843 296.739142 
L 207.981923 297.968013 
L 209.430604 299.196884 
L 210.982456 300.425756 
L 212.553592 301.654627 
L 214.03673 302.883498 
L 215.31174 304.112369 
L 216.260569 305.341241 
L 216.784174 306.570112 
L 216.818182 307.798983 
z
" clip-path="url(#p9aa6031154)" style="fill: #1f77b4; fill-opacity: 0.3"/>
   </g>
   <g id="PolyCollection_3">
    <path d="M 283.226036 307.792353 
L 251.864873 307.792353 
L 251.488777 307.002405 
L 251.180397 306.212456 
L 250.941248 305.422507 
L 250.771629 304.632558 
L 250.670662 303.842609 
L 250.636364 303.052661 
L 250.665753 302.262712 
L 250.754976 301.472763 
L 250.899456 300.682814 
L 251.094047 299.892866 
L 251.333204 299.102917 
L 251.611139 298.312968 
L 251.921979 297.523019 
L 252.259907 296.733071 
L 252.619286 295.943122 
L 252.99477 295.153173 
L 253.381384 294.363224 
L 253.774593 293.573275 
L 254.17034 292.783327 
L 254.565075 291.993378 
L 254.955756 291.203429 
L 255.339841 290.41348 
L 255.715264 289.623532 
L 256.080404 288.833583 
L 256.434045 288.043634 
L 256.775327 287.253685 
L 257.103705 286.463736 
L 257.418897 285.673788 
L 257.720837 284.883839 
L 258.009628 284.09389 
L 258.285503 283.303941 
L 258.548784 282.513993 
L 258.799843 281.724044 
L 259.039076 280.934095 
L 259.266871 280.144146 
L 259.483587 279.354197 
L 259.689535 278.564249 
L 259.884964 277.7743 
L 260.07005 276.984351 
L 260.244894 276.194402 
L 260.409521 275.404454 
L 260.563883 274.614505 
L 260.707876 273.824556 
L 260.841348 273.034607 
L 260.964123 272.244659 
L 261.076022 271.45471 
L 261.176888 270.664761 
L 261.266616 269.874812 
L 261.34518 269.084863 
L 261.412659 268.294915 
L 261.469263 267.504966 
L 261.515353 266.715017 
L 261.551459 265.925068 
L 261.578288 265.13512 
L 261.596726 264.345171 
L 261.607835 263.555222 
L 261.612838 262.765273 
L 261.6131 261.975324 
L 261.610096 261.185376 
L 261.605382 260.395427 
L 261.600551 259.605478 
L 261.59719 258.815529 
L 261.596842 258.025581 
L 261.600952 257.235632 
L 261.610833 256.445683 
L 261.627625 255.655734 
L 261.652264 254.865786 
L 261.685456 254.075837 
L 261.727659 253.285888 
L 261.779079 252.495939 
L 261.839666 251.70599 
L 261.909128 250.916042 
L 261.98695 250.126093 
L 262.072416 249.336144 
L 262.164648 248.546195 
L 262.26264 247.756247 
L 262.365301 246.966298 
L 262.471501 246.176349 
L 262.580113 245.3864 
L 262.690057 244.596451 
L 262.80034 243.806503 
L 262.910092 243.016554 
L 263.018592 242.226605 
L 263.125295 241.436656 
L 263.229846 240.646708 
L 263.332084 239.856759 
L 263.432044 239.06681 
L 263.529945 238.276861 
L 263.626172 237.486913 
L 263.721254 236.696964 
L 263.815832 235.907015 
L 263.910625 235.117066 
L 264.00639 234.327117 
L 264.103886 233.537169 
L 264.203833 232.74722 
L 264.306876 231.957271 
L 264.41355 231.167322 
L 264.524255 230.377374 
L 264.639232 229.587425 
L 270.451678 229.587425 
L 270.451678 229.587425 
L 270.566654 230.377374 
L 270.677359 231.167322 
L 270.784033 231.957271 
L 270.887076 232.74722 
L 270.987023 233.537169 
L 271.084519 234.327117 
L 271.180284 235.117066 
L 271.275077 235.907015 
L 271.369655 236.696964 
L 271.464737 237.486913 
L 271.560964 238.276861 
L 271.658865 239.06681 
L 271.758825 239.856759 
L 271.861063 240.646708 
L 271.965614 241.436656 
L 272.072317 242.226605 
L 272.180817 243.016554 
L 272.290569 243.806503 
L 272.400852 244.596451 
L 272.510796 245.3864 
L 272.619408 246.176349 
L 272.725608 246.966298 
L 272.828269 247.756247 
L 272.926261 248.546195 
L 273.018493 249.336144 
L 273.103959 250.126093 
L 273.181781 250.916042 
L 273.251244 251.70599 
L 273.311831 252.495939 
L 273.36325 253.285888 
L 273.405453 254.075837 
L 273.438645 254.865786 
L 273.463284 255.655734 
L 273.480076 256.445683 
L 273.489958 257.235632 
L 273.494067 258.025581 
L 273.493719 258.815529 
L 273.490359 259.605478 
L 273.485527 260.395427 
L 273.480813 261.185376 
L 273.477809 261.975324 
L 273.478071 262.765273 
L 273.483074 263.555222 
L 273.494183 264.345171 
L 273.512621 265.13512 
L 273.53945 265.925068 
L 273.575556 266.715017 
L 273.621646 267.504966 
L 273.67825 268.294915 
L 273.745729 269.084863 
L 273.824293 269.874812 
L 273.914021 270.664761 
L 274.014887 271.45471 
L 274.126786 272.244659 
L 274.249561 273.034607 
L 274.383033 273.824556 
L 274.527026 274.614505 
L 274.681388 275.404454 
L 274.846015 276.194402 
L 275.020859 276.984351 
L 275.205945 277.7743 
L 275.401374 278.564249 
L 275.607322 279.354197 
L 275.824038 280.144146 
L 276.051833 280.934095 
L 276.291066 281.724044 
L 276.542125 282.513993 
L 276.805406 283.303941 
L 277.081281 284.09389 
L 277.370073 284.883839 
L 277.672012 285.673788 
L 277.987204 286.463736 
L 278.315582 287.253685 
L 278.656865 288.043634 
L 279.010505 288.833583 
L 279.375645 289.623532 
L 279.751068 290.41348 
L 280.135153 291.203429 
L 280.525834 291.993378 
L 280.920569 292.783327 
L 281.316316 293.573275 
L 281.709525 294.363224 
L 282.096139 295.153173 
L 282.471623 295.943122 
L 282.831002 296.733071 
L 283.16893 297.523019 
L 283.47977 298.312968 
L 283.757705 299.102917 
L 283.996862 299.892866 
L 284.191453 300.682814 
L 284.335933 301.472763 
L 284.425156 302.262712 
L 284.454545 303.052661 
L 284.420247 303.842609 
L 284.31928 304.632558 
L 284.149661 305.422507 
L 283.910512 306.212456 
L 283.602132 307.002405 
L 283.226036 307.792353 
z
" clip-path="url(#p9aa6031154)" style="fill: #1f77b4; fill-opacity: 0.3"/>
   </g>
   <g id="PolyCollection_4">
    <path d="M 351.185613 307.792345 
L 319.178023 307.792345 
L 318.831397 306.914651 
L 318.568091 306.036957 
L 318.388434 305.159263 
L 318.290999 304.281569 
L 318.272727 303.403875 
L 318.329109 302.526181 
L 318.454402 301.648487 
L 318.641884 300.770793 
L 318.884124 299.893099 
L 319.173254 299.015405 
L 319.501223 298.137711 
L 319.860042 297.260017 
L 320.241984 296.382323 
L 320.639759 295.504629 
L 321.04664 294.626935 
L 321.456554 293.749241 
L 321.864135 292.871547 
L 322.264742 291.993853 
L 322.654453 291.116159 
L 323.030037 290.238465 
L 323.388908 289.360771 
L 323.729084 288.483077 
L 324.049127 287.605383 
L 324.348097 286.727689 
L 324.625504 285.849995 
L 324.881268 284.972301 
L 325.115679 284.094607 
L 325.329364 283.216913 
L 325.523254 282.339219 
L 325.698546 281.461525 
L 325.856674 280.583831 
L 325.999256 279.706137 
L 326.128054 278.828443 
L 326.244918 277.950749 
L 326.351732 277.073055 
L 326.450348 276.195361 
L 326.542535 275.317667 
L 326.629917 274.439973 
L 326.713924 273.562279 
L 326.795757 272.684585 
L 326.876353 271.806891 
L 326.956373 270.929197 
L 327.036201 270.051503 
L 327.115957 269.173809 
L 327.195525 268.296115 
L 327.274587 267.418421 
L 327.352671 266.540727 
L 327.429202 265.663033 
L 327.503554 264.785339 
L 327.5751 263.907645 
L 327.64326 263.029951 
L 327.70754 262.152257 
L 327.767567 261.274563 
L 327.823103 260.396869 
L 327.874065 259.519175 
L 327.920528 258.641481 
L 327.962713 257.763787 
L 328.000988 256.886093 
L 328.035845 256.008399 
L 328.067883 255.130705 
L 328.097798 254.253011 
L 328.126356 253.375317 
L 328.154385 252.497623 
L 328.182759 251.619929 
L 328.212387 250.742235 
L 328.244207 249.864541 
L 328.279177 248.986847 
L 328.318269 248.109153 
L 328.362461 247.231459 
L 328.412728 246.353765 
L 328.470032 245.476071 
L 328.535305 244.598377 
L 328.609432 243.720683 
L 328.693234 242.842989 
L 328.787442 241.965295 
L 328.892674 241.087601 
L 329.009412 240.209907 
L 329.13798 239.332213 
L 329.278523 238.454519 
L 329.430994 237.576825 
L 329.595142 236.699131 
L 329.770508 235.821437 
L 329.956428 234.943743 
L 330.152043 234.066049 
L 330.356315 233.188355 
L 330.568044 232.310661 
L 330.785903 231.432967 
L 331.008459 230.555273 
L 331.234213 229.677579 
L 331.46163 228.799885 
L 331.689173 227.922191 
L 331.915337 227.044497 
L 332.138676 226.166803 
L 332.35783 225.289109 
L 332.571548 224.411415 
L 332.778705 223.533721 
L 332.978313 222.656027 
L 333.169533 221.778333 
L 333.351678 220.90064 
L 337.011958 220.90064 
L 337.011958 220.90064 
L 337.194103 221.778333 
L 337.385323 222.656027 
L 337.584932 223.533721 
L 337.792088 224.411415 
L 338.005806 225.289109 
L 338.22496 226.166803 
L 338.448299 227.044497 
L 338.674463 227.922191 
L 338.902006 228.799885 
L 339.129423 229.677579 
L 339.355178 230.555273 
L 339.577734 231.432967 
L 339.795592 232.310661 
L 340.007322 233.188355 
L 340.211593 234.066049 
L 340.407208 234.943743 
L 340.593129 235.821437 
L 340.768494 236.699131 
L 340.932642 237.576825 
L 341.085113 238.454519 
L 341.225657 239.332213 
L 341.354225 240.209907 
L 341.470963 241.087601 
L 341.576194 241.965295 
L 341.670402 242.842989 
L 341.754204 243.720683 
L 341.828332 244.598377 
L 341.893604 245.476071 
L 341.950908 246.353765 
L 342.001175 247.231459 
L 342.045367 248.109153 
L 342.08446 248.986847 
L 342.11943 249.864541 
L 342.15125 250.742235 
L 342.180878 251.619929 
L 342.209251 252.497623 
L 342.23728 253.375317 
L 342.265838 254.253011 
L 342.295753 255.130705 
L 342.327792 256.008399 
L 342.362648 256.886093 
L 342.400923 257.763787 
L 342.443109 258.641481 
L 342.489571 259.519175 
L 342.540534 260.396869 
L 342.59607 261.274563 
L 342.656096 262.152257 
L 342.720377 263.029951 
L 342.788537 263.907645 
L 342.860083 264.785339 
L 342.934434 265.663033 
L 343.010966 266.540727 
L 343.08905 267.418421 
L 343.168111 268.296115 
L 343.247679 269.173809 
L 343.327435 270.051503 
L 343.407263 270.929197 
L 343.487283 271.806891 
L 343.567879 272.684585 
L 343.649712 273.562279 
L 343.73372 274.439973 
L 343.821101 275.317667 
L 343.913288 276.195361 
L 344.011905 277.073055 
L 344.118718 277.950749 
L 344.235583 278.828443 
L 344.364381 279.706137 
L 344.506963 280.583831 
L 344.66509 281.461525 
L 344.840383 282.339219 
L 345.034272 283.216913 
L 345.247957 284.094607 
L 345.482368 284.972301 
L 345.738132 285.849995 
L 346.01554 286.727689 
L 346.314509 287.605383 
L 346.634552 288.483077 
L 346.974728 289.360771 
L 347.3336 290.238465 
L 347.709183 291.116159 
L 348.098894 291.993853 
L 348.499501 292.871547 
L 348.907082 293.749241 
L 349.316996 294.626935 
L 349.723877 295.504629 
L 350.121652 296.382323 
L 350.503595 297.260017 
L 350.862413 298.137711 
L 351.190383 299.015405 
L 351.479512 299.893099 
L 351.721753 300.770793 
L 351.909235 301.648487 
L 352.034527 302.526181 
L 352.090909 303.403875 
L 352.072638 304.281569 
L 351.975202 305.159263 
L 351.795545 306.036957 
L 351.532239 306.914651 
L 351.185613 307.792345 
z
" clip-path="url(#p9aa6031154)" style="fill: #1f77b4; fill-opacity: 0.3"/>
   </g>
   <g id="PolyCollection_5">
    <path d="M 419.644604 307.8 
L 385.991759 307.8 
L 385.909091 305.342229 
L 386.650299 302.884459 
L 388.044642 300.426688 
L 389.838019 297.968917 
L 391.759332 295.511147 
L 393.579715 293.053376 
L 395.148144 290.595605 
L 396.398748 288.137835 
L 397.335834 285.680064 
L 398.00801 283.222293 
L 398.482184 280.764523 
L 398.824114 278.306752 
L 399.087444 275.848981 
L 399.30988 273.39121 
L 399.51395 270.93344 
L 399.709948 268.475669 
L 399.899517 266.017898 
L 400.079088 263.560128 
L 400.242881 261.102357 
L 400.385314 258.644586 
L 400.5027 256.186816 
L 400.594094 253.729045 
L 400.661296 251.271274 
L 400.708179 248.813504 
L 400.739739 246.355733 
L 400.761278 243.897962 
L 400.777988 241.440192 
L 400.794907 238.982421 
L 400.816938 236.52465 
L 400.848579 234.06688 
L 400.893204 231.609109 
L 400.952086 229.151338 
L 401.023625 226.693568 
L 401.103261 224.235797 
L 401.184258 221.778026 
L 401.259204 219.320256 
L 401.321731 216.862485 
L 401.367936 214.404714 
L 401.397166 211.946943 
L 401.412086 209.489173 
L 401.418172 207.031402 
L 401.422829 204.573631 
L 401.434307 202.115861 
L 401.460518 199.65809 
L 401.507841 197.200319 
L 401.580068 194.742549 
L 401.67767 192.284778 
L 401.797589 189.827007 
L 401.933645 187.369237 
L 402.077513 184.911466 
L 402.220074 182.453695 
L 402.352832 179.995925 
L 402.469127 177.538154 
L 402.564883 175.080383 
L 402.638829 172.622613 
L 402.692182 170.164842 
L 402.727959 167.707071 
L 402.750101 165.249301 
L 402.762637 162.79153 
L 402.769037 160.333759 
L 402.771867 157.875989 
L 402.772725 155.418218 
L 402.772395 152.960447 
L 402.771098 150.502676 
L 402.768731 148.044906 
L 402.765042 145.587135 
L 402.759727 143.129364 
L 402.752525 140.671594 
L 402.743338 138.213823 
L 402.732385 135.756052 
L 402.72034 133.298282 
L 402.708344 130.840511 
L 402.697842 128.38274 
L 402.690265 125.92497 
L 402.686666 123.467199 
L 402.687444 121.009428 
L 402.692249 118.551658 
L 402.700104 116.093887 
L 402.709648 113.636116 
L 402.719412 111.178346 
L 402.728042 108.720575 
L 402.734463 106.262804 
L 402.737982 103.805034 
L 402.738363 101.347263 
L 402.735879 98.889492 
L 402.731276 96.431722 
L 402.725644 93.973951 
L 402.720183 91.51618 
L 402.715939 89.058409 
L 402.713585 86.600639 
L 402.713337 84.142868 
L 402.715019 81.685097 
L 402.718238 79.227327 
L 402.722584 76.769556 
L 402.727785 74.311785 
L 402.733753 71.854015 
L 402.740534 69.396244 
L 402.748192 66.938473 
L 402.75669 64.480703 
L 402.879674 64.480703 
L 402.879674 64.480703 
L 402.888172 66.938473 
L 402.89583 69.396244 
L 402.90261 71.854015 
L 402.908579 74.311785 
L 402.91378 76.769556 
L 402.918126 79.227327 
L 402.921344 81.685097 
L 402.923027 84.142868 
L 402.922779 86.600639 
L 402.920425 89.058409 
L 402.916181 91.51618 
L 402.91072 93.973951 
L 402.905087 96.431722 
L 402.900485 98.889492 
L 402.898001 101.347263 
L 402.898382 103.805034 
L 402.9019 106.262804 
L 402.908322 108.720575 
L 402.916952 111.178346 
L 402.926715 113.636116 
L 402.936259 116.093887 
L 402.944115 118.551658 
L 402.94892 121.009428 
L 402.949697 123.467199 
L 402.946099 125.92497 
L 402.938522 128.38274 
L 402.928019 130.840511 
L 402.916023 133.298282 
L 402.903979 135.756052 
L 402.893026 138.213823 
L 402.883838 140.671594 
L 402.876637 143.129364 
L 402.871322 145.587135 
L 402.867633 148.044906 
L 402.865266 150.502676 
L 402.863968 152.960447 
L 402.863638 155.418218 
L 402.864497 157.875989 
L 402.867327 160.333759 
L 402.873727 162.79153 
L 402.886262 165.249301 
L 402.908405 167.707071 
L 402.944182 170.164842 
L 402.997535 172.622613 
L 403.071481 175.080383 
L 403.167237 177.538154 
L 403.283531 179.995925 
L 403.41629 182.453695 
L 403.55885 184.911466 
L 403.702719 187.369237 
L 403.838774 189.827007 
L 403.958693 192.284778 
L 404.056296 194.742549 
L 404.128523 197.200319 
L 404.175846 199.65809 
L 404.202056 202.115861 
L 404.213534 204.573631 
L 404.218191 207.031402 
L 404.224278 209.489173 
L 404.239198 211.946943 
L 404.268428 214.404714 
L 404.314632 216.862485 
L 404.377159 219.320256 
L 404.452106 221.778026 
L 404.533103 224.235797 
L 404.612738 226.693568 
L 404.684278 229.151338 
L 404.743159 231.609109 
L 404.787784 234.06688 
L 404.819425 236.52465 
L 404.841456 238.982421 
L 404.858375 241.440192 
L 404.875086 243.897962 
L 404.896625 246.355733 
L 404.928185 248.813504 
L 404.975068 251.271274 
L 405.042269 253.729045 
L 405.133663 256.186816 
L 405.251049 258.644586 
L 405.393483 261.102357 
L 405.557276 263.560128 
L 405.736847 266.017898 
L 405.926415 268.475669 
L 406.122413 270.93344 
L 406.326483 273.39121 
L 406.548919 275.848981 
L 406.812249 278.306752 
L 407.15418 280.764523 
L 407.628353 283.222293 
L 408.300529 285.680064 
L 409.237616 288.137835 
L 410.488219 290.595605 
L 412.056649 293.053376 
L 413.877032 295.511147 
L 415.798344 297.968917 
L 417.591722 300.426688 
L 418.986065 302.884459 
L 419.727273 305.342229 
L 419.644604 307.8 
z
" clip-path="url(#p9aa6031154)" style="fill: #1f77b4; fill-opacity: 0.3"/>
   </g>
   <g id="PolyCollection_6">
    <path d="M 487.165506 307.799479 
L 453.743585 307.799479 
L 453.545455 305.341713 
L 454.318405 302.883948 
L 455.798829 300.426182 
L 457.629317 297.968417 
L 459.4763 295.510652 
L 461.111715 293.052886 
L 462.435669 290.595121 
L 463.449913 288.137355 
L 464.210361 285.67959 
L 464.785306 283.221825 
L 465.232179 280.764059 
L 465.591633 278.306294 
L 465.890817 275.848528 
L 466.148203 273.390763 
L 466.376392 270.932997 
L 466.582963 268.475232 
L 466.770882 266.017467 
L 466.939583 263.559701 
L 467.086822 261.101936 
L 467.210748 258.64417 
L 467.311526 256.186405 
L 467.392157 253.72864 
L 467.458408 251.270874 
L 467.518057 248.813109 
L 467.579756 246.355343 
L 467.651846 243.897578 
L 467.741347 241.439812 
L 467.853116 238.982047 
L 467.989068 236.524282 
L 468.147346 234.066516 
L 468.32167 231.608751 
L 468.501377 229.150985 
L 468.672824 226.69322 
L 468.822384 224.235455 
L 468.940352 221.777689 
L 469.024168 219.319924 
L 469.079181 216.862158 
L 469.116127 214.404393 
L 469.146316 211.946628 
L 469.176879 209.488862 
L 469.208559 207.031097 
L 469.237079 204.573331 
L 469.257136 202.115566 
L 469.266738 199.6578 
L 469.269718 197.200035 
L 469.2754 194.74227 
L 469.295851 192.284504 
L 469.34198 189.826739 
L 469.419962 187.368973 
L 469.529128 184.911208 
L 469.661942 182.453443 
L 469.806047 179.995677 
L 469.947634 177.537912 
L 470.074914 175.080146 
L 470.180455 172.622381 
L 470.261777 170.164615 
L 470.320384 167.70685 
L 470.36006 165.249085 
L 470.38528 162.791319 
L 470.40024 160.333554 
L 470.408507 157.875788 
L 470.413002 155.418023 
L 470.416017 152.960258 
L 470.419146 150.502492 
L 470.423205 148.044727 
L 470.428246 145.586961 
L 470.433754 143.129196 
L 470.43894 140.671431 
L 470.443033 138.213665 
L 470.445456 135.7559 
L 470.445897 133.298134 
L 470.444301 130.840369 
L 470.440873 128.382603 
L 470.436081 125.924838 
L 470.430645 123.467073 
L 470.425418 121.009307 
L 470.421171 118.551542 
L 470.418347 116.093776 
L 470.416915 113.636011 
L 470.416446 111.178246 
L 470.416384 108.72048 
L 470.416389 106.262715 
L 470.416541 103.804949 
L 470.417294 101.347184 
L 470.419197 98.889418 
L 470.422558 96.431653 
L 470.427232 93.973888 
L 470.432635 91.516122 
L 470.437935 89.058357 
L 470.442309 86.600591 
L 470.445121 84.142826 
L 470.446004 81.685061 
L 470.444858 79.227295 
L 470.44185 76.76953 
L 470.437439 74.311764 
L 470.432382 71.853999 
L 470.427665 69.396234 
L 470.424309 66.938468 
L 470.423099 64.480703 
L 470.485992 64.480703 
L 470.485992 64.480703 
L 470.484782 66.938468 
L 470.481426 69.396234 
L 470.476709 71.853999 
L 470.471652 74.311764 
L 470.467241 76.76953 
L 470.464233 79.227295 
L 470.463087 81.685061 
L 470.463969 84.142826 
L 470.466782 86.600591 
L 470.471156 89.058357 
L 470.476456 91.516122 
L 470.481858 93.973888 
L 470.486533 96.431653 
L 470.489894 98.889418 
L 470.491797 101.347184 
L 470.49255 103.804949 
L 470.492702 106.262715 
L 470.492707 108.72048 
L 470.492645 111.178246 
L 470.492176 113.636011 
L 470.490744 116.093776 
L 470.48792 118.551542 
L 470.483673 121.009307 
L 470.478446 123.467073 
L 470.47301 125.924838 
L 470.468218 128.382603 
L 470.46479 130.840369 
L 470.463194 133.298134 
L 470.463635 135.7559 
L 470.466058 138.213665 
L 470.47015 140.671431 
L 470.475337 143.129196 
L 470.480845 145.586961 
L 470.485886 148.044727 
L 470.489945 150.502492 
L 470.493074 152.960258 
L 470.496089 155.418023 
L 470.500584 157.875788 
L 470.508851 160.333554 
L 470.523811 162.791319 
L 470.549031 165.249085 
L 470.588707 167.70685 
L 470.647314 170.164615 
L 470.728636 172.622381 
L 470.834177 175.080146 
L 470.961457 177.537912 
L 471.103044 179.995677 
L 471.247149 182.453443 
L 471.379963 184.911208 
L 471.489129 187.368973 
L 471.567111 189.826739 
L 471.61324 192.284504 
L 471.633691 194.74227 
L 471.639373 197.200035 
L 471.642353 199.6578 
L 471.651955 202.115566 
L 471.672012 204.573331 
L 471.700532 207.031097 
L 471.732212 209.488862 
L 471.762775 211.946628 
L 471.792964 214.404393 
L 471.82991 216.862158 
L 471.884922 219.319924 
L 471.968739 221.777689 
L 472.086707 224.235455 
L 472.236267 226.69322 
L 472.407714 229.150985 
L 472.587421 231.608751 
L 472.761745 234.066516 
L 472.920023 236.524282 
L 473.055975 238.982047 
L 473.167744 241.439812 
L 473.257245 243.897578 
L 473.329335 246.355343 
L 473.391034 248.813109 
L 473.450683 251.270874 
L 473.516934 253.72864 
L 473.597565 256.186405 
L 473.698343 258.64417 
L 473.822269 261.101936 
L 473.969508 263.559701 
L 474.138209 266.017467 
L 474.326127 268.475232 
L 474.532698 270.932997 
L 474.760888 273.390763 
L 475.018274 275.848528 
L 475.317457 278.306294 
L 475.676911 280.764059 
L 476.123785 283.221825 
L 476.69873 285.67959 
L 477.459178 288.137355 
L 478.473422 290.595121 
L 479.797376 293.052886 
L 481.432791 295.510652 
L 483.279774 297.968417 
L 485.110262 300.426182 
L 486.590685 302.883948 
L 487.363636 305.341713 
L 487.165506 307.799479 
z
" clip-path="url(#p9aa6031154)" style="fill: #1f77b4; fill-opacity: 0.3"/>
   </g>
   <g id="PolyCollection_7">
    <path d="M 554.887829 307.799948 
L 521.293989 307.799948 
L 521.181818 305.254494 
L 521.781778 302.70904 
L 522.961553 300.163586 
L 524.523006 297.618132 
L 526.249919 295.072678 
L 527.95223 292.527224 
L 529.494891 289.98177 
L 530.806663 287.436316 
L 531.871579 284.890862 
L 532.710511 282.345408 
L 533.361134 279.799954 
L 533.862406 277.2545 
L 534.24622 274.709046 
L 534.535711 272.163592 
L 534.747801 269.618138 
L 534.897103 267.072684 
L 534.998876 264.52723 
L 535.069813 261.981776 
L 535.126671 259.436322 
L 535.18363 256.890867 
L 535.249748 254.345413 
L 535.327729 251.799959 
L 535.414638 249.254505 
L 535.504407 246.709051 
L 535.591202 244.163597 
L 535.672419 241.618143 
L 535.750221 239.072689 
L 535.831113 236.527235 
L 535.923783 233.981781 
L 536.036069 231.436327 
L 536.172187 228.890873 
L 536.331164 226.345419 
L 536.506967 223.799965 
L 536.690146 221.254511 
L 536.870345 218.709057 
L 537.038779 216.163603 
L 537.189918 213.618149 
L 537.321987 211.072695 
L 537.436342 208.527241 
L 537.536139 205.981787 
L 537.624866 203.436333 
L 537.705198 200.890879 
L 537.778462 198.345425 
L 537.844701 195.799971 
L 537.903158 193.254517 
L 537.952899 190.709063 
L 537.993326 188.163609 
L 538.024447 185.618155 
L 538.046862 183.072701 
L 538.061556 180.527247 
L 538.069601 177.981793 
L 538.0719 175.436339 
L 538.069033 172.890885 
L 538.061261 170.345431 
L 538.048642 167.799977 
L 538.031255 165.254523 
L 538.009428 162.709069 
L 537.983928 160.163615 
L 537.956043 157.618161 
L 537.927535 155.072707 
L 537.900471 152.527253 
L 537.876986 149.981799 
L 537.859013 147.436345 
L 537.848068 144.890891 
L 537.845079 142.345437 
L 537.850301 139.799983 
L 537.863288 137.254529 
L 537.882942 134.709075 
L 537.907616 132.163621 
L 537.935299 129.618167 
L 537.963862 127.072713 
L 537.99132 124.527259 
L 538.01608 121.981804 
L 538.037097 119.43635 
L 538.053923 116.890896 
L 538.066643 114.345442 
L 538.075728 111.799988 
L 538.08186 109.254534 
L 538.085773 106.70908 
L 538.088132 104.163626 
L 538.08947 101.618172 
L 538.090172 99.072718 
L 538.090481 96.527264 
L 538.090523 93.98181 
L 538.090318 91.436356 
L 538.089792 88.890902 
L 538.088768 86.345448 
L 538.086965 83.799994 
L 538.084004 81.25454 
L 538.079441 78.709086 
L 538.072852 76.163632 
L 538.063955 73.618178 
L 538.052768 71.072724 
L 538.039744 68.52727 
L 538.025843 65.981816 
L 538.012468 63.436362 
L 538.001263 60.890908 
L 537.993785 58.345454 
L 537.991156 55.8 
L 538.190662 55.8 
L 538.190662 55.8 
L 538.188033 58.345454 
L 538.180555 60.890908 
L 538.16935 63.436362 
L 538.155975 65.981816 
L 538.142074 68.52727 
L 538.12905 71.072724 
L 538.117863 73.618178 
L 538.108966 76.163632 
L 538.102377 78.709086 
L 538.097814 81.25454 
L 538.094853 83.799994 
L 538.09305 86.345448 
L 538.092026 88.890902 
L 538.0915 91.436356 
L 538.091295 93.98181 
L 538.091337 96.527264 
L 538.091647 99.072718 
L 538.092348 101.618172 
L 538.093686 104.163626 
L 538.096045 106.70908 
L 538.099958 109.254534 
L 538.106091 111.799988 
L 538.115175 114.345442 
L 538.127895 116.890896 
L 538.144721 119.43635 
L 538.165738 121.981804 
L 538.190498 124.527259 
L 538.217956 127.072713 
L 538.246519 129.618167 
L 538.274202 132.163621 
L 538.298876 134.709075 
L 538.31853 137.254529 
L 538.331518 139.799983 
L 538.336739 142.345437 
L 538.33375 144.890891 
L 538.322805 147.436345 
L 538.304833 149.981799 
L 538.281347 152.527253 
L 538.254283 155.072707 
L 538.225775 157.618161 
L 538.19789 160.163615 
L 538.17239 162.709069 
L 538.150563 165.254523 
L 538.133176 167.799977 
L 538.120557 170.345431 
L 538.112785 172.890885 
L 538.109919 175.436339 
L 538.112217 177.981793 
L 538.120262 180.527247 
L 538.134956 183.072701 
L 538.157372 185.618155 
L 538.188492 188.163609 
L 538.228919 190.709063 
L 538.27866 193.254517 
L 538.337117 195.799971 
L 538.403356 198.345425 
L 538.47662 200.890879 
L 538.556952 203.436333 
L 538.645679 205.981787 
L 538.745477 208.527241 
L 538.859831 211.072695 
L 538.9919 213.618149 
L 539.14304 216.163603 
L 539.311473 218.709057 
L 539.491672 221.254511 
L 539.674851 223.799965 
L 539.850654 226.345419 
L 540.009631 228.890873 
L 540.145749 231.436327 
L 540.258035 233.981781 
L 540.350705 236.527235 
L 540.431597 239.072689 
L 540.5094 241.618143 
L 540.590616 244.163597 
L 540.677411 246.709051 
L 540.76718 249.254505 
L 540.85409 251.799959 
L 540.93207 254.345413 
L 540.998188 256.890867 
L 541.055147 259.436322 
L 541.112005 261.981776 
L 541.182942 264.52723 
L 541.284715 267.072684 
L 541.434017 269.618138 
L 541.646107 272.163592 
L 541.935598 274.709046 
L 542.319413 277.2545 
L 542.820684 279.799954 
L 543.471307 282.345408 
L 544.310239 284.890862 
L 545.375155 287.436316 
L 546.686927 289.98177 
L 548.229589 292.527224 
L 549.9319 295.072678 
L 551.658812 297.618132 
L 553.220265 300.163586 
L 554.40004 302.70904 
L 555 305.254494 
L 554.887829 307.799948 
z
" clip-path="url(#p9aa6031154)" style="fill: #1f77b4; fill-opacity: 0.3"/>
   </g>
   <g id="PolyCollection_8">
    <path d="M 622.444753 307.799991 
L 589.009793 307.799991 
L 588.818182 305.254537 
L 589.118528 302.709082 
L 589.856269 300.163628 
L 590.937856 297.618173 
L 592.246279 295.072719 
L 593.658583 292.527265 
L 595.061833 289.98181 
L 596.364872 287.436356 
L 597.5046 284.890901 
L 598.446927 282.345447 
L 599.183588 279.799992 
L 599.726513 277.254538 
L 600.101364 274.709083 
L 600.341449 272.163629 
L 600.482684 269.618174 
L 600.5598 267.07272 
L 600.603715 264.527266 
L 600.639865 261.981811 
L 600.687315 259.436357 
L 600.758543 256.890902 
L 600.859812 254.345448 
L 600.992093 251.799993 
L 601.152382 249.254539 
L 601.335265 246.709084 
L 601.534454 244.16363 
L 601.744061 241.618175 
L 601.959416 239.072721 
L 602.177331 236.527266 
L 602.395872 233.981812 
L 602.613804 231.436358 
L 602.829943 228.890903 
L 603.042647 226.345449 
L 603.249609 223.799994 
L 603.447992 221.25454 
L 603.634845 218.709085 
L 603.807626 216.163631 
L 603.964676 213.618176 
L 604.105507 211.072722 
L 604.230816 208.527267 
L 604.342274 205.981813 
L 604.442155 203.436359 
L 604.532907 200.890904 
L 604.616774 198.34545 
L 604.69553 195.799995 
L 604.770342 193.254541 
L 604.841763 190.709086 
L 604.909835 188.163632 
L 604.974252 185.618177 
L 605.034576 183.072723 
L 605.090444 180.527268 
L 605.141756 177.981814 
L 605.188778 175.43636 
L 605.232164 172.890905 
L 605.272865 170.345451 
L 605.31196 167.799996 
L 605.350437 165.254542 
L 605.388992 162.709087 
L 605.427882 160.163633 
L 605.466881 157.618178 
L 605.505333 155.072724 
L 605.542291 152.527269 
L 605.576696 149.981815 
L 605.607553 147.43636 
L 605.634071 144.890906 
L 605.65573 142.345452 
L 605.672295 139.799997 
L 605.683781 137.254543 
L 605.690384 134.709088 
L 605.692421 132.163634 
L 605.690283 129.618179 
L 605.684415 127.072725 
L 605.675305 124.52727 
L 605.66349 121.981816 
L 605.649548 119.436361 
L 605.634075 116.890907 
L 605.61764 114.345453 
L 605.600739 111.799998 
L 605.583748 109.254544 
L 605.56691 106.709089 
L 605.550353 104.163635 
L 605.534148 101.61818 
L 605.518386 99.072726 
L 605.50326 96.527271 
L 605.489116 93.981817 
L 605.476455 91.436362 
L 605.46589 88.890908 
L 605.458055 86.345453 
L 605.453488 83.799999 
L 605.45253 81.254545 
L 605.455256 78.70909 
L 605.461456 76.163636 
L 605.470684 73.618181 
L 605.48234 71.072727 
L 605.495789 68.527272 
L 605.510461 65.981818 
L 605.525929 63.436363 
L 605.541927 60.890909 
L 605.558323 58.345454 
L 605.575056 55.8 
L 605.87949 55.8 
L 605.87949 55.8 
L 605.896222 58.345454 
L 605.912619 60.890909 
L 605.928617 63.436363 
L 605.944084 65.981818 
L 605.958757 68.527272 
L 605.972205 71.072727 
L 605.983861 73.618181 
L 605.993089 76.163636 
L 605.99929 78.70909 
L 606.002015 81.254545 
L 606.001058 83.799999 
L 605.996491 86.345453 
L 605.988655 88.890908 
L 605.978091 91.436362 
L 605.96543 93.981817 
L 605.951285 96.527271 
L 605.93616 99.072726 
L 605.920398 101.61818 
L 605.904192 104.163635 
L 605.887635 106.709089 
L 605.870797 109.254544 
L 605.853807 111.799998 
L 605.836905 114.345453 
L 605.820471 116.890907 
L 605.804997 119.436361 
L 605.791056 121.981816 
L 605.779241 124.52727 
L 605.770131 127.072725 
L 605.764262 129.618179 
L 605.762125 132.163634 
L 605.764162 134.709088 
L 605.770764 137.254543 
L 605.78225 139.799997 
L 605.798816 142.345452 
L 605.820474 144.890906 
L 605.846992 147.43636 
L 605.87785 149.981815 
L 605.912254 152.527269 
L 605.949212 155.072724 
L 605.987664 157.618178 
L 606.026663 160.163633 
L 606.065553 162.709087 
L 606.104108 165.254542 
L 606.142586 167.799996 
L 606.18168 170.345451 
L 606.222382 172.890905 
L 606.265768 175.43636 
L 606.31279 177.981814 
L 606.364101 180.527268 
L 606.41997 183.072723 
L 606.480293 185.618177 
L 606.54471 188.163632 
L 606.612782 190.709086 
L 606.684204 193.254541 
L 606.759015 195.799995 
L 606.837771 198.34545 
L 606.921638 200.890904 
L 607.01239 203.436359 
L 607.112271 205.981813 
L 607.22373 208.527267 
L 607.349039 211.072722 
L 607.489869 213.618176 
L 607.64692 216.163631 
L 607.8197 218.709085 
L 608.006553 221.25454 
L 608.204937 223.799994 
L 608.411898 226.345449 
L 608.624602 228.890903 
L 608.840741 231.436358 
L 609.058674 233.981812 
L 609.277215 236.527266 
L 609.495129 239.072721 
L 609.710484 241.618175 
L 609.920092 244.16363 
L 610.11928 246.709084 
L 610.302164 249.254539 
L 610.462453 251.799993 
L 610.594733 254.345448 
L 610.696003 256.890902 
L 610.76723 259.436357 
L 610.814681 261.981811 
L 610.850831 264.527266 
L 610.894746 267.07272 
L 610.971862 269.618174 
L 611.113096 272.163629 
L 611.353181 274.709083 
L 611.728032 277.254538 
L 612.270957 279.799992 
L 613.007618 282.345447 
L 613.949945 284.890901 
L 615.089674 287.436356 
L 616.392713 289.98181 
L 617.795963 292.527265 
L 619.208267 295.072719 
L 620.51669 297.618173 
L 621.598277 300.163628 
L 622.336018 302.709082 
L 622.636364 305.254537 
L 622.444753 307.799991 
z
" clip-path="url(#p9aa6031154)" style="fill: #1f77b4; fill-opacity: 0.3"/>
   </g>
   <g id="matplotlib.axis_1">
    <g id="xtick_1">
     <g id="line2d_1">
      <defs>
       <path id="m1d12cec86f" d="M 0 0 
L 0 3.5 
" style="stroke: #000000; stroke-width: 0.8"/>
      </defs>
      <g>
       <use xlink:href="#m1d12cec86f" x="132.272727" y="320.4" style="stroke: #000000; stroke-width: 0.8"/>
      </g>
     </g>
     <g id="text_1">
      <!-- M1 -->
      <g transform="translate(124.777415 334.998438) scale(0.1 -0.1)">
       <defs>
        <path id="DejaVuSans-4d" d="M 628 4666 
L 1569 4666 
L 2759 1491 
L 3956 4666 
L 4897 4666 
L 4897 0 
L 4281 0 
L 4281 4097 
L 3078 897 
L 2444 897 
L 1241 4097 
L 1241 0 
L 628 0 
L 628 4666 
z
" transform="scale(0.015625)"/>
        <path id="DejaVuSans-31" d="M 794 531 
L 1825 531 
L 1825 4091 
L 703 3866 
L 703 4441 
L 1819 4666 
L 2450 4666 
L 2450 531 
L 3481 531 
L 3481 0 
L 794 0 
L 794 531 
z
" transform="scale(0.015625)"/>
       </defs>
       <use xlink:href="#DejaVuSans-4d"/>
       <use xlink:href="#DejaVuSans-31" x="86.279297"/>
      </g>
     </g>
    </g>
    <g id="xtick_2">
     <g id="line2d_2">
      <g>
       <use xlink:href="#m1d12cec86f" x="199.909091" y="320.4" style="stroke: #000000; stroke-width: 0.8"/>
      </g>
     </g>
     <g id="text_2">
      <!-- M2 -->
      <g transform="translate(192.413778 334.998438) scale(0.1 -0.1)">
       <defs>
        <path id="DejaVuSans-32" d="M 1228 531 
L 3431 531 
L 3431 0 
L 469 0 
L 469 531 
Q 828 903 1448 1529 
Q 2069 2156 2228 2338 
Q 2531 2678 2651 2914 
Q 2772 3150 2772 3378 
Q 2772 3750 2511 3984 
Q 2250 4219 1831 4219 
Q 1534 4219 1204 4116 
Q 875 4013 500 3803 
L 500 4441 
Q 881 4594 1212 4672 
Q 1544 4750 1819 4750 
Q 2544 4750 2975 4387 
Q 3406 4025 3406 3419 
Q 3406 3131 3298 2873 
Q 3191 2616 2906 2266 
Q 2828 2175 2409 1742 
Q 1991 1309 1228 531 
z
" transform="scale(0.015625)"/>
       </defs>
       <use xlink:href="#DejaVuSans-4d"/>
       <use xlink:href="#DejaVuSans-32" x="86.279297"/>
      </g>
     </g>
    </g>
    <g id="xtick_3">
     <g id="line2d_3">
      <g>
       <use xlink:href="#m1d12cec86f" x="267.545455" y="320.4" style="stroke: #000000; stroke-width: 0.8"/>
      </g>
     </g>
     <g id="text_3">
      <!-- M3 -->
      <g transform="translate(260.050142 334.998438) scale(0.1 -0.1)">
       <defs>
        <path id="DejaVuSans-33" d="M 2597 2516 
Q 3050 2419 3304 2112 
Q 3559 1806 3559 1356 
Q 3559 666 3084 287 
Q 2609 -91 1734 -91 
Q 1441 -91 1130 -33 
Q 819 25 488 141 
L 488 750 
Q 750 597 1062 519 
Q 1375 441 1716 441 
Q 2309 441 2620 675 
Q 2931 909 2931 1356 
Q 2931 1769 2642 2001 
Q 2353 2234 1838 2234 
L 1294 2234 
L 1294 2753 
L 1863 2753 
Q 2328 2753 2575 2939 
Q 2822 3125 2822 3475 
Q 2822 3834 2567 4026 
Q 2313 4219 1838 4219 
Q 1578 4219 1281 4162 
Q 984 4106 628 3988 
L 628 4550 
Q 988 4650 1302 4700 
Q 1616 4750 1894 4750 
Q 2613 4750 3031 4423 
Q 3450 4097 3450 3541 
Q 3450 3153 3228 2886 
Q 3006 2619 2597 2516 
z
" transform="scale(0.015625)"/>
       </defs>
       <use xlink:href="#DejaVuSans-4d"/>
       <use xlink:href="#DejaVuSans-33" x="86.279297"/>
      </g>
     </g>
    </g>
    <g id="xtick_4">
     <g id="line2d_4">
      <g>
       <use xlink:href="#m1d12cec86f" x="335.181818" y="320.4" style="stroke: #000000; stroke-width: 0.8"/>
      </g>
     </g>
     <g id="text_4">
      <!-- M4 -->
      <g transform="translate(327.686506 334.998438) scale(0.1 -0.1)">
       <defs>
        <path id="DejaVuSans-34" d="M 2419 4116 
L 825 1625 
L 2419 1625 
L 2419 4116 
z
M 2253 4666 
L 3047 4666 
L 3047 1625 
L 3713 1625 
L 3713 1100 
L 3047 1100 
L 3047 0 
L 2419 0 
L 2419 1100 
L 313 1100 
L 313 1709 
L 2253 4666 
z
" transform="scale(0.015625)"/>
       </defs>
       <use xlink:href="#DejaVuSans-4d"/>
       <use xlink:href="#DejaVuSans-34" x="86.279297"/>
      </g>
     </g>
    </g>
    <g id="xtick_5">
     <g id="line2d_5">
      <g>
       <use xlink:href="#m1d12cec86f" x="402.818182" y="320.4" style="stroke: #000000; stroke-width: 0.8"/>
      </g>
     </g>
     <g id="text_5">
      <!-- M5 -->
      <g transform="translate(395.322869 334.998438) scale(0.1 -0.1)">
       <defs>
        <path id="DejaVuSans-35" d="M 691 4666 
L 3169 4666 
L 3169 4134 
L 1269 4134 
L 1269 2991 
Q 1406 3038 1543 3061 
Q 1681 3084 1819 3084 
Q 2600 3084 3056 2656 
Q 3513 2228 3513 1497 
Q 3513 744 3044 326 
Q 2575 -91 1722 -91 
Q 1428 -91 1123 -41 
Q 819 9 494 109 
L 494 744 
Q 775 591 1075 516 
Q 1375 441 1709 441 
Q 2250 441 2565 725 
Q 2881 1009 2881 1497 
Q 2881 1984 2565 2268 
Q 2250 2553 1709 2553 
Q 1456 2553 1204 2497 
Q 953 2441 691 2322 
L 691 4666 
z
" transform="scale(0.015625)"/>
       </defs>
       <use xlink:href="#DejaVuSans-4d"/>
       <use xlink:href="#DejaVuSans-35" x="86.279297"/>
      </g>
     </g>
    </g>
    <g id="xtick_6">
     <g id="line2d_6">
      <g>
       <use xlink:href="#m1d12cec86f" x="470.454545" y="320.4" style="stroke: #000000; stroke-width: 0.8"/>
      </g>
     </g>
     <g id="text_6">
      <!-- M6 -->
      <g transform="translate(462.959233 334.998438) scale(0.1 -0.1)">
       <defs>
        <path id="DejaVuSans-36" d="M 2113 2584 
Q 1688 2584 1439 2293 
Q 1191 2003 1191 1497 
Q 1191 994 1439 701 
Q 1688 409 2113 409 
Q 2538 409 2786 701 
Q 3034 994 3034 1497 
Q 3034 2003 2786 2293 
Q 2538 2584 2113 2584 
z
M 3366 4563 
L 3366 3988 
Q 3128 4100 2886 4159 
Q 2644 4219 2406 4219 
Q 1781 4219 1451 3797 
Q 1122 3375 1075 2522 
Q 1259 2794 1537 2939 
Q 1816 3084 2150 3084 
Q 2853 3084 3261 2657 
Q 3669 2231 3669 1497 
Q 3669 778 3244 343 
Q 2819 -91 2113 -91 
Q 1303 -91 875 529 
Q 447 1150 447 2328 
Q 447 3434 972 4092 
Q 1497 4750 2381 4750 
Q 2619 4750 2861 4703 
Q 3103 4656 3366 4563 
z
" transform="scale(0.015625)"/>
       </defs>
       <use xlink:href="#DejaVuSans-4d"/>
       <use xlink:href="#DejaVuSans-36" x="86.279297"/>
      </g>
     </g>
    </g>
    <g id="xtick_7">
     <g id="line2d_7">
      <g>
       <use xlink:href="#m1d12cec86f" x="538.090909" y="320.4" style="stroke: #000000; stroke-width: 0.8"/>
      </g>
     </g>
     <g id="text_7">
      <!-- M7 -->
      <g transform="translate(530.595597 334.998438) scale(0.1 -0.1)">
       <defs>
        <path id="DejaVuSans-37" d="M 525 4666 
L 3525 4666 
L 3525 4397 
L 1831 0 
L 1172 0 
L 2766 4134 
L 525 4134 
L 525 4666 
z
" transform="scale(0.015625)"/>
       </defs>
       <use xlink:href="#DejaVuSans-4d"/>
       <use xlink:href="#DejaVuSans-37" x="86.279297"/>
      </g>
     </g>
    </g>
    <g id="xtick_8">
     <g id="line2d_8">
      <g>
       <use xlink:href="#m1d12cec86f" x="605.727273" y="320.4" style="stroke: #000000; stroke-width: 0.8"/>
      </g>
     </g>
     <g id="text_8">
      <!-- M8 -->
      <g transform="translate(598.23196 334.998438) scale(0.1 -0.1)">
       <defs>
        <path id="DejaVuSans-38" d="M 2034 2216 
Q 1584 2216 1326 1975 
Q 1069 1734 1069 1313 
Q 1069 891 1326 650 
Q 1584 409 2034 409 
Q 2484 409 2743 651 
Q 3003 894 3003 1313 
Q 3003 1734 2745 1975 
Q 2488 2216 2034 2216 
z
M 1403 2484 
Q 997 2584 770 2862 
Q 544 3141 544 3541 
Q 544 4100 942 4425 
Q 1341 4750 2034 4750 
Q 2731 4750 3128 4425 
Q 3525 4100 3525 3541 
Q 3525 3141 3298 2862 
Q 3072 2584 2669 2484 
Q 3125 2378 3379 2068 
Q 3634 1759 3634 1313 
Q 3634 634 3220 271 
Q 2806 -91 2034 -91 
Q 1263 -91 848 271 
Q 434 634 434 1313 
Q 434 1759 690 2068 
Q 947 2378 1403 2484 
z
M 1172 3481 
Q 1172 3119 1398 2916 
Q 1625 2713 2034 2713 
Q 2441 2713 2670 2916 
Q 2900 3119 2900 3481 
Q 2900 3844 2670 4047 
Q 2441 4250 2034 4250 
Q 1625 4250 1398 4047 
Q 1172 3844 1172 3481 
z
" transform="scale(0.015625)"/>
       </defs>
       <use xlink:href="#DejaVuSans-4d"/>
       <use xlink:href="#DejaVuSans-38" x="86.279297"/>
      </g>
     </g>
    </g>
    <g id="text_9">
     <!-- Mouse Number -->
     <g transform="translate(331.101562 348.676562) scale(0.1 -0.1)">
      <defs>
       <path id="DejaVuSans-6f" d="M 1959 3097 
Q 1497 3097 1228 2736 
Q 959 2375 959 1747 
Q 959 1119 1226 758 
Q 1494 397 1959 397 
Q 2419 397 2687 759 
Q 2956 1122 2956 1747 
Q 2956 2369 2687 2733 
Q 2419 3097 1959 3097 
z
M 1959 3584 
Q 2709 3584 3137 3096 
Q 3566 2609 3566 1747 
Q 3566 888 3137 398 
Q 2709 -91 1959 -91 
Q 1206 -91 779 398 
Q 353 888 353 1747 
Q 353 2609 779 3096 
Q 1206 3584 1959 3584 
z
" transform="scale(0.015625)"/>
       <path id="DejaVuSans-75" d="M 544 1381 
L 544 3500 
L 1119 3500 
L 1119 1403 
Q 1119 906 1312 657 
Q 1506 409 1894 409 
Q 2359 409 2629 706 
Q 2900 1003 2900 1516 
L 2900 3500 
L 3475 3500 
L 3475 0 
L 2900 0 
L 2900 538 
Q 2691 219 2414 64 
Q 2138 -91 1772 -91 
Q 1169 -91 856 284 
Q 544 659 544 1381 
z
M 1991 3584 
L 1991 3584 
z
" transform="scale(0.015625)"/>
       <path id="DejaVuSans-73" d="M 2834 3397 
L 2834 2853 
Q 2591 2978 2328 3040 
Q 2066 3103 1784 3103 
Q 1356 3103 1142 2972 
Q 928 2841 928 2578 
Q 928 2378 1081 2264 
Q 1234 2150 1697 2047 
L 1894 2003 
Q 2506 1872 2764 1633 
Q 3022 1394 3022 966 
Q 3022 478 2636 193 
Q 2250 -91 1575 -91 
Q 1294 -91 989 -36 
Q 684 19 347 128 
L 347 722 
Q 666 556 975 473 
Q 1284 391 1588 391 
Q 1994 391 2212 530 
Q 2431 669 2431 922 
Q 2431 1156 2273 1281 
Q 2116 1406 1581 1522 
L 1381 1569 
Q 847 1681 609 1914 
Q 372 2147 372 2553 
Q 372 3047 722 3315 
Q 1072 3584 1716 3584 
Q 2034 3584 2315 3537 
Q 2597 3491 2834 3397 
z
" transform="scale(0.015625)"/>
       <path id="DejaVuSans-65" d="M 3597 1894 
L 3597 1613 
L 953 1613 
Q 991 1019 1311 708 
Q 1631 397 2203 397 
Q 2534 397 2845 478 
Q 3156 559 3463 722 
L 3463 178 
Q 3153 47 2828 -22 
Q 2503 -91 2169 -91 
Q 1331 -91 842 396 
Q 353 884 353 1716 
Q 353 2575 817 3079 
Q 1281 3584 2069 3584 
Q 2775 3584 3186 3129 
Q 3597 2675 3597 1894 
z
M 3022 2063 
Q 3016 2534 2758 2815 
Q 2500 3097 2075 3097 
Q 1594 3097 1305 2825 
Q 1016 2553 972 2059 
L 3022 2063 
z
" transform="scale(0.015625)"/>
       <path id="DejaVuSans-20" transform="scale(0.015625)"/>
       <path id="DejaVuSans-4e" d="M 628 4666 
L 1478 4666 
L 3547 763 
L 3547 4666 
L 4159 4666 
L 4159 0 
L 3309 0 
L 1241 3903 
L 1241 0 
L 628 0 
L 628 4666 
z
" transform="scale(0.015625)"/>
       <path id="DejaVuSans-6d" d="M 3328 2828 
Q 3544 3216 3844 3400 
Q 4144 3584 4550 3584 
Q 5097 3584 5394 3201 
Q 5691 2819 5691 2113 
L 5691 0 
L 5113 0 
L 5113 2094 
Q 5113 2597 4934 2840 
Q 4756 3084 4391 3084 
Q 3944 3084 3684 2787 
Q 3425 2491 3425 1978 
L 3425 0 
L 2847 0 
L 2847 2094 
Q 2847 2600 2669 2842 
Q 2491 3084 2119 3084 
Q 1678 3084 1418 2786 
Q 1159 2488 1159 1978 
L 1159 0 
L 581 0 
L 581 3500 
L 1159 3500 
L 1159 2956 
Q 1356 3278 1631 3431 
Q 1906 3584 2284 3584 
Q 2666 3584 2933 3390 
Q 3200 3197 3328 2828 
z
" transform="scale(0.015625)"/>
       <path id="DejaVuSans-62" d="M 3116 1747 
Q 3116 2381 2855 2742 
Q 2594 3103 2138 3103 
Q 1681 3103 1420 2742 
Q 1159 2381 1159 1747 
Q 1159 1113 1420 752 
Q 1681 391 2138 391 
Q 2594 391 2855 752 
Q 3116 1113 3116 1747 
z
M 1159 2969 
Q 1341 3281 1617 3432 
Q 1894 3584 2278 3584 
Q 2916 3584 3314 3078 
Q 3713 2572 3713 1747 
Q 3713 922 3314 415 
Q 2916 -91 2278 -91 
Q 1894 -91 1617 61 
Q 1341 213 1159 525 
L 1159 0 
L 581 0 
L 581 4863 
L 1159 4863 
L 1159 2969 
z
" transform="scale(0.015625)"/>
       <path id="DejaVuSans-72" d="M 2631 2963 
Q 2534 3019 2420 3045 
Q 2306 3072 2169 3072 
Q 1681 3072 1420 2755 
Q 1159 2438 1159 1844 
L 1159 0 
L 581 0 
L 581 3500 
L 1159 3500 
L 1159 2956 
Q 1341 3275 1631 3429 
Q 1922 3584 2338 3584 
Q 2397 3584 2469 3576 
Q 2541 3569 2628 3553 
L 2631 2963 
z
" transform="scale(0.015625)"/>
      </defs>
      <use xlink:href="#DejaVuSans-4d"/>
      <use xlink:href="#DejaVuSans-6f" x="86.279297"/>
      <use xlink:href="#DejaVuSans-75" x="147.460938"/>
      <use xlink:href="#DejaVuSans-73" x="210.839844"/>
      <use xlink:href="#DejaVuSans-65" x="262.939453"/>
      <use xlink:href="#DejaVuSans-20" x="324.462891"/>
      <use xlink:href="#DejaVuSans-4e" x="356.25"/>
      <use xlink:href="#DejaVuSans-75" x="431.054688"/>
      <use xlink:href="#DejaVuSans-6d" x="494.433594"/>
      <use xlink:href="#DejaVuSans-62" x="591.845703"/>
      <use xlink:href="#DejaVuSans-65" x="655.322266"/>
      <use xlink:href="#DejaVuSans-72" x="716.845703"/>
     </g>
    </g>
   </g>
   <g id="matplotlib.axis_2">
    <g id="ytick_1">
     <g id="line2d_9">
      <defs>
       <path id="m88563c0bf4" d="M 0 0 
L -3.5 0 
" style="stroke: #000000; stroke-width: 0.8"/>
      </defs>
      <g>
       <use xlink:href="#m88563c0bf4" x="90" y="316.481763" style="stroke: #000000; stroke-width: 0.8"/>
      </g>
     </g>
     <g id="text_10">
      <!-- 0 -->
      <g transform="translate(76.6375 320.280982) scale(0.1 -0.1)">
       <defs>
        <path id="DejaVuSans-30" d="M 2034 4250 
Q 1547 4250 1301 3770 
Q 1056 3291 1056 2328 
Q 1056 1369 1301 889 
Q 1547 409 2034 409 
Q 2525 409 2770 889 
Q 3016 1369 3016 2328 
Q 3016 3291 2770 3770 
Q 2525 4250 2034 4250 
z
M 2034 4750 
Q 2819 4750 3233 4129 
Q 3647 3509 3647 2328 
Q 3647 1150 3233 529 
Q 2819 -91 2034 -91 
Q 1250 -91 836 529 
Q 422 1150 422 2328 
Q 422 3509 836 4129 
Q 1250 4750 2034 4750 
z
" transform="scale(0.015625)"/>
       </defs>
       <use xlink:href="#DejaVuSans-30"/>
      </g>
     </g>
    </g>
    <g id="ytick_2">
     <g id="line2d_10">
      <g>
       <use xlink:href="#m88563c0bf4" x="90" y="273.034802" style="stroke: #000000; stroke-width: 0.8"/>
      </g>
     </g>
     <g id="text_11">
      <!-- 5 -->
      <g transform="translate(76.6375 276.834021) scale(0.1 -0.1)">
       <use xlink:href="#DejaVuSans-35"/>
      </g>
     </g>
    </g>
    <g id="ytick_3">
     <g id="line2d_11">
      <g>
       <use xlink:href="#m88563c0bf4" x="90" y="229.587842" style="stroke: #000000; stroke-width: 0.8"/>
      </g>
     </g>
     <g id="text_12">
      <!-- 10 -->
      <g transform="translate(70.275 233.387061) scale(0.1 -0.1)">
       <use xlink:href="#DejaVuSans-31"/>
       <use xlink:href="#DejaVuSans-30" x="63.623047"/>
      </g>
     </g>
    </g>
    <g id="ytick_4">
     <g id="line2d_12">
      <g>
       <use xlink:href="#m88563c0bf4" x="90" y="186.140881" style="stroke: #000000; stroke-width: 0.8"/>
      </g>
     </g>
     <g id="text_13">
      <!-- 15 -->
      <g transform="translate(70.275 189.9401) scale(0.1 -0.1)">
       <use xlink:href="#DejaVuSans-31"/>
       <use xlink:href="#DejaVuSans-35" x="63.623047"/>
      </g>
     </g>
    </g>
    <g id="ytick_5">
     <g id="line2d_13">
      <g>
       <use xlink:href="#m88563c0bf4" x="90" y="142.693921" style="stroke: #000000; stroke-width: 0.8"/>
      </g>
     </g>
     <g id="text_14">
      <!-- 20 -->
      <g transform="translate(70.275 146.49314) scale(0.1 -0.1)">
       <use xlink:href="#DejaVuSans-32"/>
       <use xlink:href="#DejaVuSans-30" x="63.623047"/>
      </g>
     </g>
    </g>
    <g id="ytick_6">
     <g id="line2d_14">
      <g>
       <use xlink:href="#m88563c0bf4" x="90" y="99.24696" style="stroke: #000000; stroke-width: 0.8"/>
      </g>
     </g>
     <g id="text_15">
      <!-- 25 -->
      <g transform="translate(70.275 103.046179) scale(0.1 -0.1)">
       <use xlink:href="#DejaVuSans-32"/>
       <use xlink:href="#DejaVuSans-35" x="63.623047"/>
      </g>
     </g>
    </g>
    <g id="ytick_7">
     <g id="line2d_15">
      <g>
       <use xlink:href="#m88563c0bf4" x="90" y="55.8" style="stroke: #000000; stroke-width: 0.8"/>
      </g>
     </g>
     <g id="text_16">
      <!-- 30 -->
      <g transform="translate(70.275 59.599219) scale(0.1 -0.1)">
       <use xlink:href="#DejaVuSans-33"/>
       <use xlink:href="#DejaVuSans-30" x="63.623047"/>
      </g>
     </g>
    </g>
    <g id="text_17">
     <!-- Tim Until Break in Seconds -->
     <g transform="translate(64.195312 248.853906) rotate(-90) scale(0.1 -0.1)">
      <defs>
       <path id="DejaVuSans-54" d="M -19 4666 
L 3928 4666 
L 3928 4134 
L 2272 4134 
L 2272 0 
L 1638 0 
L 1638 4134 
L -19 4134 
L -19 4666 
z
" transform="scale(0.015625)"/>
       <path id="DejaVuSans-69" d="M 603 3500 
L 1178 3500 
L 1178 0 
L 603 0 
L 603 3500 
z
M 603 4863 
L 1178 4863 
L 1178 4134 
L 603 4134 
L 603 4863 
z
" transform="scale(0.015625)"/>
       <path id="DejaVuSans-55" d="M 556 4666 
L 1191 4666 
L 1191 1831 
Q 1191 1081 1462 751 
Q 1734 422 2344 422 
Q 2950 422 3222 751 
Q 3494 1081 3494 1831 
L 3494 4666 
L 4128 4666 
L 4128 1753 
Q 4128 841 3676 375 
Q 3225 -91 2344 -91 
Q 1459 -91 1007 375 
Q 556 841 556 1753 
L 556 4666 
z
" transform="scale(0.015625)"/>
       <path id="DejaVuSans-6e" d="M 3513 2113 
L 3513 0 
L 2938 0 
L 2938 2094 
Q 2938 2591 2744 2837 
Q 2550 3084 2163 3084 
Q 1697 3084 1428 2787 
Q 1159 2491 1159 1978 
L 1159 0 
L 581 0 
L 581 3500 
L 1159 3500 
L 1159 2956 
Q 1366 3272 1645 3428 
Q 1925 3584 2291 3584 
Q 2894 3584 3203 3211 
Q 3513 2838 3513 2113 
z
" transform="scale(0.015625)"/>
       <path id="DejaVuSans-74" d="M 1172 4494 
L 1172 3500 
L 2356 3500 
L 2356 3053 
L 1172 3053 
L 1172 1153 
Q 1172 725 1289 603 
Q 1406 481 1766 481 
L 2356 481 
L 2356 0 
L 1766 0 
Q 1100 0 847 248 
Q 594 497 594 1153 
L 594 3053 
L 172 3053 
L 172 3500 
L 594 3500 
L 594 4494 
L 1172 4494 
z
" transform="scale(0.015625)"/>
       <path id="DejaVuSans-6c" d="M 603 4863 
L 1178 4863 
L 1178 0 
L 603 0 
L 603 4863 
z
" transform="scale(0.015625)"/>
       <path id="DejaVuSans-42" d="M 1259 2228 
L 1259 519 
L 2272 519 
Q 2781 519 3026 730 
Q 3272 941 3272 1375 
Q 3272 1813 3026 2020 
Q 2781 2228 2272 2228 
L 1259 2228 
z
M 1259 4147 
L 1259 2741 
L 2194 2741 
Q 2656 2741 2882 2914 
Q 3109 3088 3109 3444 
Q 3109 3797 2882 3972 
Q 2656 4147 2194 4147 
L 1259 4147 
z
M 628 4666 
L 2241 4666 
Q 2963 4666 3353 4366 
Q 3744 4066 3744 3513 
Q 3744 3084 3544 2831 
Q 3344 2578 2956 2516 
Q 3422 2416 3680 2098 
Q 3938 1781 3938 1306 
Q 3938 681 3513 340 
Q 3088 0 2303 0 
L 628 0 
L 628 4666 
z
" transform="scale(0.015625)"/>
       <path id="DejaVuSans-61" d="M 2194 1759 
Q 1497 1759 1228 1600 
Q 959 1441 959 1056 
Q 959 750 1161 570 
Q 1363 391 1709 391 
Q 2188 391 2477 730 
Q 2766 1069 2766 1631 
L 2766 1759 
L 2194 1759 
z
M 3341 1997 
L 3341 0 
L 2766 0 
L 2766 531 
Q 2569 213 2275 61 
Q 1981 -91 1556 -91 
Q 1019 -91 701 211 
Q 384 513 384 1019 
Q 384 1609 779 1909 
Q 1175 2209 1959 2209 
L 2766 2209 
L 2766 2266 
Q 2766 2663 2505 2880 
Q 2244 3097 1772 3097 
Q 1472 3097 1187 3025 
Q 903 2953 641 2809 
L 641 3341 
Q 956 3463 1253 3523 
Q 1550 3584 1831 3584 
Q 2591 3584 2966 3190 
Q 3341 2797 3341 1997 
z
" transform="scale(0.015625)"/>
       <path id="DejaVuSans-6b" d="M 581 4863 
L 1159 4863 
L 1159 1991 
L 2875 3500 
L 3609 3500 
L 1753 1863 
L 3688 0 
L 2938 0 
L 1159 1709 
L 1159 0 
L 581 0 
L 581 4863 
z
" transform="scale(0.015625)"/>
       <path id="DejaVuSans-53" d="M 3425 4513 
L 3425 3897 
Q 3066 4069 2747 4153 
Q 2428 4238 2131 4238 
Q 1616 4238 1336 4038 
Q 1056 3838 1056 3469 
Q 1056 3159 1242 3001 
Q 1428 2844 1947 2747 
L 2328 2669 
Q 3034 2534 3370 2195 
Q 3706 1856 3706 1288 
Q 3706 609 3251 259 
Q 2797 -91 1919 -91 
Q 1588 -91 1214 -16 
Q 841 59 441 206 
L 441 856 
Q 825 641 1194 531 
Q 1563 422 1919 422 
Q 2459 422 2753 634 
Q 3047 847 3047 1241 
Q 3047 1584 2836 1778 
Q 2625 1972 2144 2069 
L 1759 2144 
Q 1053 2284 737 2584 
Q 422 2884 422 3419 
Q 422 4038 858 4394 
Q 1294 4750 2059 4750 
Q 2388 4750 2728 4690 
Q 3069 4631 3425 4513 
z
" transform="scale(0.015625)"/>
       <path id="DejaVuSans-63" d="M 3122 3366 
L 3122 2828 
Q 2878 2963 2633 3030 
Q 2388 3097 2138 3097 
Q 1578 3097 1268 2742 
Q 959 2388 959 1747 
Q 959 1106 1268 751 
Q 1578 397 2138 397 
Q 2388 397 2633 464 
Q 2878 531 3122 666 
L 3122 134 
Q 2881 22 2623 -34 
Q 2366 -91 2075 -91 
Q 1284 -91 818 406 
Q 353 903 353 1747 
Q 353 2603 823 3093 
Q 1294 3584 2113 3584 
Q 2378 3584 2631 3529 
Q 2884 3475 3122 3366 
z
" transform="scale(0.015625)"/>
       <path id="DejaVuSans-64" d="M 2906 2969 
L 2906 4863 
L 3481 4863 
L 3481 0 
L 2906 0 
L 2906 525 
Q 2725 213 2448 61 
Q 2172 -91 1784 -91 
Q 1150 -91 751 415 
Q 353 922 353 1747 
Q 353 2572 751 3078 
Q 1150 3584 1784 3584 
Q 2172 3584 2448 3432 
Q 2725 3281 2906 2969 
z
M 947 1747 
Q 947 1113 1208 752 
Q 1469 391 1925 391 
Q 2381 391 2643 752 
Q 2906 1113 2906 1747 
Q 2906 2381 2643 2742 
Q 2381 3103 1925 3103 
Q 1469 3103 1208 2742 
Q 947 2381 947 1747 
z
" transform="scale(0.015625)"/>
      </defs>
      <use xlink:href="#DejaVuSans-54"/>
      <use xlink:href="#DejaVuSans-69" x="57.958984"/>
      <use xlink:href="#DejaVuSans-6d" x="85.742188"/>
      <use xlink:href="#DejaVuSans-20" x="183.154297"/>
      <use xlink:href="#DejaVuSans-55" x="214.941406"/>
      <use xlink:href="#DejaVuSans-6e" x="288.134766"/>
      <use xlink:href="#DejaVuSans-74" x="351.513672"/>
      <use xlink:href="#DejaVuSans-69" x="390.722656"/>
      <use xlink:href="#DejaVuSans-6c" x="418.505859"/>
      <use xlink:href="#DejaVuSans-20" x="446.289062"/>
      <use xlink:href="#DejaVuSans-42" x="478.076172"/>
      <use xlink:href="#DejaVuSans-72" x="546.679688"/>
      <use xlink:href="#DejaVuSans-65" x="585.542969"/>
      <use xlink:href="#DejaVuSans-61" x="647.066406"/>
      <use xlink:href="#DejaVuSans-6b" x="708.345703"/>
      <use xlink:href="#DejaVuSans-20" x="766.255859"/>
      <use xlink:href="#DejaVuSans-69" x="798.042969"/>
      <use xlink:href="#DejaVuSans-6e" x="825.826172"/>
      <use xlink:href="#DejaVuSans-20" x="889.205078"/>
      <use xlink:href="#DejaVuSans-53" x="920.992188"/>
      <use xlink:href="#DejaVuSans-65" x="984.46875"/>
      <use xlink:href="#DejaVuSans-63" x="1045.992188"/>
      <use xlink:href="#DejaVuSans-6f" x="1100.972656"/>
      <use xlink:href="#DejaVuSans-6e" x="1162.154297"/>
      <use xlink:href="#DejaVuSans-64" x="1225.533203"/>
      <use xlink:href="#DejaVuSans-73" x="1289.009766"/>
     </g>
    </g>
   </g>
   <g id="LineCollection_1">
    <path d="M 123.818182 294.169542 
L 140.727273 294.169542 
" clip-path="url(#p9aa6031154)" style="fill: none; stroke: #1f77b4; stroke-width: 1.5"/>
    <path d="M 191.454545 295.655036 
L 208.363636 295.655036 
" clip-path="url(#p9aa6031154)" style="fill: none; stroke: #1f77b4; stroke-width: 1.5"/>
    <path d="M 259.090909 284.492373 
L 276 284.492373 
" clip-path="url(#p9aa6031154)" style="fill: none; stroke: #1f77b4; stroke-width: 1.5"/>
    <path d="M 326.727273 281.86644 
L 343.636364 281.86644 
" clip-path="url(#p9aa6031154)" style="fill: none; stroke: #1f77b4; stroke-width: 1.5"/>
    <path d="M 394.363636 283.818306 
L 411.272727 283.818306 
" clip-path="url(#p9aa6031154)" style="fill: none; stroke: #1f77b4; stroke-width: 1.5"/>
    <path d="M 462 282.513281 
L 478.909091 282.513281 
" clip-path="url(#p9aa6031154)" style="fill: none; stroke: #1f77b4; stroke-width: 1.5"/>
    <path d="M 529.636364 288.357269 
L 546.545455 288.357269 
" clip-path="url(#p9aa6031154)" style="fill: none; stroke: #1f77b4; stroke-width: 1.5"/>
    <path d="M 597.272727 280.681338 
L 614.181818 280.681338 
" clip-path="url(#p9aa6031154)" style="fill: none; stroke: #1f77b4; stroke-width: 1.5"/>
   </g>
   <g id="LineCollection_2">
    <path d="M 123.818182 203.519527 
L 140.727273 203.519527 
" clip-path="url(#p9aa6031154)" style="fill: none; stroke: #1f77b4; stroke-width: 1.5"/>
    <path d="M 191.454545 186.140725 
L 208.363636 186.140725 
" clip-path="url(#p9aa6031154)" style="fill: none; stroke: #1f77b4; stroke-width: 1.5"/>
    <path d="M 259.090909 229.587425 
L 276 229.587425 
" clip-path="url(#p9aa6031154)" style="fill: none; stroke: #1f77b4; stroke-width: 1.5"/>
    <path d="M 326.727273 220.90064 
L 343.636364 220.90064 
" clip-path="url(#p9aa6031154)" style="fill: none; stroke: #1f77b4; stroke-width: 1.5"/>
    <path d="M 394.363636 64.480703 
L 411.272727 64.480703 
" clip-path="url(#p9aa6031154)" style="fill: none; stroke: #1f77b4; stroke-width: 1.5"/>
    <path d="M 462 64.480703 
L 478.909091 64.480703 
" clip-path="url(#p9aa6031154)" style="fill: none; stroke: #1f77b4; stroke-width: 1.5"/>
    <path d="M 529.636364 55.8 
L 546.545455 55.8 
" clip-path="url(#p9aa6031154)" style="fill: none; stroke: #1f77b4; stroke-width: 1.5"/>
    <path d="M 597.272727 55.8 
L 614.181818 55.8 
" clip-path="url(#p9aa6031154)" style="fill: none; stroke: #1f77b4; stroke-width: 1.5"/>
   </g>
   <g id="LineCollection_3">
    <path d="M 123.818182 307.799852 
L 140.727273 307.799852 
" clip-path="url(#p9aa6031154)" style="fill: none; stroke: #1f77b4; stroke-width: 1.5"/>
    <path d="M 191.454545 307.798983 
L 208.363636 307.798983 
" clip-path="url(#p9aa6031154)" style="fill: none; stroke: #1f77b4; stroke-width: 1.5"/>
    <path d="M 259.090909 307.792353 
L 276 307.792353 
" clip-path="url(#p9aa6031154)" style="fill: none; stroke: #1f77b4; stroke-width: 1.5"/>
    <path d="M 326.727273 307.792345 
L 343.636364 307.792345 
" clip-path="url(#p9aa6031154)" style="fill: none; stroke: #1f77b4; stroke-width: 1.5"/>
    <path d="M 394.363636 307.8 
L 411.272727 307.8 
" clip-path="url(#p9aa6031154)" style="fill: none; stroke: #1f77b4; stroke-width: 1.5"/>
    <path d="M 462 307.799479 
L 478.909091 307.799479 
" clip-path="url(#p9aa6031154)" style="fill: none; stroke: #1f77b4; stroke-width: 1.5"/>
    <path d="M 529.636364 307.799948 
L 546.545455 307.799948 
" clip-path="url(#p9aa6031154)" style="fill: none; stroke: #1f77b4; stroke-width: 1.5"/>
    <path d="M 597.272727 307.799991 
L 614.181818 307.799991 
" clip-path="url(#p9aa6031154)" style="fill: none; stroke: #1f77b4; stroke-width: 1.5"/>
   </g>
   <g id="LineCollection_4">
    <path d="M 132.272727 307.799852 
L 132.272727 203.519527 
" clip-path="url(#p9aa6031154)" style="fill: none; stroke: #1f77b4; stroke-width: 1.5"/>
    <path d="M 199.909091 307.798983 
L 199.909091 186.140725 
" clip-path="url(#p9aa6031154)" style="fill: none; stroke: #1f77b4; stroke-width: 1.5"/>
    <path d="M 267.545455 307.792353 
L 267.545455 229.587425 
" clip-path="url(#p9aa6031154)" style="fill: none; stroke: #1f77b4; stroke-width: 1.5"/>
    <path d="M 335.181818 307.792345 
L 335.181818 220.90064 
" clip-path="url(#p9aa6031154)" style="fill: none; stroke: #1f77b4; stroke-width: 1.5"/>
    <path d="M 402.818182 307.8 
L 402.818182 64.480703 
" clip-path="url(#p9aa6031154)" style="fill: none; stroke: #1f77b4; stroke-width: 1.5"/>
    <path d="M 470.454545 307.799479 
L 470.454545 64.480703 
" clip-path="url(#p9aa6031154)" style="fill: none; stroke: #1f77b4; stroke-width: 1.5"/>
    <path d="M 538.090909 307.799948 
L 538.090909 55.8 
" clip-path="url(#p9aa6031154)" style="fill: none; stroke: #1f77b4; stroke-width: 1.5"/>
    <path d="M 605.727273 307.799991 
L 605.727273 55.8 
" clip-path="url(#p9aa6031154)" style="fill: none; stroke: #1f77b4; stroke-width: 1.5"/>
   </g>
   <g id="patch_3">
    <path d="M 90 320.4 
L 90 43.2 
" style="fill: none; stroke: #000000; stroke-width: 0.8; stroke-linejoin: miter; stroke-linecap: square"/>
   </g>
   <g id="patch_4">
    <path d="M 648 320.4 
L 648 43.2 
" style="fill: none; stroke: #000000; stroke-width: 0.8; stroke-linejoin: miter; stroke-linecap: square"/>
   </g>
   <g id="patch_5">
    <path d="M 90 320.4 
L 648 320.4 
" style="fill: none; stroke: #000000; stroke-width: 0.8; stroke-linejoin: miter; stroke-linecap: square"/>
   </g>
   <g id="patch_6">
    <path d="M 90 43.2 
L 648 43.2 
" style="fill: none; stroke: #000000; stroke-width: 0.8; stroke-linejoin: miter; stroke-linecap: square"/>
   </g>
   <g id="text_18">
    <!-- Break Times -->
    <g transform="translate(331.995938 37.2) scale(0.12 -0.12)">
     <use xlink:href="#DejaVuSans-42"/>
     <use xlink:href="#DejaVuSans-72" x="68.603516"/>
     <use xlink:href="#DejaVuSans-65" x="107.466797"/>
     <use xlink:href="#DejaVuSans-61" x="168.990234"/>
     <use xlink:href="#DejaVuSans-6b" x="230.269531"/>
     <use xlink:href="#DejaVuSans-20" x="288.179688"/>
     <use xlink:href="#DejaVuSans-54" x="319.966797"/>
     <use xlink:href="#DejaVuSans-69" x="377.925781"/>
     <use xlink:href="#DejaVuSans-6d" x="405.708984"/>
     <use xlink:href="#DejaVuSans-65" x="503.121094"/>
     <use xlink:href="#DejaVuSans-73" x="564.644531"/>
    </g>
   </g>
  </g>
 </g>
 <defs>
  <clipPath id="p9aa6031154">
   <rect x="90" y="43.2" width="558" height="277.2"/>
  </clipPath>
 </defs>
</svg>
